<svg version="1.1" id="Layer_1" xmlns="http://www.w3.org/2000/svg" xmlns:xlink="http://www.w3.org/1999/xlink" x="0px" y="0px"
	 viewBox="0 0 512 512" style="enable-background:new 0 0 512 512;" xml:space="preserve">
<path var:color.fill="#000" d="M322.7,128.4l100.3,105c6,5.8,9,13.7,9,22.4c0,8.7-3,16.5-9,22.4L322.7,383.6c-11.9,12.5-31.3,12.5-43.2,0
	c-11.9-12.5-11.9-32.7,0-45.2l48.2-50.4h-217c-17,0-30.7-14.3-30.7-32c0-17.7,13.7-32,30.6-32h217l-48.2-50.4
	c-11.9-12.5-11.9-32.7,0-45.2C291.4,115.9,310.7,115.9,322.7,128.4z"/>
</svg>
