<svg version="1.1" id="Layer_1" xmlns="http://www.w3.org/2000/svg" xmlns:xlink="http://www.w3.org/1999/xlink" x="0px" y="0px"
	 viewBox="0 0 512 512" style="enable-background:new 0 0 512 512;" xml:space="preserve">
<path var:color.fill="#000" d="M189.3,383.6L89,278.6c-6-5.8-9-13.7-9-22.4c0-8.7,3-16.5,9-22.4l100.3-105.4c11.9-12.5,31.3-12.5,43.2,0
	c11.9,12.5,11.9,32.7,0,45.2L184.3,224h217c17,0,30.7,14.3,30.7,32c0,17.7-13.7,32-30.6,32h-217l48.2,50.4
	c11.9,12.5,11.9,32.7,0,45.2C220.6,396.1,201.3,396.1,189.3,383.6z"/>
</svg>
