<svg version="1.1" id="Layer_1" xmlns="http://www.w3.org/2000/svg" xmlns:xlink="http://www.w3.org/1999/xlink" x="0px" y="0px"
	 viewBox="0 0 512 512" style="enable-background:new 0 0 512 512;" xml:space="preserve">
<path var:color.fill="#000" d="M128.4,189.3L233.4,89c5.8-6,13.7-9,22.4-9c8.7,0,16.5,3,22.4,9l105.4,100.3c12.5,11.9,12.5,31.3,0,43.2
	c-12.5,11.9-32.7,11.9-45.2,0L288,184.3v217c0,17-14.3,30.7-32,30.7s-32-13.7-32-30.6v-217l-50.4,48.2c-12.5,11.9-32.7,11.9-45.2,0
	C115.9,220.6,115.9,201.3,128.4,189.3z"/>
</svg>
