<svg version="1.1" id="Layer_1" xmlns:serif="http://www.serif.com/"
	 xmlns="http://www.w3.org/2000/svg" xmlns:xlink="http://www.w3.org/1999/xlink" x="0px" y="0px" viewBox="0 0 765.3 501.1"
	 style="enable-background:new 0 0 765.3 501.1;" xml:space="preserve">
<path var:color.fill="#000" d="M391.6,431.8c-0.1,0.1-0.2,0.2-0.3,0.4C391.4,432,391.5,431.9,391.6,431.8z M391.3,432.2
	C391.3,432.2,391.3,432.2,391.3,432.2C391.3,432.2,391.3,432.2,391.3,432.2C391.3,432.2,391.3,432.2,391.3,432.2z M568.8,88.6
	L568.8,88.6v-0.1V88.6z M756,258.9c0.1,0.5,0.3,1,0.4,1.6C756.4,259.9,756.2,259.4,756,258.9z M754.2,267.2
	C754.2,267.2,754.2,267.2,754.2,267.2C754.2,267.2,754.2,267.2,754.2,267.2c3-3,3.1-7.8,0.2-10.8l-27.1-27.9l-10.6-10.9
	c2.6,8.9,4.6,18.4,6.1,28.3l19.3,19.9l0,0c1.5,5.7,2.8,11.7,3.9,17.9l16,16.4c1.2,1.2,1.9,2.8,2.1,4.3c-1.4-15.8-3.9-30.4-7.6-44
	C756.9,262.8,756.1,265.4,754.2,267.2z M86,179.7V83.2c0-4.3,3.4-7.7,7.6-7.7l119.8-0.2c34.6,0,60.1,22.6,60.7,53.7
	c0.3,15.7-5.4,30.2-16,41c-11,11.2-26.6,17.4-43.8,17.4H93.6C89.3,187.4,85.9,184,86,179.7z M214.2,172c13.1,0,24.7-4.6,32.9-12.8
	c7.2-7.3,11.3-17.1,11.6-27.8c-0.8-0.1-1.7-0.1-2.5-0.1c-0.7,0-1.4-0.1-2.1-0.1c-0.1,0-0.1,0-0.2,0l-28.3,0.1
	c-0.3,0-0.6,0.1-0.9,0.1c-0.1,0-0.3,0-0.4,0s-0.3,0-0.4,0c-0.3,0-0.6-0.1-0.9-0.1l-81.3,0.1v34.2c0,0.1,0.1,0.2,0.1,0.3
	c0.3,1.2,0.3,2.5,0,3.8v2.3H214.2z M203.1,90.8l24.5,25.3l2.2,2.3c3,3,2.9,7.7,0,10.7c0,0,0,0,0,0c3-2.9,3.1-7.8,0.1-10.8l-2.2-2.3
	h19.1l11.9,12.3c0,0,0-0.1,0-0.1l-11.9-12.3l-23.9-24.5c0,0-0.1,0-0.1,0c-3-0.5-6.2-0.8-9.4-0.6H203.1z M158,90.8l24.6,25.3l1,1.1
	l-1-1.2h23.6l-24.5-25.2h-0.1H158z M114.3,90.8l24.6,25.3h22.2l11.5,11.8l-11.4-11.8l-24.6-25.3h-0.2H114.3z M101.2,167.8l4.1,4.2
	h0.1h21.2v-1.3l-25.3-26v-22l25.2,25.9v-23.3l2.4,2.5c0,0,0,0,0,0l-2.3-2.4l-25.3-26v-8.6h-0.1v8.6v23.1v22v23.2V167.8z
	 M284.9,306.3c0.4,20-6.7,38.8-19.4,51.7c-11.6,11.7-26.6,17.9-43.6,17.9v0.2H93.6c-4.3,0-7.7-3.5-7.7-7.7v-118
	c0-4.3,3.4-7.7,7.6-7.7l127.3-0.3C257.3,242.4,284.3,269.3,284.9,306.3z M200.2,258l24.4,25.1l0.3,0.3h23.4l12.6,13
	c0.9,0.9,2.1,1.6,3.3,2c1.1,0.1,2.2,0.1,3.2,0.2c0.4-0.1,0.9-0.2,1.3-0.3c0-0.1,0-0.3-0.1-0.4c-0.8,0.3-1.6,0.4-2.3,0.4
	c-2,0-4-0.8-5.5-2.3l-12.6-13l-24.2-24.9c-0.1,0-0.3,0-0.4,0c-1-0.1-1.9-0.1-2.9-0.1H200.2z M254.6,347.2c9.8-10,15.3-24.7,15-40.6
	c-0.1-2.7-0.3-5.3-0.6-7.6c-2.4-0.3-4.9-0.5-7.5-0.5l-39.4,0.1c-0.2,0-0.5,0-0.8,0c-0.2,0-0.4,0-0.6,0l-78.8,0.1v61.9h80
	C234.7,360.6,246,356,254.6,347.2z M156.6,258l24.5,25.2l0.2,0.2h21.9l12.6,12.9c1.1,1.1,2.4,1.8,3.8,2.1l3.5,0c1.3-0.3,2.6-1,3.6-2
	c1.6-1.5,2.3-3.5,2.3-5.6c-0.1,1.9-0.8,3.8-2.3,5.3c-1.5,1.5-3.5,2.2-5.4,2.2c-2,0-4-0.8-5.5-2.3l-12.6-12.9L178.8,258h-0.3H156.6z
	 M112.9,258l24.7,25.3l0.1,0.1h22l12.5,12.8c1.5,1.5,3.5,2.3,5.5,2.3s3.9-0.7,5.4-2.2c1.5-1.5,2.3-3.5,2.3-5.5
	c0,1.9-0.8,3.8-2.3,5.3c-1.5,1.5-3.5,2.2-5.4,2.2c-2,0-4-0.8-5.5-2.3l-12.5-12.8L135.2,258H135H112.9z M138.3,326.9
	c1.3,2.8,0.7,6.3-1.6,8.7c-1.4,1.5-3.4,2.2-5.3,2.2c-1.8,0-3.5-0.5-4.9-1.7c-0.2-0.2-0.4-0.4-0.7-0.6l-24.6-25.3v21.7
	c0.3,0.2,0.6,0.4,0.9,0.7l24.4,25.1v-21.5c1.4,1.1,3.2,1.7,4.9,1.7c1.9,0,3.8-0.8,5.3-2.2C139.2,333.4,139.7,329.8,138.3,326.9z
	 M139.9,296.5c-1.5,1.5-3.5,2.2-5.4,2.2c-2,0-4-0.8-5.5-2.3l-2.5-2.6l-25.3-25.9v0.1v20.9v0c0.9,0.3,1.6,0.9,2.3,1.6l23,23.6V294
	l2.4,2.5c1.5,1.5,3.5,2.3,5.5,2.3S138.3,298.1,139.9,296.5C139.8,296.6,139.8,296.6,139.9,296.5z M765.3,346.3
	c-0.2,4.1-3.6,7.4-7.7,7.4h-0.8c1.8-0.1,3.6-0.8,5-2.2c3-2.9,3.1-7.8,0.1-10.8l-0.4-0.4l0.3,0.3c3,3,2.9,7.9-0.1,10.7
	c-1.4,1.4-3.2,2.1-5,2.2c-0.2,0-0.3,0-0.4,0s-0.2,0-0.3,0c-1.8-0.1-3.7-0.8-5.1-2.3l-12.7-13l-24.9-25.5h-17.7h-21.4H658h-21.4
	h-19.2h-21.5h-19.1h-21.4h-17.8h-21.4H500h-10.9c0.6,4.8,1.5,9.2,2.5,13.5c3.5,14.3,9.5,25.8,17.9,34.2c1.6,1.7,3.4,3.2,5.2,4.6
	c-1-5.5-1.8-11.3-2.3-17.4l4.7,4.8c1.5,1.5,3.5,2.3,5.5,2.3c0,0,0,0,0.1,0c-2,0-4-0.8-5.5-2.3l-4.7-4.8l-20.8-21.3
	c-1.1-4.3-1.9-8.7-2.5-13.5H500l24.9,25.5H541l12.2,12.6c0.6,0.6,1.3,1.1,2,1.5c-0.7-0.4-1.3-0.8-1.8-1.4L541,338.3l-24.9-25.5h21.5
	l24.8,25.4H580l12.7,13c0,0,0,0,0,0l-12.6-12.9l-24.8-25.5h21.5l24.7,25.4h19.1l3.9,4c0,0,0.1,0,0.1,0l-3.8-3.9l-24.9-25.5h21.5
	l24.8,25.4h19.1l0.1,0.1l-24.9-25.5H658l24.8,25.4H699l0.1,0.1l-24.8-25.4h21.3l24.9,25.5l3.4,3.5c1.5,1.5,2.2,3.4,2.2,5.4
	c0-2-0.7-4-2.2-5.5l-3.4-3.5h17.7l12.7,13c1.4,1.5,3.2,2.2,5.1,2.3h-28l30.8,31.2c2,1.9,2.7,4.8,1.9,7.5
	c-3.7,12.5-8.5,23.9-14.2,34.2c1.1-2.7,0.6-5.9-1.6-8.2l-7.4-7.7c2.7-5.8,5.1-11.9,7.2-18.4l-27.5-28c-2.3,6.2-4.9,12-7.8,17.6
	c0,0,0,0,0,0.1l28,28.8l7.4,7.7c2.1,2.3,2.7,5.5,1.5,8.1c-0.2,0.5-0.5,1-0.8,1.5c-0.2,0.4-0.6,0.8-0.9,1.1c-1.4,1.5-3.4,2.2-5.3,2.2
	c-2,0-4-0.8-5.5-2.3l-4.1-4.2l-28.4-29.2c-3.1,4.7-6.4,9.2-10,13.3c0,0-0.1,0.1-0.1,0.1l28.8,29.5c3.5-4.3,6.7-8.8,9.7-13.6l4.1,4.2
	c1.5,1.5,3.5,2.3,5.5,2.3c1.9,0,3.8-0.7,5.4-2.1c0.3-0.4,0.6-0.7,0.9-1.1c-5.4,9.5-11.8,18.1-19,25.9c-0.1,0.1-0.1,0.2-0.2,0.3
	c-0.2,0.3-0.5,0.6-0.8,0.9c-0.2,0.2-0.4,0.3-0.6,0.5c-0.1,0.1-0.2,0.1-0.3,0.2c-7.5,7.6-15.9,14.4-25.2,20.1
	c-0.1,0.1-0.2,0.2-0.3,0.3c-0.6,0.5-1.2,0.8-1.9,1.1c-0.9,0.4-1.9,0.6-2.9,0.6c-2,0-4-0.8-5.5-2.3l-7-7.1l-28.6-29.3
	c-4.8,2.5-9.8,4.9-14.9,7c-5.2,2.1-10.5,3.9-16.1,5.5c-6.2,1.8-12.6,3.3-19.2,4.5c-6.1,1.1-12.4,2-18.9,2.6
	c-5.8,0.6-11.9,0.9-18.1,1.1c-1.7,0-3.3,0.1-4.9,0.1c-5.8,0-11.5-0.2-17.1-0.6c-6.3-0.4-12.5-1.1-18.5-2.1c-9.7-1.5-19-3.7-27.9-6.6
	c-2.1-0.7-4.3-1.4-6.4-2.2c0.2,0.1,0.3,0.2,0.4,0.3c4.8,4.3,10,8.2,15.5,11.8l-9.5-9.7c8.9,2.8,18.2,5,27.9,6.6l20.4,20.9l1.4,1.4
	c1.5,1.5,2.2,3.4,2.2,5.4c0-2-0.7-4-2.2-5.5l-1.4-1.4c6.7,1.9,13.6,3.5,20.9,4.7l-22.8-23.4c5.6,0.4,11.3,0.6,17.1,0.6
	c1.7,0,3.3-0.1,4.9-0.1l24.8,25.4l2.1,2.1c1.7,1.7,2.4,4,2.1,6.2c0,0,0,0.1,0,0.1c0,0,0-0.1,0-0.1c0.3-2.2-0.4-4.6-2.1-6.3l-2.1-2.1
	c3.1,0.1,6.3,0.2,9.5,0.2c3.3,0,6.5-0.2,9.6-0.3l11.3,11.6c0.6,0.6,1.3,1.1,2,1.5c-0.7-0.4-1.3-0.8-1.8-1.4l-11.4-11.7l-25.8-26.4
	c6.5-0.6,12.8-1.5,18.9-2.6l26.6,27.3c7-0.9,13.5-2.1,19.9-3.6l9,9.2l-9-9.2L622.2,452c5.6-1.6,11-3.4,16.1-5.5l28.1,28.8l0,0
	c5.3-2,10.5-4.1,15.4-6.5l7,7.1c1.5,1.5,3.5,2.3,5.5,2.4c1,0,2-0.2,2.9-0.6c-9.1,5.3-18.9,9.8-29.6,13.3c0.2-0.1,0.4-0.2,0.5-0.3
	c0.3-0.2,0.6-0.4,0.8-0.6c-0.3,0.2-0.6,0.4-0.8,0.6c-0.1,0.1-0.3,0.2-0.4,0.2c-0.7,0.3-1.4,0.6-2.1,0.7c-0.2,0-0.4,0.1-0.5,0.1
	c-11.2,3.6-23.4,6-36.3,7.6c0,0,0,0-0.1,0c-0.6,0.1-1.1,0.2-1.7,0.2c-0.3,0-0.5,0-0.8,0c-8.2,0.9-16.8,1.4-25.7,1.5
	c-3.9,0-7.7-0.1-11.5-0.3c-0.5,0.1-1,0.2-1.5,0.2h-0.1c-0.4,0-0.7-0.1-1-0.1c-0.3,0-0.5-0.1-0.8-0.2c-16-0.9-31.2-3.6-45.2-7.8
	c0,0,0,0,0,0s0,0,0,0c-0.5,0-1-0.2-1.5-0.4c-0.4-0.2-0.7-0.3-1-0.5c-21.5-6.8-40.5-17.4-56.4-31.5c-0.6-0.5-1.8-1.6-1.8-1.6
	c-0.2-0.1-0.3-0.2-0.4-0.3l-40.5-41.9c-1-1-2.1-2.1-3.1-3.1c-1.9-1.9-3.7-3.8-5.5-5.8c-6.4-7.3-12.1-15.3-17.1-23.9
	c-0.9,3.7-1.9,7.4-3.1,11.1c0,0.4,0,0.8,0,1.2c-0.1,0.7-0.4,1.4-0.7,2.1c0,0.1-0.1,0.1-0.1,0.2c-4,11.4-9.5,22.1-16.4,31.9
	c1.5-2.9,1.1-6.5-1.3-9l-6.7-6.9c3.3-5.6,6.2-11.5,8.6-17.7l3.4,3.5c1.5,1.5,3.5,2.3,5.5,2.3c1.5,0,3-0.4,4.3-1.3c0,0,0,0,0,0
	c0,0,0,0,0,0c-1.3,0.8-2.8,1.2-4.2,1.2c-2,0-4-0.8-5.5-2.3l-3.4-3.5l-28.7-29.4c2.2-5.2,4.2-10.5,5.8-16l27.7,28.5
	c1.4-6,2.3-12.4,2.7-18.8l2.1,2.2c0-0.1-0.1-0.2-0.1-0.3l-1.9-2l-26.7-27.3c0,0,0,0.1,0,0.1c-0.9,6-2.2,11.9-3.9,17.7
	c-1.6,5.5-3.5,10.8-5.8,16c-2.7,6-5.7,11.7-9.2,17.1l29.2,30l6.7,6.9c2.4,2.5,2.8,6.1,1.3,8.8c-0.3,0.5-0.7,1-1.1,1.5
	c-0.1,0.2-0.2,0.3-0.3,0.4c-1.5,1.5-3.5,2.2-5.4,2.2c-2,0-4-0.8-5.5-2.3l-4.6-4.7L346.4,397c0,0,0,0,0,0.1c-4.1,4.9-8.5,9.6-13.4,14
	c-0.3,0.3-0.7,0.7-1.1,1l29.3,30.2c0.7-0.6,1.5-1.2,2.2-1.9c4.5-4.1,8.6-8.4,12.4-13.1l4.6,4.7c1.5,1.5,3.5,2.3,5.5,2.3
	c1.9,0,3.9-0.7,5.4-2.1c-5.2,6.9-11.1,13.5-17.7,19.5c-2.6,2.3-5.2,4.6-8,6.7c0.1-0.1,0.2-0.2,0.3-0.3c3.1-2.9,3.2-7.8,0.2-10.8
	c2.9,3,2.8,7.9-0.1,10.6c-0.1,0.1-0.2,0.2-0.3,0.3c-0.3,0.3-0.7,0.6-1,0.8c-1.3,0.8-2.7,1.2-4.1,1.2c-2,0-4-0.8-5.5-2.3l-6.2-6.4
	l-29.1-29.9c0,0,0,0,0,0c-5,3.4-10.2,6.6-15.6,9.4l28.6,29.5l3.8,3.9c2.9,3,2.9,7.9-0.1,10.8c3.1-2.9,3.2-7.8,0.2-10.8l-3.8-3.9
	c5.6-2.6,10.9-5.6,16-8.9l6.2,6.4c1.5,1.5,3.5,2.3,5.5,2.3c1.5,0,2.9-0.4,4.1-1.2c-8.9,6.7-18.8,12.5-29.5,17.1c0,0,0,0,0,0
	c-0.6,0.4-1.4,0.7-2.1,0.9c-0.6,0.1-1.3,0.2-1.9,0.2c-2,0-4-0.8-5.5-2.3l-8.2-8.4l-28.1-28.9l0,0c-6.1,2.4-12.5,4.5-19,6.2
	c0,0-0.1,0-0.1,0l27.3,28c6.8-1.3,13.4-3.1,19.8-5.2l8.2,8.4c1.5,1.5,3.5,2.3,5.6,2.2c0.6,0,1.3,0,1.9-0.2
	c-11.2,4.7-23.1,8.2-35.5,10.4c-0.1,0-0.2,0.1-0.4,0.1c-0.6,0.2-1.2,0.3-1.9,0.3c-0.2,0-0.3,0-0.4,0c0,0-0.1,0-0.1,0
	c-10,1.6-20.4,2.5-31,2.5h-6.5c0,0,0,0,0,0c-0.1,0-0.2,0-0.3,0c-0.1,0-0.3,0-0.4,0c-1.9-0.1-3.7-0.9-5.1-2.3l-12.7-13l-24.7-25.3
	H214h-21.4l24.6,25.3h21.6l12.6,13c1.4,1.4,3.2,2.2,5.1,2.3h-42.2h-0.1c-0.1,0-0.2,0-0.3,0c-0.1,0-0.3,0-0.4,0
	c-1.8-0.1-3.7-0.9-5.1-2.3l-12.6-13l-24.6-25.3h-0.1h-20.7l24.7,25.3h20.6l12.6,13c1.4,1.4,3.2,2.2,5.1,2.3h-41.1h-0.2
	c-0.1,0-0.1,0-0.2,0c-0.1,0-0.3,0-0.4,0h-41.3h-0.1c-0.1,0-0.2,0-0.3,0c-0.1,0-0.3,0-0.4,0c-0.3,0-0.6-0.1-0.9-0.1H90.1
	c-0.3,0-0.6,0.1-0.9,0.1c-0.1,0-0.3,0-0.4,0c-0.1,0-0.3,0-0.4,0c-1.8-0.1-3.6-0.8-5-2.2l-13.2-13.1l-25.5-25.3H26.2l25.3,25.3h18.7
	l13.2,13.1c1.4,1.4,3.2,2.1,5,2.2H48.3c-2,0-4-0.8-5.4-2.2L2.3,447.6c-0.2-0.2-0.4-0.5-0.6-0.7c-0.1,0-0.1-0.1-0.1-0.1
	c-0.1-0.2-0.3-0.4-0.4-0.6l-0.1-0.1c-0.1-0.2-0.2-0.4-0.3-0.6c-0.1-0.1-0.1-0.1-0.1-0.2c-0.1-0.2-0.2-0.4-0.3-0.6
	c-0.1,0-0.1,0-0.1-0.1c-0.1-0.2-0.1-0.4-0.2-0.6v-0.1c0-0.2-0.1-0.5-0.1-0.7v-0.1c0-0.2,0-0.5,0-0.7v-0.1c0-0.1,0-0.1,0-0.1V7.7
	C0,3.4,3.4,0,7.7,0h230.9c28.1,0,58.3,11.1,81,29.8c4,3.2,8.1,7,12.1,11.4l31,31.3l1.5,1.3c10.4,9.3,22,22.9,29.6,41.6
	c-0.2-0.4-0.5-0.8-0.9-1.2l-40.7-41.8c0,0.1,0,0.1,0.1,0.2l40.4,41.5c0.3,0.4,0.6,0.8,0.9,1.2c0.6,0.9,0.9,1.9,1.1,2.9
	c0.4,2.4-0.3,5-2.2,6.8c-1.4,1.5-3.4,2.2-5.3,2.2c-2,0-4-0.8-5.5-2.3l0.1,0.1c1.5,1.5,3.5,2.3,5.5,2.3c1.9,0,3.8-0.8,5.3-2.2
	c1.9-1.9,2.7-4.4,2.4-6.8c4.5,11.9,7.3,25.6,7.3,41.5c0,1.4-0.1,2.8-0.1,4.2c-0.1-1.9-0.8-3.7-2.2-5.1l-14.2-14.5
	c-1.1-7.6-2.9-14.5-5.3-20.8l-0.1-0.1l-19.9-20.4c0.6,5.1,1,10.4,1,16c0,0.1,0,0.2,0,0.3c0,0,0,0.1,0,0.1l24.2,24.8l14.1,14.5
	c1.4,1.4,2.1,3.3,2.2,5.1c0.1,0.4,0,0.8,0,1.2c0,0.2-0.1,0.4-0.1,0.6c-0.5,13.5-2.9,25.8-7.1,37c-0.2,0.6-0.4,1.2-0.7,1.7
	c-6.6,16.5-17.5,30.6-32.7,42.3c9.5,9.5,19,19.1,20.2,20.2c2.7,2.6,5.2,5.2,7.6,8c1.6-49.1,17-90.5,44.8-120.2
	c14.6-15.5,32.2-27.5,52.4-35.6L457.1,86c-0.1,0-0.1-0.1-0.1-0.1c-0.2-0.2-0.3-0.5-0.5-0.7c-0.2-0.3-0.4-0.5-0.5-0.8
	c0-0.1-0.1-0.1-0.1-0.2c-0.1-0.3-0.2-0.5-0.3-0.7c-0.1-0.1-0.1-0.1-0.1-0.2c-0.1-0.2-0.1-0.5-0.2-0.7v-0.1c0-0.3-0.1-0.6-0.1-0.9
	v-0.1c0-0.2,0-0.4,0-0.6V28.1c0-4.3,3.5-7.7,7.7-7.7h187.6h0.1c0.3,0,0.6,0.1,0.9,0.1c0.1,0,0.1,0,0.2,0c0.3,0.1,0.6,0.1,0.9,0.2
	h0.1c0.3,0,0.6,0.2,0.9,0.3c0,0.1,0.1,0.1,0.1,0.1c0.2,0.1,0.5,0.3,0.7,0.4c0.1,0,0.1,0.1,0.2,0.1c0.3,0.2,0.6,0.4,0.8,0.6l0.1,0.1
	c0.2,0.2,0.4,0.4,0.6,0.6l0.1,0.1l34.7,39.1c1.2,1.4,1.9,3.2,1.9,5.1v50.7c-0.1-1.9-0.8-3.7-2.2-5.1l-13.1-13.5V70.1l-19.3-21.8v31
	v0.3l19.2,19.7l13.1,13.5c1.4,1.4,2.1,3.3,2.2,5.1c0,0.2,0,0.4,0,0.6c-0.1,1.9-0.8,3.7-2.2,5.1c0,0,0,0,0,0c1.5-1.4,2.2-3.3,2.3-5.2
	v1.5c0,4.3-3.5,7.7-7.7,7.7h-35.5h0c-0.1,0-0.1,0-0.2,0c-2.2-1.3-4.5-2.5-6.9-3.7l-11.4-11.6l-23.2-23.8h21.4l23.2,23.8h16
	l-23.1-23.7h5c3,0,5.6-1.7,6.8-4.2c-1.3,2.4-3.9,4-6.7,4h-5h-16.2h-21.4h-17.7h-21.4H551h-21.4h-16.2H492h-12.1l21.1,23.8h5.9
	c2.1-0.6,4.4-1.1,6.6-1.6L492,88.5h21.4l18.5,19c0.1,0,0.1,0,0.2,0c4.9-0.6,9.8-1,14.9-1.2l-17.4-17.8c0,0,21.4,0,21.4,0l17.4,17.9
	c0,0,0.1,0,0.1,0c6.7,0.3,13.1,0.9,19.4,1.7c0,0,0,0,0,0l-19-19.5h21.3l23.1,23.7H631l11.4,11.6c2.3,1.2,4.6,2.4,6.9,3.7
	c10.7,6,20.3,13.3,28.9,21.9c0.2,0.2,0.5,0.5,0.8,0.8l0.3,0.3c0.2,0.2,0.3,0.3,0.4,0.4c0.4,0.4,0.8,0.9,1.2,1.3l31.7,33.4
	c0.5,0.4,1.6,1.4,2.2,2c19.2,18.1,33,42,41.2,71.2c-0.4-0.9-0.9-1.7-1.6-2.5l-27.1-27.9c-3.9-7-8.3-13.4-13.2-19.3
	c0.9,2.8,1.8,5.6,2.6,8.4c2.5,8.9,4.6,18.4,6.1,28.3c0.7,5.1,1.4,10.5,1.9,15.9c0,0,0,0.1,0,0.1l21.3,21.8l16,16.5
	c1.2,1.2,1.9,2.7,2.1,4.3c0.1,0.2,0.1,0.5,0.1,0.7C765.2,318.1,765.6,331.8,765.3,346.3z M656.6,122.2c-0.2,0.6-0.4,1.2-0.8,1.7
	C656.1,123.4,656.4,122.8,656.6,122.2z M656.9,119.5c0-0.3-0.1-0.6-0.1-0.9C656.8,118.9,656.9,119.2,656.9,119.5z M470.6,73.2h172.2
	V35.7H470.6V73.2z M219.4,477.4c1.8,1.9,2.5,4.4,2,6.8C221.9,481.8,221.2,479.2,219.4,477.4z M300.5,474.9c3,3,2.9,7.9-0.3,10.9
	c-0.6,0.6-1.3,1.1-2.1,1.4c0.8-0.3,1.6-0.8,2.3-1.5C303.4,482.8,303.5,477.9,300.5,474.9z M349.3,172.7c-2.8,5.3-6.1,10.4-9.9,15.1
	c-3.2,4-6.7,7.7-10.5,11.3c-3.6,3.4-7.5,6.6-11.7,9.6c11.1,6.2,20.8,13.8,28.9,22.6c1.3,1.3,2.8,2.9,4.4,4.5
	c2.7-2.1,5.3-4.2,7.7-6.4l4.6,4.7c1.5,1.5,3.5,2.3,5.5,2.3c0.8,0,1.5-0.1,2.3-0.4c-0.7,0.2-1.4,0.3-2.1,0.3c-2,0-4-0.8-5.5-2.3
	l-4.6-4.7L329,199.1c3.8-3.6,7.3-7.3,10.4-11.3l29.3,30.1c3.7-4.8,6.8-9.9,9.4-15.3l3.5,3.6c1.5,1.5,3.5,2.3,5.5,2.3
	c1.3,0,2.6-0.3,3.7-0.9c-1.1,0.6-2.3,0.8-3.5,0.8c-2,0-4-0.8-5.5-2.3l-3.5-3.6l-29-29.7c2.6-4.9,4.7-10,6.5-15.3l28,28.6
	c1.4-5.9,2.3-12.2,2.6-18.8l2.3,2.4c1.5,1.5,3.5,2.3,5.5,2.3s3.9-0.7,5.4-2.2c0,0,0,0,0,0c-1.5,1.5-3.5,2.1-5.3,2.1
	c-2,0-4-0.8-5.5-2.3l-2.3-2.4L360,139.9c-1,6.2-2.4,11.9-4.2,17.5C354,162.7,351.9,167.8,349.3,172.7z M126.5,489.6
	c-0.8-0.4-1.5-0.9-2.2-1.5l-12.7-13l-24.7-25.3H66.6h-0.1L92,475.1l0,0h19.5l12.6,12.9C124.8,488.7,125.6,489.3,126.5,489.6z
	 M135.2,477.4c1.8,1.9,2.5,4.4,2.1,6.8C137.7,481.8,137,479.2,135.2,477.4z M168.1,489.4c0.8,0.5,1.7,0.8,2.7,0.9
	C169.9,490.2,169,489.9,168.1,489.4z M129,449.8L129,449.8h-20.6h-0.1l24.7,25.3h20.7L129,449.8z M223.3,449.8c-0.1,0-0.1,0-0.2,0
	h0.1C223.2,449.8,223.3,449.8,223.3,449.8z M264.5,481.5c-0.2-1.5-0.9-3-2.1-4.1C263.6,478.6,264.2,480,264.5,481.5z M252.4,447.6
	c-5.7,0.8-11.4,1.4-17.3,1.8c-0.1,0-0.2,0-0.3,0c0.1,0,0.3,0,0.4,0l25,25.7h3.6c5,0,9.9-0.2,14.8-0.6l0,0L252.4,447.6z M304.2,431
	c-4.7,2.4-9.7,4.7-14.7,6.7C294.5,435.7,299.4,433.5,304.2,431z M331.9,412.1c-3.8,3.4-7.9,6.5-12.1,9.5
	C324,418.7,328.1,415.5,331.9,412.1z M360.7,311.8c0-43.6-22.6-78.3-62-95.2c-2.6-1.2-4.4-3.7-4.6-6.6c-0.2-2.9,1.3-5.6,3.8-7.1
	c32.9-19.1,48.2-45.7,48.2-83.8c0-70.8-64.1-103.8-107.5-103.8H15.3v419.2h207.8c39.4,0,74.7-12.4,99.6-34.8
	C347.3,377.6,360.8,346.4,360.7,311.8z M669.5,489.6c-0.1,0.1-0.1,0.1-0.2,0.2c-0.1,0.1-0.2,0.2-0.3,0.2c0.1-0.1,0.2-0.2,0.3-0.2
	C669.4,489.7,669.4,489.7,669.5,489.6C669.5,489.6,669.5,489.6,669.5,489.6z M541.9,492.9L541.9,492.9
	C541.9,492.9,541.9,492.9,541.9,492.9C541.9,492.9,541.9,492.9,541.9,492.9z M393.7,331.2c-1.2-5.9-2.2-12-3-18.3c0-0.1,0-0.2,0-0.3
	l-15.4-15.7c-1.1-10-3.3-19.5-6.5-28.4l-0.2-0.2c3.3,9,5.5,18.6,6.6,28.7c0.5,4.8,0.8,9.8,0.8,14.8c0,0.5,0,0.9,0,1.4c0,0,0,0,0,0
	L393.7,331.2z M407.7,400.3c-0.1,0.1-0.2,0.2-0.3,0.3c-0.1,0.1-0.2,0.2-0.3,0.3c0.1-0.1,0.2-0.2,0.3-0.3
	C407.5,400.4,407.6,400.4,407.7,400.3C407.7,400.3,407.7,400.3,407.7,400.3z M699.8,465.1c1.8,1.9,2.5,4.4,2.1,6.8
	C702.3,469.5,701.6,466.9,699.8,465.1z M727.9,449.9c0,0.7-0.1,1.3-0.3,2C727.8,451.3,727.9,450.6,727.9,449.9z M680.6,420.1
	c0.1-0.1,0.2-0.2,0.3-0.3C680.8,419.9,680.8,419.9,680.6,420.1c-4.3,4-8.9,7.7-13.8,11.1c0,0,0,0-0.1,0l28.8,29.5
	c4.9-3.3,9.6-7,13.9-11l5.3,5.4c1.1,1.1,2.4,1.8,3.8,2.1c-1.3-0.3-2.6-1-3.7-2.1l-5.3-5.4L680.6,420.1z M721.6,349.9
	c0,0.6-0.1,1.2-0.3,1.7c-0.3,1-0.6,1.9-0.9,2.9c0,0,0,0,0,0c0.3-1,0.6-1.8,0.9-2.8C721.5,351.1,721.6,350.5,721.6,349.9z
	 M528.3,353.5c1,7.6,2.5,14.6,4.6,20.9c0,0,0.1,0,0.1,0c8.4,2.8,17.9,4.2,28.5,4.2c29.2,0,46.9-11.9,55-25c0,0,0-0.1,0.1-0.1h-17
	c-0.3,0-0.6,0.1-0.9,0.1c-0.1,0-0.3,0-0.4,0c-0.1,0-0.3,0-0.4,0c-0.3,0-0.6-0.1-0.9-0.1H528.3z M668.8,161.6
	c-25.8-26.6-63.5-40.1-112.1-40.1c-46.2,0-84.7,15-111.4,43.5c-26.3,28-40.4,68-40.8,115.7c-0.4,52.2,13.8,93.3,42.3,122.1
	c27.3,27.6,66.9,42.2,114.4,42.2c74.4-0.9,121.1-29.7,142.3-88h-71c-11.2,22.9-37.8,36.9-70.7,36.9c-26.7,0-47.8-7.6-62.9-22.7
	c-15-15-23.7-37-25.7-65.6c-0.2-2.2,0.6-4.2,2-5.8c1.4-1.5,3.5-2.4,5.6-2.4h230C711.6,236.9,697.5,191.3,668.8,161.6z M725.9,305.3
	c-0.2,4.1-3.6,7.4-7.7,7.4C722.4,312.7,725.8,309.4,725.9,305.3z M750,328.4c-0.1-6.8-0.4-13.2-0.9-19.5L726,285.2
	c0.1,6.1,0.1,12.2-0.1,18.5v0L750,328.4z M761.9,311c-1.5,1.5-3.5,2.2-5.4,2.2C758.5,313.2,760.4,312.5,761.9,311z M674.2,312.9
	L674.2,312.9v-0.1V312.9z M638.4,249c0.2,2.2-0.4,4.4-1.9,6c-1.4,1.7-3.5,2.6-5.7,2.6H483.7c-2.1,0-4.2-0.9-5.6-2.5
	c-1.5-1.6-2.2-3.7-2-5.8c1.7-20.6,10-39.6,23.3-53.3c14.8-15.4,35-23.5,58.2-23.5C604.1,172.5,632.8,199.7,638.4,249z M565.1,188.3
	c-2.4-0.2-4.9-0.3-7.4-0.3c-4.6,0-9,0.4-13.2,1.1c0,0,0,0,0,0l27.1,27.8l8.8,9.1c1.5,1.5,3.5,2.3,5.5,2.3c1.9,0,3.9-0.7,5.4-2.2
	c1.5-1.5,2.2-3.4,2.3-5.3c0-1.9-0.7-3.8-2.2-5.3l-1.6-1.6c0.1,0,0.1,0,0.2,0l-0.2-0.2L565.1,188.3z M526.7,194.9
	c-4.8,2.4-9.1,5.4-12.9,8.8c0,0,0,0,0,0l28.7,29.4l5,5.1c1.5,1.5,3.5,2.3,5.5,2.3c1.9,0,3.9-0.7,5.4-2.2c1.5-1.5,2.2-3.4,2.3-5.3
	c0-1.9-0.7-3.8-2.2-5.3l-3.4-3.5c0,0,0.1,0,0.1-0.1l-0.1-0.1L526.7,194.9z M495.9,230.2c-0.2,0.5-0.4,1-0.6,1.6l10.3,10.6h21.3
	L502.4,217c0,0,0,0,0,0.1c-0.3,0.5-0.7,1-1,1.6c-0.2,0.3-0.4,0.6-0.5,0.9c-0.2,0.4-0.4,0.8-0.7,1.1c-1.2,2.2-2.3,4.4-3.3,6.7
	c-0.2,0.5-0.4,1-0.6,1.6C496.2,229.4,496,229.8,495.9,230.2z"/>
</svg>
