<svg version="1.1" id="Lager_1" xmlns="http://www.w3.org/2000/svg" xmlns:xlink="http://www.w3.org/1999/xlink" x="0px" y="0px"
	 viewBox="0 0 64 64" style="enable-background:new 0 0 64 64;" xml:space="preserve">
<path var:color.fill="#000" d="M53.6,22.3h-7.4c0-8.2-4.5-8.2-14.1-8.2c-9.5,0-13.5,0-13.5,8.2h-8c-0.8,0-1.5,0.8-1.5,1.7v4.1c0,0.4,0.4,0.8,0.8,0.8h44.4
	c0.4,0,0.8-0.4,0.8-0.8V24C55.1,23.1,54.4,22.3,53.6,22.3z M23.4,22.3c0-5.6,3.4-4.3,8.7-4.3s9.3-1.3,9.3,4.3H23.4z M55,32.2v18
	c0,0.9-0.7,1.6-1.5,1.6H10.6c-0.8,0-1.5-0.7-1.5-1.6v-18c0-0.9,0.7-1.6,1.6-1.6H25c0.2,0,0.4,0.2,0.4,0.4v2.5c0,0.2,0.2,0.4,0.4,0.4
	H38c0.2,0,0.4-0.2,0.4-0.4V31c0-0.2,0.2-0.4,0.4-0.4h14.7C54.4,30.6,55.1,31.3,55,32.2z"/>
</svg>
