<?xml version="1.0" encoding="utf-8"?>
<!-- Generator: Adobe Illustrator 27.5.0, SVG Export Plug-In . SVG Version: 6.00 Build 0)  -->
<svg version="1.1" id="Layer_1" xmlns="http://www.w3.org/2000/svg" xmlns:xlink="http://www.w3.org/1999/xlink" x="0px" y="0px"
	 viewBox="0 0 100 100" enable-background="new 0 0 100 100" xml:space="preserve">
<path var:color.fill="#000" d="M4.6,24.5c0.5-0.5,1-1.2,1.6-1.5c1-0.4,1.9,0,2.6,0.8c3.9,4.3,7.9,8.5,11.8,12.8C30.3,47,39.9,57.4,49.6,67.9
	c0.2,0.2,0.3,0.4,0.6,0.8c0.3-0.4,0.4-0.7,0.7-1C64.1,53.3,77.4,39,90.6,24.6c0.3-0.3,0.6-0.7,0.9-1c1.3-1.3,3-1.1,3.9,0.5
	c0.1,0.1,0.1,0.2,0.2,0.3c0,0.4,0,0.7,0,1.1c-0.4,0.5-0.7,1.1-1.1,1.6c-14,15.2-28,30.3-41.9,45.5c-1.9,2-3.2,1.9-5,0
	c-13.9-15.2-28-30.4-42-45.5c-0.4-0.4-0.7-1-1.1-1.5C4.6,25.2,4.6,24.8,4.6,24.5z"/>
</svg>
