<?xml version="1.0" encoding="utf-8"?>
<!-- Generator: Adobe Illustrator 27.5.0, SVG Export Plug-In . SVG Version: 6.00 Build 0)  -->
<svg version="1.1" id="Layer_1" xmlns="http://www.w3.org/2000/svg" xmlns:xlink="http://www.w3.org/1999/xlink" x="0px" y="0px"
	 viewBox="0 0 100 100" enable-background="new 0 0 100 100" xml:space="preserve">
<path var:color.fill="#000" d="M95.6,72.4c-0.5,0.5-0.9,1.2-1.5,1.5c-1,0.5-1.9,0-2.7-0.8c-4-4.3-7.9-8.6-11.9-12.9C69.9,49.8,60.3,39.4,50.7,29
	c-0.2-0.2-0.4-0.4-0.8-0.8c-0.2,0.3-0.3,0.6-0.6,0.9C36.1,43.5,22.8,57.9,9.6,72.3c-0.3,0.3-0.6,0.6-0.8,0.9c-1.3,1.3-3,1.1-3.9-0.5
	c-0.1-0.1-0.1-0.2-0.2-0.3c0-0.4,0-0.7,0-1.1c0.3-0.5,0.6-1.1,1-1.5c14-15.1,28-30.3,41.9-45.5c1.9-2.1,3.2-2.1,5.1,0
	c13.9,15.2,27.9,30.3,41.8,45.4c0.4,0.5,0.7,1.1,1.1,1.6C95.6,71.7,95.6,72,95.6,72.4z"/>
</svg>
