<?xml version="1.0" encoding="utf-8"?>
<!-- Generator: Adobe Illustrator 27.5.0, SVG Export Plug-In . SVG Version: 6.00 Build 0)  -->
<svg version="1.1" id="Layer_1" xmlns="http://www.w3.org/2000/svg" xmlns:xlink="http://www.w3.org/1999/xlink" x="0px" y="0px"
	 viewBox="0 0 100 100" enable-background="new 0 0 100 100" xml:space="preserve">
<path var:color.fill="#000" d="M74.9,90.5c1.3,1.3,1.1,3-0.5,3.9c-0.1,0.1-0.2,0.1-0.3,0.2c-0.4,0-0.7,0-1.1,0c-0.6-0.4-1.2-0.7-1.6-1.2
	C56,79.3,40.7,65.1,25.3,50.9c-1.2-1.1-1.2-2.5,0-3.6C40.7,33.1,56.2,18.8,71.6,4.6c0.4-0.4,1-0.7,1.5-1c0.4,0,0.7,0,1.1,0
	c0.5,0.5,1.1,0.9,1.5,1.4c0.5,0.9,0.2,1.9-0.8,2.8c-4.3,4-8.7,8-13,12c-10.3,9.5-20.7,19.1-31,28.6c-0.2,0.2-0.4,0.4-0.8,0.8
	c0.3,0.2,0.6,0.4,0.9,0.6C45.2,63.1,59.6,76.4,74,89.6C74.3,89.9,74.6,90.2,74.9,90.5z"/>
</svg>
