<?xml version="1.0" encoding="utf-8"?>
<!-- Generator: Adobe Illustrator 27.5.0, SVG Export Plug-In . SVG Version: 6.00 Build 0)  -->
<svg version="1.1" id="Layer_1" xmlns="http://www.w3.org/2000/svg" xmlns:xlink="http://www.w3.org/1999/xlink" x="0px" y="0px"
	 viewBox="0 0 100 100" enable-background="new 0 0 100 100" xml:space="preserve">
<path var:color.fill="#000" d="M26.1,94.6c-0.5-0.5-1.2-0.9-1.5-1.5c-0.5-1,0-1.9,0.8-2.7c4.3-3.9,8.5-7.8,12.7-11.7C48.6,69,59,59.4,69.5,49.7
	c0.2-0.2,0.4-0.3,0.7-0.6c-0.5-0.4-0.9-0.8-1.3-1.2C54.6,34.7,40.3,21.5,25.9,8.3c-0.3-0.3-0.6-0.5-0.8-0.8
	c-1.1-1.1-0.8-2.8,0.5-3.6c0.2-0.1,0.3-0.2,0.5-0.3c0.4,0,0.7,0,1.1,0c0.5,0.4,1.1,0.7,1.6,1.1c15.2,14,30.3,28,45.5,42
	c0.2,0.2,0.4,0.4,0.6,0.5c1.3,1.2,1.3,2.6,0,3.7C63.1,61.9,51.3,72.7,39.5,83.6c-3.7,3.4-7.3,6.8-11,10.1c-0.4,0.4-0.9,0.6-1.3,0.9
	C26.8,94.6,26.5,94.6,26.1,94.6z"/>
</svg>
