<?xml version="1.0" encoding="utf-8"?>
<!-- Generator: Adobe Illustrator 27.5.0, SVG Export Plug-In . SVG Version: 6.00 Build 0)  -->
<svg version="1.1" id="Layer_1" xmlns="http://www.w3.org/2000/svg" xmlns:xlink="http://www.w3.org/1999/xlink" x="0px" y="0px"
	 viewBox="0 0 100 100" enable-background="new 0 0 100 100" xml:space="preserve">
<path var:color.fill="#000" d="M92.8,94.6c-0.6-0.4-1.2-0.8-1.7-1.4C77.7,79.9,64.3,66.5,51,53.2c-0.3-0.3-0.5-0.6-0.9-1.2c-0.3,0.5-0.5,0.9-0.7,1.1
	C36,66.5,22.6,79.8,9.2,93.2c-0.5,0.5-1.2,0.9-1.8,1.4c-0.4,0-0.7,0-1.1,0c-0.8-0.4-1.4-0.9-1.8-1.8c0-0.4,0-0.7,0-1.1
	C5.1,91.2,5.5,90.6,6,90C19.3,76.7,32.7,63.3,46,50c0.3-0.3,0.6-0.4,0.9-0.7c0-0.1,0-0.3,0-0.4c-0.3-0.2-0.7-0.4-0.9-0.7
	C32.7,34.9,19.3,21.5,6,8.2C5.5,7.6,5.1,7,4.6,6.4c0-0.4,0-0.7,0-1.1C5,4.5,5.6,4,6.4,3.6c0.4,0,0.7,0,1.1,0C8.1,4.1,8.7,4.5,9.2,5
	C22.6,18.4,36,31.8,49.4,45.1c0.2,0.2,0.5,0.4,0.9,0.9c0.2-0.4,0.4-0.7,0.7-1C64.3,31.7,77.7,18.3,91.1,5c0.5-0.5,1.1-0.9,1.7-1.4
	c0.4,0,0.7,0,1.1,0c0.8,0.4,1.4,0.9,1.8,1.8c0,0.4,0,0.7,0,1.1c-0.5,0.6-0.9,1.2-1.4,1.8c-13.3,13.3-26.7,26.7-40,40
	c-0.3,0.3-0.6,0.4-0.9,0.7c0,0.1,0,0.3,0,0.4c0.3,0.2,0.7,0.4,0.9,0.7c13.3,13.3,26.7,26.7,40,40c0.5,0.5,0.9,1.2,1.4,1.8
	c0,0.4,0,0.7,0,1.1c-0.3,0.8-0.9,1.4-1.8,1.8C93.5,94.6,93.1,94.6,92.8,94.6z"/>
</svg>
