<svg version="1.1" id="Layer_1" xmlns="http://www.w3.org/2000/svg" xmlns:xlink="http://www.w3.org/1999/xlink" x="0px" y="0px"
	 viewBox="0 0 57.5 71.3" style="enable-background:new 0 0 57.5 71.3;" xml:space="preserve">
<path var:color.fill="#000" d="M54.2,33.5L43.3,20.6c-0.3-0.3-0.7-0.5-1.1-0.5H15.3c-0.4,0-0.8,0.2-1.1,0.5L3.5,33.5c-0.4,0.5-0.4,1.2,0,1.8L27.7,67
	c0.5,0.6,1.4,0.7,2,0.3c0.1-0.1,0.2-0.2,0.3-0.3l24.2-31.7C54.6,34.8,54.6,34,54.2,33.5z M41.6,22.9l8.4,10h-8.3l-5.9-10
	C35.8,22.9,41.6,22.9,41.6,22.9z M32.5,22.9l5.9,10H19.2l5.9-10C25.1,22.9,32.5,22.9,32.5,22.9z M16,22.9h5.8l-5.9,10H7.6L16,22.9z
	 M7.4,35.8h8.3l9.1,22.8L7.4,35.8z M28.8,60.8l-10-25h20L28.8,60.8z M32.7,58.6l9.1-22.8h8.3L32.7,58.6z M28.8,10.2
	c0.8,0,1.4-0.6,1.4-1.4V5.2c0-0.8-0.6-1.4-1.4-1.4s-1.4,0.6-1.4,1.4v3.6C27.4,9.6,28,10.2,28.8,10.2z M49.8,18.5l2.4-2.6
	c0.5-0.6,0.4-1.5-0.2-2c-0.5-0.5-1.3-0.4-1.9,0.1l-2.4,2.6c-0.5,0.6-0.5,1.5,0.1,2C48.4,19.1,49.3,19.1,49.8,18.5z M7.8,18.5
	c0.5,0.6,1.4,0.6,2,0.1s0.6-1.4,0.1-2L7.5,14c-0.6-0.6-1.4-0.6-2-0.1s-0.6,1.4-0.1,2L7.8,18.5z M39.5,12.4c0.7,0.3,1.5-0.1,1.8-0.8
	l1.3-3.3c0.3-0.7-0.1-1.5-0.8-1.8c-0.7-0.2-1.5,0.1-1.8,0.8l-1.3,3.3C38.4,11.3,38.8,12.1,39.5,12.4z M16.2,11.7
	c0.3,0.7,1.1,1.1,1.8,0.8s1.1-1.1,0.8-1.8l-1.3-3.3c-0.2-0.8-1-1.1-1.8-0.8c-0.7,0.3-1.1,1.1-0.8,1.8L16.2,11.7z"/>
</svg>
