<svg version="1.1" id="Layer_1" xmlns:serif="http://www.serif.com/"
	 xmlns="http://www.w3.org/2000/svg" xmlns:xlink="http://www.w3.org/1999/xlink" x="0px" y="0px" viewBox="0 0 766.5 764.9"
	 style="enable-background:new 0 0 766.5 764.9;" xml:space="preserve">
<path var:color.fill="#000" d="M612.3,698.6c0.2-0.2,0.4-0.3,0.7-0.5C612.8,698.3,612.6,698.5,612.3,698.6z M508.7,744.8l-8.7-9
	c-6.2,1.8-12.6,3.5-18.9,4.9l3,3.1c3,3,2.9,7.9-0.1,10.9c-0.9,0.9-1.9,1.5-3,1.8c11.9-2.6,23.7-5.8,35.3-9.7
	c-0.6,0.2-1.3,0.3-1.9,0.3C512.2,747.1,510.2,746.3,508.7,744.8z M764.3,404.4L751,390.7c-0.2-7.9-0.7-15.7-1.5-23.5l0,0L726.9,344
	l0,0c-0.4-8-1.1-16.1-2.1-24.1l21.2,21.8l16.3,16.6c1,1.1,1.7,2.4,2,3.8c0.1,0.5,0.2,0.9,0.2,1.4c0,0.7,0,1.4-0.2,2.1
	c0.2-0.6,0.3-1.3,0.3-2c1.2,12.5,1.9,25,1.9,37.7c0,2.3-0.1,4.7-0.1,7.1C766.1,406.9,765.4,405.5,764.3,404.4z M763.8,366.9
	c-0.4,0.8-0.9,1.6-1.6,2.3c-1.5,1.5-3.5,2.2-5.4,2.2c2,0,3.9-0.7,5.4-2.2C762.9,368.5,763.4,367.8,763.8,366.9z M764.3,415.3
	c1.1-1,1.8-2.4,2.1-3.8c-0.4,13.2-1.4,26.3-3.2,39.2c0-2.1-0.7-4.1-2.2-5.7l-11.3-11.6c0.6-6.9,1.1-13.8,1.3-20.7l-0.1-0.1
	l-24.3-24.9c0,0,0,0.1,0,0.1c0,0.1,0,0.1,0,0.2c0,0.4-0.1,0.8-0.1,1.2c-0.4,5.6-0.9,11.1-1.6,16.7c-0.1,0.6-0.1,1.3-0.2,1.9
	l24.9,25.5l0,0l11.3,11.6c1.5,1.6,2.3,3.7,2.1,5.6c0,0.5-0.1,1-0.2,1.5c-0.3,1.3-1,2.6-2.1,3.7c-1.5,1.5-3.5,2.2-5.4,2.2
	c-2,0-4-0.8-5.5-2.3l0.1,0.1c1.5,1.5,3.5,2.3,5.5,2.3c1.9,0,3.9-0.7,5.4-2.3c1.1-1,1.8-2.3,2.1-3.7c-1.8,13.2-4.3,26.2-7.6,39
	c0.5-2.4-0.2-4.9-2-6.8l-9.8-10c0.3-1.8,0.7-3.5,1-5.3c1-5.3,1.9-10.6,2.8-15.9l0,0l-0.1-0.1L722,427l-0.1-0.1c0,0.1,0,0.2,0,0.3
	c-1.2,6.8-2.7,13.7-4.3,20.5l25.8,26.5l9.8,10c1.8,1.9,2.5,4.4,2,6.7c-0.1,0.4-0.2,0.7-0.3,1c-0.4,1.2-1,2.2-1.9,3.1
	c-1.5,1.5-3.5,2.2-5.3,2.2c0,0,0,0,0,0c1.9,0,3.9-0.7,5.4-2.1c0.9-0.9,1.5-2,1.9-3.1c-3.2,12.2-6.9,24.1-11.4,36c0,0.1,0,0.2,0,0.3
	c-0.1,0.5-0.3,1.1-0.6,1.6c-0.4,0.7-0.9,1.4-1.5,2c-1.5,1.5-3.5,2.2-5.4,2.2c-2,0-4-0.8-5.5-2.3l-3.4-3.5L700.6,501
	c2.1-5.2,4.1-10.5,6-15.8l26.4,27.1c2.3-6.8,4.3-13.5,6.2-20.4l0,0l-0.1-0.1l-26-26.7l0,0c0,0.1,0,0.1,0,0.2
	c-2,6.7-4.1,13.4-6.5,20.1c-1.8,5.3-3.9,10.6-6,15.7c0,0,0,0,0,0.1c-0.5,1.4-1.1,2.8-1.7,4.2c-1.7,4.1-3.5,8.2-5.4,12.1
	c0,0,0,0,0,0.1c-2.3,4.9-4.7,9.8-7.2,14.5c0,0,0,0,0,0.1c-3,5.8-6.2,11.5-9.5,17c0,0,0,0,0,0l26.8,27.6l6.3,6.5
	c3,3.1,2.9,7.9-0.1,10.9c-1.5,1.5-3.5,2.2-5.4,2.2c-2,0-4-0.8-5.5-2.3l0.1,0.1c1.5,1.5,3.5,2.3,5.5,2.3s3.9-0.7,5.4-2.2
	c3-3,3.1-7.9,0.1-10.9l-6.3-6.5c3.4-5.6,6.5-11.4,9.5-17.2l3.8,3.9c0,0,0,0,0,0l-3.7-3.8l-26.9-27.6c2.5-4.8,4.9-9.7,7.2-14.6
	c0,0,0,0,0,0l26.6,27.3l0.1,0.1c2.5-5.4,4.8-10.9,7-16.5l3.4,3.5c1.5,1.5,3.5,2.3,5.5,2.3c1.9,0,3.8-0.8,5.4-2.2
	c0.6-0.6,1.1-1.3,1.5-2c-1.6,4.3-3.3,8.5-5.1,12.7c-2.5,5.9-5.3,11.9-8.1,17.6c0,0.2-0.1,0.4-0.1,0.6c-0.2,0.5-0.4,0.9-0.7,1.4
	c-0.1,0.1-0.1,0.2-0.2,0.3c-10.4,21-22.9,41-37.1,59.6c0.9-1.5,1.3-3.2,1.1-4.9c0.2,1.7-0.2,3.3-1.1,4.7c-0.3,0.4-0.5,0.7-0.8,1
	c0,0.1-0.1,0.2-0.1,0.2c0,0,0,0,0,0c-7,9.2-14.5,18-22.5,26.5c1.2-1.5,1.7-3.4,1.6-5.2c0.1,1.8-0.5,3.6-1.7,5
	c-0.3,0.3-0.5,0.6-0.8,0.9c-0.1,0.1-0.2,0.2-0.3,0.3c-1.4,1.3-3.1,1.9-4.9,1.9c0.1,0,0.1,0,0.2,0c1.8,0,3.6-0.6,5-1.9
	c-2.4,2.6-4.9,5.1-7.4,7.6c-5.7,5.7-11.6,11.1-17.6,16.4c2.8-3,2.8-7.6-0.1-10.6l-5.1-5.2l-0.1-0.1c4.9-4.5,9.7-9.1,14.3-13.8l0-0.1
	l-26.9-27.6c-1.2,1.3-2.4,2.5-3.5,3.6c-3.6,3.5-7.2,6.9-10.8,10.3c0,0,0,0-0.1,0c0,0,0,0,0,0l26.9,27.6l5.2,5.3
	c2.9,3,2.9,7.7,0,10.6c0,0-0.1,0.1-0.2,0.2c-0.2,0.3-0.5,0.5-0.8,0.7c-1.3,1-2.9,1.5-4.5,1.5c-2,0-4-0.8-5.5-2.3l-5.8-5.9
	l-26.8-27.5v0c-5.4,4.5-10.9,9-16.4,13.2c0,0,0,0-0.1,0c0,0,0,0-0.1,0l26.6,27.3l0.1,0.1c5.7-4.2,11.3-8.6,16.6-13.1l5.8,5.9
	c1.5,1.5,3.5,2.3,5.6,2.4c1.6,0,3.1-0.5,4.5-1.5c-9.1,7.9-18.6,15.3-28.3,22.3c0.1-0.1,0.2-0.2,0.3-0.3c1.5-1.5,2.3-3.5,2.3-5.5
	c0,2-0.8,3.9-2.3,5.4c-0.3,0.3-0.7,0.6-1,0.8c-0.1,0.1-0.2,0.1-0.3,0.2c0,0,0,0,0,0c0,0,0,0,0,0c-8.9,6.3-18.1,12.2-27.6,17.7
	c0.4-0.3,0.7-0.6,1.1-0.9c0.7-0.7,1.2-1.5,1.6-2.4c-0.4,0.8-0.9,1.6-1.6,2.3c-0.3,0.3-0.7,0.6-1.1,0.9c-0.2,0.1-0.4,0.3-0.7,0.4
	c-1.1,0.5-2.3,0.8-3.5,0.8c-2,0-4-0.8-5.5-2.3l-7-7.2l-26.2-26.9c-5.8,3.2-11.6,6.3-17.5,9.2c0,0,0,0-0.1,0c0,0,0,0-0.1,0l25.9,26.6
	l0.1,0.1c6.1-2.8,12-5.8,17.8-9l7,7.2c1.5,1.5,3.5,2.3,5.5,2.4c1.2,0,2.4-0.2,3.5-0.8c-10.3,5.9-20.9,11.3-31.8,16.2
	c0.6-0.3,1.1-0.7,1.6-1.2c2.5-2.5,3-6.2,1.4-9.1c1.5,2.9,1,6.6-1.5,8.9c-0.5,0.5-1,0.9-1.6,1.2c-0.4,0.2-0.9,0.4-1.4,0.6
	c-0.7,0.3-1.5,0.4-2.3,0.4c-2,0-4-0.8-5.5-2.3l-7.8-8l-25.7-26.4c-1.2,0.5-2.4,1.1-3.7,1.5c-4.7,2-9.5,3.9-14.3,5.7
	c0,0-0.1,0-0.1,0.1l0,0l25.3,26l0.1,0.1l0.1,0.1c6.2-2.2,12.3-4.5,18.3-7l7.8,8c1.5,1.5,3.5,2.3,5.6,2.5c0.8,0,1.5-0.2,2.3-0.4
	c-2.1,0.9-4.1,1.8-6.2,2.7c-8.9,3.8-17.9,7.2-27.1,10.2c0.9-0.3,1.8-0.9,2.5-1.6c2.6-2.6,3-6.7,1.1-9.7c1.8,3,1.4,6.9-1.3,9.4
	c-0.7,0.7-1.6,1.2-2.5,1.6c-0.3,0.1-0.6,0.2-0.9,0.3c-0.6,0.2-1.2,0.3-1.9,0.3c-2,0-4-0.8-5.5-2.3l-8.7-9L474.9,710
	c-6.1,2-12.2,3.8-18.3,5.4c-0.1,0-0.1,0-0.2,0l0,0l24.5,25.2l3,3.1c3,3,2.9,7.9-0.2,10.8c-0.8,0.8-1.9,1.5-3,1.8
	c-0.5,0.1-0.9,0.2-1.4,0.3c-0.3,0.1-0.6,0.1-0.9,0.1c-2,0-4-0.8-5.5-2.3c1.5,1.6,3.5,2.4,5.6,2.4c0.3,0,0.6-0.1,0.9-0.1
	c-12.3,2.7-24.7,4.6-37.2,6c1.4-0.3,2.7-0.9,3.8-2c3-3,3.1-7.9,0.1-10.9c2.9,3,2.9,7.9-0.2,10.8c-1.1,1-2.4,1.7-3.8,2
	c-0.5,0.1-1,0.2-1.5,0.2h0.1c-12.6,1.3-25.3,2-38.1,2c-1,0-2.1,0-3.1,0c1.6-0.2,3.2-0.9,4.5-2.1c1.5-1.5,2.3-3.5,2.3-5.5
	c0,1.9-0.8,3.9-2.3,5.3c-1.3,1.2-2.9,1.9-4.5,2.1c-0.2,0.1-0.5,0.1-0.8,0.1s-0.7-0.1-1-0.1c-1.7-0.2-3.2-0.9-4.5-2.2l-13.4-13.7
	l-21-21.5c1.6,0.1,3.2,0.1,4.8,0.1c0,0,0,0,0.1,0c-1.6,0-3.2-0.1-4.8-0.1c-7.4-0.1-14.7-0.4-22-0.9c-0.4,0-0.8-0.1-1.2-0.1
	c0.4,0,0.7,0.1,1.1,0.1l0.1,0.1l19.5,20l0.1,0.1l0,0c7.7,1,15.3,1.8,23.2,2.3l13.4,13.9c1.3,1.2,2.8,2,4.5,2.2
	c-15.3-0.2-30.4-1.3-45.3-3.4c0.2,0,0.3,0,0.4,0c2,0,3.9-0.7,5.4-2.2c1.5-1.5,2.3-3.5,2.3-5.5c0,2-0.8,3.9-2.3,5.4
	c-1.5,1.5-3.4,2.2-5.3,2.1c-0.2,0-0.3,0-0.4,0c-0.5,0-0.9-0.1-1.4-0.2c-1.4-0.3-2.7-1-3.8-2.1l-16.5-17L313,723.9
	c1.9,0.3,3.7,0.5,5.6,0.7c-1.8-0.2-3.7-0.5-5.5-0.7c-6.7-1-13.4-2.1-20-3.4c-3.2-0.6-6.5-1.3-9.7-2c3.2,0.7,6.4,1.4,9.6,2l15.8,16.2
	c7.2,2,14.5,3.8,21.9,5.4c0,0,0.1,0,0.1,0l16.4,17.2c1.1,1.1,2.4,1.8,3.8,2.1c-16.2-2.3-32.2-5.7-47.9-10.2c0.5,0.1,1,0.1,1.5,0.1
	c2,0,3.9-0.8,5.4-2.2c3.1-3,3.2-7.9,0.2-10.9c2.9,3.1,2.8,7.9-0.2,10.9c-1.5,1.4-3.4,2.2-5.4,2.1c-0.5,0-1,0-1.5-0.1
	c-0.4-0.1-0.9-0.2-1.3-0.4c-0.2-0.1-0.4-0.2-0.6-0.3c0.3,0.1,0.5,0.3,0.8,0.4c-13.8-4-27.4-8.8-40.7-14.4c-2.2-1-4.4-1.9-6.6-2.9
	c0,0,0,0,0,0c-0.5-0.2-1-0.4-1.4-0.6c-0.2-0.1-0.3-0.2-0.5-0.3c-39.9-18.1-76-43-107.2-74.3c-4.7-4.6-9.2-9.4-13.6-14.3
	c-8.8-7.3-17.2-15-25.4-23.2c-33.4-33.4-59.7-72.3-78-115.6C9.6,460.4,0,412.8,0,363.7c0-49.1,9.6-96.7,28.6-141.5
	c18.4-43.3,44.6-82.2,78-115.6c33.4-33.4,72.3-59.7,115.6-78C267,9.6,314.6,0,363.7,0s96.7,9.6,141.7,28.9
	c43.3,18.4,82.2,44.6,115.6,78c4.7,4.6,9.2,9.4,13.6,14.3c8.8,7.3,17.2,15,25.4,23.2c32.9,32.8,58.8,71,77.1,113.5
	c-0.1-0.1-0.2-0.2-0.2-0.4c0,0,0,0,0,0.1c0.2,0.5,0.4,1,0.6,1.5c0.8,2.7,0.2,5.7-2,7.8c-1.5,1.5-3.5,2.2-5.3,2.2c0,0,0,0,0,0
	c2,0,3.9-0.7,5.4-2.2c2.1-2.1,2.8-5.1,2-7.9c0.1,0.2,0.2,0.4,0.3,0.6c7.7,18.3,13.9,37,18.5,56.1c-0.4-1.1-1-2.1-1.8-2.9l-21.3-21.9
	c-1.4-4.2-2.9-8.3-4.5-12.5c-1.6-4.2-3.3-8.4-5-12.5l-0.2-0.2l-13.9-14.2l-0.1-0.1c0,0,0,0.1,0.1,0.1c2.3,7.2,4.5,14.6,6.4,22
	c2.4,9.4,4.4,18.8,6,28.3c0.2,0.9,0.3,1.9,0.5,2.8c0.7,4.3,1.4,8.7,1.9,13.1c0.1,0.8,0.2,1.7,0.3,2.5c1,8,1.7,16,2.1,24.1
	c0.3,6.6,0.5,13.1,0.5,19.7c0,0.8,0,1.7,0,2.5c0,0,0,0,0,0l23.6,24.2l13.2,13.6c1.2,1.2,1.8,2.5,2.1,4c0.1,1,0.1,2-0.1,3
	c-0.3,1.4-1,2.7-2.1,3.8c-1.5,1.5-3.5,2.2-5.4,2.2c-2,0-4-0.8-5.5-2.3l0.1,0.1c1.5,1.5,3.5,2.3,5.5,2.3
	C760.7,417.4,762.6,416.7,764.3,415.3z M727.8,563.7c0,0-0.1,0.1-0.1,0.1C727.8,563.8,727.8,563.8,727.8,563.7
	C727.8,563.8,727.8,563.8,727.8,563.7z M727.9,552.8c1.6,1.6,2.2,3.8,2.1,5.9C730.2,556.6,729.5,554.5,727.9,552.8z M698.9,218
	c-2.1-3.3-4.2-6.6-6.4-9.8c-0.1-0.1-0.1-0.2-0.2-0.2c1.1,2.2,2.1,4.6,3.1,6.8l3.7,3.8l2.2,2.3l-2-2.1
	C699.2,218.5,699.1,218.2,698.9,218z M262.6,720.8c2.9,3.1,2.8,7.9-0.2,10.9c-1.5,1.4-3.5,2.1-5.3,2.2c1.9,0,3.8-0.8,5.3-2.2
	C265.5,728.7,265.6,723.8,262.6,720.8z M269.6,715.1c-1.5-0.4-2.9-0.8-4.4-1.2c-4.4-1.2-8.8-2.6-13.2-4c-10.1-3.3-20-7-29.8-11.1
	c-1.4-0.6-2.7-1.2-4.1-1.8l0,0c1.4,0.6,2.7,1.2,4.1,1.8c9.8,4.2,19.8,7.9,29.8,11.1l9.5,9.8c5,2.3,10.2,4.5,15.4,6.4l0,0l-11.8-12.2
	c0,0,0.1,0,0.1,0C266.7,714.3,268.1,714.7,269.6,715.1z M423.8,749L401,725.5c-7,0.7-13.9,1.2-20.9,1.5c0,0-0.1,0-0.1,0l22,22.6
	l2.2,2.3c0.2,0.2,0.4,0.4,0.5,0.6c-0.2-0.2-0.3-0.4-0.5-0.6l-2.2-2.3c0.2,0,0.5,0,0.7,0c1.8,0,3.6,0,5.4,0
	c5.2-0.1,10.3-0.3,15.4-0.5C423.6,749,423.7,749,423.8,749z M463.1,744.3L439,719.5c-6.2,1.3-12.5,2.5-18.8,3.5c0,0-0.1,0-0.1,0
	l0.1,0.1l23.4,24.1C450.1,746.4,456.6,745.4,463.1,744.3z M607.5,699.9c0.1,0,0.2,0,0.4,0c0,0,0.1,0,0.1,0c0,0-0.1,0-0.1,0
	C607.8,699.9,607.7,699.9,607.5,699.9z M569.5,663.8L569.5,663.8c-4.7,3.3-9.4,6.3-14.3,9.3c0,0,0,0-0.1,0l26.4,27l0,0l0,0
	c5-2.9,9.7-6,14.5-9.1L569.5,663.8z M690.5,623.5c-1.5,1.4-3.5,2.1-5.3,2.1c-2,0-4-0.8-5.5-2.3l-4.7-4.9l-27-27.7c0,0,0,0,0,0.1
	c-4.1,5.2-8.4,10.3-12.9,15.2c0,0,0,0,0,0.1l26.9,27.6l0,0c1-1.2,2.1-2.4,3.1-3.6c0.4-0.5,0.8-0.9,1.2-1.4c1.3-1.5,2.5-3,3.8-4.5
	c0.6-0.8,1.3-1.5,1.9-2.3c0.9-1.1,1.9-2.3,2.8-3.4l4.7,4.9c1.5,1.5,3.5,2.3,5.5,2.3S689,625,690.5,623.5
	C690.5,623.5,690.5,623.5,690.5,623.5z M668.3,562.5C668.3,562.6,668.3,562.6,668.3,562.5c-0.1,0.1-0.1,0.1-0.1,0.1
	c-3.5,5.4-7.1,10.6-10.9,15.7c0,0,0,0,0,0l26.9,27.7l0,0l6.3,6.5c0.1,0.1,0.2,0.2,0.2,0.2c0,0-0.1-0.1-0.1-0.1l-6.3-6.5
	c3.8-5.1,7.4-10.4,10.9-15.8l3.4,3.5l-3.5-3.8L668.3,562.5z M712.1,363.7c0-30-3.8-59.2-11-87c-0.7-2.8-1.5-5.5-2.3-8.3
	c-3.5-12.4-7.7-24.5-12.6-36.3c-1.1-2.6-2.2-5.2-3.3-7.8c-0.6-1.3-1.1-2.6-1.7-3.9c-1.2-2.6-2.4-5.1-3.6-7.7s-2.5-5.1-3.8-7.6
	c-1.3-2.5-2.6-5-3.9-7.5c-0.7-1.2-1.3-2.5-2-3.7c-2.7-4.9-5.6-9.7-8.6-14.5c-1.5-2.4-3-4.7-4.5-7.1c-1.5-2.3-3.1-4.7-4.7-7
	c-3.2-4.6-6.5-9.1-9.9-13.5c-1.7-2.2-3.4-4.4-5.2-6.6c-1.8-2.2-3.5-4.3-5.3-6.5c-2.7-3.2-5.5-6.3-8.3-9.4
	c-3.8-4.1-7.6-8.2-11.5-12.1c-3.9-3.9-8-7.8-12.1-11.5s-8.3-7.4-12.6-11c-4.3-3.6-8.7-7-13.2-10.4c-2.2-1.7-4.5-3.3-6.8-4.9
	c-4.6-3.2-9.2-6.4-13.9-9.4c-1.2-0.8-2.4-1.5-3.5-2.2c-2.4-1.5-4.8-2.9-7.2-4.4c-4.8-2.9-9.7-5.6-14.7-8.2c-2.5-1.3-5-2.6-7.5-3.9
	s-5.1-2.5-7.6-3.7c-3.8-1.8-7.7-3.5-11.6-5.2c-2.6-1.1-5.2-2.2-7.9-3.2s-5.3-2.1-8-3c-2.7-1-5.3-1.9-8-2.8c-2.7-0.9-5.4-1.8-8.1-2.6
	c-2.7-0.8-5.5-1.7-8.2-2.5s-5.5-1.5-8.3-2.3c-9.7-2.5-19.6-4.6-29.7-6.3c-2.9-0.5-5.7-0.9-8.6-1.3c-15.9-2.2-32.1-3.4-48.7-3.4
	s-32.8,1.2-48.7,3.4c-2.9,0.4-5.8,0.8-8.6,1.3c-5.7,1-11.4,2-17.1,3.3c-2.8,0.6-5.6,1.3-8.4,1.9c-4.2,1-8.4,2.1-12.5,3.3
	c-2.8,0.8-5.5,1.6-8.2,2.5c-2.7,0.8-5.4,1.7-8.1,2.6c-2.7,0.9-5.4,1.9-8,2.8c-2.7,1-5.3,2-8,3c-5.3,2.1-10.5,4.3-15.6,6.6
	c-2.6,1.2-5.1,2.4-7.7,3.6c-5.1,2.4-10.1,5-15,7.7c-8.6,4.7-17.1,9.8-25.2,15.1c-2.3,1.5-4.7,3.1-7,4.7c-3.4,2.4-6.8,4.8-10.2,7.4
	c-4.5,3.3-8.9,6.8-13.2,10.4c-2.2,1.8-4.3,3.6-6.4,5.4c-3.2,2.7-6.3,5.5-9.3,8.4c-2,1.9-4.1,3.8-6.1,5.8c-3,2.9-5.9,5.9-8.8,8.9
	c-1,1-1.9,2-2.9,3c-1.9,2-3.8,4.1-5.6,6.2c-0.9,1-1.8,2.1-2.8,3.1c-2.7,3.2-5.4,6.4-8.1,9.6c-0.9,1.1-1.7,2.2-2.6,3.3
	c-3.5,4.4-6.8,8.9-10,13.4c-1.6,2.3-3.2,4.6-4.8,6.9c-1.6,2.3-3.1,4.7-4.6,7c-8.3,13-15.8,26.5-22.4,40.6c-1.2,2.6-2.4,5.1-3.5,7.7
	c-0.6,1.3-1.1,2.6-1.7,3.9c-1.1,2.6-2.2,5.2-3.2,7.9c-3.6,9.2-6.9,18.6-9.8,28.2c-0.8,2.7-1.6,5.5-2.4,8.3
	c-7.9,29.1-12.1,59.6-12.1,91.1s4.2,62.1,12.1,91.1c0.8,2.8,1.5,5.5,2.4,8.3c2.9,9.6,6.1,19,9.8,28.2c1,2.6,2.1,5.3,3.2,7.9
	c0.6,1.3,1.1,2.6,1.7,3.9c1.1,2.6,2.3,5.2,3.5,7.7c6.6,14.1,14.1,27.6,22.4,40.6c1.5,2.4,3.1,4.7,4.6,7c1.6,2.3,3.2,4.6,4.8,6.9
	c3.2,4.6,6.6,9,10,13.4c0.9,1.1,1.7,2.2,2.6,3.3c2.6,3.3,5.3,6.5,8.1,9.6c0.9,1.1,1.8,2.1,2.8,3.1c1.9,2.1,3.7,4.1,5.6,6.2
	c1,1,1.9,2,2.9,3c2.9,3,5.8,6,8.8,8.9c2,1.9,4,3.9,6.1,5.8c3.1,2.9,6.2,5.6,9.3,8.4c2.1,1.8,4.2,3.6,6.4,5.4
	c4.3,3.6,8.7,7,13.2,10.4c3.4,2.5,6.8,5,10.2,7.4c2.3,1.6,4.6,3.2,7,4.7c8.2,5.4,16.6,10.4,25.2,15.1c4.9,2.7,9.9,5.3,15,7.7
	c2.5,1.2,5.1,2.4,7.7,3.6c5.1,2.3,10.4,4.5,15.6,6.6c2.6,1,5.3,2.1,8,3c2.7,1,5.3,1.9,8,2.8c2.7,0.9,5.4,1.8,8.1,2.6
	c2.7,0.8,5.5,1.7,8.2,2.5c4.1,1.2,8.3,2.3,12.5,3.3c2.8,0.7,5.6,1.3,8.4,1.9c5.6,1.2,11.3,2.3,17.1,3.3c2.9,0.5,5.7,0.9,8.6,1.3
	c15.9,2.2,32.1,3.4,48.7,3.4s32.8-1.2,48.7-3.4c2.9-0.4,5.8-0.8,8.6-1.3c10-1.7,19.9-3.8,29.7-6.3c2.8-0.7,5.5-1.5,8.3-2.3
	c2.8-0.8,5.5-1.6,8.2-2.5c2.7-0.8,5.4-1.7,8.1-2.6c2.7-0.9,5.4-1.9,8-2.8c2.7-1,5.3-2,8-3c2.6-1,5.3-2.1,7.9-3.2
	c3.9-1.7,7.8-3.4,11.6-5.2c2.6-1.2,5.1-2.4,7.6-3.7s5-2.5,7.5-3.9c5-2.6,9.9-5.4,14.7-8.2c2.4-1.4,4.8-2.9,7.2-4.4
	c1.2-0.7,2.4-1.5,3.5-2.2c4.7-3,9.3-6.2,13.9-9.4c2.3-1.6,4.5-3.3,6.8-4.9c4.5-3.3,8.9-6.8,13.2-10.4c4.3-3.6,8.5-7.2,12.6-11
	c4.1-3.8,8.2-7.6,12.1-11.5c3.9-3.9,7.8-8,11.5-12.1c2.8-3.1,5.6-6.2,8.3-9.4c1.8-2.1,3.6-4.3,5.3-6.5c1.8-2.2,3.5-4.4,5.2-6.6
	c3.4-4.4,6.7-8.9,9.9-13.5c1.6-2.3,3.2-4.6,4.7-7c1.5-2.3,3.1-4.7,4.5-7.1c3-4.8,5.8-9.6,8.6-14.5c0.7-1.2,1.4-2.5,2-3.7
	c1.3-2.5,2.7-5,3.9-7.5c1.3-2.5,2.5-5,3.8-7.6s2.4-5.1,3.6-7.7c0.6-1.3,1.2-2.6,1.7-3.9c1.1-2.6,2.2-5.2,3.3-7.8
	c4.8-11.8,9-23.9,12.6-36.3c0.8-2.8,1.5-5.5,2.3-8.3C708.3,422.9,712.1,393.7,712.1,363.7z M743.8,526.3c0-1.9-0.8-3.8-2.1-5.2
	C743,522.6,743.7,524.5,743.8,526.3z M754.5,312.8l-21.3-21.9l0,0l-17.1-17.6c2.4,9.3,4.4,18.8,6,28.3l0,0L742,322l1.5,1.5
	c1.5,1.6,3.5,2.3,5.5,2.3c1.9,0,3.9-0.7,5.4-2.2c1.6-1.6,2.4-3.7,2.3-5.7c0.1,2.1-0.7,4.2-2.3,5.8c-1.5,1.5-3.4,2.2-5.4,2.2
	s-4-0.8-5.5-2.3L742,322c1.4,6,2.6,12,3.7,18.1c0.1,0.5,0.2,1,0.3,1.5l16.3,16.7c1.1,1.1,1.7,2.4,2,3.8c-1.6-15.2-4.2-30.3-7.7-45.1
	c0,0,0,0,0,0c-0.1-0.5-0.2-0.9-0.3-1.3C755.9,314.7,755.4,313.7,754.5,312.8z M485.6,640.3c0.5,3-0.8,5.9-3.2,7.6
	c-0.4,0.3-0.9,0.5-1.4,0.7c-37.5,15.6-77.3,23.5-118.2,23.5c-68.6,0-133.6-22.2-187.9-64c-3.1-2.4-3.9-6.8-1.8-10.1
	c6-9.7,12.3-19,18.8-28c57.3-79.7,133.7-135.4,222.7-161.8c3.8-1.1,7.9,0.9,9.3,4.6C451.9,485.8,472.6,562.3,485.6,640.3z
	 M247.2,611.5c0.6-0.9,0.9-1.8,1.1-2.8c-0.2,0.7-0.5,1.4-0.9,2c-0.1,0.1-0.1,0.2-0.2,0.3c-0.2,0.4-0.5,0.7-0.8,1
	c-1.5,1.5-3.5,2.2-5.4,2.2c-2,0-4-0.8-5.5-2.3l-4.5-4.6l0,0l-26.9-27.6c-0.1,0.2-0.3,0.3-0.4,0.5c-4.7,6.6-9.2,13.2-13.6,20.1
	c-0.1,0.2-0.3,0.4-0.4,0.6c10.2,7.5,20.9,14.3,31.9,20.4c3-4.5,6.1-8.9,9.2-13.3l4.5,4.6c1.5,1.5,3.5,2.3,5.5,2.3s3.9-0.7,5.4-2.2
	c0.1-0.1,0.3-0.3,0.4-0.5c-3.9,5.2-7.6,10.7-11.3,16.1c39.3,19.2,82.5,29.1,127.4,29.1c36.9,0,72.7-6.7,106.7-20
	c-9.8-56.5-23.7-112.1-41.4-166.2C357,498.7,295.4,546.5,247.2,611.5z M213.4,567.2l26.9,27.4l0.1,0.1c4.9-6.4,9.8-12.5,15-18.5
	l-26.9-27.7c-0.1,0.2-0.3,0.3-0.4,0.5C223.1,554.9,218.2,561,213.4,567.2z M266,510.1l26.6,27.4l0.1,0.1c5.4-4.9,10.7-9.6,16.3-14.3
	l-26.6-27.3c-0.2,0.1-0.3,0.3-0.5,0.4C276.5,500.7,271.2,505.4,266,510.1z M294.5,486.3l26.5,27.2c5.5-4.3,11.2-8.4,16.8-12.4
	l-26.3-27.1c-0.2,0.1-0.4,0.2-0.5,0.4C305.5,478.3,299.9,482.3,294.5,486.3z M324.9,465.6l26.1,26.9l0,0c6.3-4,12.7-7.8,19.2-11.5
	l-25.9-26.6c-0.2,0.1-0.4,0.2-0.6,0.3C337.3,458.2,331.1,461.7,324.9,465.6z M358.7,447l25.6,26.3l0.1,0.1c5.9-3,11.8-5.9,17.7-8.6
	l-25.4-26.1c-0.2,0.1-0.4,0.2-0.6,0.3C370.2,441.5,364.4,444.2,358.7,447z M392.2,432.5l25.1,25.8c1.9-0.7,3.7-1.5,5.6-2.2
	c-3.4-10.2-7-20.3-10.9-30.4C405.3,427.7,398.7,430,392.2,432.5z M254.7,520.7c-0.2,0.1-0.3,0.3-0.5,0.4
	c-5.2,5.1-10.4,10.5-15.4,15.9l26.9,27.6c5.2-5.6,10.3-11,15.7-16.4L254.7,520.7z M652.6,258.7c11.9,32.9,18.1,67.6,18.4,102.9
	c0,2-0.7,3.9-2.1,5.3c-0.2,0.2-0.4,0.5-0.7,0.7c-1.3,1.1-3.1,1.7-4.8,1.7c-0.6,0-1.1-0.1-1.6-0.2c-74-15.6-143.2-18.9-205.6-10
	c-3.4,0.5-6.8-1.4-8.1-4.6c-8-19.1-16.5-38.3-25.5-57.1c-0.9-1.9-1-4.1-0.2-6.1c0.3-0.8,0.8-1.5,1.3-2.1c0.8-0.9,1.8-1.7,3-2.2
	c42.4-17,79.1-37.7,109.9-62c21-16.5,39.2-34.7,54.5-54.3c0.2-0.3,0.5-0.5,0.7-0.8c1.4-1.4,3.3-2.2,5.3-2.2c0.1,0,0.1,0,0.1,0
	c2.4,0,4.5,1.1,6,2.9C624.5,197.1,641.2,226.7,652.6,258.7z M619.1,221.5c-5.8-10.4-12.3-20.6-19.4-30.2
	c-6.9,7.7-14.4,15.3-22.3,22.4l24.7,25.5l0.1,0.1c4.5-4.4,8.8-8.9,13-13.4C616.5,224.4,617.8,223,619.1,221.5z M537.5,288.8
	c6.8-4.1,13.2-8.2,19.5-12.6c0,0,0,0,0.1,0l0,0l-26.1-26.8c-4.8,3.2-9.7,6.2-14.8,9.2c-1.7,1.1-3.3,2.2-5,3.2c0,0,0,0,0,0
	L537.5,288.8L537.5,288.8L537.5,288.8L537.5,288.8z M444.1,296.5l25.7,26.2l0.1,0.1c6.9-2.8,13.7-5.8,20.2-8.8l-25.9-26.6
	c0,0,0,0-0.1,0C457.6,290.5,450.9,293.6,444.1,296.5z M478.7,280.2l26,26.7l0.1,0.1c6.6-3.3,13-6.7,19.1-10.2l-26.3-27
	C491.4,273.4,485.1,276.8,478.7,280.2z M463.4,338.3C463.4,338.3,463.4,338.3,463.4,338.3c0,0,0,0,0-0.1c-0.1-0.1-0.1-0.1-0.2-0.2
	l0,0c0,0,0,0-0.1-0.1l-9.3-9.5c2.1,4.9,4.3,9.8,6.3,14.7c1.8-0.2,3.5-0.4,5.3-0.6c-0.2-0.4-0.4-0.9-0.6-1.3
	c-0.2-0.5-0.5-1.1-0.8-1.6C463.8,339.2,463.6,338.7,463.4,338.3z M655.8,352.2c-1.2-30.3-7-59.9-17.3-88.3
	c-3.5-9.5-7.4-18.8-11.8-27.8c-5.9,6.5-12.2,12.9-18.8,19c0.9-1.1,1.4-2.5,1.6-3.9c-0.2,1.3-0.7,2.6-1.6,3.7
	c-0.2,0.2-0.4,0.5-0.6,0.7c-0.3,0.3-0.6,0.6-1,0.8c-1.3,0.9-2.8,1.4-4.3,1.4c-2,0-4-0.7-5.5-2.3l-5.6-5.7l-25.3-26l-1.6-1.6
	c0,0,0,0-0.1,0l1.7,1.7c0,0,0,0,0,0c-6.9,5.7-14.2,11.3-21.7,16.6l-0.1-0.1l-0.8-0.9c0,0-0.1,0.1-0.1,0.1l0.8,0.9l25.9,26.6l4.7,4.8
	c2.9,3,2.9,7.7,0,10.7l-0.1,0.1c-0.5,0.6-1.2,1.1-1.9,1.4c-9.8,7.2-20.2,13.9-31.1,20.4c0.2-0.1,0.3-0.2,0.5-0.4c0,0,0,0,0,0
	c0,0,0,0,0,0c-0.2,0.1-0.3,0.3-0.5,0.4c-0.7,0.5-1.4,0.9-2.1,1.2c-0.9,0.3-1.9,0.5-2.8,0.5c0,0,0,0,0.1,0c1,0,1.9-0.2,2.8-0.5
	c-18.6,10.9-38.6,20.8-60.1,29.8c0.8,1.8,1.6,3.5,2.4,5.3c14.9-1.2,30.2-1.9,45.7-1.9C568.1,338.9,611.1,343.4,655.8,352.2z
	 M596.4,255.6l-5.6-5.7c-6.7,5.9-13.7,11.7-21.1,17.2l4.7,4.8c2.9,3,2.9,7.8,0,10.7c11.3-8.3,21.9-17,31.8-26.1
	c-1.3,0.9-2.8,1.4-4.3,1.4C599.9,257.9,597.9,257.1,596.4,255.6z M144.6,568.1c-1.3,2-3.4,3.2-5.8,3.4c-0.1,0-0.3,0-0.5,0
	c-2.2,0-4.2-1-5.7-2.6c-50.4-56.5-78.1-129.3-78.1-205c0-2.7,0-5.3,0.1-7.9c0-1.3,0.4-2.5,1-3.5c1.3-2.3,3.7-3.9,6.5-4
	c120.8-3,224.4-17.1,308-41.9c3.5-1.1,7.3,0.6,9,3.9c8.3,16.7,16.2,33.7,23.6,50.6c0.9,2,0.8,4.2-0.1,6.2c0,0,0,0,0,0.1
	c-0.9,2-2.7,3.5-4.8,4.1c-50.3,14.4-97,38.1-138.8,70.5C216.9,474.6,178.5,516.9,144.6,568.1z M122.9,361.2l22.4,23l0.1,0.1
	c8.5-0.4,16.8-0.9,25-1.5l-22.7-23.3C139.5,360.2,131.3,360.7,122.9,361.2C122.9,361.2,122.9,361.2,122.9,361.2z M167.6,357.9
	l22.9,23.5c8.2-0.6,16.4-1.3,24.4-2.1l-23.1-23.7C183.8,356.4,175.9,357.2,167.6,357.9C167.7,357.9,167.6,357.9,167.6,357.9z
	 M234.7,350.5c-7.7,1.1-15.5,2.1-23.4,3l23.2,23.8l0.1,0.1c7.9-0.9,15.7-1.8,23.4-2.8l0,0c0.1,0,0.1,0,0.2,0L234.7,350.5z
	 M109.9,511.5l6.8,7c-2.3-5.4-4.3-11-6.3-16.6l0.1,0.1c-0.1-0.2-0.1-0.4-0.2-0.6L98,488.8c2.4,5.2,5,10.3,7.8,15.5
	C107.2,506.7,108.5,509.1,109.9,511.5z M70.1,373.5c0.3,7.7,0.8,15.4,1.7,23l22.4,23c-0.4-6-0.6-11.9-0.6-18c0-1.2,0-2.3,0-3.5l0,0
	c0-0.1,0-0.2,0-0.3l-0.1-0.1L70.1,373.5z M77.6,430.2c1.1,4.9,2.4,9.7,3.8,14.4c0.7,2.4,1.4,4.8,2.2,7.1l17.8,18.2
	c-1.9-8.4-3.5-16.9-4.7-25.5c0,0,0,0,0.1,0.1c0-0.2,0-0.3-0.1-0.5L76,422.9C76.5,425.3,77,427.8,77.6,430.2z M81.5,363.2
	C81.5,363.2,81.4,363.2,81.5,363.2l22,22.7c0,0,0.1,0,0.1,0c7.1-0.3,14.1-0.5,21.2-0.7l-0.1-0.1l-22.2-22.8
	C95.6,362.7,88.6,363,81.5,363.2z M144.5,541.1c31.6-44.2,66.9-81.6,105.2-111.3c27.3-21.1,56.6-38.7,87.6-52.5
	c-32.5,6.4-67.2,11.6-104,15.5c-0.7,0.2-1.3,0.3-2,0.3c-0.1,0-0.2,0-0.3,0c-38.5,4-79.2,6.7-122.1,7.8c0,0.1,0,0.1,0,0.2
	C108.9,450.4,121.3,498.5,144.5,541.1z M295.8,340.4l23.9,24.6l0.2,0.2c0,0,0.1,0,0.1,0l-0.2-0.3c8.3-1.5,16.4-3.1,24.5-4.7
	L320,335.3C312.1,337.1,304,338.8,295.8,340.4z M337.4,331.2C337.4,331.2,337.5,331.2,337.4,331.2l24.6,25.2c0.1,0,0.2,0,0.2-0.1
	l-0.1-0.1c6.6-1.5,13.1-3.1,19.5-4.7c-1.9-4.2-3.8-8.2-5.7-12.3l-14-14.4C353.9,327,345.7,329.2,337.4,331.2L337.4,331.2z
	 M277.4,343.7c-7.8,1.4-15.8,2.7-23.8,4c0,0-0.1,0-0.1,0l23.6,24.2c8.2-1.1,16.2-2.4,24.1-3.7l0.1,0.1c0,0,0,0,0,0L277.4,343.7z
	 M61.3,302.8c-0.3-1.1-0.3-2.2-0.2-3.3c9.8-46,30.4-89.9,59.7-126.9C149.7,136,187.1,106,229,85.8c1.4-0.6,3-0.8,4.4-0.6
	c0.1,0,0.1,0,0.2,0c0.3,0.1,0.6,0.1,0.9,0.2c0.1,0,0.3,0.1,0.4,0.1c0.2,0.1,0.5,0.2,0.7,0.3c0.2,0.1,0.3,0.2,0.5,0.3
	c0.2,0.1,0.4,0.2,0.5,0.3c0.2,0.1,0.4,0.3,0.6,0.5c0.1,0.1,0.1,0.1,0.2,0.2c0.3,0.3,0.6,0.6,0.9,0.9
	c43.8,56.1,82.7,114.8,115.6,174.5c1.2,2.1,1.3,4.5,0.4,6.7c-0.9,2.1-2.7,3.8-5,4.4c-76.9,21.4-171.3,33.3-280.6,35.2h-0.1
	c-2,0-3.8-0.8-5.3-2.1c-0.2-0.2-0.4-0.4-0.6-0.7c-0.3-0.4-0.6-0.8-0.8-1.2c0,0,0-0.1-0.1-0.1c-0.2-0.3-0.3-0.7-0.4-1
	C61.4,303.4,61.4,303.1,61.3,302.8C61.3,302.8,61.3,302.8,61.3,302.8z M78.4,293.3c6.7-0.2,13.4-0.4,20-0.6L83,276.9
	c0,0.2-0.1,0.3-0.1,0.5C81.3,282.6,79.8,288,78.4,293.3z M124.2,194.3l27,27.5c2.8-4,5.7-7.8,8.7-11.6c1.5-1.9,3-3.8,4.6-5.6
	l-26.9-27.7c-0.1,0.1-0.2,0.2-0.2,0.3c-1.5,1.8-3,3.6-4.5,5.5C129.9,186.5,127,190.4,124.2,194.3z M190,177.5l-0.1-0.1L163.2,150
	c-0.1,0.1-0.2,0.2-0.3,0.2c-5.2,4.8-10.2,9.9-15,15.1l26.8,27.6l0,0C179.6,187.7,184.7,182.5,190,177.5z M115.4,207.2
	c-0.1,0.1-0.2,0.2-0.2,0.4c-3.9,6.2-7.6,12.5-11.1,19l26.8,27.4c3.6-6.6,7.4-13,11.4-19.2L115.4,207.2z M214.8,156.3
	c1.5-1.2,3.1-2.3,4.6-3.4l-26.5-27.2c-0.1,0.1-0.2,0.1-0.3,0.2c-6.2,4.4-12,9-17.8,13.8l26.5,27.3l0.2,0.2
	C205.8,163.4,210.2,159.8,214.8,156.3z M226.2,105c-0.1,0.1-0.2,0.1-0.3,0.2c-6.9,3.6-13.5,7.6-20,11.7l26.3,27
	c6.5-4.3,13.2-8.4,19.9-12.2L226.2,105z M261.1,144.5c-34.3,18.8-65,44.7-89.3,75.5c-12.1,15.3-22.6,31.9-31.5,49.3
	c0,0.1,0,0.1,0,0.2c-0.3,0.7-0.6,1.4-1.1,2.1c-0.3,0.3-0.6,0.7-0.9,1c-1.5,1.5-3.5,2.2-5.4,2.2c-2,0-4-0.8-5.5-2.3l-3.8-3.9
	l-26.7-27.4c0,0,0,0,0,0.1c-0.1,0.1-0.1,0.2-0.2,0.3c-2.9,6.2-5.6,12.6-8,19l26.4,27.2l0,0l0,0c2.6-6.4,5.3-12.7,8.2-18.9l3.8,3.9
	c1.5,1.5,3.5,2.3,5.5,2.3s3.9-0.7,5.4-2.2c0.4-0.3,0.6-0.6,0.9-1c-3.2,6.5-6.1,13-8.8,19.7c77.9-4.4,146.8-14.4,205.6-29.9
	C313.5,222,288.5,182.8,261.1,144.5z M667.1,414.5c-10.4,62.2-40,119.8-83.7,164.6c-14.6,14.9-30.7,28.4-48.2,40.2
	c-1.3,0.9-2.8,1.3-4.3,1.3c-1,0-2-0.2-3-0.6c-2.3-1-4.1-3.1-4.5-5.7c-12.4-71.7-31-142.1-55.3-209.1c-0.8-2.1-0.6-4.5,0.6-6.5
	c0.6-0.9,1.4-1.8,2.3-2.4c0.9-0.6,2-1.1,3.2-1.2c59.6-8.6,122.5-5,187.2,10.7C665.3,406.8,667.8,410.5,667.1,414.5z M631,431.1
	l-19-19.4c0,0-0.1,0-0.1,0c-8.9-1.4-17.8-2.5-26.6-3.4l19.9,20.5l0.1,0.1c3.3,0.2,6.5,0.4,9.8,0.7C620.4,430,625.7,430.5,631,431.1z
	 M536.3,599.9c2.4-1.8,4.9-3.7,7.3-5.6l0,0l-10.4-10.7c0,0,0,0.1,0,0.1C534.3,589.1,535.3,594.5,536.3,599.9z M518.4,431.9
	c7-0.9,14-1.7,21.1-2.3L517,406.5c0,0-0.1,0-0.1,0c-7.3,0.4-14.5,0.9-21.7,1.6L518.4,431.9z M521.9,531.8c1.9,7.9,3.7,15.8,5.5,23.8
	l19.1,19.6c-2-8.1-3.9-16.1-6-24.1l0.1,0.1c0-0.1,0-0.2-0.1-0.3l-0.1-0.1L521.9,531.8z M508,479c2.2,7.7,4.3,15.3,6.4,23l17.6,18.1
	c-2.3-7.9-4.6-15.8-7.1-23.6l0.2,0.2c0-0.1,0-0.1-0.1-0.2l-0.1-0.1L508,479z M577.2,428.1c1.9,0,3.9,0,5.8,0l-20.9-21.5
	c-0.1,0-0.1,0-0.2,0c-8-0.4-15.9-0.6-23.8-0.6l21.7,22.3l0.1,0.1C565.7,428.2,571.4,428.1,577.2,428.1z M648.9,427.3
	c0.7-2.7,1.3-5.4,1.7-8.2c-4.1-0.9-8.2-1.8-12.3-2.6L648.9,427.3z M498.3,447.1L498.3,447.1C498.3,447.1,498.3,447,498.3,447.1
	l15.6,15.9c-2.3-6.7-4.6-13.4-7-20c-0.1-0.2-0.1-0.5-0.2-0.7l0.2,0.2c0-0.1-0.1-0.3-0.1-0.4l-15.2-15.6
	C493.9,433.3,496.1,440.2,498.3,447.1z M643.5,448c-40.7-5.6-80.5-6.1-119-1.4c5,14,9.7,28.2,14.2,42.6c0.1,0.3,0.2,0.7,0.3,1
	c9,28.8,16.9,58,23.8,87.7C600.6,542.4,628.6,497.4,643.5,448z M286.9,75.9c-1.6-2.1-1.9-4.7-1.1-7.2s2.9-4.3,5.4-4.9
	c23.4-5.6,47.5-8.4,71.8-8.3c75.8,0,148.7,27.8,205.2,78.3c0.2,0.1,0.3,0.3,0.5,0.4c2.7,2.7,2.8,7.1,0.3,10.2
	c-38.5,46.3-92.5,83.2-160.3,109.7c-0.9,0.3-1.9,0.5-2.8,0.5c-2.1,0-4.1-0.9-5.6-2.4c-0.5-0.5-0.9-1.1-1.2-1.7
	C367.2,190.6,329.5,131.9,286.9,75.9z M309.9,75.5l24.3,24.9c0,0,0,0,0,0l0,0c0,0,0,0,0,0c6.8-1.6,13.8-2.9,20.8-3.9l0,0l-23.4-24.1
	C324.2,73.1,317,74.2,309.9,75.5z M546.6,146.5c-43.8-25-93.6-38.3-144.7-38.3c-19,0-38,1.9-56.6,5.5
	c28.4,38.1,54.7,77.4,78.4,117.5C473.7,209,514.9,180.6,546.6,146.5z M454.4,85.3l14.5,14.9c7.5,1.7,14.8,3.6,22.1,5.8l-10.4-10.7
	c0,0,0,0,0,0l0,0C472,91.6,463.3,88.2,454.4,85.3z M425.2,77.4c-8.2-1.8-16.4-3.2-24.8-4.3l19.7,20.3l0,0h0l0,0
	c7.7,0.5,15.2,1.2,22.8,2.2L425.2,77.4z M362.9,70.7c-3.7,0-7.5,0.1-11.1,0.2c0,0-0.1,0-0.1,0l22.6,23.2c0,0,0,0,0,0
	c7.9-0.7,15.8-1.1,23.8-1.2L376.8,71C372.2,70.8,367.5,70.7,362.9,70.7z"/>
</svg>
