<svg version="1.1" id="Layer_1" xmlns:serif="http://www.serif.com/"
	 xmlns="http://www.w3.org/2000/svg" xmlns:xlink="http://www.w3.org/1999/xlink" x="0px" y="0px" viewBox="0 0 432.8 765.4"
	 style="enable-background:new 0 0 432.8 765.4;" xml:space="preserve">
<path var:color.fill="#000" d="M393.8,431.5l-12.7-13.1h-20.2h0l0,0L339,395.8h-0.1h-21.3l21.9,22.6l12.7,13c1.5,1.5,3.5,2.3,5.5,2.3
	c1.2,0,2.4-0.3,3.4-0.8c-1.1,0.6-2.3,0.9-3.5,0.9c-2,0-4-0.8-5.4-2.3l-12.7-13.1h-22.8l2.3,2.3c3,3,2.9,7.9-0.2,10.9
	c-1.5,1.4-3.4,2.2-5.3,2.2h44.1h0.1h41.6C397.3,433.8,395.3,433,393.8,431.5z M362.9,431.6c-0.1,0.1-0.1,0.1-0.2,0.2
	C362.8,431.7,362.9,431.6,362.9,431.6C362.9,431.6,362.9,431.6,362.9,431.6z M430.6,40.2l-38-37.9c-0.1-0.1-0.2-0.1-0.2-0.2
	c-0.1-0.1-0.3-0.2-0.4-0.3c-0.1-0.1-0.2-0.2-0.4-0.3c-0.1-0.1-0.3-0.2-0.4-0.3c-0.1-0.1-0.3-0.2-0.4-0.2c-0.2-0.1-0.4-0.2-0.7-0.3
	c-0.1-0.1-0.3-0.1-0.4-0.1c-0.2-0.1-0.3-0.1-0.5-0.2c-0.1,0-0.3-0.1-0.4-0.1c-0.2,0-0.4-0.1-0.6-0.1s-0.4,0-0.7-0.1
	c-0.1,0-0.3,0-0.4,0h-0.3H179C140.9,0,105,20.4,85.3,53.2c-10.1,16.9-15.4,36.2-15.4,56v140.5H7.7c-4.2,0-7.7,3.4-7.7,7.7V388
	c0,2,0.7,4,2.2,5.5l37.9,38c1.4,1.4,3.4,2.3,5.4,2.3h24.3v286c0,3.1,1.9,5.9,4.6,7l35.5,36.3c1.4,1.5,3.4,2.3,5.5,2.3h153.9
	c4.2,0,7.7-3.4,7.7-7.6l0.3-50.5c-0.3,1.5-1,2.9-2.1,4c-1.5,1.5-3.4,2.2-5.4,2.2s-4-0.8-5.5-2.3l-0.1-0.1c1.5,1.5,3.5,2.3,5.5,2.3
	c1.9,0,3.9-0.7,5.4-2.2c1.3-1.3,2.1-3,2.3-4.7l0,0.7c0.2-1,0.2-2,0-3l0,0.6c-0.2-1.7-0.9-3.3-2.2-4.7l-13.1-13.4l-22.6-23.2l0-0.1v0
	l0.2-28.2v0l22.7,23.3l1.9,1.9c1.5,1.5,3.5,2.3,5.5,2.3c1.9,0,3.9-0.7,5.4-2.2c1.5-1.5,2.3-3.4,2.3-5.4c0,2-0.8,4-2.3,5.5
	c-1.5,1.5-3.4,2.2-5.4,2.2s-4-0.8-5.5-2.3l-1.9-1.9l-0.2,28.2l13.1,13.4c1.1,1.1,1.8,2.5,2.1,3.9L278,612c0,2-0.8,3.9-2.3,5.4
	s-3.4,2.2-5.4,2.2s-4-0.8-5.5-2.3l-2.2-2.3l-0.1,21.7l0,0l-22.7-23.3l0.1-21.7v0l22.7,23.3l2.2,2.3c1.5,1.5,3.5,2.3,5.5,2.3
	c1.9,0,3.9-0.7,5.4-2.2s2.3-3.4,2.3-5.4s-0.7-3.9-2.2-5.5l-13.1-13.4L240,569.8l0.1-23.3l0.1-21.9l0.1-22.5l0.1-21.9l0.2-25.4
	l0.1-21.9l0.2-25.9l0.1-11.3h10.4h21.7h21.4h22.8h21.4h20.1h3.9c3.7,0,6.9-2.6,7.5-6.3l0.6-3.3l2.5-13.3l3.4-18.5l3.1-16.7l3.4-18.5
	l2.5-13.4l3.4-18.5l2.6-14.1l0.3,0.3l24.5,24.5l-2.6,14.2L389.5,287l0,0l-3.4,18.5l24.7,25.4l2.7,3c1.5,1.6,3.5,2.3,5.5,2.3
	c1.1,0,2.3-0.3,3.4-0.8c-1.2,0.7-2.5,1-3.8,1c-2,0-4-0.8-5.5-2.3l-2.5-2.5l-0.3-0.3l-2.4,12.6l-24.3-25l0,0l-3.4,18.5l24.7,25.4
	l2.7,3c1.5,1.6,3.5,2.3,5.5,2.3c1.6,0,3.2-0.5,4.5-1.5c-1.4,1.3-3.2,1.9-5,1.9c-2,0-4-0.8-5.5-2.3l-2.4-2.4l-0.4-0.4l-2.9,15.8
	L377,354.3l-3.4,18.5l24.7,25.4l2.7,2.9c1.5,1.6,3.5,2.3,5.5,2.3c1.8,0,3.7-0.6,5.2-2c-0.1,0.1-0.2,0.2-0.3,0.3
	c-1.5,1.5-3.4,2.2-5.4,2.2s-4-0.8-5.5-2.3l-2.4-2.4l-0.4-0.4l-2.2,12.3l0,0l-24.4-24.9l-0.6,3.3c-0.7,3.6-3.8,6.3-7.5,6.3h-3.9h0
	l0,0l22.1,22.6l12.8,13.1c1.5,1.5,3.5,2.3,5.5,2.3c1.8,0,3.6-0.6,5.1-1.9c-0.1,0.1-0.2,0.2-0.3,0.3c-1.5,1.5-3.4,2.2-5.4,2.2h1.5
	c3.7,0,6.9-2.6,7.6-6.3l5.3-28.9c0.7-1.4,1-2.9,0.8-4.4l5.7-30.6c0.8-1.5,1.1-3.2,0.9-4.9l5-27c0.8-1.5,1.1-3.2,0.9-4.9l5.6-30.1
	c0.5-2.5-0.3-5-2.1-6.8l-37.9-37.9c-0.4-0.4-0.9-0.8-1.4-1.1c-0.2-0.1-0.5-0.3-0.7-0.4c-0.2-0.1-0.5-0.2-0.8-0.3
	c-0.3-0.1-0.5-0.2-0.8-0.2c-0.6-0.1-1.2-0.2-1.8-0.2H279.1v-16.5c0-2.3,0.2-4.7,0.5-6.9c-0.4,1.1-1,2.1-1.9,2.9
	c-1.5,1.5-3.4,2.2-5.4,2.2s-4-0.8-5.5-2.3l-2.6-2.7c-0.3,2.3-0.4,4.6-0.4,7c0,0,0,0,0,0v15.6v0.9h-1.6h-21v-0.9h20.9l-20.9-21.5
	v-24.7v-0.9l23,23.6l2.6,2.7c1.5,1.6,3.5,2.3,5.5,2.3c1.9,0,3.9-0.7,5.4-2.2c1.6-1.6,2.4-3.7,2.3-5.8c0,0.3,0.1,0.7,0.1,1
	c2-9.8,7-19,14.7-26.5c-1.3,0.9-2.8,1.3-4.3,1.3c-2,0-4-0.8-5.5-2.3l-5.1-5.3c-4.5,5.4-8.2,11.3-10.9,17.6l-0.2-0.2l0,0l-25.5-26.1
	c1.9-6.6,5.3-12.9,9.9-18.5c0.1-0.2,0.3-0.3,0.4-0.5l26.3,27l0.1,0.1l5,5.2c1.5,1.5,3.5,2.3,5.5,2.3c1.9,0,3.9-0.7,5.4-2.2
	c1.7-1.7,2.5-3.9,2.3-6.1c0.4,2.1-0.1,4.4-1.5,6.2c10.1-9.2,23.6-15,38-16.3h36.5c-2,0-4-0.8-5.5-2.3l-12.7-13.1h-18.6
	c-0.2,0-0.4,0-0.7,0c-3,0.3-5.9,0.7-8.8,1.3l-0.5-0.5l-0.1-0.1l-22.3-23h28.9h0.9l21.1,21.7l12.7,13.1c1.5,1.5,3.5,2.3,5.5,2.3
	c1.9,0,3.9-0.7,5.4-2.2c3.1-3,3.2-7.8,0.2-10.9c3,3,2.9,7.9-0.1,10.9c-1.5,1.5-3.4,2.2-5.4,2.2h52.8c0.4,0.1,0.8,0.1,1.2,0.1
	c0.3,0,0.5,0,0.8,0c0.1,0,0.2,0,0.3,0c0.1,0,0.3,0,0.4-0.1c0.1,0,0.2-0.1,0.4-0.1c0.1,0,0.3-0.1,0.4-0.1c0.1,0,0.2-0.1,0.3-0.1
	s0.2-0.1,0.4-0.1c0.1,0,0.2-0.1,0.3-0.1c0.1-0.1,0.2-0.1,0.4-0.2c0.1-0.1,0.2-0.1,0.3-0.2c0.1-0.1,0.2-0.1,0.3-0.2s0.2-0.1,0.3-0.2
	c0.1-0.1,0.2-0.1,0.3-0.2c0.1-0.1,0.2-0.2,0.3-0.3c0.1-0.1,0.1-0.1,0.2-0.2c0.1-0.1,0.2-0.2,0.3-0.3c0.1-0.1,0.1-0.1,0.2-0.2
	c0.1-0.1,0.1-0.2,0.2-0.3c0.2-0.3,0.4-0.6,0.6-0.9c0.1-0.2,0.2-0.3,0.2-0.5c0-0.1,0.1-0.1,0.1-0.2c0.1-0.1,0.1-0.3,0.2-0.4
	c0-0.1,0.1-0.2,0.1-0.3c0-0.1,0.1-0.3,0.1-0.4c0-0.2,0.1-0.3,0.1-0.5s0.1-0.4,0.1-0.6c0-0.1,0-0.2,0-0.2c0-0.2,0-0.4,0-0.5
	c0-2-0.7-3.9-2.2-5.4l-9.8-10.4l9.9,10.2c1.5,1.5,2.2,3.5,2.2,5.4V129c0,2-0.8,4-2.3,5.5s-3.4,2.2-5.4,2.2s-4-0.8-5.5-2.3l-2.2-2.2
	l0,0v20.3l-22.6-23.1V109V87V69.2l0.1,0.1l22.5,23l2.2,2.3c0.3,0.3,0.7,0.6,1,0.9c-0.4-0.3-0.7-0.5-1-0.9l-2.2-2.2l0,0V110l-22.5-23
	v22l22.6,23.1l2.1,2.2c1.5,1.5,3.5,2.3,5.5,2.3c1.9,0,3.9-0.7,5.4-2.2c1.5-1.5,2.3-3.4,2.3-5.4c0,0,0,0,0,0V129v0V89.3v0v0
	c0,0,0,0,0,0c0-2-0.7-3.9-2.2-5.5c1.5,1.5,2.2,3.5,2.2,5.4V45.6C432.8,43.6,432,41.6,430.6,40.2z M413.6,397.7
	C413.6,397.7,413.6,397.7,413.6,397.7C413.6,397.7,413.6,397.7,413.6,397.7z M69.9,418.4H48.8l-22.6-22.6h19.3h0.1H54l15.9,15.8
	V418.4z M153.8,758.9c-0.3,0.3-0.7,0.5-1.1,0.5s-0.8-0.2-1.1-0.5l-8.9-8.8h-24.1l-22.1-22.6h0.2H120h0.1l22.7,22.5l8.9,8.8
	c0.3,0.3,0.7,0.5,1.1,0.5C153.2,759.3,153.5,759.1,153.8,758.9C153.8,758.9,153.8,758.9,153.8,758.9z M195.6,758.9
	c-0.3,0.3-0.7,0.5-1.1,0.5c-0.4,0-0.8-0.2-1.1-0.5l-8.9-8.8h-37.1l-0.1-0.1l-22.7-22.5h37.2h0.1l22.7,22.5l8.9,8.8
	c0.3,0.3,0.7,0.5,1.1,0.5C195,759.3,195.3,759.1,195.6,758.9C195.6,758.9,195.6,758.9,195.6,758.9z M233.6,758.9
	c-0.3,0.3-0.7,0.5-1.1,0.5c-0.4,0-0.8-0.2-1.1-0.5l-8.9-8.8h-33.3l-0.1-0.1l-22.7-22.5h33.4h0l22.7,22.5l8.9,8.8
	c0.3,0.3,0.7,0.5,1.1,0.5s0.8-0.2,1.1-0.5c0.3-0.3,0.4-0.7,0.4-1C234.1,758.2,233.9,758.6,233.6,758.9z M270.6,757.8
	c-0.3,0.3-0.7,0.5-1.1,0.5c-0.4,0-0.8-0.2-1.1-0.5l-7.8-7.7h-33.5L227,750l-22.7-22.5h0.1h27.1c1.7,0,3.3-0.6,4.6-1.6l0,0
	c0,0,0,0,0.1,0l24.3,24l7.8,7.7c0.3,0.3,0.7,0.5,1.1,0.5c0.4,0,0.8-0.2,1.1-0.5c0.4-0.4,0.5-1.1,0.4-1.6
	C271.2,756.6,271.1,757.3,270.6,757.8z M262,708.8l0.1,0.1l-0.2,38l-0.1-0.1l-0.1-0.1l-23.5-23.3c0.6-1.1,1-2.3,1-3.6l0.2-34.1
	l0-0.1L262,708.8z M239.5,155.5c-1.4,1.8-2.6,3.6-3.8,5.5c-0.8,1.3-1.5,2.6-2.2,3.9c-1.2,2.3-2.3,4.7-3.3,7.1c-0.5,1.3-1,2.6-1.4,4
	c-0.7,2.1-1.2,4.2-1.7,6.3c-0.2,1.1-0.4,2.1-0.6,3.2c-0.1,0.8-0.2,1.6-0.3,2.4c-0.3,2.4-0.4,4.9-0.4,7.4v0v62.1c0,0.3,0,0.5,0,0.8
	c0.2,1.5,0.7,2.9,1.6,4c0,0,0,0.1,0.1,0.1c0.1,0.1,0.2,0.2,0.3,0.4c0.1,0.1,0.1,0.1,0.2,0.2c0.1,0.1,0.1,0.1,0.2,0.2
	c0.1,0.1,0.2,0.2,0.4,0.3c0,0,0.1,0,0.1,0.1c1.1,0.9,2.5,1.5,4,1.6c0.3,0,0.5,0,0.8,0H378l-21.3,115.5h-0.1h-123c0,0,0,0,0,0
	c-4.2,0-7.7,3.4-7.7,7.6l-2,324h-0.1H85.3V388.2c0-2.2-0.9-4.1-2.3-5.5c-1.4-1.4-3.3-2.2-5.4-2.2H15.4v-0.1V265h62.1
	c4.3,0,7.7-3.5,7.7-7.7V109.2c0-17,4.6-33.6,13.3-48.1c16.9-28.2,47.8-45.7,80.5-45.7h0.1h200.4v110.3h-83.2h0c-0.2,0-0.4,0-0.7,0
	c-18.8,1.6-36.4,9.5-49.3,22.1c-1.7,1.6-3.2,3.3-4.7,5C240.9,153.7,240.2,154.6,239.5,155.5z M326.5,178.9c-1.5,1.5-3.4,2.2-5.4,2.2
	s-4-0.8-5.5-2.3l-7.8-8c-5.8,2.5-11.4,5.7-16.4,9.6l-0.5-0.5l-26-26.7c0,0,0,0,0,0c5.3-3.6,11.1-6.5,17.3-8.4
	c0.2-0.1,0.5-0.1,0.8-0.2c0,0,0,0,0,0l24.8,25.5l7.8,8c1.5,1.5,3.5,2.3,5.5,2.3c1.9,0,3.9-0.7,5.4-2.2c1.4-1.4,2.2-3.3,2.3-5.2
	C328.9,175.1,328.1,177.3,326.5,178.9z M374.4,163.6L374.4,163.6l-21.2-21.7h0h31.5h0.8l21.2,21.7H374.4z M394.8,47.2v-21l0.1,0.1
	l22.5,22.5v21.5l-22-22.5L394.8,47.2z M425.1,96.9c1.9,0,3.9-0.7,5.4-2.2C429,96.2,427.1,96.9,425.1,96.9z M279.6,226.9
	c0.1-0.9,0.3-1.8,0.5-2.7C280.1,225,279.9,226,279.6,226.9z M295,197.4c0.5-0.5,1-1,1.6-1.5c-0.2,0.3-0.4,0.5-0.7,0.8
	c-0.3,0.3-0.7,0.7-1.1,0.9C294.9,197.5,294.9,197.5,295,197.4z M313.4,433.7c1.9,0,3.8-0.7,5.3-2.2c3.1-2.9,3.2-7.7,0.2-10.8
	l-2.3-2.3l-21.9-22.6h-21.4l11.1,11.5l10.8,11.1h-21.6l-21.9-22.6h-0.1h-10.3l-0.1,11.3l22.7,23.3l2,2.3c0.7,0.8,1.6,1.4,2.5,1.7
	c0,0,0.1,0,0.1,0c0,0-0.1,0-0.1,0c-1-0.4-1.9-1-2.6-1.7l-2.1-2.2l-0.1-0.1l-0.2,25.6l-22.5-23l-0.1,21.9l22.7,23.3l1.8,2
	c1.5,1.6,3.5,2.3,5.5,2.3c1.2,0,2.4-0.3,3.5-0.8c-1.1,0.6-2.4,0.9-3.7,0.9c-2,0-4-0.8-5.5-2.3l-1.7-1.8l-0.2-0.2l-0.2,25l-22.4-23
	l-0.1,21.9l22.7,23.3l0,0.1L263,548l-22.7-23.3l-0.1,21.9v0l22.7,23.3l-0.1,23.2l13.1,13.4c1.5,1.5,2.2,3.5,2.2,5.5l0.3-45
	c0,2-0.8,3.9-2.3,5.4c-1,0.8-2.1,1.4-3.2,1.7c-0.1,0-0.1,0-0.2,0.1c0.1,0,0.1,0,0.2-0.1c1.1-0.3,2.2-0.9,3.1-1.8
	c1.5-1.5,2.3-3.4,2.3-5.4v0c0,0,0,0,0,0l0.3-44.3c0,2-0.8,3.9-2.3,5.4c-0.4,0.4-0.9,0.7-1.4,1c0.5-0.3,1-0.6,1.4-1.1
	c1.5-1.5,2.3-3.4,2.3-5.4c0-0.7-0.1-1.4-0.3-2.1l0.5-86.5h34.3c-2,0-4-0.8-5.5-2.3l-12.4-13.2l12.7,13
	C309.4,432.9,311.4,433.7,313.4,433.7z M269.2,434.7c0.7,0.2,1.4,0.3,2.1,0.3c0,0,0,0,0,0C270.6,435,269.9,434.9,269.2,434.7
	C269.2,434.7,269.2,434.7,269.2,434.7C269.2,434.7,269.2,434.7,269.2,434.7z"/>
</svg>
