<svg version="1.1" id="Layer_1" xmlns="http://www.w3.org/2000/svg" xmlns:xlink="http://www.w3.org/1999/xlink" x="0px" y="0px"
	 viewBox="0 0 71.3 68.7" style="enable-background:new 0 0 71.3 68.7;" xml:space="preserve">
<path var:color.fill="#000" d="M38.6,38.7c9.6,0,17.3-7.8,17.3-17.3S48.2,4.2,38.6,4.2c-9.5,0-17.3,7.7-17.3,17.3C21.3,30.9,29,38.7,38.6,38.7z M38.6,6.7
	c8.2,0,14.8,6.5,14.8,14.7c0,0,0,0,0,0c0,0,0,0,0,0c0,8.2-6.6,14.8-14.8,14.8c-8.2,0-14.8-6.6-14.8-14.8S30.4,6.7,38.6,6.7z
	 M66.1,43.6c0-0.1-0.1-0.2-0.2-0.3C64.4,41.5,62,41,60,42.2l-1.4-1.7c-1.2-1.4-3.4-1.8-5-0.7l-1.3,0.9l-0.8-1
	c-1.2-1.4-3.3-1.8-5-0.7l-9.1,5.9l-10.1-4.2c-3.2-1.3-6.8-0.8-9.6,1.4L4.8,52.4c-0.6,0.4-0.7,1.2-0.3,1.7c0.4,0.6,1.2,0.7,1.7,0.3
	l0.1-0.1L19.2,44c2-1.6,4.7-2,7.1-1l17.9,7.3c1.2,0.5,1.7,1.9,1.2,3.1c-0.5,1.1-1.8,1.7-2.9,1.2L30.4,50c-0.6-0.3-1.4,0-1.7,0.6
	c-0.3,0.6,0,1.4,0.6,1.7c0,0,0.1,0,0.1,0.1l12.1,4.8c0.6,0.2,1.2,0.3,1.8,0.3c2.6,0,4.7-2,4.8-4.6l0.1-0.1l12.6-8.2
	c1-0.7,2.5-0.4,3.2,0.6s0.4,2.5-0.6,3.2l-17,12c-2.2,1.6-5,2-7.6,1.3l-14.4-4.1c-2.7-0.8-5.5-0.2-7.7,1.6l-3.9,3.2
	c-0.5,0.4-0.6,1.2-0.1,1.8c0.2,0.3,0.6,0.4,0.9,0.4c0.3,0,0.6-0.1,0.8-0.3l3.9-3.2c1.5-1.2,3.5-1.7,5.4-1.1l14.4,4
	c3.3,0.9,6.9,0.3,9.7-1.7L65,50.2C67.2,48.7,67.7,45.7,66.1,43.6z M42.6,47.1l-2.4-1l0.1-0.1l-0.1,0l7.7-5c0.6-0.3,1.3-0.2,1.7,0.3
	l0.6,0.7l-0.1,0l0.1,0.1L42.6,47.1z M47.6,50.2c-0.5-0.9-1.3-1.6-2.2-2l9.6-6.3c0.5-0.4,1.3-0.2,1.7,0.3l1.2,1.4L47.6,50.2z
	 M32.5,26.2c0-0.1,0-0.3,0.1-0.4c0.2-0.7,1-1,1.6-0.7c1.4,0.5,2.8,0.9,4.2,1h0.3c1.5-0.1,2.3-0.6,2.3-1.8c0,0,0,0,0-0.1c0,0,0,0,0,0
	c0-1.2-0.7-1.6-2.3-2.2l-0.5-0.2l-0.3-0.1c-1.6-0.6-4.3-1.7-4.3-4.3c0-1.1,0.6-3.2,3.8-3.7v-0.1h0V12c0-0.6,0.5-1.2,1.2-1.2
	c0.7,0,1.3,0.5,1.3,1.2v1.7c1,0.1,2,0.2,3,0.5c0.5,0.1,0.9,0.5,0.9,1c0,0.1,0,0.3,0,0.4c-0.1,0.7-0.8,1.1-1.5,0.9
	c-1.2-0.3-2.4-0.5-3.6-0.5c-2.5,0-2.5,0.9-2.6,1.4c0,0,0,0,0,0c0,0,0,0,0,0.1c0,0.9,1.6,1.5,2.7,2l0.7,0.3c1.5,0.6,3.9,1.6,3.9,4.5
	c0.1,2.2-1.5,3.9-3.6,4.1v0.1v1.6c0,0.1,0,0.1,0,0.1c0,0.7-0.6,1.2-1.3,1.2s-1.2-0.6-1.2-1.3v-1.6v-0.1c-1.4-0.2-2.7-0.6-4-1.1h-0.1
	C32.8,27.1,32.5,26.7,32.5,26.2z"/>
</svg>
