<svg version="1.1" id="Layer_1" xmlns:serif="http://www.serif.com/"
	 xmlns="http://www.w3.org/2000/svg" xmlns:xlink="http://www.w3.org/1999/xlink" x="0px" y="0px" viewBox="0 0 750.6 752.8"
	 style="enable-background:new 0 0 750.6 752.8;" xml:space="preserve">
<path var:color.fill="#000" d="M750.6,400.7c0-22.3-2.1-44.7-6.3-66.5c-0.3-1.8-1.3-3.3-2.6-4.4l-45.5-47.1c-0.2-0.2-0.5-0.5-0.8-0.7c0,0-0.1-0.1-0.2-0.1
	c-0.3-0.2-0.5-0.4-0.8-0.5c0,0-0.1,0-0.1-0.1c-0.6-0.3-1.3-0.6-1.9-0.7h-0.1c-0.3-0.1-0.6-0.1-1-0.1c-0.1,0-0.1,0-0.2,0
	c-0.1,0-0.2,0-0.3,0h-330c-4.2,0-7.7,3.4-7.7,7.7v136.1c0,0.1,0,0.1,0,0.2c0,0.1,0,0.2,0,0.3c0,0.2,0,0.4,0.1,0.5c0,0.1,0,0.2,0,0.3
	c0,0.2,0.1,0.4,0.1,0.6c0,0.1,0,0.1,0.1,0.2c0.2,0.6,0.4,1.1,0.7,1.6c0,0.1,0.1,0.1,0.1,0.2c0.1,0.2,0.2,0.3,0.3,0.5
	c0.1,0.1,0.1,0.2,0.2,0.2c0.1,0.2,0.3,0.3,0.4,0.5l0.1,0.1l46.1,47.6c1.4,1.5,3.4,2.3,5.5,2.3h101c-11.3,13.7-24.4,25.9-39.1,36.4
	c-34,24.1-74.1,36.8-115.9,36.8c-44.6,0-85.8-14.6-119.2-39.3c-22.4-32.4-35.5-71.6-35.5-113.9c0-2.4,0.1-4.7,0.1-7
	c-0.3,1.3-1,2.6-2.1,3.7c-1.5,1.4-3.4,2.2-5.3,2.2c-2,0-4-0.8-5.5-2.3l-2.4-2.5c-0.1,2-0.1,4-0.1,6c0,6.8,0.3,13.5,0.9,20.1L156,391
	c2.2,10.9,5.2,21.3,9,31.4l23,23.7l0.3,0.3c1.5,1.5,3.5,2.3,5.5,2.3c1.9,0,3.8-0.7,5.3-2.2c1.6-1.5,2.3-3.6,2.3-5.6
	c0.2,2.3-0.5,4.6-2.3,6.2c-1.5,1.4-3.4,2.2-5.3,2.2c-2,0-4-0.8-5.5-2.3l-0.3-0.3c2.6,11.5,6.1,22.7,10.4,33.5
	C184.3,463.3,173,444,165,423c-3.8-10.1-6.9-20.5-9-31.3c-2-9.7-3.2-19.6-3.7-29.8c0-0.1,0-0.3,0-0.4l30.5,31.4l2.4,2.5
	c1.5,1.5,3.5,2.3,5.5,2.3c1.9,0,3.8-0.7,5.3-2.2c1.1-1,1.8-2.3,2.1-3.7c0.2-1,0.3-2.1,0.1-3.1c-0.1-0.7-0.3-1.5-0.7-2.1
	c0.5,0.8,0.8,1.6,1,2.4c5.3-106,93.2-190.7,200.5-190.7c13.1,0,26.1,1.3,38.9,3.7c0,0,0.1,0,0.1,0.1c1,0.5,2.1,0.7,3.3,0.7
	c0.1,0,0.2,0,0.2,0c0,0,0.1,0,0.1,0c22,4.8,43.1,13.3,62.4,25.2c2.8,1.7,6.3,1.5,8.8-0.5l70.7-56.7c0.3-0.1,0.6-0.2,0.8-0.3
	c0.7-0.3,1.3-0.8,1.9-1.3c0.2-0.2,0.4-0.4,0.6-0.6c0.1-0.1,0.2-0.3,0.3-0.4l35.5-28.4c1.7-1.3,2.7-3.3,2.9-5.5
	c0.1-2.1-0.6-4.3-2.1-5.8l-46.2-47.6c-0.2-0.2-0.4-0.4-0.6-0.6c-30.9-25.4-65.5-45.3-102.9-59C434.9,7.1,394.2,0,352.6,0
	C158.2,0,0,158.2,0,352.6c0,99.6,41.5,189.7,108.2,253.9c14.6,14.1,30.4,26.9,47.3,38.3c-1.4,1.3-3.2,1.9-5,1.9c0,0,0,0,0,0
	c1.8,0,3.6-0.6,4.9-1.9c-16.9-11.4-32.7-24.3-47.3-38.3l28.2,29l1.7,1.7c64.5,71,157.6,115.6,260.8,115.6
	c141.8,0,264.3-84.2,320.2-205.1c0.1-0.1,0.2-0.2,0.2-0.3c0.5-0.7,0.9-1.6,1.1-2.4c0.1-0.6,0.2-1.2,0.1-1.8
	c12.2-27.6,21-57.1,25.8-87.9c1-1.7,1.3-3.7,0.8-5.6C749.4,433.7,750.6,417.3,750.6,400.7z M410.1,463.7l-31.3-32.3h29.8l31.3,32.3
	H410.1z M499.9,463.7h-38.7l0,0l-31.3-32.3h38.7h0.1l31.2,32.2L511,475c3.2-4.1,6.2-8.3,9.1-12.6l-30.1-31h47
	c-4.7,10.9-10.4,21.3-16.9,31.1c-2.9,4.3-5.9,8.5-9.1,12.6L499.9,463.7z M184.5,372.6l-0.1-0.1l-31.9-32.9c0.5-9.1,1.7-18,3.5-26.7
	c0-0.1,0-0.2,0.1-0.3l33,34.1l0.2,0.2C187.2,355.3,185.6,363.8,184.5,372.6z M218.6,308.7c-1.5,1.4-3.4,2.2-5.3,2.2
	c-2,0-4-0.8-5.5-2.3l-3.4-3.6c-3.9,8.1-7.3,16.4-10.2,24.9l-0.1-0.1l-33.7-34.7c2.6-8.7,5.7-17.2,9.4-25.4c0.1-0.1,0.1-0.2,0.2-0.3
	l34.3,35.4l3.5,3.6c1.5,1.5,3.5,2.3,5.5,2.3c1.9,0,3.8-0.7,5.3-2.2c1.8-1.8,2.6-4.3,2.2-6.6C221.3,304.3,220.5,306.9,218.6,308.7z
	 M239.6,274.2c-1.5,1.4-3.4,2.2-5.3,2.2c-2,0-4-0.8-5.5-2.3l-3.5-3.6c-4.8,6.5-9.2,13.2-13.3,20.2l-0.1-0.1l-34.6-35.7
	c4-7.1,8.2-13.9,12.9-20.4c0.1-0.1,0.1-0.2,0.2-0.3l35,36.1l3.4,3.6c1.5,1.5,3.5,2.3,5.5,2.3c1.9,0,3.8-0.7,5.3-2.2
	c1.8-1.8,2.6-4.3,2.2-6.6C242.3,269.8,241.5,272.4,239.6,274.2z M269.6,242.7c-1.5,1.4-3.4,2.2-5.3,2.2c-2,0-4-0.8-5.5-2.3l-4.1-4.3
	c-7,6.3-13.5,12.9-19.6,20l-0.1-0.1L199.9,222c6-7.1,12.5-13.7,19.5-19.9c0.1-0.1,0.1-0.1,0.2-0.2l35.1,36.1l4.1,4.4
	c1.5,1.5,3.5,2.3,5.5,2.3c1.9,0,3.8-0.7,5.3-2.2c1.8-1.8,2.6-4.3,2.2-6.6C272.3,238.3,271.5,240.9,269.6,242.7z M304.1,221.6
	c-1.5,1.4-3.4,2.2-5.3,2.2c-2,0-4-0.8-5.5-2.3l-6.8-7c-7,4.3-13.6,8.8-20,13.8l-0.1-0.1l-35-36.1c6.4-4.8,13.1-9.4,20.1-13.5
	c0.1,0,0.1-0.1,0.2-0.1l34.8,35.9l6.8,7c1.5,1.5,3.5,2.3,5.5,2.3c1.9,0,3.8-0.7,5.3-2.2c2-1.9,2.7-4.7,2.1-7.2
	C306.9,216.8,306.2,219.7,304.1,221.6z M343.1,203.6c-1.5,1.4-3.4,2.2-5.3,2.2c-2,0-4-0.8-5.5-2.3l-7.3-7.6
	c-8.5,3.1-16.7,6.7-24.6,10.8l-0.1-0.1L265.7,171c8-3.9,16.5-7.3,25.1-10.1c0.1,0,0.1,0,0.2-0.1l34,35l7.3,7.6
	c1.5,1.5,3.5,2.3,5.5,2.3c1.9,0,3.8-0.7,5.3-2.2c2-1.9,2.7-4.7,2.1-7.2C345.9,198.8,345.2,201.7,343.1,203.6z M388.1,194.6
	c-1.5,1.4-3.4,2.2-5.3,2.2c-2,0-4-0.8-5.5-2.3l-9.1-9.4c-9.2,1.3-18.1,3.2-26.8,5.6l-0.1-0.1l-33.5-34.5c9-2.1,18.3-3.6,27.9-4.3
	c0.1,0,0.1,0,0.2,0l32.3,33.3l9.1,9.3c1.5,1.5,3.5,2.3,5.5,2.3c1.9,0,3.8-0.7,5.3-2.2c2-1.9,2.7-4.7,2.1-7.2
	C390.9,189.8,390.2,192.7,388.1,194.6z M398.9,182.9c-3.8,0-7.4,0.1-11.1,0.3l-0.1-0.1L356.5,151c11.7,0.2,23.3,1.4,34.7,3.6
	c0,0,0.1,0,0.1,0l28.4,29.3C412.8,183.2,405.9,182.9,398.9,182.9z M507.2,226.7c-2,0-4-0.8-5.5-2.3l-27-27.8
	c-9.7-3.7-19.6-6.5-29.7-8.7l-0.1-0.1l-24.6-25.2c13.2,4.7,26,10.8,38.1,18.2c0.5,0.3,1.1,0.6,1.7,0.8c0.1,0,0.2,0,0.3,0.1
	l14.4,14.9l27,27.8C503.3,225.9,505.3,226.7,507.2,226.7C507.2,226.7,507.2,226.7,507.2,226.7z M543.2,199.7c-2,0-4-0.8-5.5-2.3
	l-5.1-5.3l-22.9,18.4l-35.1-36.1l22.9-18.3l0.1-0.1l35.1,36.2l5.1,5.3C539.3,198.9,541.3,199.7,543.2,199.7
	C543.2,199.7,543.2,199.7,543.2,199.7z M544.7,182.5l-35.1-36.1l24.6-19.7l35.1,36.1L544.7,182.5z M606.7,133.4l-25.4,19.8
	L546.2,117l0,0l25.1-20.1L606.7,133.4z M15.4,352.6c0-186,151.2-337.3,337.2-337.3c39.8,0,78.7,6.8,115.8,20.4
	c32.8,12,63.4,29,91.1,50.5l-97.9,78.5c-32.9-19.2-70.4-29.4-108.8-29.4c-119.2,0-216.1,96.9-216.1,216.1s96.9,216.1,216.1,216.1
	c45,0,88.1-13.7,124.7-39.7c35.8-25.4,62.8-60.4,77.9-101.4c0.9-2.3,0.5-5-0.9-7c-1.4-2.1-3.8-3.3-6.3-3.3H368.5V295.2h316.6
	c3.2,18.9,4.9,38.1,4.9,57.4c0,186-151.3,337.3-337.3,337.3S15.4,538.6,15.4,352.6z M257.3,715.6c-1.5,1.4-3.4,2.2-5.3,2.2
	c-2,0-4-0.8-5.5-2.3L217,685.1c-8.9-5.7-17.4-11.7-25.7-18.2c5,2.6,10.1,5,15.2,7.4c0.5,0.2,1,0.4,1.5,0.7l9.3,9.5l29.5,30.4
	c1.5,1.5,3.5,2.3,5.5,2.3c1.9,0,3.8-0.7,5.3-2.2c0.4-0.4,0.8-0.9,1.1-1.3C258.3,714.4,257.9,715,257.3,715.6z M317.2,736.6
	c-1.5,1.4-3.4,2.2-5.3,2.2c-2,0-4-0.8-5.5-2.3L291,720.6c-10.6-3.5-21.1-7.7-31.2-12.3c-0.1-0.3-0.1-0.5-0.2-0.8
	c-0.3-1.2-1-2.3-1.9-3.3l-15.4-15.9c8,2.6,16.1,5,24.2,7c0.4,0.1,0.8,0.2,1.2,0.3l23.7,24.4l15.4,15.9c1.5,1.5,3.5,2.3,5.5,2.3
	c1.9,0,3.8-0.7,5.3-2.2c0.3-0.3,0.5-0.5,0.7-0.8C318,735.7,317.7,736.2,317.2,736.6z M372.7,747.1c-1.5,1.4-3.4,2.2-5.3,2.2
	c-2,0-4-0.8-5.5-2.3l-12-12.4c-10.2-1.5-20.3-3.4-30.2-5.8c-0.1-0.2-0.1-0.5-0.2-0.7c-0.4-1-0.9-2-1.7-2.9l-23.5-24.1
	c8.7,1.4,17.5,2.6,26.4,3.3c0.3,0,0.6,0,0.9,0.1l28.7,29.6l12,12.4c1.5,1.5,3.5,2.3,5.5,2.3c1.9,0,3.8-0.7,5.3-2.2
	c0.2-0.2,0.3-0.3,0.4-0.5C373.3,746.5,373,746.8,372.7,747.1z M426.7,745.5c-1.5,1.4-3.4,2.2-5.3,2.2c-2,0-4-0.8-5.5-2.3l-7.3-7.6
	c-3.4,0.1-6.9,0.2-10.3,0.2c-8,0-16-0.3-23.9-0.9c-0.1-0.2-0.2-0.4-0.4-0.5c-0.2-0.3-0.4-0.6-0.7-0.9l-29.2-30
	c2.7,0.1,5.5,0.1,8.2,0.1c8.2,0,16.3-0.3,24.4-0.8c0.3,0,0.5,0,0.8-0.1l31.5,32.4l7.3,7.6c1.5,1.5,3.5,2.3,5.5,2.3
	c1.9,0,3.8-0.7,5.3-2.2c0.2-0.2,0.3-0.3,0.4-0.5C427.3,744.9,427,745.2,426.7,745.5z M474.7,737.9c-1.5,1.4-3.4,2.2-5.3,2.2
	c-2,0-4-0.8-5.5-2.3l-5.2-5.3c-9.8,1.8-19.8,3.1-29.9,4c-0.1-0.1-0.1-0.3-0.2-0.4c-0.3-0.7-0.8-1.3-1.4-1.9L397,703
	c9.6-1.2,19.1-2.8,28.4-4.8c0.2-0.1,0.5-0.1,0.7-0.2l33,34.1l5.2,5.3c1.5,1.5,3.5,2.3,5.5,2.3c1.8,0,3.6-0.6,5.1-2
	C474.8,737.8,474.8,737.8,474.7,737.9z M522.7,727.4c-1.5,1.4-3.4,2.2-5.3,2.2c-2,0-4-0.8-5.5-2.3l-6.6-6.8
	c-9.3,3.1-19,5.9-28.7,8.2c0-0.1-0.1-0.2-0.1-0.3c-0.3-0.6-0.7-1.2-1.2-1.7l-31.9-32.8c9.4-2.5,18.5-5.4,27.6-8.6
	c0.2-0.1,0.4-0.2,0.6-0.2l34.1,35l6.6,6.8c1.5,1.5,3.5,2.3,5.5,2.3c1.9,0,3.7-0.7,5.2-2.1C522.9,727.2,522.8,727.3,522.7,727.4z
	 M566.3,709.4c-1.5,1.4-3.4,2.2-5.3,2.2c-2,0-4-0.8-5.5-2.3l-6.7-6.9c-8.8,4.4-17.8,8.4-27.1,12.1l-0.2-0.2L487.3,679
	c9-3.7,17.9-7.9,26.5-12.4c0.2-0.1,0.4-0.2,0.7-0.3l34.7,35.7l6.7,6.9c1.5,1.5,3.5,2.3,5.5,2.3c1.9,0,3.7-0.7,5.2-2.1
	C566.5,709.2,566.4,709.3,566.3,709.4z M605.3,685.3c-1.5,1.4-3.4,2.2-5.3,2.2c-2,0-4-0.8-5.5-2.3l-6-6.2
	c-8.1,5.6-16.5,10.8-25.1,15.6l-0.1-0.1l-34.8-35.9c8.4-4.9,16.7-10.1,24.6-15.7c0.2-0.1,0.4-0.3,0.6-0.4l35.1,36.2l6,6.2
	c1.5,1.5,3.5,2.3,5.5,2.3c1.9,0,3.7-0.7,5.2-2.1C605.4,685.2,605.4,685.2,605.3,685.3z M634.6,658.9c-2,0-4-0.8-5.5-2.3l-5.3-5.4
	c-7.2,6.5-14.7,12.6-22.4,18.4l0,0l-35.2-36.2c7.6-5.8,14.9-11.9,22-18.4c0.2-0.1,0.3-0.3,0.5-0.4l35.4,36.4l5.3,5.4
	c1.5,1.5,3.5,2.3,5.5,2.3c1.1,0,2.3-0.3,3.3-0.8C637.1,658.6,635.8,658.9,634.6,658.9z M664.6,625.8c-2,0-4-0.8-5.5-2.3l-4.2-4.3
	c-6.2,7.3-12.8,14.3-19.7,21.1L599.8,604c6.8-6.6,13.2-13.6,19.5-20.8c0.2-0.2,0.3-0.4,0.5-0.5l35.3,36.4l4.2,4.3
	c1.5,1.5,3.5,2.3,5.5,2.3c0.7,0,1.5-0.1,2.2-0.3C666.2,625.6,665.4,625.8,664.6,625.8z M731.7,454l2.6,2.9c1.5,1.5,3.5,2.3,5.5,2.3
	c1.8,0,3.7-0.7,5.1-2c-0.1,0.2-0.3,0.3-0.4,0.4c-1.5,1.4-3.4,2.2-5.3,2.2c-2,0-4-0.8-5.5-2.3l-2.6-2.7c-1.6,10.4-3.8,20.5-6.5,30.5
	l-33.3-34.4c-1.6,5.6-3.4,11.1-5.3,16.6l34.1,35.1l2.2,2.3c1.5,1.5,3.5,2.3,5.5,2.3c1.8,0,3.7-0.7,5.1-2c-0.1,0.2-0.3,0.3-0.4,0.4
	c-1.5,1.4-3.4,2.2-5.3,2.2c-2,0-4-0.8-5.5-2.3l-2.2-2.3c-2.8,8.8-6,17.5-9.5,25.9l-34.2-35.2c-2.2,5-4.5,10-6.9,14.8l34.8,35.8
	l3.8,3.9c1.5,1.5,3.5,2.3,5.5,2.3c0.7,0,1.5-0.1,2.2-0.3c-0.8,0.3-1.6,0.4-2.4,0.4c-2,0-4-0.8-5.5-2.3l-3.8-3.9
	c-3.9,8.2-8.1,16.2-12.6,24l-34.9-36c-2.9,4.5-5.6,8.9-8.5,13.3l35.2,36.3l3.7,3.8c1.5,1.5,3.4,2.3,5.4,2.3c0,0-0.1,0-0.1,0
	c-2,0-4-0.8-5.5-2.3l-3.7-3.8c-5.5,8.5-11.4,16.9-17.7,24.8l-35.3-36.3c6.1-7.8,12-15.9,17.5-24.3c2.9-4.4,5.7-8.8,8.4-13.4
	c4.6-7.7,8.9-15.7,13-23.8c2.4-4.9,4.7-9.8,6.9-14.8c3.8-8.6,7.2-17.4,10.3-26.4c1.9-5.5,3.6-11,5.3-16.6
	c2.9-10.1,5.4-20.3,7.4-30.7c1.2-6.2,2.3-12.4,3.1-18.7c1.6-11.6,2.7-23.4,3.1-35.3c0.2-4.5,0.3-9.1,0.3-13.6c0-2.7,0-5.5-0.1-8.2
	c-0.3-11.4-1.1-22.9-2.4-34.2l27.7,28.7c2.1,11.6,3.6,23.4,4.5,35.2l-29.3-30.2c0.1,2.7,0.1,5.5,0.1,8.2c0,4.6-0.1,9.1-0.3,13.6
	l31,31.9l1.3,1.4c1.5,1.5,3.5,2.3,5.5,2.3c1.8,0,3.7-0.7,5.2-2.1c-0.1,0.1-0.2,0.3-0.4,0.4c-1.5,1.4-3.4,2.2-5.3,2.2
	c-2,0-4-0.8-5.5-2.3l-1.3-1.3c0,0.7,0,1.3,0,2c0,11.3-0.6,22.5-1.7,33.6l-31.9-32.9c-0.9,6.3-1.9,12.6-3.1,18.7L731.7,454z"/>
</svg>
