<svg version="1.1" id="Layer_1" xmlns:serif="http://www.serif.com/"
	 xmlns="http://www.w3.org/2000/svg" xmlns:xlink="http://www.w3.org/1999/xlink" x="0px" y="0px" viewBox="0 0 759.5 759.5"
	 style="enable-background:new 0 0 759.5 759.5;" xml:space="preserve">
<path var:color.fill="#000" d="M396.4,759.5h1.1c-0.4,0.1-0.8,0.1-1.2,0.1c-0.4,0-0.8,0-1.2-0.1H396.4z M545.4,759.5c0.4,0.1,0.8,0.1,1.2,0.1
	c0.4,0,0.7,0,1.1-0.1h-1.1H545.4z M290.3,759.5c0.4,0.1,0.8,0.1,1.2,0.1c0.4,0,0.8,0,1.2-0.1h-1.3H290.3z M343.7,759.5
	c0.4,0.1,0.8,0.1,1.2,0.1c0.4,0,0.8,0,1.2-0.1h-1.2H343.7z M450.5,759.5h-1.1h-1.3c0.4,0.1,0.8,0.1,1.2,0.1
	C449.7,759.6,450.1,759.6,450.5,759.5z M206.4,704c-1.5-1.5-3.4-2.3-5.4-2.3h206.6c-1.9,0-3.9,0.7-5.4,2.2c-3,2.9-3.1,7.8-0.1,10.8
	l2.3,2.3h-31.5l0.1,0.1l26.5,27.1l0.1,0.1h31.5l12.7,13c1.2,1.2,2.7,2,4.3,2.2h-50.6c1.1-0.2,2.1-0.6,3-1.2c0.1-0.1,0.2-0.2,0.3-0.2
	c-0.1,0.1-0.2,0.2-0.3,0.2c-1.2,0.8-2.7,1.2-4.1,1.2c-2,0-4-0.8-5.5-2.3l-12.7-13l-26.5-27.1l-2.3-2.3c-3-3-2.9-7.8,0.1-10.8
	c2.4-2.4,6-2.8,8.9-1.3c-2.9-1.6-6.6-1.2-9.1,1.2c-3,2.9-3.1,7.8-0.1,10.8l2.3,2.3h-30.1l0.1,0.1l26.5,27.1l0.1,0.1h30l12.7,13
	c1.2,1.2,2.7,2,4.3,2.2h-49c1.5-0.2,2.9-0.9,4.1-2.1c1.5-1.5,2.3-3.5,2.3-5.4c0,1.9-0.8,3.9-2.3,5.3c-1.4,1.5-3.4,2.2-5.3,2.2
	c-2,0-4-0.8-5.5-2.3l-12.7-13l-26.5-27.1l-0.1-0.1H268l-12.7-13c-2.9-3-7.8-3-10.8-0.1c-1.5,1.5-2.3,3.5-2.3,5.4
	c0-1.9,0.8-3.9,2.3-5.3c3-3,7.9-2.9,10.8,0.1l12.7,13l26.5,27.1l0.1,0.1h32.1l12.7,13c1.2,1.2,2.7,2,4.3,2.2h-51
	c1.5-0.2,2.9-0.9,4.1-2.1c3-2.9,3.1-7.8,0.1-10.8l-0.1-0.1c3,3,2.9,7.8-0.1,10.8c-1.4,1.5-3.4,2.2-5.3,2.2c-1.7,0-3.4-0.6-4.8-1.7
	c1.1,0.9,2.4,1.5,3.7,1.7h-46.4c1.5-0.2,2.9-0.9,4.1-2.1c3-2.9,3.1-7.8,0.1-10.8l-2.3-2.3h27.5l-0.1-0.1l-26.5-27.1l-0.1-0.1h-27.5
	L206.4,704z M285.9,757.2L285.9,757.2c0.1,0.1,0.2,0.2,0.3,0.3C286.1,757.4,286,757.3,285.9,757.2z M401.6,757.4
	c0,0-0.1,0.1-0.1,0.1c-0.1,0.1-0.3,0.3-0.5,0.4c0.2-0.1,0.3-0.3,0.5-0.4C401.5,757.5,401.6,757.4,401.6,757.4
	C401.6,757.4,401.6,757.4,401.6,757.4z M297.8,714.7L297.8,714.7c-2.9-2.9-2.8-7.7,0.2-10.7c3-3,7.9-2.9,10.8,0.1l-0.1-0.1
	c-2.9-3-7.8-3-10.8-0.1C294.9,706.8,294.8,711.7,297.8,714.7z M550.3,191c15.2,0,27.6-12.4,27.6-27.6c0-15.2-12.4-27.6-27.6-27.6
	s-27.6,12.4-27.6,27.6C522.7,178.6,535.1,191,550.3,191z M526.1,356.7c0,94.5-76.9,171.4-171.4,171.4s-171.4-76.9-171.4-171.4
	s76.9-171.4,171.4-171.4S526.1,262.2,526.1,356.7z M510.8,356.7c0-86.1-70-156.1-156.1-156.1s-156.1,70-156.1,156.1
	s70,156.1,156.1,156.1C440.7,512.8,510.8,442.8,510.8,356.7z M759.3,553.4v8c0,14.5-1.6,28.7-4.5,42.4c0,0.4,0,0.7-0.1,1.1
	c0,0.2-0.1,0.4-0.1,0.6c-0.1,0.2-0.1,0.4-0.2,0.6c-3.7,15.9-9.4,31.1-16.7,45.4c0,0,0,0,0,0c-0.2,0.5-0.4,1-0.7,1.4
	c-0.2,0.3-0.5,0.6-0.8,0.9c-6.7,12.6-14.7,24.4-23.8,35.2c0.1-0.2,0.2-0.3,0.3-0.5c-0.1,0.1-0.1,0.2-0.2,0.3c-0.3,0.4-0.6,0.8-1,1.2
	c0,0.1-0.1,0.1-0.2,0.2c-1.5,1.4-3.3,2.1-5.2,2.1c-2,0-3.9-0.7-5.4-2.2l-5.2-5.1l-31.7-31.5l-5.7-5.6c-1.5-1.5-2.2-3.4-2.2-5.4
	c0,2,0.7,3.9,2.2,5.5l5.7,5.6c-6.3,6.7-13,13.1-20.2,18.9l-5.9-6.1c-2.9-3-7.8-3.1-10.8-0.1c0,0,0,0-0.1,0.1c3-3,7.8-2.8,10.8,0.1
	l5.9,6.1l31.2,31.9c7.4-5.9,14.4-12.3,20.8-19.3l5.2,5.1c1.5,1.5,3.5,2.2,5.4,2.2c1.9,0,3.7-0.7,5.2-2.1
	c-9.5,11-20.1,20.9-31.7,29.6c1.4-1.4,2.1-3.3,2.1-5.2c0,1.9-0.8,3.7-2.1,5.2c0,0,0,0,0,0c-0.1,0.1-0.1,0.1-0.2,0.2c0,0,0,0,0,0
	c-0.1,0-0.1,0.1-0.2,0.1c-0.4,0.5-0.9,0.8-1.4,1.1c-0.3,0.2-0.6,0.3-1,0.5c-10,7.3-20.7,13.5-31.9,18.8c-0.4,0.3-0.9,0.7-1.3,0.9
	c-0.4,0.2-0.9,0.4-1.3,0.6c-0.4,0.1-0.9,0.2-1.3,0.3c-13.4,5.9-27.5,10.4-42.2,13.3c-0.1,0-0.1,0-0.2,0.1c-0.3,0.1-0.7,0.2-1,0.2
	c-0.3,0.1-0.6,0.1-0.9,0.1c-2,0-4-0.8-5.5-2.3l-10.4-10.7l-28.2-29l-0.1-0.1c-9.4,1.7-19.2,2.7-29,2.9L510.9,704
	c-1.5-1.5-3.4-2.3-5.4-2.3h12.9c101.1,0,183.4-82.3,183.4-183.4v-10.5c0,0,0,0,0,0c0,0,0-0.1,0-0.1c0-1.9,0.8-3.8,2.3-5.3
	c0.7-0.7,1.5-1.2,2.3-1.6c-0.8,0.3-1.6,0.8-2.3,1.5c-1.5,1.4-2.3,3.4-2.3,5.3V354.7c0,0,0,0,0,0c0-0.1,0-0.1,0-0.2c0,0,0,0,0,0
	c0,0,0,0,0,0V250.1c0,0,0,0,0,0c0,0,0,0,0,0c0-0.1,0-0.2,0-0.3c0.1-2,0.8-3.9,2.3-5.3c3-3,7.8-2.9,10.8,0.1c-2.9-3-7.8-3.1-10.8-0.2
	c-1.5,1.5-2.2,3.4-2.3,5.3V198c0,0,0,0,0,0c0-0.1,0-0.2,0-0.5c0,0,0,0,0,0v-4.6c0-101.1-82.3-183.4-183.4-183.4H192.9
	C91.8,9.5,9.5,91.8,9.5,192.9v325.5c0,101.1,82.3,183.4,183.4,183.3h8.1c-2,0-3.9,0.7-5.4,2.2c0,0,0,0-0.1,0.1c3-3,7.8-2.8,10.8,0.1
	l12.7,13l26.6,27.2l2.3,2.3c3,3,2.9,7.8-0.1,10.8c-1.1,1.2-2.6,1.9-4.1,2.1h0.2c-0.4,0.1-0.8,0.1-1.2,0.1c0,0-0.1,0-0.1,0
	c0,0-0.1,0-0.1,0c-0.4,0-0.8,0-1.2-0.1h-5.7c-16.4,0-32.6-2-48.2-5.9l11-10.6l-3.1-3.2c9.3,2.1,18.9,3.5,28.6,4.1l-26.2-26.8
	l-0.1-0.1h-4.5c-7.1,0-14.2-0.4-21.1-1.1l-16.7-17.2l-0.2,0.1l16.7,17.2l23.2,23.8l3.1,3.2l-11,10.7L164,729.8l-17.8-18.3l0,0
	c-4.8-1.1-9.3-2.4-13.9-3.9l-13.1-19.3l-0.1,0l13.1,19.3l5.9,8.8l0.5,0.7l0.1-0.1l-0.5-0.7c8.2,5.2,16.9,9.7,25.8,13.5l23.1,23.9
	c-34.9-8.7-67-26.9-93-53.2c-11.1-11.3-21.2-21.7-29.8-30.8C21.4,633.2-5.8,578.9-5.8,518.4V192.9C-5.8,83.4,83.4-5.8,192.9-5.8
	h325.5c41.3,0,79.7,12.7,111.6,34.3c0.5,0.3,0.9,0.6,1.3,0.9c0,0.1,0.1,0.2,0.3,0.3c13,9,24.8,19.5,35.3,31.3
	c12,11.1,25.7,24.4,38.7,38.2c23,24.4,39.2,53.8,47.5,85.6c-0.2-0.6-0.5-1.2-0.8-1.8c0-0.1-0.1-0.1-0.1-0.2c0,0.1,0.1,0.1,0.1,0.2
	c0.3,0.5,0.6,1.1,0.7,1.7c0.1,0.1,0.1,0.2,0.1,0.3c0.1,0.6,0.2,1.2,0.2,1.7c3.9,15.8,6,32,6,48.7v4.2c0.1,0.2,0.1,0.4,0.1,0.6
	c0.2,1.1,0.2,2.2-0.1,3.3v-0.4c-0.3,1.4-1,2.7-2.1,3.7c-1.5,1.5-3.4,2.2-5.3,2.2c-2,0-4-0.8-5.5-2.3l-2.2-2.2l-27.1-27.9v30.1
	l27.1,27.8v-29.8l2.2,2.2c1.5,1.5,3.5,2.3,5.5,2.3c1.9,0,3.8-0.8,5.3-2.2c1.1-1,1.8-2.2,2.1-3.6v48.2c0.1,0.6,0.2,1.2,0.2,1.9
	c0,0.6-0.1,1.2-0.2,1.8v-0.2c-0.3,1.4-1,2.7-2.1,3.8c-1.4,1.5-3.4,2.2-5.3,2.2c-2,0-4-0.8-5.5-2.3l-2.2-2.2l-27.1-27.8l0,0v30.7
	l-1.8-1.8c-2.9-3-7.8-3-10.8-0.1c-1.1,1.1-1.8,2.4-2.1,3.8c0.3-1.4,1-2.7,2.1-3.7c3-3,7.9-2.9,10.8,0.1l1.8,1.8l27.1,27.9v-30.7
	l2.2,2.2c1.5,1.5,3.5,2.3,5.5,2.3c1.9,0,3.8-0.7,5.3-2.2c1.1-1,1.8-2.4,2.1-3.7v49.3c0.2,0.9,0.2,1.9,0.1,2.8c0,0.2-0.1,0.5-0.1,0.7
	v-0.1c-0.3,1.4-1,2.7-2.1,3.7c-1.4,1.5-3.4,2.2-5.3,2.2c-2,0-4-0.8-5.5-2.3l-2.2-2.2l-27.1-27.9v29.8l0.1,0.1l27,27.8v-29.6l2.2,2.2
	c1.5,1.5,3.5,2.3,5.5,2.3c1.9,0,3.8-0.8,5.3-2.2c1.1-1.1,1.8-2.4,2.1-3.8v48.2c0.2,1,0.3,2,0.1,3c0,0.2-0.1,0.5-0.1,0.7V400
	c-0.3,1.4-1,2.7-2.1,3.7c-1.5,1.5-3.4,2.2-5.3,2.2c-2,0-4-0.8-5.5-2.3l-2.2-2.2l-27.1-27.9l0,0v29.9l-1.8-1.8
	c-2.9-3-7.8-3.1-10.8-0.1c-1.3,1.2-2,2.9-2.2,4.5c0.2-1.6,1-3.1,2.2-4.3c3-3,7.9-2.9,10.8,0.1l1.8,1.8l27,27.8v-29.6l2.2,2.2
	c1.5,1.5,3.5,2.3,5.5,2.3c1.9,0,3.8-0.8,5.3-2.2c1.2-1.1,1.9-2.5,2.2-4v48.5c0.3,1.1,0.3,2.3,0,3.4v45.6c0.3,1.1,0.3,2.3,0,3.4v48.1
	C759.7,550.6,759.7,552,759.3,553.4z M106.5,696.9L106.5,696.9L106.5,696.9L106.5,696.9z M751,192.4c-1.5,1.5-3.4,2.2-5.3,2.2
	c-2,0-4-0.8-5.5-2.3l-1.4-1.5l-23.4-24.1c1.1,8.6,1.7,17.2,1.7,26.1v1.8l26.7,27.5c-0.7-10.5-2.4-21-5-31.2l1.4,1.5
	c1.5,1.5,3.5,2.3,5.5,2.3C747.6,194.7,749.5,193.9,751,192.4c1.3-1.1,2-2.7,2.2-4.3C752.9,189.7,752.2,191.2,751,192.4z
	 M695.4,144.5c-0.6-2.5,0.1-5.3,2.1-7.2c3-2.9,7.9-2.8,10.8,0.2l1.3,1.4l16.5,17l25,25.6c0.2,0.2,0.4,0.4,0.6,0.6c0,0,0,0,0.1,0.1
	c0,0,0,0-0.1-0.1c-0.2-0.2-0.3-0.4-0.5-0.5l-25.1-25.8c-6.2-12.9-13.9-25-23-36.2c2.5,6.3,4.6,12.7,6.5,19.2l-1.3-1.4
	c-2.9-3.1-7.8-3.1-10.8-0.2C695.4,139.1,694.8,142,695.4,144.5z M549.3,701.2c0.1-0.1,0.2-0.2,0.2-0.3
	C549.4,701,549.3,701.1,549.3,701.2z M634.2,740.2l-7.8-8l-30.1-30.9l-0.1-0.1c-8.4,3.6-17.1,6.6-25.9,9l-9.4-9.7
	c-2.9-3.1-7.8-3.1-10.8-0.2c0,0-0.1,0.1-0.1,0.1c3-2.9,7.9-2.8,10.8,0.2l9.4,9.7l29,29.8c9.3-2,18.4-4.7,27.1-8L634.2,740.2
	C634.2,740.2,634.2,740.2,634.2,740.2z M636.1,741.6c-0.6-0.3-1.2-0.8-1.7-1.2C634.9,740.9,635.5,741.3,636.1,741.6z M631.2,681.9
	L631.2,681.9c-6.5,4.4-13.2,8.6-20.3,12.3l-6.2-6.3c-2.9-3-7.8-3-10.8-0.1c-1.1,1.1-1.8,2.4-2.1,3.8c0.3-1.4,1-2.7,2.1-3.7
	c3-3,7.9-2.9,10.8,0.1l6.2,6.3l30.5,31.4l3.8,3.9c1.4,1.5,2.1,3.4,2.2,5.3c0-2-0.7-4-2.2-5.5l-3.8-3.9c7.2-3.5,14.1-7.5,20.8-11.9
	L631.2,681.9z M759.1,501.8c-0.4,1.1-1,2.1-1.9,3c-1.4,1.5-3.4,2.2-5.3,2.2c-2,0-4-0.8-5.5-2.3l-2.2-2.2l-27.1-27.9v30l0.1,0.1
	l26.9,27.6v-29.4l2.2,2.2c1.5,1.5,3.5,2.3,5.5,2.3c1.9,0,3.8-0.8,5.3-2.2C758.1,504.2,758.8,503.1,759.1,501.8z M714.9,502.5
	c-0.9-0.9-1.9-1.5-3-1.9C713,501,714,501.6,714.9,502.5z M717.1,425.6L717.1,425.6l0,26.9l-1.8-1.8c-2.9-3-7.8-3.1-10.8-0.1
	c-1.1,1.1-1.8,2.4-2.1,3.8c0.3-1.4,1-2.7,2.1-3.7c3-3,7.9-2.9,10.8,0.1l1.8,1.8l27,27.8v-26.6l2.2,2.2c1.5,1.5,3.5,2.3,5.5,2.3
	c1.9,0,3.8-0.8,5.3-2.2c0.8-0.8,1.4-1.7,1.8-2.7c-0.4,0.9-0.9,1.7-1.7,2.4c-1.4,1.5-3.4,2.2-5.3,2.2c-2,0-4-0.8-5.5-2.3l-2.2-2.2
	L717.1,425.6z M707.9,347.2c-0.3,0.1-0.7,0.2-1,0.3C707.2,347.4,707.6,347.3,707.9,347.2z M710.3,347.1c0.5,0.1,1,0.2,1.4,0.3
	C711.2,347.3,710.8,347.2,710.3,347.1c-0.2,0-0.5,0-0.7,0C709.8,347.1,710,347.1,710.3,347.1z M704,255.3
	C704,255.3,704,255.3,704,255.3L704,255.3L704,255.3C704,255.3,704,255.3,704,255.3z M691.3,598.4c1,0.4,1.9,1,2.6,1.7
	C693.1,599.3,692.2,598.7,691.3,598.4z M680.8,605.4c0-1.9,0.8-3.9,2.3-5.4c0,0,0,0,0,0c0,0,0,0,0,0
	C681.6,601.5,680.8,603.4,680.8,605.4z M725.1,653.9l-3.9-4l-31-31.7l-7.2-7.4c0,0,0,0,0,0c0,0,0,0,0,0l7.1,7.4
	c-4.8,8.4-10.3,16.4-16.3,23.8l31.6,31.3c5.8-7.4,11.1-15.3,15.7-23.5L725.1,653.9C725.1,653.9,725.1,653.9,725.1,653.9z
	 M737.2,644.7c1.2,2.1,1.4,4.5,0.5,6.7C738.6,649.3,738.4,646.8,737.2,644.7z M747.2,611.3c-2,0-4-0.8-5.5-2.3l-3-3l-29.9-30.6l0,0
	c-3,9.9-6.7,19.4-11.1,28.6l0,0l30.7,31.4l0,0c4.2-9.5,7.6-19.3,10.2-29.4l3,3C743.1,610.5,745.1,611.3,747.2,611.3
	C747.1,611.3,747.1,611.3,747.2,611.3z M752.4,609.2C752.4,609.2,752.4,609.2,752.4,609.2C752.4,609.2,752.4,609.2,752.4,609.2
	C752.4,609.2,752.4,609.2,752.4,609.2z M754.2,606.5c-0.4,0.9-0.9,1.8-1.6,2.5C753.3,608.3,753.9,607.4,754.2,606.5z M759.1,553.9
	c-0.4,1.1-1,2.1-1.8,2.9c-1.4,1.5-3.4,2.2-5.3,2.2c-2,0-4-0.8-5.5-2.3l-2.2-2.2l-27.3-28l0,0c-0.5,10.7-1.7,21.1-3.8,31.3l-2.9-2.9
	c-2.9-3-7.8-3-10.8-0.1c-1.5,1.5-2.3,3.5-2.3,5.5c0-1.9,0.8-3.9,2.3-5.4c3-3,7.8-2.9,10.8,0.1l2.9,2.9l29,29.8
	c1.2-8.6,1.9-17.4,1.9-26.3v-6.3l2.2,2.2c1.5,1.5,3.5,2.3,5.5,2.3c1.9,0,3.8-0.7,5.3-2.2C758.1,556.4,758.8,555.2,759.1,553.9z
	 M453.5,758.3c-1.2,0.8-2.7,1.2-4.1,1.2c-2,0-4-0.8-5.5-2.3l-12.7-13l-26.5-27.1l-2.3-2.3c-3-3-2.9-7.8,0.1-10.8
	c1.5-1.5,3.4-2.2,5.3-2.2c0,0,0,0,0,0h0.1H457c-0.1,0-0.1,0-0.2,0c0.1,0,0.1,0,0.2,0c0.2,0,0.5,0,0.7,0.1c-0.2,0-0.5,0-0.7-0.1h48.4
	c2,0,3.9,0.8,5.4,2.3l12.6,12.9l26.4,27.2l0.1,0.1h10.9c6.8,0,13.4-0.4,20-1.1l10.4,10.7c1.5,1.5,3.5,2.3,5.8,2.3
	c0.3,0,0.6-0.1,0.9-0.1c-11.9,2.2-24.2,3.4-36.8,3.4h-13.4c1.5-0.2,3-1,4.2-2.1c2.1-1.9,2.8-4.8,2.1-7.3c0.6,2.5-0.1,5.3-2.1,7.2
	c-1.5,1.5-3.4,2.2-5.3,2.2c-2,0-4-0.8-5.5-2.3l-12.6-13l-26.4-27.1h-27.5l0,0l25.6,27.1l0.1,0.1h28.2l12.6,13c1.2,1.2,2.7,2,4.3,2.2
	H498c1.3-0.2,2.5-0.7,3.6-1.6c-1.4,1-3,1.6-4.6,1.6h1.1c-0.4,0.1-0.8,0.1-1.2,0.1c-0.4,0-0.8,0-1.2-0.1h1.3c-2.1,0-4.1-0.8-5.6-2.4
	l-12.2-12.9l-25.6-27.1l0,0H426l26.5,27.1l0.1,0.1H479l12.2,12.9c1.2,1.3,2.8,2,4.4,2.3h-45.1C451.5,759.3,452.6,758.9,453.5,758.3
	c0.1-0.1,0.2-0.2,0.3-0.2C453.7,758.1,453.6,758.2,453.5,758.3z M502.2,757.4c-0.1,0.1-0.3,0.3-0.4,0.4
	C501.9,757.7,502,757.6,502.2,757.4C502.1,757.5,502.2,757.4,502.2,757.4z M499.8,714.8c-2.9-3-2.8-7.9,0.2-10.8
	C496.9,706.9,496.9,711.8,499.8,714.8z M462.3,704.2c-1.1-1.2-2.4-1.9-3.9-2.2C459.9,702.3,461.2,703,462.3,704.2L462.3,704.2
	L462.3,704.2z M457.7,701.9c0.2,0,0.4,0.1,0.7,0.1C458.1,701.9,457.9,701.9,457.7,701.9z M456.2,701.8c0,0-0.1,0-0.1,0
	C456.1,701.8,456.2,701.8,456.2,701.8z M454.8,702.1c-0.1,0-0.2,0.1-0.3,0.1C454.6,702.1,454.7,702.1,454.8,702.1z M455.1,702
	c0.1,0,0.2-0.1,0.4-0.1C455.4,701.9,455.3,702,455.1,702z M449.2,708.5c0.2-1.7,1-3.3,2.3-4.6c0.2-0.2,0.4-0.4,0.6-0.5
	c-0.2,0.2-0.4,0.3-0.6,0.5C450.1,705.2,449.4,706.8,449.2,708.5z M453.1,702.7c0.1,0,0.2-0.1,0.3-0.1
	C453.3,702.6,453.2,702.7,453.1,702.7z M452.2,703.3c0.2-0.1,0.3-0.2,0.5-0.3C452.6,703.1,452.4,703.2,452.2,703.3z M449.1,709.2
	c0,0.2,0,0.5,0,0.7C449.1,709.7,449.1,709.5,449.1,709.2z M454.6,757.4c0,0-0.1,0.1-0.1,0.1c-0.1,0.1-0.3,0.3-0.5,0.4
	c0.2-0.1,0.3-0.3,0.5-0.4C454.5,757.5,454.6,757.4,454.6,757.4C454.6,757.4,454.6,757.4,454.6,757.4z"/>
</svg>
