<svg version="1.1" id="Layer_1" xmlns:serif="http://www.serif.com/"
	 xmlns="http://www.w3.org/2000/svg" xmlns:xlink="http://www.w3.org/1999/xlink" x="0px" y="0px" viewBox="0 0 763.9 765.3"
	 style="enable-background:new 0 0 763.9 765.3;" xml:space="preserve">
<path var:color.fill="#000" d="M514.2,355.2C514.2,355.2,514.2,355.2,514.2,355.2c-0.8-0.2-1.7-0.5-2.5-0.7c0,0,0,0,0,0C512.6,354.8,513.4,355,514.2,355.2
	z M764,665.8v91.7c0,4.3-3.5,7.7-7.7,7.7H611.9c-2,0-4-0.8-5.4-2.3l-38.9-39.3c-2.3-1.3-3.8-3.8-3.8-6.6V439.6
	c-1-10-3.4-19.1-6.8-27.1c-2.4-1-4.9-1.8-7.4-2.5c-0.3,0-0.5,0-0.8-0.1c-0.4,0-0.9-0.1-1.3-0.3c-0.3-0.1-0.6-0.2-0.8-0.3
	c-4.6-1.1-9.2-1.6-13.8-1.6c-6.1,0-13.3,0.5-20.7,2.1c-0.3,0.1-0.5,0.2-0.8,0.2c-0.2,0-0.3,0.1-0.4,0.1c0,0-0.1,0-0.1,0
	c0,0,0.1,0,0.1,0c-9,2-18.3,5.5-26.8,11.5c-0.4,0.3-0.7,0.6-1.1,0.8c-0.1,0.1-0.2,0.1-0.4,0.2c-6.9,5.1-13.3,12.1-18.3,21.4
	c0,0.1-0.1,0.2-0.1,0.2c-0.2,0.3-0.4,0.7-0.6,1c-0.3,0.5-0.7,1-1.1,1.4c-1.5,1.5-3.5,2.2-5.3,2.2c0,0,0,0,0,0c1.9,0,3.8-0.7,5.4-2.2
	c0.4-0.5,0.8-0.9,1.1-1.4c-5.5,10.4-9.3,23.7-10.6,40.5V517c0,0,0,0,0,0c0,0,0,0,0,0c0,0.1,0,0.1,0,0.2c0,0.4,0,0.7-0.1,1.1v45.4
	c0.1,0.4,0.1,0.8,0.1,1.2c0,0.1,0,0.1,0,0.2c0,0.4,0,0.7-0.1,1.1v47c0.1,0.4,0.1,0.8,0.1,1.2c0,0.1,0,0.1,0,0.2c0,0.4,0,0.7-0.1,1.1
	v45.4c0.1,0.4,0.1,0.8,0.1,1.2c0,0.1,0,0.1,0,0.2c0,0.4,0,0.7-0.1,1.1V709c0.1,0.4,0.1,0.8,0.1,1.2c0,0.1,0,0.1,0,0.2
	c0,0.5-0.1,1.1-0.2,1.6v45.8c0,4.3-3.5,7.7-7.7,7.7H300.9c-2,0-4-0.8-5.4-2.2L255,722.8c-0.2-0.2-0.3-0.4-0.5-0.6
	c0-0.1-0.1-0.1-0.1-0.2c-0.1-0.2-0.2-0.3-0.3-0.5c0-0.1-0.1-0.1-0.1-0.2c-0.1-0.2-0.2-0.3-0.3-0.5c0-0.1-0.1-0.1-0.1-0.2
	c-0.1-0.1-0.1-0.3-0.2-0.5c-0.1-0.1-0.1-0.1-0.1-0.2c-0.1-0.2-0.1-0.4-0.2-0.6c0-0.1,0-0.1,0-0.2c0-0.2-0.1-0.4-0.1-0.6
	c0-0.1,0-0.1,0-0.2c0-0.2,0-0.4,0-0.6c0-0.1,0-0.1,0-0.2v-0.1V243c0-4.3,3.5-7.7,7.7-7.7h144c4.3,0,7.7,3.5,7.7,7.7v32.8h3
	c12.5-15.1,27.8-27.4,45.6-36.8c25.5-13.4,55.1-20.2,88.1-20.2c39.7,0,76.4,14.3,105.7,38.4c0.3,0.2,0.5,0.4,0.8,0.6
	c0.3,0.1,21.1,17.6,50.4,45.9c11,10.6,20.6,22.8,28.6,36.2l0.4,0.4c1.1,1.1,1.7,2.4,2,3.7c8.5,15,15.2,31.4,19.7,48.6
	c0.4,0.6,0.7,1.2,0.9,1.9c0,0.1,0,0.1,0,0.2c0,0,0,0,0,0c3.6,14.5,5.7,29.5,6.2,44.6c-0.1-1.1-0.4-2.3-1-3.3c0.5,1,0.9,2,0.9,3.1
	c0,0.3,0,0.5,0,0.8c0,2-0.8,3.9-2.3,5.4s-3.4,2.2-5.3,2.2c-2,0-4-0.8-5.5-2.3l0.1,0.1c1.5,1.5,3.5,2.3,5.5,2.3
	c1.9,0,3.8-0.7,5.3-2.1c1.5-1.5,2.3-3.4,2.3-5.4c0.1,1.8,0.1,3.6,0.1,5.4v39.2c0,0,0,0,0-0.1c0,2-0.8,3.9-2.3,5.4
	c-1.5,1.5-3.4,2.2-5.3,2.2c-2,0-4-0.8-5.5-2.3l-2.2-2.2l-24.4-25.1l-0.7-0.7v24.4l25.1,25.8v-24.3l2.2,2.2c1.5,1.5,3.5,2.3,5.5,2.3
	c1.9,0,3.8-0.7,5.3-2.1c1.5-1.5,2.3-3.4,2.3-5.4v45.8v0.6v47.6v0.1c0,2-0.8,3.9-2.3,5.4c-0.8,0.9-1.9,1.5-3,1.8
	c1.1-0.3,2.1-0.9,3.1-1.7c1.5-1.5,2.3-3.4,2.3-5.4L764,665.8C764,665.8,764,665.8,764,665.8z M761.6,627.9
	C761.6,627.9,761.6,627.9,761.6,627.9c1.5-1.5,2.3-3.4,2.3-5.4C763.9,624.5,763.1,626.4,761.6,627.9
	C761.6,627.9,761.6,627.9,761.6,627.9z M761.3,536.7c0.1-0.1,0.1-0.1,0.2-0.2c0,0,0,0,0.1-0.1C761.5,536.5,761.4,536.6,761.3,536.7z
	 M748.6,465.8L748.6,465.8l0-0.2v-20.1c0-0.8,0-1.6,0-2.4l0,0l-0.1-0.1l-25-25.8l-0.1-0.1l-13.1-13.5c-1.8-1.9-2.4-4.4-2-6.8
	c-0.5,2.4,0.1,5.1,2,7l13.1,13.5v22.6l0,0L748.6,465.8L748.6,465.8z M710.5,484c3-2.9,7.9-2.8,10.8,0.2
	C718.4,481.1,713.5,481.1,710.5,484z M721.2,437.7c-2.9-3.1-7.7-3.1-10.7-0.3C713.5,434.6,718.3,434.7,721.2,437.7z M345.9,765.4
	c-2,0-4-0.8-5.4-2.3l-12.7-13l-24.5-25.2l-0.1-0.1l0,0l-2.2-2.2c-3-3-2.9-7.9,0.1-10.8c0.7-0.7,1.6-1.3,2.5-1.6
	c-0.9,0.4-1.8,0.9-2.6,1.6c-3,2.9-3,7.8-0.1,10.8l2.2,2.2l0.1,0.1h-24h-0.1l25.2,25.2h23.4l12.7,13
	C341.9,764.6,343.9,765.4,345.9,765.4C345.9,765.4,345.9,765.4,345.9,765.4z M395.7,765.4c-2,0-3.9-0.8-5.4-2.3l-12.7-13l-24.5-25.2
	l-0.1-0.1l-2.2-2.2c-3-3-2.9-7.9,0.1-10.8c0.7-0.7,1.6-1.3,2.5-1.6c-0.9,0.4-1.8,0.9-2.6,1.6c-3,2.9-3,7.8-0.1,10.8l2.2,2.2l0.1,0.1
	h-28.3h-0.1l24.5,25.2h28.3l12.7,13C391.6,764.6,393.6,765.4,395.7,765.4C395.6,765.4,395.7,765.4,395.7,765.4z M439.8,757.5
	c-1.1,0.6-2.3,0.8-3.4,0.8c-2,0-4-0.8-5.5-2.3l-5.9-6l-24.4-25.1h-26.2l24.4,25.1l0.1,0.1h26l5.9,6c1.5,1.5,3.5,2.3,5.5,2.3
	C437.5,758.4,438.7,758.1,439.8,757.5z M410.5,663.4l2.2,2.2l25.1,25.7v-25.9l0.1,0.1l2.1,2.1c0,0,0,0,0,0l-2.1-2.1l-25.2-25.8v25.9
	L410.5,663.4c-1.5-1.5-3.4-2.3-5.4-2.3C407.1,661.1,409,661.9,410.5,663.4z M441.7,756.1c-0.1,0.1-0.2,0.2-0.3,0.2
	C441.5,756.3,441.5,756.3,441.7,756.1C441.6,756.2,441.6,756.2,441.7,756.1z M445.6,717.9c-2,0-4-0.8-5.5-2.3l-2.2-2.2l-25.1-25.7
	v27.7l-0.1-0.1l25.1,25.8v-27.7l0.1,0.1l2.1,2.1C441.5,717.1,443.5,717.9,445.6,717.9C445.5,717.9,445.5,717.9,445.6,717.9z
	 M450.8,715.8c-0.1,0.1-0.2,0.2-0.3,0.2c0,0,0.1-0.1,0.1-0.1C450.7,715.9,450.8,715.8,450.8,715.8z M452.6,568
	c-0.4,0.9-0.9,1.7-1.7,2.4c-1.5,1.5-3.4,2.2-5.3,2.2c-2,0-4-0.8-5.5-2.3l-2.2-2.2l-25.2-25.9l-13.1-13.5c-0.7-0.7-1.3-1.6-1.7-2.5
	c0.4,0.9,0.9,1.8,1.7,2.6l13.1,13.5v27.5l25.1,25.7v-27.3l0.1,0.1l2.1,2.1c1.5,1.5,3.5,2.3,5.5,2.3c1.9,0,3.9-0.7,5.3-2.1
	C451.6,569.9,452.2,569,452.6,568z M405.1,565.3c1.9,0,3.9,0.8,5.4,2.3C409,566.1,407.1,565.3,405.1,565.3z M399.6,481
	C399.6,481,399.6,481,399.6,481C399.6,481,399.6,481,399.6,481l13.1,13.4v25.9l25.1,25.8v-25.9l0.1,0.1l2.1,2.1
	c1.5,1.5,3.5,2.3,5.5,2.3c0,0,0,0,0.1,0c-2,0-4-0.8-5.5-2.3l-2.2-2.2l-25.2-25.8L399.6,481z M410.5,470.3c-1.5-1.5-3.4-2.3-5.4-2.3
	C407.1,468,409,468.8,410.5,470.3z M399.7,517.9c3-2.9,7.9-2.8,10.8,0.2C407.6,515,402.7,515,399.7,517.9z M399.7,470.2
	c-1.5,1.4-2.3,3.4-2.3,5.3C397.4,473.6,398.2,471.7,399.7,470.2z M453.2,473.3c0,1.9-0.8,3.9-2.3,5.4c0,0,0,0,0,0c0,0,0,0,0,0
	C452.4,477.2,453.2,475.3,453.2,473.3z M486.9,415.9c0,2-0.8,3.9-2.3,5.4c0,0-0.1,0.1-0.2,0.1c0.1,0,0.2-0.1,0.2-0.1
	C486.1,419.8,486.9,417.9,486.9,415.9z M515.2,407.8c0,0-0.1,0.1-0.1,0.2c0,0,0,0,0,0C515.1,407.9,515.2,407.8,515.2,407.8z
	 M754.3,750.1c0.1,2.2-0.6,4.4-2.3,6c-1.5,1.5-3.4,2.2-5.3,2.2c-2,0-4-0.8-5.5-2.3l-5.9-6l-24.5-25.2l-1.6-1.7
	c-1.5-1.6-2.2-3.7-2.1-5.8c-0.3,2.2,0.4,4.6,2.1,6.3l1.1,1.2l0.5,0.5h-27.2h0l20.3,20.9c0.2,0.2,0.3,0.3,0.4,0.5
	c0.1,0.1,0.2,0.3,0.3,0.4c0.6,0.9,1,1.8,1.2,2.8c0.6,2.5-0.1,5.2-2.1,7.1c-1.5,1.5-3.4,2.2-5.3,2.2c-2,0-4-0.8-5.5-2.3l-6.7-6.9
	l-0.1-0.1l-22.7-23.4l-0.1-0.1c-0.5-0.5-0.9-1.1-1.2-1.7c-0.6-1-0.9-2.2-0.9-3.3c0,1.2,0.2,2.3,0.7,3.4c0.1,0.1,0.1,0.3,0.2,0.4
	h-26.9h0l20.4,21.1c1.1,1.1,1.7,2.4,2,3.7c0.6,2.5-0.1,5.2-2.1,7.1c-1.5,1.5-3.4,2.2-5.3,2.2c-2,0-4-0.8-5.5-2.3l-6.8-7l-22.8-23.6
	c-0.5-0.5-0.9-1.1-1.2-1.7c-0.6-1-0.9-2.2-0.9-3.4c0,1.2,0.2,2.4,0.8,3.5c0,0.1,0.1,0.2,0.1,0.3h-23.5h-0.2l24.9,25.2h22.9l6.8,7
	c1.5,1.5,3.5,2.3,5.5,2.3c1.9,0,3.8-0.8,5.3-2.2c1.9-1.9,2.6-4.6,2.1-7.1h28.5l6.8,7c1.5,1.5,3.5,2.3,5.5,2.3c1.9,0,3.8-0.8,5.3-2.2
	c1.9-1.9,2.6-4.6,2.1-7.1h29.3l5.9,6c1.5,1.5,3.5,2.3,5.5,2.3c1.9,0,3.8-0.8,5.3-2.2C753.8,754.7,754.6,752.3,754.3,750.1z
	 M763.9,665.9c0,2-0.8,3.8-2.2,5.3c0,0,0,0,0,0C763.2,669.7,764,667.8,763.9,665.9c0.1-1.9-0.6-3.9-2.1-5.4L748.7,647v-21.3l2.1,2.1
	c1.5,1.5,3.5,2.3,5.5,2.3c0.1,0,0.2,0,0.2,0c-0.1,0-0.2,0-0.2,0c-2,0-4-0.8-5.5-2.3l-2.1-2.1L748,625l-24.5-25.1l-0.1-0.1v21.3
	l-2.2-2.2c-2.9-3-7.8-3.1-10.8-0.1c-1.3,1.3-2,2.8-2.2,4.4c0,0.3-0.1,0.6-0.1,0.9v-43c0,0.3,0.1,0.6,0.1,0.9
	c0.1,0.4,0.1,0.8,0.3,1.2c-0.2-0.6-0.3-1.3-0.3-1.9c0,0,0,0,0,0c0-0.1,0-0.2,0-0.3c0,0,0,0,0,0c0.1-2,0.8-3.9,2.3-5.3
	c3-3,7.8-2.9,10.8,0.1l2.1,2.2l25.2,25.8l0,0V582l-25.1-25.7v21.5l-2.2-2.2c-2.9-3-7.8-3.1-10.8-0.1c-1.5,1.5-2.3,3.4-2.3,5.2v-42
	c-0.1-0.4-0.1-0.8-0.1-1.2c0-0.1,0-0.2,0-0.3c0,0,0,0,0,0c0,0,0,0,0,0v-47.5c0,0.3,0.1,0.6,0.1,0.9c0.2,1.6,0.9,3,2.1,4.3l13.1,13.4
	v25.9l-2.2-2.2c-1.5-1.5-3.4-2.3-5.4-2.3c1.9,0,3.9,0.8,5.4,2.3l2.2,2.2l25.2,25.8v-25.7l2.1,2.1c1.5,1.5,3.5,2.3,5.5,2.3
	c1.2,0,2.4-0.3,3.5-0.9c-1.1,0.6-2.3,0.8-3.4,0.8c-2,0-4-0.8-5.5-2.3l-2.1-2.1l-25.2-25.9l-13.1-13.5c-1.5-1.4-2.2-3.3-2.2-5.2
	c0-0.1,0-0.1,0-0.2v-0.1v-45c-0.1-0.4-0.1-0.8-0.1-1.2c0-0.1,0-0.2,0-0.3c0,0,0,0,0,0c0-0.4,0-0.8,0.1-1.2v-36.5
	c0-16.5-2.2-32.5-6.3-47.6c0.4,1,0.9,2,1.8,2.8l18,18.4c0.7,5.4,1.2,10.8,1.5,16.3l0,0l0,0l23.6,24.3l0,0c-0.9-6.3-2-12.6-3.5-18.7
	c0,0,0,0,0,0l0,0l1.4,1.5c1.5,1.5,3.5,2.3,5.5,2.3c2,0,3.9-0.7,5.4-2.2c-1.5,1.5-3.5,2.2-5.4,2.2c-2,0-4-0.8-5.5-2.3l-1.4-1.5
	l-21.6-22l-18-18.4c-0.9-0.9-1.6-2-1.9-3.2c0,0,0-0.1,0-0.1c-0.1-0.3-0.2-0.7-0.2-1c0,0.2,0,0.4,0.1,0.6
	c-5.3-19.3-13.7-37.2-24.6-53c0,0,0,0,0,0l35,35.6c1.4,3.9,2.7,7.8,3.8,11.8l0,0l15.5,15.8c0-0.1-0.1-0.1-0.1-0.2
	c-2.4-5.4-5.2-10.8-8.2-15.9l0.6,0.6c0,0,0.1,0.1,0.1,0.1c1.5,1.4,3.4,2.2,5.4,2.2c2,0,3.9-0.7,5.4-2.2c0,0,0.1-0.1,0.1-0.1
	c-1.5,1.4-3.5,2.1-5.3,2.1c-2,0-4-0.8-5.5-2.3l-0.4-0.6l-11.3-11.5l-35-35.6c-3-3-2.9-7.7,0-10.7c0,0-0.1,0.1-0.1,0.1
	c-2.4,2.3-2.9,5.9-1.6,8.7c-5.9-8.3-12.4-15.9-19.5-22.9c-28.2-27.7-65.7-44.6-106.7-44.6c-62.9,0-111.8,26.6-137.6,74.9
	c-1.6,3.1-5.2,4.7-8.6,3.8c-0.8-0.2-1.6-0.5-2.3-1c-2.1-1.4-3.4-3.7-3.4-6.3v-54.8h-0.1v-0.1H268.3v0.1v459.1h38.2h49.8h41.1h0.1
	V670c-0.1-0.4-0.1-0.8-0.1-1.2c0-0.1,0-0.1,0-0.2c0-1.9,0.8-3.8,2.3-5.3c0,0,0,0,0,0c0,0,0,0,0,0c-1.5,1.4-2.3,3.4-2.3,5.3v-47.7
	v-0.1c0,0,0,0,0,0c0,0,0-0.1,0-0.1c0-1.9,0.8-3.8,2.3-5.3c3-3,7.8-2.9,10.8,0.1l2.2,2.2l25.1,25.7v0v-25.8l0.1,0.1l2.1,2.1
	c1.5,1.5,3.5,2.3,5.5,2.3c0,0,0,0,0.1,0c-2,0-4-0.8-5.5-2.3l-2.2-2.2l-25.2-25.8v25.8l-2.2-2.2c-2.9-3-7.8-3.1-10.8-0.1
	c-1.5,1.4-2.3,3.4-2.3,5.2V573c0,0,0-0.1,0-0.1c0,0,0,0,0-0.1c0-1.9,0.8-3.8,2.3-5.3c-1.5,1.4-2.3,3.4-2.3,5.3v-49.3
	c0,0.7,0.1,1.3,0.3,2c-0.2-0.7-0.3-1.4-0.3-2.1c0,0,0,0,0-0.1v-0.1v-47.5c0,0,0,0,0,0v0c0-0.1,0-0.1,0-0.2v0v-30.4V445
	c0-0.2,0-0.3,0-0.5c0.3-4.2,0.8-8.2,1.4-12.1c-0.3,2.1,0.5,4.4,2.1,6.1l11.8,12.1v21.9l25.2,25.8l13.1,13.4l0,0l-13.1-13.4v-12.8
	c0-0.2,0-0.4,0-0.6c0.2-2.6,0.5-5.2,0.8-7.7l0.7,0.7l-0.7-0.7l-26-26.6l-11.8-12.1c-1.6-1.7-2.3-3.9-2.1-6.1
	c0.1-0.3,0.1-0.6,0.2-0.9c0.3-1.4,1-2.7,2.1-3.8c1.5-1.5,3.4-2.2,5.4-2.2c-2,0-4,0.7-5.5,2.2c-0.9,0.9-1.5,1.9-1.9,3.1
	c-0.1,0.2-0.1,0.4-0.2,0.6c2.1-13.2,5.9-24.8,11.4-34.9c-0.2,0.4-0.3,0.7-0.5,1.1c-0.7,2.1-0.5,4.3,0.6,6.2
	c-1.1-2.1-1.3-4.5-0.4-6.7c0.1-0.2,0.1-0.4,0.2-0.5c0.1-0.1,0.1-0.2,0.2-0.3c0.1-0.1,0.2-0.2,0.3-0.4c0.3-0.5,0.7-0.9,1-1.3
	c3-3,7.8-2.9,10.8,0.1l4.1,4.2l29.2,29.9l6.9,7c2,2,2.6,4.9,1.8,7.5c0.8-2.5,0.2-5.5-1.8-7.6l-6.9-7l0,0c3.5-5,7.4-9.4,11.9-13.5
	l-29.3-30l0,0l0,0c-4.4,3.8-8.3,8.2-11.8,13.6l-4.1-4.2c-2.9-3-7.8-3.1-10.8-0.1c-0.2,0.2-0.4,0.4-0.6,0.7c-0.1,0.2-0.3,0.4-0.4,0.5
	c5.2-9.1,11.6-17,19.5-23.5c1.3-1.1,2.7-2.2,4.1-3.2c-0.2,0.1-0.3,0.3-0.5,0.4c0,0,0,0.1-0.1,0.1c0.2-0.1,0.3-0.3,0.5-0.4
	c0.3-0.3,0.7-0.5,1-0.7c1.1-0.7,2.3-1,3.5-1.1c-1.1,0.1-2.2,0.3-3.2,0.8c-0.1,0.1-0.2,0.1-0.3,0.2c9.4-6.5,20.4-11.2,32.5-13.8
	c-0.1,0-0.1,0-0.2,0.1c-1.1,0.4-2.2,1-3,1.8c-3,2.9-3.1,7.8-0.1,10.8l3,3.1c-5.3,1.4-10.8,3.3-16.1,6.1l28.9,29.5l0,0l0.1,0.1
	c4.7-2.9,9.7-5.3,14.9-7.2l-0.1-0.1l-27.6-28.3l-0.1-0.1l-2.9-3c-3-3-2.9-7.8,0.1-10.8c1-0.9,2-1.6,3.2-1.9c0.4-0.1,0.7-0.1,1.1-0.2
	c2.3-0.4,4.7,0.4,6.5,2.2l10.7,10.9l26.1,26.8l2.9,2.9c2.5,2.6,2.9,6.7,0.8,9.6c2-2.9,1.8-7-0.8-9.7l-2.8-2.8l-0.1-0.1
	c5.6-1,11.3-1.6,17.4-1.7L507,369.2l-0.1-0.1l-0.1-0.1c-4.7-1.2-9.6-1.7-14.4-1.7c-2,0-4.1,0.1-6.2,0.2l-10.7-10.9
	c-1.7-1.8-4.2-2.5-6.5-2.2c7.4-1.5,15.2-2.3,23.4-2.3c1.6,0,3.2,0.1,4.8,0.2s3.2,0.3,4.8,0.5c1.6,0.2,3.2,0.5,4.9,0.8
	c1.6,0.3,3.2,0.7,4.8,1.1c-2.2-0.2-4.4,0.5-6,2.2c-1.5,1.5-2.3,3.5-2.3,5.5c0-1.9,0.8-3.8,2.3-5.3c3-3,7.8-2.9,10.8,0.1l39.1,40.1
	c1.5,1.5,2.2,3.4,2.2,5.3c0-2-0.7-4-2.2-5.5l-39.1-40.1c-0.7-0.7-1.4-1.2-2.3-1.6c31.3,9.2,60.6,37.8,64.9,83.5c0,0.2,0,0.5,0,0.7
	V710h129.1v-0.5v-38.1c0.1,1.9,0.8,3.7,2.2,5.2l13.1,13.5l0,0v25.7l25.1,25.8l0.1,0.1v-26.1l2.1,2.1c1.5,1.5,3.5,2.3,5.5,2.3
	c1.9,0,3.8-0.7,5.3-2.2c1.5-1.5,2.3-3.5,2.3-5.4c0,1.9-0.8,3.9-2.3,5.3c-1.4,1.5-3.4,2.2-5.3,2.2c-2,0-4-0.8-5.5-2.3l-2.1-2.1
	l-0.7-0.7l-24.5-25.1l-13.1-13.5c-1.5-1.4-2.2-3.3-2.2-5.2c0,0,0,0,0,0c0-0.1,0-0.2,0-0.3c0,0,0,0,0,0c0.1-2,0.8-3.9,2.3-5.3
	c3-3,7.8-2.9,10.8,0.1l2.1,2.2l25.2,25.8l0,0V669l-25.1-25.7v24.3l-2.2-2.2c-2.9-3-7.8-3.1-10.8-0.1c-1.5,1.5-2.3,3.4-2.3,5.3
	c0,0,0,0,0,0v-44.9c-0.1-0.4-0.1-0.8-0.1-1.2c0-0.1,0-0.2,0-0.3c0-0.3,0.1-0.6,0.1-0.9c0.2-1.6,0.9-3.2,2.2-4.4
	c3-3,7.8-2.9,10.8,0.1l2.2,2.2l25.2,25.8l13.1,13.5C763.2,662,763.9,664,763.9,665.9z M447.9,442.6l-28.5-29.1l-0.1-0.1l0,0
	c-2,5.2-3.6,10.8-4.8,17.1l0.1,0.1l0,0l27.6,28.3C443.7,453.1,445.7,447.8,447.9,442.6L447.9,442.6z M710.4,531.9
	C710.4,531.9,710.4,531.9,710.4,531.9C710.4,531.9,710.4,531.9,710.4,531.9C710.4,531.9,710.4,531.9,710.4,531.9
	C710.4,531.9,710.4,531.9,710.4,531.9z M710.4,586.4c0,0-0.1-0.1-0.1-0.1c0,0,0,0,0,0l0.4,0.4L710.4,586.4z M224.8,130.6
	c0.1,0.5,0.1,0.9,0.1,1.4v0.1c0,2-0.8,3.9-2.3,5.4c-1,1-2.2,1.7-3.5,2c1.3-0.3,2.5-0.9,3.5-1.8c1.5-1.5,2.3-3.4,2.3-5.4
	c0,0.1,0,0.3,0,0.5c0,16.9-4.6,32.8-12.6,46.4c0.8-1.4,1-3,0.8-4.6c0.2,1.5-0.1,3.1-0.9,4.4c-0.1,0.3-0.3,0.6-0.5,0.9
	c-8.2,13.7-19.8,25-33.7,32.9c-0.3,0.2-0.6,0.4-0.9,0.7c-0.3,0.2-0.6,0.4-0.9,0.5c-1,0.5-2.1,0.7-3.2,0.7c-2,0-4-0.8-5.5-2.3
	c1.5,1.5,3.4,2.3,5.5,2.4c1.1,0,2.2-0.2,3.2-0.7c-13,6.9-27.8,10.9-43.5,10.9c-0.9,0-1.8-0.1-2.7-0.1c1.8-0.1,3.7-0.8,5.1-2.2
	c1.9-1.8,2.6-4.4,2.1-6.8c0.4,2.4-0.3,5-2.2,6.8c-1.4,1.4-3.3,2.1-5.1,2.2c-0.1,0-0.1,0-0.2,0c-0.2,0-0.4,0-0.6,0
	c-1.7-0.2-3.5-0.9-4.8-2.3c1.3,1.4,3,2.2,4.8,2.3c-22.9-0.9-44.3-10.1-60.8-26.2c-15.6-15.2-41.8-41.8-42.1-42.1
	c-0.2-0.2-0.3-0.4-0.5-0.6C9.8,139.4,0,116.9,0,92.2C0,41.4,41.4,0,92.2,0c22.7,0,43.5,8.3,59.6,22c0.3,0.3,0.6,0.5,0.9,0.8
	c3.2,2.9,6.3,5.9,9.1,9.2c9.8,9.8,25.2,25.1,34.9,34.5C214.3,83.4,224.2,106.2,224.8,130.6z M182.3,85.1
	C182.3,85.1,182.3,85.1,182.3,85.1l2,2.1l21.7,22.2c0-0.1,0-0.1,0-0.2c-3.7-12-10.5-22.9-19.8-31.9c-1.1-1-2.2-2.1-3.4-3.3
	c0,0-0.1-0.1-0.1-0.1c0.9,4.3,1.5,8.7,1.7,13.2L182.3,85.1C182.3,85.1,182.3,85.1,182.3,85.1z M107.4,205.3l-19.9-20.4l-0.5-0.5
	l-0.1-0.1c-0.2,0-0.3,0-0.5,0c-3.3-0.2-6.7-0.6-9.9-1.1c-0.9-0.2-1.8-0.3-2.7-0.5c0,0,0,0,0,0c1.8,1.8,3.6,3.5,5.2,5.1
	C87.3,195.8,96.9,201.6,107.4,205.3z M159.9,204.6l-28.3-29l-3.9-4c-3-3-2.9-7.8,0.1-10.8c3-3,7.8-2.9,10.8,0.1l-0.1-0.1
	c-2.1-2.2-5.4-2.8-8.1-1.8c11.6-6.7,21.4-16.3,28.1-27.8c0.2-0.4,0.4-0.8,0.7-1.2c0.2-0.4,0.5-0.9,0.7-1.3c0-0.1,0.1-0.1,0.1-0.2
	c0.5-1,1-2,1.5-3c0.1-0.2,0.2-0.3,0.2-0.5c0.4-0.9,0.9-1.9,1.3-2.8c0.2-0.4,0.3-0.7,0.4-1.1c0.3-0.8,0.6-1.5,0.9-2.3
	c0.4-1.2,0.8-2.4,1.2-3.6c0-0.1,0-0.1,0.1-0.2c0.3-1.1,0.7-2.2,0.9-3.3c0-0.1,0.1-0.3,0.1-0.4c0.3-1,0.5-2.1,0.7-3.2
	c0-0.2,0.1-0.4,0.1-0.7c0.2-1,0.4-2,0.5-3c0-0.3,0.1-0.6,0.1-0.9c0.1-0.9,0.3-1.9,0.4-2.8c0-0.4,0.1-0.7,0.1-1.1
	c0.1-0.9,0.2-1.8,0.2-2.7c0-0.4,0.1-0.9,0.1-1.3c0-0.8,0.1-1.7,0.1-2.5c0-0.5,0-1,0-1.5c0-0.3,0-0.7,0-1c0-0.5,0-0.9-0.1-1.4
	c0-0.5,0-1.1-0.1-1.6c0-0.8-0.1-1.6-0.2-2.4c0-0.5-0.1-1-0.1-1.5c-0.1-0.8-0.2-1.6-0.3-2.4c-0.1-0.5-0.1-0.9-0.2-1.4
	c-0.1-0.9-0.3-1.7-0.5-2.6c-0.1-0.4-0.1-0.7-0.2-1.1c-0.2-0.9-0.4-1.9-0.6-2.8c-0.1-0.3-0.1-0.5-0.2-0.8c-0.3-1-0.6-2-0.9-3
	c0-0.2-0.1-0.3-0.1-0.5c-0.3-1.1-0.7-2.2-1.1-3.3c0,0,0-0.1,0-0.1c-7.3-20-22.7-36.1-42.2-44.3c-0.1,0-0.1,0-0.2-0.1
	c-1.1-0.4-2.1-0.9-3.2-1.3c-0.1-0.1-0.3-0.1-0.4-0.2c-1-0.4-2-0.7-3-1c-0.2-0.1-0.5-0.1-0.7-0.2c-0.9-0.3-1.9-0.6-2.8-0.8
	c-0.3-0.1-0.6-0.2-0.9-0.2c-0.9-0.2-1.7-0.4-2.6-0.6c-0.4-0.1-0.8-0.2-1.2-0.2c-0.8-0.2-1.6-0.3-2.5-0.4c-0.5-0.1-1-0.2-1.4-0.2
	c-0.8-0.1-1.5-0.2-2.3-0.3c-0.5-0.1-1.1-0.1-1.6-0.2c-0.7-0.1-1.4-0.1-2.1-0.2c-0.6,0-1.2-0.1-1.8-0.1c-0.7,0-1.3,0-2-0.1
	c-0.7,0-1.3,0-2,0c-0.3,0-0.5,0-0.8,0c-0.4,0-0.7,0-1.1,0.1c-0.7,0-1.4,0.1-2.1,0.1c-0.6,0-1.2,0.1-1.8,0.1c-0.7,0.1-1.4,0.1-2,0.2
	c-0.6,0.1-1.3,0.2-1.9,0.2c-0.6,0.1-1.3,0.2-1.9,0.3c-0.7,0.1-1.4,0.2-2.1,0.4c-0.5,0.1-1.1,0.2-1.6,0.3c-0.8,0.2-1.5,0.3-2.3,0.5
	c-0.4,0.1-0.9,0.2-1.3,0.3c-0.9,0.2-1.7,0.5-2.6,0.7c-0.3,0.1-0.6,0.2-1,0.3c-1,0.3-1.9,0.6-2.8,1c-0.2,0.1-0.4,0.1-0.6,0.2
	c-1,0.4-2.1,0.8-3.1,1.2c-0.1,0-0.2,0.1-0.2,0.1C45,28.7,31,42.1,22.9,58.9c0,0,0,0,0,0.1c-0.5,1.1-1,2.1-1.5,3.2
	c0,0.1-0.1,0.2-0.1,0.3c-0.4,1-0.8,2-1.2,3.1C20,65.7,20,65.9,19.9,66c-0.3,1-0.7,1.9-1,2.9c-0.1,0.3-0.2,0.5-0.2,0.8
	c-0.3,0.9-0.5,1.8-0.8,2.7c-0.1,0.3-0.2,0.7-0.3,1c-0.2,0.9-0.4,1.7-0.6,2.6c-0.1,0.4-0.2,0.8-0.3,1.2c-0.2,0.8-0.3,1.6-0.4,2.4
	c-0.1,0.5-0.2,1-0.2,1.4c-0.1,0.8-0.2,1.5-0.3,2.3c-0.1,0.5-0.1,1.1-0.2,1.6c-0.1,0.7-0.1,1.4-0.2,2.2c0,0.6-0.1,1.2-0.1,1.8
	c0,0.7,0,1.4-0.1,2.1c0,0.6,0,1.3,0,2c0,0.3,0,0.6,0,0.8c0,0.4,0,0.7,0.1,1.1c0,0.7,0.1,1.3,0.1,2c0,0.6,0.1,1.3,0.1,1.9
	c0.1,0.6,0.1,1.3,0.2,1.9c0.1,0.7,0.2,1.4,0.3,2c0.1,0.6,0.2,1.2,0.3,1.7c0.1,0.7,0.3,1.5,0.4,2.2c0.1,0.5,0.2,1,0.3,1.5
	c0.2,0.8,0.4,1.6,0.6,2.5c0.1,0.4,0.2,0.7,0.3,1.1c0.2,0.9,0.5,1.8,0.8,2.8c0.1,0.2,0.1,0.5,0.2,0.7c0.3,1,0.7,2,1,3.1
	c0,0.1,0.1,0.2,0.1,0.4c7.8,21.2,24.6,37.9,45.7,45.7c0,0,0,0,0,0c1.1,0.4,2.3,0.8,3.4,1.2c0.1,0,0.2,0.1,0.3,0.1
	c1.1,0.3,2.2,0.6,3.2,0.9c0.2,0,0.3,0.1,0.5,0.1c1,0.3,2.1,0.5,3.1,0.7c0.2,0.1,0.5,0.1,0.7,0.1c1,0.2,2,0.4,3,0.5
	c0.3,0,0.6,0.1,0.9,0.1c0.9,0.1,1.9,0.3,2.8,0.4c0.4,0,0.7,0.1,1.1,0.1c0.9,0.1,1.8,0.2,2.7,0.2c0.4,0,0.8,0,1.3,0.1
	c0.9,0,1.7,0.1,2.6,0.1c0.5,0,0.9,0,1.4,0c0.4,0,0.7,0,1.1,0c0.5,0,0.9,0,1.4-0.1c0.5,0,1,0,1.5-0.1c0.8,0,1.6-0.1,2.5-0.2
	c0.5,0,0.9-0.1,1.4-0.1c0.9-0.1,1.7-0.2,2.5-0.3c0.4-0.1,0.8-0.1,1.2-0.2c0.9-0.1,1.8-0.3,2.7-0.5c0.3-0.1,0.6-0.1,0.9-0.2
	c1-0.2,2-0.4,3-0.7c0.2-0.1,0.4-0.1,0.6-0.2c1.1-0.3,2.2-0.6,3.2-0.9c0.1,0,0.2-0.1,0.3-0.1c4.7-1.5,9.2-3.4,13.5-5.7
	c-0.3,0.2-0.6,0.5-0.9,0.8c-3,2.9-3.1,7.8-0.1,10.8l3.9,4c-7.6,3.6-15.7,6.2-24.2,7.6l-11.4-11.7c-2.9-3-7.8-3-10.8-0.1
	c-1.1,1.1-1.8,2.4-2.1,3.8c0.3-1.4,1-2.7,2.1-3.7c3-3,7.9-2.9,10.8,0.1l11.4,11.7l25.7,26.4C142.5,209.5,151.5,207.8,159.9,204.6z
	 M195.7,176.6l-0.1-0.1l-29-29.9l0,0c-6,8.2-13.2,15.3-21.5,21l0.1,0.1l0,0l29,29.7c1.9-1.2,3.7-2.5,5.4-3.8c1.7-1.4,3.4-2.8,5-4.3
	c0.6-0.6,1.2-1.1,1.8-1.7c1.2-1.2,2.4-2.4,3.5-3.6c0.6-0.6,1.1-1.3,1.6-1.9C193,180.3,194.4,178.5,195.7,176.6z M210.7,181
	c-1.5,1.5-3.4,2.2-5.3,2.2c-2,0-4-0.8-5.5-2.3l0.1,0.1c1.5,1.5,3.5,2.3,5.5,2.3C207.4,183.3,209.4,182.6,210.7,181z M217.3,139.7
	c-2,0-4-0.8-5.5-2.3l-2.2-2.3l-26.4-27.2c0,0,0,0.1,0,0.1c-1.6,8.9-4.4,17.3-8.3,25.1l-0.1-0.1l-3.8-3.9c-1.9-2.1-4.8-2.8-7.3-2.1
	c2.5-0.6,5.3,0.1,7.2,2.1l3.9,4l28.7,29.5l0,0c3.6-8.5,5.7-17.8,6-27.5l2.2,2.3C213.2,138.9,215.2,139.7,217.3,139.7
	C217.2,139.7,217.2,139.7,217.3,139.7z M209.7,382.4v50.3c0.1,0.6,0.1,1.1,0,1.7v47.2c0.1,0.8,0.1,1.6,0,2.4v50.9v0.6v54.9v0.6v51.4
	v0.6v57.5v0.6v54.8v1.9c0,4.3-3.5,7.7-7.7,7.7H57.6c-2,0-4-0.8-5.4-2.2l-40.5-40.5c-0.1-0.1-0.1-0.1-0.2-0.2
	c-0.1-0.1-0.2-0.3-0.3-0.4c-0.1-0.1-0.1-0.2-0.2-0.3c-0.1-0.2-0.2-0.3-0.3-0.4c-0.1-0.1-0.1-0.2-0.2-0.3c-0.1-0.1-0.1-0.3-0.2-0.4
	c0-0.1-0.1-0.2-0.1-0.3c-0.1-0.2-0.1-0.3-0.2-0.5c0-0.1-0.1-0.2-0.1-0.3c0-0.2-0.1-0.3-0.1-0.5c-0.1-0.1-0.1-0.2-0.1-0.3
	c0-0.2-0.1-0.3-0.1-0.5c0-0.1,0-0.2,0-0.3c0-0.2,0-0.3,0-0.5c0-0.1,0-0.2,0-0.3s0-0.1,0-0.1V242.8c0-4.3,3.5-7.7,7.7-7.7h144.3
	c0.2,0,0.3,0,0.4,0s0.1,0,0.2,0c0.7,0,1.4,0.2,2,0.4c0,0.1,0.1,0.1,0.1,0.1c0.7,0.3,1.3,0.6,1.8,1c0.1,0,0.1,0.1,0.2,0.1
	c0.3,0.2,0.6,0.5,0.8,0.7l40.4,40.5c1.4,1.4,2.2,3.4,2.2,5.4V332c0,0.2,0.1,0.5,0.1,0.7c0.1,0.6,0,1.2-0.1,1.8V380
	C209.8,380.8,209.8,381.6,209.7,382.4z M24.9,709.5H154v-48.7v-1.1c0-0.2,0-0.4,0-0.6v-1.2V602v-0.5c0-0.2,0-0.4,0-0.6v-0.6v-50.8
	c0-0.2,0-0.4,0-0.6V494c0-0.2,0-0.4,0-0.6v-52.1V392c0-0.2,0-0.4,0-0.6v-51.7v-47.9v-41.4H24.9V709.5z M88.3,750l-24.6-25.2l0,0
	h-0.1H35.7L60.9,750H88.3z M136.2,750l-24.5-25.2l0,0h-0.2H85.1l24.5,25.2H136.2z M185.7,750l-24.5-25.2H161h-28l24.5,25.2H185.7z
	 M194.5,704.1L194.5,704.1l-25.2-25.9v33.1l24.7,25.3v-32.4l0.5,0.5V704.1z M194.5,646L194.5,646l-25.2-25.9v36l24.8,25.5V646
	l0.4,0.4V646z M194.5,594L194.5,594l-25.2-25.9v30l24.9,25.6V594l0.3,0.3V594z M194.5,538.5L194.5,538.5l-25.1-25.8v33.4l-0.1-0.1
	v0.1l25,25.7v-33l0.2,0.2V538.5z M194.5,486L194.5,486l-25.1-25.7v30.3l-0.1-0.1l25.1,25.8v-30l0.1,0.1V486z M194.5,436.5
	L194.5,436.5l-0.1-0.1l-25-25.7v27.4l-0.1-0.1v0.2l25.1,25.7v-27.2l0.1,0.1V436.5z M194.5,384.4l-25-25.6v29.8l-0.2-0.2v0.1
	l25.2,25.9v-29.9V384.4z M194.5,336.5l-25-25.6v25.6l-0.2-0.2v0.3l25.2,25.8V336.5z M194.5,286.4l-25-24.9v26.9l-0.2-0.2v0.5
	l25.2,25.8V286.4z"/>
</svg>
