<?xml version="1.0" encoding="utf-8"?>
<!-- Generator: Adobe Illustrator 27.5.0, SVG Export Plug-In . SVG Version: 6.00 Build 0)  -->
<svg version="1.1" id="Layer_1" xmlns="http://www.w3.org/2000/svg" xmlns:xlink="http://www.w3.org/1999/xlink" x="0px" y="0px"
	 viewBox="0 0 100 100" enable-background="new 0 0 100 100" xml:space="preserve">
<path var:color.fill="#000" d="M95.6,48.6c0,0.4,0,0.7,0,1.1C95,51,94,51.4,92.5,51.4c-28.2,0-56.5,0-84.7,0c-1.5,0-2.5-0.4-3.1-1.8c0-0.4,0-0.7,0-1.1
	c0.6-1.4,1.7-1.8,3.1-1.8c28.2,0,56.5,0,84.7,0C94,46.8,95,47.2,95.6,48.6z M92.7,17.7c-28.4,0-56.7,0-85.1,0c-1.5,0-2.5,0.4-3,1.9
	c0,0.3,0,0.6,0,0.9c0.5,1.4,1.5,1.8,3,1.8c28.3,0,56.7,0,85,0c1.5,0,2.5-0.4,3-1.8c0-0.3,0-0.6,0-0.9C95.1,18.2,94.1,17.7,92.7,17.7
	z M92.6,75.9c-28.3,0-56.7,0-85,0c-1.5,0-2.5,0.4-3,1.8c0,0.3,0,0.6,0,0.9c0.5,1.4,1.5,1.9,3,1.9c28.4,0,56.7,0,85.1,0
	c1.5,0,2.5-0.4,3-1.9c0-0.3,0-0.6,0-0.9C95.1,76.3,94.1,75.9,92.6,75.9z"/>
</svg>
