<svg version="1.1" id="Layer_1" xmlns:serif="http://www.serif.com/"
	 xmlns="http://www.w3.org/2000/svg" xmlns:xlink="http://www.w3.org/1999/xlink" x="0px" y="0px" viewBox="0 0 607.4 765.3"
	 style="enable-background:new 0 0 607.4 765.3;" xml:space="preserve">
<path var:color.fill="#000" d="M607.1,314c0.7-16.3,0.4-32.8-1.2-49.1c0-0.1,0-0.1,0-0.2c-0.1-0.4-0.1-0.9-0.3-1.3c-1.9-18.2-5.4-36.2-10.7-53.3
	c0-0.4-0.1-0.8-0.2-1.2c-0.1-0.4-0.2-0.9-0.4-1.3c-0.4-0.9-0.9-1.7-1.6-2.4L564,175.6l-0.1-0.1l-12-12.4c0-0.1-0.1-0.2-0.1-0.3
	c-1.1-3.6-2.5-7.2-3.8-10.8c-0.1-0.2-0.1-0.4-0.2-0.6c4.9,6.1,9.3,12.4,13.2,18.8c1,1.7,2,3.4,3,5.1l28.8,29.7
	c0.7,0.7,1.2,1.5,1.6,2.4c-5.1-15.9-11.8-31.1-20.3-45.2c-8.7-14.4-19.7-28-32.6-40.5c-13.3-12.9-23.9-24.2-29.9-30.7
	c-1.4-1.6-2.9-3.3-4.4-4.9c-0.5-0.6-0.8-0.9-0.8-0.9c-0.3-0.3-0.5-0.6-0.8-0.8C481.9,59.8,451,39,415.3,24.2
	C364.3,3.1,305.8-4.6,250.7,2.6c-67.3,8.8-125.5,35.1-168.1,76.2C36.7,123.1,9.3,182.3,1.1,254.9C-3.1,291.8,5,330.2,23.9,363
	c8.5,14.8,18.8,27.7,30.3,38.4c6.9,6.8,22,21.8,31.6,32.8c15.7,17.8,34.4,31.1,54.2,38.4c-7.1,30.4-14,62.4-20.8,96.1
	c-3.4,17.1-5.4,51.6-4.7,84.1c0.3,16.7,1.3,31.2,2.9,41.9c1.7,11.4,3.9,18.5,7.2,22.4c0.2,0.4,0.5,0.9,0.8,1.2
	c5.3,6.7,32.5,40.5,46,45.9c1.2,0.5,2.8,0.9,4.6,0.9c2.3,0,5-0.6,8.1-2.3c7.7-4.3,17.4-15.5,28-32c-0.1,0.1-0.2,0.2-0.3,0.3
	c-1.5,1.5-3.4,2.2-5.4,2.2s-4-0.8-5.5-2.3l-4.3-4.4c-10,15-17.2,22-20.3,23.3c-3-1.6-7.7-5.8-13-11.3c-1.1-1.1-2.2-2.2-3.3-3.4
	c-0.4-0.4-0.7-0.8-1.1-1.2c-0.7-0.8-1.5-1.6-2.3-2.4s-1.5-1.7-2.3-2.5c-0.8-0.8-1.5-1.7-2.3-2.6c-1.1-1.3-2.3-2.6-3.4-3.9
	c-1.5-1.7-3-3.5-4.4-5.2c0.1,0,0.1,0,0.1,0c6-4.2,13.1-12.2,20.6-23.3c0,0,0,0,0-0.1l31.6,32.4l4.3,4.4c1.5,1.5,3.5,2.3,5.5,2.3
	c0.9,0,1.9-0.2,2.8-0.5c0,0,0,0,0,0c0.2-0.1,0.4-0.2,0.6-0.3c0.1-0.1,0.2-0.1,0.3-0.2c0.1-0.1,0.2-0.1,0.3-0.2
	c0.1-0.1,0.3-0.2,0.4-0.3c0.1-0.1,0.2-0.1,0.2-0.2c0.1-0.1,0.2-0.2,0.4-0.3c0.1-0.1,0.2-0.1,0.2-0.2c0,0,0,0,0,0c0,0,0,0,0,0
	c0.2-0.2,0.3-0.4,0.5-0.5c0,0,0,0,0,0c-0.1,0.1-0.1,0.2-0.2,0.3c0.6-0.7,1-1.4,1.4-2.1c0-0.1,0.1-0.1,0.1-0.2
	c-0.1,0.1-0.1,0.1-0.2,0.2c0,0,0,0,0,0c0.1-0.2,0.2-0.4,0.3-0.6c-0.1,0.1-0.1,0.3-0.2,0.4c0,0,0,0,0,0c0.1-0.2,0.2-0.4,0.3-0.5
	c7-11.2,14.3-24.5,21.7-39.7c0.1-0.1,0.2-0.2,0.2-0.4c0.2-0.4,0.4-0.8,0.6-1.2c0.4-1,0.5-2,0.5-3.1c0.1,1.1-0.1,2.2-0.5,3.2
	c1.6-3.3,3.2-6.6,4.8-10.1c3.5-7.5,7.7-17,12.2-28.1c-0.4,0.7-0.8,1.3-1.4,1.9c-0.2,0.2-0.5,0.4-0.8,0.6c0.2-0.2,0.4-0.3,0.6-0.5
	c0.6-0.6,1-1.2,1.4-1.9c0.3-0.5,0.5-1,0.6-1.5c0.4-1.3,0.4-2.6,0.2-3.9c0.3,1.3,0.3,2.7-0.1,3.9c4.9-12.2,10.2-26.2,15.4-41.6
	c-0.4,0.9-1,1.8-1.7,2.5c-1.5,1.4-3.5,2.2-5.4,2.2c-2,0-4-0.8-5.5-2.3l-3.2-3.3l-0.1-0.1c-3,8.9-6.3,17.8-9.7,26.6c0,0,0,0,0,0
	c0,0,0,0,0,0L213,599.6c0,0,0-0.1,0.1-0.1c3.2-8.1,6.6-16.9,9.9-26.3l30.4,31.2l3.3,3.4c1.5,1.5,3.5,2.3,5.5,2.3
	c1.9,0,3.9-0.7,5.4-2.2c0.8-0.7,1.3-1.6,1.7-2.5c0.1-0.3,0.3-0.7,0.3-1c0.2-0.6,0.3-1.2,0.3-1.9c0,0.7-0.1,1.4-0.3,2.1
	c4.4-13.1,8.6-27.1,12.5-41.9c-0.4,1.1-1,2.2-1.9,3.1c-0.5,0.4-1,0.7-1.5,1c0.5-0.3,1-0.7,1.4-1.1c0.9-0.9,1.6-2,1.9-3.1
	c0.1-0.3,0.2-0.6,0.2-0.9c0.4-1.8,0.2-3.7-0.7-5.3c1,1.7,1.3,3.6,0.9,5.3c2.4-9,4.6-18.3,6.6-27.9c9.8,10.4,20.6,18.9,32.2,25.5
	c0.2,0.1,0.4,0.3,0.7,0.5c0.2,0.1,0.5,0.3,0.7,0.4c17.3,9.5,36.3,14.9,56.7,15.9c-1.7-0.2-3.2-1-4.5-2.2L359.4,558l-0.1-0.1
	c-5-1.1-9.8-2.6-14.5-4.4c-3.3-1.2-6.5-2.6-9.7-4.2c-1.5-0.7-3-1.5-4.5-2.3c0,0,0,0,0,0l0.1,0.1l0,0l0.8,0.8c0,0,0,0,0,0
	c1.5,1.5,2.2,3.5,2.2,5.5c0,2-0.8,3.9-2.3,5.4c-1.5,1.5-3.4,2.2-5.4,2.2c1.9-0.1,3.8-0.8,5.3-2.2c3-3,3.1-7.8,0.1-10.9c0,0,0,0,0,0
	l-0.8-0.8l-0.1-0.1L313,528.9c-7.4-1.7-14.5-4.1-21.4-7.1c-0.4-0.2-0.8-0.3-1.2-0.5c-0.1-0.1-0.2-0.1-0.4-0.2
	c-15.9-7.1-30.4-17.5-43.2-31c0,0,0,0,0,0c0,0,0,0,0,0c0-0.1,0-0.1,0-0.2c3.5,3.8,7.2,7.3,11,10.5c1.3,1.1,2.5,2.1,3.8,3.2
	c2.6,2.1,5.2,4,7.9,5.9s5.4,3.6,8.2,5.2c4.2,2.4,8.4,4.6,12.8,6.6c7.3,3.2,14.8,5.8,22.6,7.6c0.1,0,0.1,0,0.2,0
	c6.8,1.6,13.8,2.6,20.9,3.1c3.2,0.2,6.4,0.3,9.6,0.3c0,0,0,0,0,0c0.8,0,1.6,0,2.4,0c3.1-0.1,6.2-0.2,9.3-0.5
	c8.6-0.7,17.3-2.1,26-4.3c5.5-1.4,11.1-3,16.6-5c7.5-2.6,15-5.8,22.4-9.4c4.7-2.3,9.4-4.8,14.1-7.6c1.3-0.8,2.6-1.5,3.9-2.3
	c4.8-3,9.6-6.1,14.3-9.5c4.2-3,8.3-6.1,12.4-9.3c6.1-4.9,11.9-10.1,17.7-15.6c3.7-3.5,7.3-7.2,10.8-10.9
	c5.3-5.7,10.5-11.6,15.4-17.8c3.1-3.9,6-7.8,9-11.8c0,0,0,0,0,0c0,0.1-0.1,0.1-0.1,0.2c-2.9,4.1-6,8-9.1,11.9l31.8,32.7c0,0,0,0,0,0
	c-4.8,6.1-9.9,12-15.1,17.6c0,0,0,0,0,0l0,0l-32-32.7c-0.9,1-1.8,1.9-2.6,2.8c-1.8,1.9-3.6,3.7-5.4,5.4c-0.9,0.9-1.8,1.8-2.8,2.6
	l31.9,32.8c-5.7,5.5-11.7,10.7-17.7,15.5l-31.9-32.7c-1,0.8-2.1,1.6-3.1,2.4s-2.1,1.6-3.1,2.4c-2.1,1.6-4.1,3-6.2,4.5l31.8,32.6
	c0,0,0,0-0.1,0c-6.1,4.2-12,8.1-18.3,11.4c0,0,0,0,0,0l0,0l4.1,4.2c1.5,1.5,2.2,3.5,2.2,5.5c0-2-0.7-3.9-2.2-5.4l-4.1-4.2
	l-31.5-32.4c-4.7,2.7-9.4,5.3-14,7.6c0,0,0,0-0.1,0l0,0l31.2,32.1c-7.6,3.5-15.3,6.5-22.9,8.8l0.1,0.1l0,0l3.1,3.2
	c1.8,1.8,2.5,4.2,2.1,6.5c0,0,0,0.1,0,0.1c0,0.1,0,0.3-0.1,0.4c0.1-0.6,0.2-1.2,0.2-1.8c0,0,0,0,0,0c0-1.4-0.4-2.8-1.2-4
	c0,0-0.1-0.1-0.1-0.1c-0.1-0.2-0.2-0.3-0.3-0.5c-0.1-0.1-0.2-0.2-0.2-0.3c-0.1-0.1-0.2-0.2-0.3-0.3l-3.2-3.3l0,0l0,0L398,522.7l0,0
	c-5.5,1.9-11,3.6-16.5,5h-0.1l30,30.8c-7.8,1.5-15.5,2.3-23.2,2.4c-1.5,0-2.9,0-4.4,0l-28.3-29l-0.1-0.1c-3.1,0.2-6.2,0.4-9.3,0.5
	c-0.8,0-1.6,0-2.4,0c-3.2,0-6.4-0.1-9.6-0.3l25.3,26l0,0l15.5,15.9c1.3,1.3,2.8,2,4.5,2.2c0.3,0,0.7,0.1,1,0.1c0.1,0,0.3,0,0.4,0
	c1.8-0.1,3.5-0.8,4.9-2.2c3.1-3,3.2-7.8,0.2-10.9c3,3,2.9,7.9-0.1,10.9c-1.4,1.3-3.1,2.1-4.9,2.2c1.7,0.1,3.4,0.1,5.2,0.1
	c0.8,0,1.6,0,2.4,0c12.8-0.2,26-2.2,39.2-5.7c-0.1,0-0.2,0-0.3,0c0.1,0,0.1,0,0.2,0c0.6-0.1,1.2-0.3,1.8-0.5
	c0.1-0.1,0.2-0.1,0.4-0.2c12.4-3.5,24.9-8.5,37.1-14.9c0.2,0,0.3-0.1,0.5-0.2c0.5-0.2,1-0.5,1.5-0.8c0.2-0.2,0.4-0.3,0.6-0.4
	c3.8-2,7.5-4.2,11.3-6.5c6.6-4,13-8.4,19.4-13.2c-1.2,0.7-2.5,1.1-3.9,1.1h-0.1c1.3,0,2.7-0.4,3.9-1.1c0.5-0.3,1-0.6,1.4-1.1
	c0,0,0.1,0,0.1-0.1c2.5-2.3,3.1-5.9,1.6-8.8c1.5,2.9,1,6.6-1.5,9c0,0-0.1,0-0.1,0.1c10-7.6,19.6-16,28.7-25.2
	c-1.4,1.1-3.1,1.6-4.7,1.6c0,0,0,0-0.1,0c1.7,0,3.3-0.5,4.7-1.6c0.2-0.2,0.4-0.4,0.6-0.5c0.3-0.3,0.5-0.5,0.7-0.8
	c0.9-1.2,1.4-2.5,1.6-3.8c-0.2,1.3-0.7,2.6-1.5,3.7c8.8-9,17.2-18.7,25-29c0,0-0.1,0.1-0.1,0.1c-0.1,0.1-0.1,0.1-0.2,0.2
	c0.1-0.1,0.1-0.1,0.2-0.2c0.4-0.4,0.7-0.8,0.9-1.3c0.2-0.3,0.3-0.6,0.5-0.9c0,0.3-0.1,0.5-0.3,0.8c1-1.3,1.9-2.6,2.9-3.9
	c6.2-8.6,12-18.9,17.4-30.5c-0.1,0.1,0,0,0.1-0.3c0.4-0.6,0.5-1.1,0.7-1.7c0.1-0.4,0.2-0.8,0.3-1.3c0,0,0,0,0,0c0,0.5-0.1,1-0.3,1.4
	c5.1-11.2,9.6-23.7,13.6-37c-0.4,0.9-0.9,1.7-1.7,2.4c-1.5,1.5-3.5,2.2-5.4,2.2c1.9,0,3.9-0.7,5.3-2.2c0.7-0.7,1.3-1.5,1.7-2.4
	c0.3-0.6,0.5-1.3,0.6-1.9c0,0,0,0,0,0v0c3.7-12.7,6.8-26.1,9.2-40c-0.4,1.3-1,2.5-2,3.4c-0.2,0.2-0.4,0.4-0.7,0.5
	c0.2-0.2,0.4-0.3,0.6-0.5c1-1,1.7-2.2,2-3.4c0.1-0.5,0.2-1.1,0.3-1.6c0-0.2,0-0.4,0-0.6c2.2-13.4,3.8-27.2,4.6-41.3
	c0.3-1.1,0.4-2.3,0.2-3.4c-0.2-1.3-0.8-2.7-2-3.8l-12.9-13.4L605,310C606.1,311.2,606.8,312.6,607.1,314z M592.1,296.6l-27.3-28
	c0,0,0-0.1,0-0.1c0-0.2,0-0.3,0-0.4c0.4-8.6,0.4-17.1,0.1-25.7l25.9,26.7C591.6,278.1,592,287.3,592.1,296.6z M589.2,342.3
	l-28.7-29.5c0-0.1,0-0.1,0-0.2c1.2-7.6,2.2-15.4,3-23.2l28.1,28.9c-0.3,3.5-0.6,6.8-0.9,10.3c-0.2,2.8-0.5,5.6-0.8,8.3
	C589.7,338.7,589.5,340.6,589.2,342.3L589.2,342.3c0.2-1.8,0.5-3.5,0.6-5.4C589.6,338.8,589.4,340.5,589.2,342.3z M580.5,214.7
	L580.5,214.7c2.8,9.2,5.1,18.6,6.9,28.5l-24-24.7c0-0.1,0-0.2,0-0.3c-0.9-8.4-2.1-16.6-3.7-24.9L580.5,214.7z M116,420.9
	c0.2-0.3,0.5-0.7,0.7-1.1c2.7-4.4,5.3-10,7.5-15.8l0.7,0.7l25.3,25.9c0,0,0,0.1,0,0.2c-0.2,0.7-0.3,1.4-0.5,2.1
	c-0.2,0.9-0.5,1.9-0.7,2.8c-1.2,4.9-2.4,9.9-3.7,15L116,420.9z M99.8,291.1c-0.1-0.4-0.1-0.8-0.2-1.2l-0.1-0.1
	c-1-6.5-1.5-13.1-1.4-20c0-1.6,0.1-3.2,0.1-4.8v0l28.2,28.9c0,0.1,0,0.2,0,0.4l-0.2-0.2c-0.8,6.6-1.3,13.2-1.3,19.7c0,0.7,0,1.3,0,2
	l-25.3-26v0.1C99.7,290.3,99.7,290.7,99.8,291.1z M400.4,141.7c7.6,2.6,14.8,5.6,21.6,9.1c3.4,1.8,6.7,3.6,9.9,5.6
	c4.6,7.9,8.6,16.5,11.8,25.7c0.6,1.8,1.2,3.7,1.8,5.6c1.2,3.8,2.2,7.6,3.1,11.5c0.3,1.2,0.6,2.4,0.8,3.7c0.7,3.1,1.2,6.2,1.8,9.4
	c0.5,3.2,1,6.4,1.3,9.7c0.8,6.5,1.2,13.3,1.4,20.2c0,1.4,0.1,2.8,0.1,4.2c0.1,7.4-0.1,14.9-0.7,22.7c-0.2,2.6-0.4,5.2-0.6,7.8
	c-0.9,9-2.2,18-4.1,26.7c-0.4,1.8-0.7,3.5-1.1,5.2c-2,8.7-4.4,17.2-7.3,25.5s-6.1,16.2-9.7,23.9c-1.5,3.3-3.1,6.5-4.8,9.6
	c-1.7,3.1-3.4,6.2-5.2,9.2c-5.1,8.5-10.6,16.3-16.6,23.4c-7.7,9.1-16,17-24.8,23.3c-20.1,14.2-41.6,19.5-62.5,15.2
	c0-0.5-0.1-1-0.1-1.6s0-1.1-0.1-1.7c0-0.4,0-0.8,0-1.2s0-0.9,0-1.3c0-1.3,0-2.7,0.1-4.2c0-0.5,0-1,0-1.5c0.1-2,0.2-4.1,0.3-6.4
	c0.1-0.8,0.1-1.7,0.2-2.5c0.1-0.9,0.1-1.7,0.2-2.6v0v0c-0.2,1.7-1,3.2-2.3,4.5c-1.5,1.5-3.4,2.2-5.4,2.2s-4-0.8-5.5-2.3L304,420
	l-2.3-2.4c-0.4,4.4-0.6,8.5-0.6,12.3c0,0,0,0,0,0c0,1.3,0,2.5,0,3.7c-1.3-0.6-2.4-1.3-3.6-2c-0.6-0.4-1.2-0.7-1.8-1.1
	c-0.3-0.2-0.6-0.4-0.8-0.6c-0.6-0.5-1.3-0.9-1.9-1.4c-0.9-0.7-1.7-1.4-2.5-2c-0.8-0.7-1.5-1.4-2.2-2.1c0,0,0,0-0.1-0.1
	c-0.5-0.5-0.9-1-1.3-1.4c-2.1-2.4-3.8-4.8-5.3-7.2c-0.2-0.4-0.5-0.8-0.7-1.2c-0.5-0.8-0.9-1.6-1.3-2.4c-0.5-1-1-1.9-1.4-2.9
	c-0.2-0.5-0.5-1-0.7-1.5c-0.1-0.2-0.1-0.3-0.2-0.5c-0.2-0.4-0.3-0.8-0.5-1.2c-0.1-0.4-0.3-0.7-0.4-1c-0.2-0.5-0.4-1-0.6-1.5
	c-0.3-0.8-0.5-1.4-0.8-2c0-0.1-0.1-0.2-0.1-0.3c0-0.1-0.1-0.1-0.1-0.2c0-0.1,0-0.1-0.1-0.2c-0.5-1.7-0.8-5.8-0.9-11.6V389l27.6,28.4
	l2.4,2.5c1.5,1.5,3.5,2.3,5.5,2.3c0.2,0,0.5,0,0.7,0c0.2,0,0.4,0,0.6-0.1c1.5-0.3,2.9-0.9,4.1-2.1c1.3-1.3,2-2.8,2.3-4.5
	c0-0.1,0-0.3,0-0.4c0-0.1,0-0.1,0-0.2c0,0,0-0.1,0-0.1c1.4-13.4,4.4-28.9,10.2-41.9c0,0,0,0,0,0c0.3-0.4,0.5-0.9,0.6-1.4
	c0.1-0.4,0.3-1,0.4-1.5c0,0,0,0,0,0c-0.1,0.6-0.2,1.2-0.4,1.7c11.9-26.7,22-59,25.1-86.6c0,0,0,0,0,0c0-0.1,0-0.2,0-0.2
	c0-0.1,0-0.2,0-0.2c0.2-0.7,0.2-1.4,0.2-2.1c0-0.7-0.2-1.5-0.5-2.2c-0.1-0.2-0.2-0.4-0.3-0.6c-0.1-0.1-0.1-0.3-0.2-0.4
	c-0.1-0.2-0.3-0.5-0.5-0.7c-0.1-0.1-0.1-0.2-0.2-0.3c0.5,0.6,1,1.4,1.3,2.1c0,0.1,0.1,0.2,0.1,0.3c0.1,0.3,0.2,0.6,0.3,0.9
	c0,0,0,0.1,0,0.1c0.1,0.4,0.1,0.7,0.2,1.1c0,0,0,0,0,0c0,0,0,0,0,0c1.3-13.6,0.9-26-2-35.8c-4-13.4-11.6-21.9-18.3-29.4
	c-0.8-0.8-1.5-1.7-2.2-2.5c-1.4-1.6-2.9-3.3-4.4-5c-7-7.8-14.5-15.7-20.4-21.8c-0.8-0.9-1.7-1.7-2.4-2.5c-0.4-0.4-0.8-0.8-1.1-1.2
	c-1.1-1.1-2.1-2.2-3-3.1c-1.3-1.4-2.4-2.5-3.2-3.2c-0.8-0.8-1.2-1.2-1.2-1.2l-0.1-0.1c-1.3-1.4-2.7-2.8-4.1-4
	c-1.4-1.3-2.9-2.5-4.5-3.6c-0.8-0.5-1.6-1.1-2.4-1.6c-1.2-0.8-2.5-1.5-3.7-2.1c-1.3-0.7-2.6-1.3-3.9-1.8c-2.1-0.9-4.2-1.6-6.4-2.2
	c-1.1-0.3-2.2-0.6-3.3-0.8c-4.5-1-9.2-1.4-14-1.4c-1.2,0-2.4,0.1-3.7,0.1c-2.5,0.2-5,0.4-7.5,0.8c-1.3,0.2-2.5,0.4-3.8,0.7
	c-2.9,0.6-5.8,1.3-8.7,2.2c-3.6,1.1-7.3,2.4-11,4c0.2-0.2,0.4-0.3,0.5-0.4c0.2-0.1,0.3-0.3,0.5-0.4c-1.2,0.8-2.6,1.2-4,1.2
	c-1,0-2-0.2-2.9-0.6s-1.8-1-2.6-1.7l-0.2-0.2c1.5,1.5,3.4,2.1,5.3,2.1c0,0,0,0,0,0h0c0.5,0,1-0.1,1.6-0.2s1-0.3,1.5-0.5
	c0.3-0.1,0.6-0.3,0.9-0.5s0.6-0.4,0.9-0.6c0.1-0.1,0.3-0.2,0.4-0.4c0,0,0,0,0,0c0.4-0.4,0.7-0.9,1-1.3c0.3-0.5,0.6-1.1,0.8-1.7
	c0.1-0.4,0.2-0.8,0.3-1.1c0-0.1,0-0.2,0.1-0.3c0.1-0.8,0.1-1.6-0.1-2.4c-0.2-0.8-0.4-1.6-0.9-2.3c0.7,1.1,1,2.4,1.1,3.6
	c0.1,2.1-0.8,4.2-2.4,5.8c0,0-0.1,0.1-0.2,0.2s-0.2,0.2-0.2,0.2c6.4-4.6,13-8.7,19.9-12.4c2.8-1.5,5.6-2.8,8.4-4.1
	c1.4-0.7,2.9-1.3,4.3-1.9c-0.2,0-0.5,0.1-0.7,0.1c0.1,0,0.2-0.1,0.4-0.1c0.1,0,0.2,0,0.3-0.1c0.2-0.1,0.4-0.1,0.6-0.2
	c0.2-0.1,0.4-0.2,0.5-0.3c0.2-0.1,0.3-0.2,0.5-0.3c0.2-0.1,0.3-0.2,0.5-0.3c0.3-0.2,0.6-0.5,0.9-0.7c2.6-2.6,3-6.5,1.2-9.6
	c1.6,2.5,1.6,5.8-0.1,8.4c0,0.1-0.1,0.1-0.1,0.2c-0.3,0.4-0.5,0.7-0.9,1c-0.5,0.5-1.1,0.9-1.8,1.3c0,0,0,0,0,0c0,0,0,0,0,0
	c2.8-1.2,5.6-2.3,8.5-3.3c8.6-3.1,17.6-5.6,27-7.5c0.5,0,1-0.1,1.5-0.3c0.1,0,0.3-0.1,0.4-0.1c-0.2,0.1-0.3,0.1-0.5,0.2c0,0,0,0,0,0
	c0,0,0,0,0,0c13.3-2.6,27.4-3.9,42.3-4c0.4-0.1,0.7-0.1,1-0.1c0.3,0,0.6,0,0.8,0c0.2,0,0.4,0,0.6,0h0c-0.2,0-0.3,0-0.5-0.1
	c0.2,0,0.4,0,0.6,0.1c0.2,0,0.4,0,0.5,0c0.1,0,0.3,0,0.4,0h0c0.9,0,1.8-0.2,2.6-0.6c0.4-0.2,0.8-0.4,1.2-0.7
	c0.4-0.3,0.8-0.6,1.1-0.9c2.4-2.4,3-6,1.5-9c0,0,0,0,0,0c1.6,2.9,1.1,6.8-1.4,9.3c0,0,0,0,0,0c-0.5,0.5-1.1,1-1.7,1.3
	c-0.4,0.2-0.8,0.4-1.3,0.5c-0.7,0.2-1.3,0.3-2,0.4C359.9,132,381.4,135.4,400.4,141.7z M372.1,103.2
	C372.1,103.2,372.1,103.2,372.1,103.2c0.1,0,0.1,0,0.1,0c0,0,0,0,0.1,0c0,0,0,0,0,0c14.4,6.5,27.1,14.9,37.8,25.3
	c0.1,0.1,0.1,0.1,0.2,0.2c0,0,0.1,0.1,0.1,0.1c-6.1-2.3-12.4-4.3-18.9-5.8l-0.2-0.2L372.1,103.2z M311.5,216.4c2.7,3,5.4,5.9,8,8.8
	c0.8,0.9,1.5,1.7,2.3,2.6c3.1,3.4,6.1,6.8,8.7,10.5c0.2,0.3,0.4,0.5,0.5,0.8c0.1,0.2,0.2,0.4,0.4,0.6c0.4,0.6,0.7,1.1,1,1.7
	c-0.4-0.6-0.7-1.2-1.1-1.8c2.2,3.4,4,7.1,5.4,11.5c1,3.4,1.7,7.9,1.9,13.3l-27.2-28.1C311.9,229.2,312,222.6,311.5,216.4z
	 M337.6,285.5c-1,8.3-2.7,17.6-5.3,27.6l-29.9-30.8c2.6-8.8,4.6-17.7,6.2-26.4c0-0.1,0-0.1,0-0.2L337.6,285.5z M327.4,330.1l0.1,0.1
	v0.1l2.8,2.9l-2.8-2.8l-0.1-0.1c-2.6,8-5.7,16.5-9.1,25.2L287.5,324c0-0.1,0-0.1,0-0.1c0,0,0,0,0,0c3.4-7.9,6.6-16.3,9.5-24.8
	c0-0.1,0-0.1,0.1-0.2L327.4,330.1z M328.4,369.5c0,0,0,0.1,0,0.1C328.4,369.6,328.4,369.6,328.4,369.5
	C328.4,369.6,328.4,369.5,328.4,369.5z M311.7,370.9c-1.3,3.2-2.4,6.5-3.4,9.9c-0.7,2.2-1.3,4.5-1.9,6.8c-0.9,3.4-1.6,6.9-2.2,10.3
	l-28.9-29.7c1.1-9.2,2.9-19.1,5.9-28.5c0,0,0,0,0-0.1L311.7,370.9z M334.2,131.4c0.1,0,0.3,0.1,0.4,0.1c-0.1,0-0.1,0-0.2,0
	C334.3,131.5,334.2,131.5,334.2,131.4z M365.1,118.1c-8.3-1-16.9-1.6-25.8-1.8l-0.1-0.1l-26.7-27.6c9.8,0.8,19.2,2.2,28.1,4.3
	L365.1,118.1l0.1,0.1L365.1,118.1z M318.2,116.6l12.1,12.7c0.5,0.5,1.1,1,1.7,1.3c0.2,0.1,0.4,0.2,0.6,0.3c-0.1-0.1-0.3-0.1-0.4-0.2
	c-0.2-0.1-0.3-0.2-0.4-0.3c-0.3-0.2-0.7-0.4-1-0.7c-0.2-0.1-0.3-0.3-0.5-0.5l-12.1-12.5c-9.2,0.6-18.3,1.6-26.9,3.1l-0.1-0.1
	l-29.2-30.1c9-1.2,18.4-1.8,28.1-1.9h0.1c0.1,0,0.1,0,0.2,0L318.2,116.6z M273.3,123.7l0.1,0.1c-7.4,1.9-14.6,4.3-21.6,7l-30.9-31.7
	c7.2-2.5,14.7-4.6,22.3-6.3h0.1L273.3,123.7z M236.8,137.5c-4.5,2.2-8.9,4.7-13.2,7.3c-2.6,1.5-5.2,3.2-7.7,4.9l-0.1-0.1l-31.6-32.5
	c6.8-4.4,13.8-8.3,21.2-11.7c0,0,0,0,0.1,0L236.8,137.5z M203.3,158.8c-5.2,4.2-10.4,8.7-15.3,13.5c-0.8,0.8-1.5,1.4-2.2,2.2
	L154,141.8c0.8-0.8,1.5-1.5,2.3-2.3c4.9-4.8,10-9.2,15.2-13.3c0,0,0,0,0.1,0L203.3,158.8z M175.3,185.9c-4.9,5.7-9.4,11.7-13.6,17.9
	l-31.6-32.5c0,0,0,0,0,0c4.1-6.3,8.6-12.4,13.4-18c0,0,0,0,0-0.1L175.3,185.9z M142.6,335.8c0,0.6-0.1,1.2-0.3,1.8
	c0-0.4,0.1-0.7,0.1-1.1c0-0.5,0-0.9-0.1-1.3v-0.1c-0.2-0.7-0.5-1.4-0.8-2c-1-6.3-1.4-12.7-1.4-19.4c0-6.4,0.5-12.8,1.4-19.3
	c0.5-1,0.7-2.1,0.7-3.2c0-0.3,0-0.7-0.1-1c0.3-1.9,0.7-3.9,1.1-5.8c0.8-4.1,1.8-8.3,3-12.4c1.6-5.7,3.5-11.4,5.7-17
	c0.1-0.2,0.2-0.4,0.4-0.6c0.5-0.8,0.8-1.7,0.9-2.6c4.2-10.4,9.3-20.5,15.2-30.2c0.3-0.3,0.6-0.6,0.8-1c0.2-0.3,0.4-0.6,0.5-0.8
	c0-0.1,0.1-0.2,0.1-0.2c0.2-0.4,0.3-0.9,0.5-1.3c0.4-1.3,0.4-2.7,0-4.1c-0.1-0.5-0.3-1-0.5-1.4c0.8,1.3,1.2,2.8,1.1,4.2
	c0,0.6-0.1,1.1-0.3,1.7c-0.2,0.4-0.3,0.8-0.5,1.3v0.1c-2.2,6-4,12.3-5.3,19c-2,10-3.1,20.4-3.1,31.2c-0.1,23.4,4.4,48.1,13.4,72
	c-4.1,13.4-8.1,27.3-12.1,41.6C152.5,369.9,145.6,353.7,142.6,335.8z M157.1,403.4c-0.8,3.2-1.7,6.4-2.6,9.7l-24.9-25.7
	c0.3-1.2,0.6-2.3,0.9-3.4c0.6-2.3,1.1-4.4,1.5-6.3l24.2,24.9C156.4,402.9,156.8,403.2,157.1,403.4
	C157.1,403.4,157.1,403.4,157.1,403.4L157.1,403.4L157.1,403.4z M153.1,217.2c-3.5,6.2-6.9,12.7-9.9,19.2c0,0-0.1,0.1-0.1,0.2
	s0,0.1,0,0.2l-30.8-31.7c2.9-6.9,6.1-13.5,9.7-20L153.1,217.2z M136.6,252.4c0,0.1,0,0.1-0.1,0.2v-0.1c-2.8,7.5-5,15.1-6.8,22.7
	l-29.3-30c1.4-8,3.4-15.9,5.9-23.9c0,0,0,0,0-0.1L136.6,252.4z M127.6,340.5l1.6,1.6c1.5,1.5,3.4,2.3,5.4,2.3h-0.1
	c-2,0-4-0.8-5.5-2.3l-1.5-1.5l-0.1-0.1c0.6,3.3,1.4,6.6,2.2,9.8c0,0.1,0,0.2,0.1,0.3c-7.3-7.4-13.5-15.7-18.3-24.7
	c-0.7-1.3-1.4-2.6-2-3.9L127.6,340.5z M213.9,727.4c0,0.2-0.1,0.3-0.1,0.5C213.8,727.7,213.8,727.5,213.9,727.4
	C213.9,727.4,213.9,727.4,213.9,727.4C213.9,727.4,213.9,727.4,213.9,727.4z M214,727.1C213.9,727.1,213.9,727.1,214,727.1
	C213.9,727.1,213.9,727.1,214,727.1c0-0.1,0.1-0.3,0.1-0.5C214,726.7,214,726.9,214,727.1z M217.3,690.7
	c-4.3,8.4-8.4,15.8-12.2,22.3l-31.3-32.1c4.9-8.1,10-17.2,15.1-27.2l31,31.8C219,687.3,218.1,689,217.3,690.7z M234.7,678.6
	l-7.5-7.7L234.7,678.6c0.1,0.1,0.2,0.2,0.2,0.3C234.9,678.8,234.8,678.7,234.7,678.6z M237.4,646.8c-3.4,8.1-6.9,16-10.4,23.9
	L196,639c1-2,1.9-4,2.9-6.1c2.3-5.1,5-10.9,7.8-17.7L237.4,646.8z M264.6,569c-1.8,6.3-3.7,12.7-5.7,19.1l-30.2-31.2
	c2.6-8.1,5.2-16.4,7.7-25.1l29.9,30.8l0.1,0.1C265.8,564.8,265.2,566.9,264.6,569z M275.6,523.3L275.6,523.3L246.1,493l29.4,30.3
	c-1.4,7.1-2.9,14.3-4.7,21.7l-29.7-30.5v-0.1c1.8-6.9,3.5-14,5-21.4v-0.1L275.6,523.3z M505.6,419.4c-6.7,9.2-13.8,18-21.2,26.1
	c4.2-4.5,8.2-9.2,12.1-14c-3.9,4.9-8,9.5-12.1,14c0,0,0,0,0,0c0,0,0,0,0,0c-1.4,1.5-2.8,3.1-4.3,4.6c0,0,0,0,0,0c0,0,0,0,0,0
	c0,0,0,0,0,0c0,0-0.1,0.1-0.1,0.1c0,0,0,0,0,0c-1.3,1.4-2.7,2.7-4,4.1c0,0,0,0,0,0c-0.2,0.2-0.4,0.5-0.7,0.7c0,0,0,0,0,0
	c-1.5,1.5-3,2.9-4.5,4.3c-37.3,35.2-81.5,56.4-122.8,57.8c-0.7,0-1.4,0.1-2.1,0.1c-1.2,0-2.4,0-3.6,0c-37.2-0.5-69.7-17.3-94.1-48.8
	c-1.4-1.8-3.5-2.9-5.7-3c-0.7,0-1.4,0-2.1,0.2c-2.9,0.7-5.2,3.1-5.7,6.1c-9.2,51.3-28.3,109.7-52.4,160.5
	c-22.7,47.7-40.3,68.7-47,73.1c0,0,0,0,0-0.1c0,0-0.1,0-0.1,0.1c-2.3-6.3-5.1-24.4-5.5-57.1c0-2.8-0.1-5.6-0.1-8.5
	c0-0.1,0-0.1,0-0.2c0.1-25.5,1.7-50.7,4.1-65c0.2-0.9,0.3-1.8,0.5-2.6c17.6-87.8,36.4-164.7,55.8-228.4c0,0,0,0,0,0
	c0.3-0.8,0.3-1.6,0.3-2.4c0,0,0,0,0,0c0,0,0,0,0,0c0,0,0-0.1,0-0.1c0,0,0,0,0,0c0-0.8-0.2-1.7-0.5-2.4
	c-8.8-22.5-13.4-45.8-13.3-67.8c0-10,0.9-19.8,2.8-29.1c5.4-26.5,18-46.8,34.6-55.7c14-7.5,27.4-11.4,39.2-11.4
	c6.2,0,12,1.1,17.2,3.2c11.5,4.8,19.5,14.7,23.9,29.4c0.2,0.5,0.3,1.1,0.4,1.6c0,0.1,0,0.1,0,0.2c0.9,3.8,1.4,8.5,1.5,14
	c0,0.8,0,1.6,0,2.5c0,0,0,0.1,0,0.1c-0.2,22.7-7.4,57.5-25.2,97.3c-8.9,19.9-12.3,45.8-12.4,63.8c-0.1,9.4,0.8,16.7,2.1,19.9
	c0,0,0,0,0,0c0,0,0,0,0,0c0,0,0,0,0,0c0,0,0,0,0,0c0.3,0.6,0.5,1.3,0.9,2.2c3.8,9.7,13.7,35.6,48.6,44.1c26.1,6.4,53,0.5,77.6-17
	c20.8-14.8,39.4-37.4,53.5-65.4c0,0,0,0,0,0c14.2-27.9,23.3-59.9,26.5-92.4c0-0.1,0-0.2,0-0.3c1-10,1.5-19.7,1.5-29.2c0,0,0,0,0-0.1
	c0,0,0,0,0,0c0,0,0,0,0,0c-0.1-51.5-14.5-94.3-42.5-124.7c-31-34-78.1-51.7-136.4-51.3c-59.1,0.4-106.4,18.7-144.8,56
	c-18.2,17.6-33.7,39.8-44.8,64.1c-11.7,25.6-18,52.3-18.1,77.2c0,0,0,0,0,0.1c0,0,0,0.1,0,0.1c0,29,8.1,55.2,23.8,76.8
	c3.6,5,7.7,9.7,12.1,14.2c0,0.4,0.1,0.9,0,1.6c-0.1,4.3-1.5,13.8-5.4,26.5c-4.5,14.4-8.9,22.2-11.2,25
	c-25.7-9.7-48.6-30.5-64.8-58.6c-14.1-24.4-21.6-52.1-21.9-79.8c0-0.2,0-0.5,0-0.7c0-0.8,0-1.5,0-2.3c0-0.1,0-0.2,0-0.3
	c0-1.2,0.1-2.4,0.1-3.6c0-0.3,0-0.7,0-1c0-0.9,0.1-1.7,0.1-2.6c0-0.4,0-0.8,0.1-1.2c0.1-0.9,0.1-1.7,0.2-2.6c0-0.3,0.1-0.7,0.1-1
	c0.1-1.2,0.2-2.4,0.4-3.7c0,0,0,0,0,0c2.2-19.4,5.8-37.7,10.9-55.1c3-10.4,6.6-20.4,10.6-30.1c2.7-6.4,5.6-12.7,8.7-18.7
	c0.8-1.5,1.6-3,2.4-4.5c1.6-3,3.3-5.9,5-8.8c1.7-2.9,3.5-5.8,5.3-8.6c0.9-1.4,1.8-2.8,2.8-4.2c1.9-2.8,3.8-5.5,5.8-8.1
	c1-1.3,2-2.7,3-4c2-2.6,4.1-5.2,6.3-7.7c2.1-2.5,4.3-5,6.6-7.4c1.1-1.2,2.2-2.4,3.3-3.5c0.1-0.1,0.2-0.2,0.3-0.3
	c1-1.1,2-2.1,3.1-3.1c0.2-0.2,0.4-0.4,0.5-0.5c1-1,1.9-1.9,2.9-2.8c0.2-0.2,0.5-0.4,0.7-0.7c0.9-0.9,1.9-1.8,2.8-2.6
	c0.3-0.3,0.5-0.5,0.8-0.8c0.9-0.8,1.8-1.7,2.8-2.5c0.3-0.3,0.6-0.5,0.9-0.8c0.9-0.8,1.8-1.6,2.8-2.4c0.3-0.3,0.6-0.5,1-0.8
	c0.9-0.8,1.9-1.5,2.8-2.3c0.3-0.3,0.6-0.5,0.9-0.8c3-2.4,6.1-4.8,9.3-7.1c0.3-0.2,0.6-0.5,0.9-0.7c1.3-0.9,2.6-1.8,3.9-2.8
	c0.3-0.2,0.7-0.5,1-0.7c3.2-2.2,6.5-4.3,9.8-6.3c0.4-0.2,0.8-0.5,1.2-0.7c1.3-0.8,2.6-1.6,4-2.4c0.4-0.2,0.8-0.5,1.2-0.7
	c3.4-1.9,6.8-3.8,10.3-5.6c0.5-0.2,0.9-0.5,1.4-0.7c1.3-0.7,2.7-1.3,4-2c0.5-0.2,1-0.5,1.4-0.7c3.5-1.7,7.1-3.3,10.8-4.9
	c0.5-0.2,1-0.4,1.6-0.7c1.4-0.6,2.7-1.1,4.1-1.7c0.5-0.2,1.1-0.4,1.6-0.6c3.7-1.5,7.5-2.9,11.3-4.2c0.6-0.2,1.1-0.4,1.7-0.6
	c1.4-0.5,2.9-1,4.3-1.4c0.6-0.2,1.1-0.4,1.7-0.6c1.9-0.6,3.9-1.2,5.9-1.8c7-2.1,14.2-3.9,21.6-5.5c3.8-0.8,7.6-1.6,11.5-2.3
	c6.1-1.1,12.3-2.1,18.7-2.9C305.3,11,361,18.3,409.5,38.4c19.4,8,37.3,17.9,53.3,29.4c23.3,16.8,42.4,36.8,55.8,58.7
	c24.6,40.5,35.1,96.7,29.7,158.2C543.6,337.7,527.3,389.3,505.6,419.4z M568.8,424l-30.9-31.7c-2.2,5.2-4.6,10.1-7,14.8l31.2,32
	l0.1,0.1l-0.1,0.1c-3.8,7.7-7.8,14.8-12,21.1l0,0l-0.1-0.1l-31.7-32.5c0.1-0.1,0.1-0.2,0.2-0.3c4.3-6.1,8.5-13,12.4-20.6
	c2.4-4.7,4.8-9.6,7-14.8c3-6.7,5.6-14,8.2-21.5l0.1,0.1l30.3,31.2l0.1,0.1C574.2,409.7,571.6,417,568.8,424z M592.3,396.6
	c-0.4-0.8-0.9-1.6-1.6-2.2l-9.4-9.6l-30-30.9v-0.1c0-0.1,0-0.1,0-0.2c2.1-7.2,3.9-14.8,5.6-22.5c0-0.1,0-0.1,0-0.2
	c0.3-1.4,0.6-2.8,0.9-4.3c-0.3,1.5-0.6,3-0.9,4.5l29.4,30.3c-1.4,7.9-3.1,15.7-5,23.3l9.4,9.6C591.4,395,591.9,395.8,592.3,396.6z"
	/>
</svg>
