<svg version="1.1" id="Layer_1" xmlns="http://www.w3.org/2000/svg" xmlns:xlink="http://www.w3.org/1999/xlink" x="0px" y="0px"
	 viewBox="0 0 26 26" style="enable-background:new 0 0 26 26;" xml:space="preserve">
<path var:color.fill="#000" d="M17.8,20.6l-0.3,0.2c-1.8,1.2-4,1.9-6.2,1.9C5.1,22.6,0,17.6,0,11.4S5.1,0.1,11.3,0.1c6.2,0,11.3,5.1,11.3,11.3
	c0,2.4-0.7,4.6-2.1,6.5l-0.2,0.3l5.4,5.4L23.2,26C23.2,26,17.8,20.6,17.8,20.6z M11.3,3.5c-4.3,0-7.9,3.5-7.9,7.9
	c0,4.3,3.5,7.9,7.9,7.9s7.9-3.5,7.9-7.9C19.2,7,15.6,3.5,11.3,3.5z"/>
</svg>
