<?xml version="1.0" encoding="utf-8"?>
<!-- Generator: Adobe Illustrator 27.5.0, SVG Export Plug-In . SVG Version: 6.00 Build 0)  -->
<svg version="1.1" id="Layer_1" xmlns="http://www.w3.org/2000/svg" xmlns:xlink="http://www.w3.org/1999/xlink" x="0px" y="0px"
	 viewBox="0 0 100 100" enable-background="new 0 0 100 100" xml:space="preserve">
<path var:color.fill="#000" d="M94.2,90C82.3,78,70.3,66.1,58.4,54.2c-0.3-0.3-0.5-0.5-0.8-0.8c0.1-0.2,0.2-0.3,0.3-0.4c5.7-7.1,8.1-15.1,6.8-24.2
	C63.1,17.4,54.4,7.6,43.2,4.7c-1.8-0.5-3.7-0.7-5.6-1.1c-1.6,0-3.2,0-4.8,0c-1.8,0.3-3.7,0.6-5.5,1.1C15,8,6.1,18.5,4.8,31.3
	c0,0.2-0.1,0.4-0.1,0.6c0,1.7,0,3.3,0,5c0.1,0.2,0.1,0.4,0.2,0.7c0.3,1.7,0.6,3.5,1,5.2c5.4,18.5,26.4,26.8,43.3,17.5
	c1.8-1,3.5-2.3,5.5-3.6c0.1,0.2,0.3,0.5,0.5,0.8c11.9,12,23.9,23.9,35.9,35.9c0.5,0.5,1.1,0.9,1.7,1.4c0.4,0,0.7,0,1.1,0
	c0.8-0.4,1.4-0.9,1.8-1.8c0-0.4,0-0.7,0-1.1C95.2,91.2,94.7,90.5,94.2,90z M34.4,59.5C20.2,59.4,9.1,48.2,9.2,34.1
	C9.2,19.8,21.1,8,35.3,8.1c14.2,0.1,25.3,11.3,25.2,25.4C60.4,47.8,48.6,59.6,34.4,59.5z"/>
</svg>
