<svg version="1.1" id="Layer_1" xmlns:serif="http://www.serif.com/"
	 xmlns="http://www.w3.org/2000/svg" xmlns:xlink="http://www.w3.org/1999/xlink" x="0px" y="0px" viewBox="0 0 765.3 754.7"
	 style="enable-background:new 0 0 765.3 754.7;" xml:space="preserve">
<path var:color.fill="#000" d="M756.4,589.8c2.4,2.4,2.8,6.1,1.3,8.9c5-8.1,7.8-16.7,7.7-25.2c-0.1-8.1-1.2-17-8.8-26.3c-6.8-8.3-37.8-39.6-40.7-42.5
	c-9.3-10.7-26.4-21.3-55.6-39c-7.8-4.7-14.9-9.6-21.3-14.5c-5.6-9-8.2-16.6-8.2-21.8c0.3-0.4,0.6-0.8,0.9-1.2l-0.1,0.1l0.1-0.1
	c0.2-0.2,0.5-0.5,0.7-0.8c1-1.3,1.5-2.8,1.6-4.4c0,1.6-0.6,3.1-1.6,4.5c4.8-5.4,14.7-11.7,23.6-17.4c0.7-0.5,1.5-0.9,2.2-1.4
	c-1.2,0.7-2.5,1-3.8,1c-2-0.1-4-0.9-5.5-2.4c1.5,1.5,3.5,2.3,5.5,2.3c1.3,0,2.6-0.3,3.8-1c0.2-0.1,0.4-0.3,0.6-0.4
	c0.3-0.2,0.6-0.5,0.9-0.7c3.1-3,3.2-7.9,0.2-10.9l-4.4-4.5l-28.9-29.7c3.4-2.3,6.6-4.5,9.4-6.9c0.1-0.1,0.2-0.2,0.4-0.3
	c1.5-1.3,3-2.6,4.5-3.9c0,0,0,0,0.1,0c0,0,0,0,0.1-0.1c3.7-3.6,7-7.6,9.8-11.7c3.4-5,6.1-10.3,8.1-15.9c0,0,0,0,0-0.1l0,0l27.3,28
	l0.1,0.1c-0.3,1.3-0.6,2.6-1,3.9c-0.1,0.4-0.2,0.8-0.4,1.2c-0.3,1-0.6,1.9-1,2.9c-0.4,1-0.8,2-1.2,3c-0.5,1.1-1,2.1-1.5,3.1
	c-0.3,0.6-0.6,1.2-0.9,1.8c-0.2,0.4-0.5,0.9-0.7,1.3v0l-28.8-29.5c-2.8,4.2-6.1,8.2-9.9,11.8l0,0l29.1,29.8
	c-1.3,1.3-2.7,2.5-4.1,3.7c-3,2.4-6.6,4.9-10.4,7.5l4.4,4.5c3,3,2.9,7.9-0.1,10.8c-0.3,0.3-0.6,0.5-0.9,0.7
	c6-3.8,11.9-7.8,16.7-11.7c3.9-3.2,7.4-6.7,10.6-10.4c-0.1,0.1-0.2,0.1-0.3,0.2c0,0,0,0,0,0c0,0,0,0,0,0c0.2-0.2,0.3-0.3,0.5-0.5
	c0.1-0.1,0.2-0.3,0.3-0.4c2.1-3,1.9-7.2-0.7-9.9c2.7,2.7,2.9,6.9,0.7,9.9c8.1-10,13.4-21.8,15.3-34.5c-0.3,1.4-1,2.7-2.1,3.7
	c-1.5,1.4-3.5,2.1-5.4,2.1c0,0,0,0,0,0c1.9,0,3.9-0.7,5.3-2.2c1.1-1.1,1.8-2.3,2.1-3.7c0.1-0.4,0.1-0.7,0.2-1.1c0-0.3,0-0.6,0-1
	c0.1-0.9,0.2-1.9,0.3-2.7c1.6-18.4-4-36-15.7-49.4c-7.9-9-32.3-33.3-36.5-37.4c-7.9-10.6-18.9-18.5-32.3-23.2c0,0,0,0,0,0
	c0,0,0.1,0,0.1,0c0-0.2,0-0.4,0-0.6c0-0.6-0.1-1.1-0.2-1.7c-0.3-1.3-1-2.5-1.9-3.5c1,1,1.6,2.2,1.9,3.5c-2.2-17.6-6.1-34-11.6-49.3
	c-0.1-0.7-0.4-1.4-0.7-2c-0.2-0.4-0.4-0.7-0.7-1.1c-6.7-17.6-15.5-33.7-26.5-48.1c-12.1-15.9-28.8-36-41.3-51
	c-5.2-7.1-10.9-13.9-17.1-20.2c-0.3-0.3-0.6-0.6-0.9-0.9c-0.2-0.2-0.3-0.4-0.5-0.5c-19.2-19.4-42.2-34.4-68.4-44.7
	C423.8,5.4,394.4,0.1,362.9,0c-64.2-0.1-118.7,20.8-157.5,60.6c-39.9,41-60.7,99.7-60.3,170.3c-37.1-1.6-65.7,13.7-77.6,41.9
	c-11.9,28.3-2.8,62.3,22.1,82.6c5.6,4.6,12.7,9.1,19.6,13.5c10,6.4,21.3,13.7,25.1,19.4c0.1,14.8-20.9,48.2-69,77.4
	c-51.8,31.4-65.3,40.7-65.4,67c-0.1,16.1,10,32.5,25.9,45.5c9.8,9.6,21.5,21.5,24.8,25.9c13.6,18.1,38,32.5,65.4,38.6
	c0.2,0.2,0.5,0.3,0.7,0.5c4.4,4.6,29,30.2,36.4,36.1c10.5,8.3,20,15.1,29.3,15c10.9-0.1,21.2,0.2,31.1,0.9c-1.7-0.2-3.3-0.9-4.6-2.3
	l-13.5-13.8c-2.6,0-5.3-0.1-8-0.1c-1.7,0-3.4,0-5.2,0c-4.8,0-14.8-7.9-19.6-11.7c-2.6-2.1-8.4-7.7-14.7-14c0.1,0,0.1,0,0.2,0
	c7.9,0,15.6,0.2,22.9,0.7c0.1,0,0.1,0,0.2,0c0,0,0.1,0,0.1,0l24.2,24.9l13.5,13.8c1.3,1.3,2.9,2.1,4.6,2.3c0.2,0,0.5,0,0.7,0
	c0.1,0,0.1,0,0.2,0c0.7,0,1.4,0,2-0.2c-0.7,0.2-1.4,0.3-2.1,0.3c-0.1,0-0.1,0-0.2,0c13.2,1,25.6,2.6,37.4,5.1
	c2.7,0.6,5.5,1.5,8.5,2.7c-0.5-0.3-1-0.7-1.5-1.2l-17.8-19c-5.7-0.9-11.6-1.6-17.6-2.2c-1.7-0.2-3.5-0.3-5.2-0.5l0,0l-23-23.7
	c5.9,0.8,11.6,1.8,17.2,3c2.9,0.6,5.9,1.6,9.2,2.9l0,0l19.4,20.5l17.9,19c0.4,0.5,0.9,0.9,1.5,1.2c0.8,0.5,1.6,0.8,2.4,1
	c0.6,0.1,1.1,0.2,1.7,0.2c1.9,0,3.8-0.7,5.3-2.1c3.1-2.9,3.2-7.8,0.3-10.8l0.1,0.1c2.9,3.1,2.8,7.9-0.3,10.8
	c-1.5,1.4-3.4,2.1-5.3,2.1c-0.6,0-1.1-0.1-1.7-0.2c11.4,5,24.8,13.9,39.8,23.7c6.5,4.2,13.4,8,20.9,11.3c0.1,0.1,0.2,0.1,0.3,0.2
	c0.5,0.3,1,0.5,1.6,0.7c0.4,0.1,0.8,0.2,1.2,0.2c13.9,5.8,29.4,10,45.8,12.3c0.3,0.1,0.6,0.2,0.9,0.3c0.4,0.1,0.8,0.1,1.1,0.2
	c0.2,0,0.4,0,0.5,0c0.3,0,0.5,0,0.8-0.1c8.7,1.1,17.7,1.7,26.9,1.8c6.5,0,12.9-0.3,19.2-0.9c0,0,0,0,0,0c0.4,0,0.8,0,1.1-0.1
	c0.4,0,0.7-0.1,1.1-0.2c-0.3,0.1-0.6,0.2-0.9,0.2c14.8-1.4,29-4.3,42.2-8.5c-0.5,0.1-0.9,0.1-1.4,0.1c0,0,0,0,0,0
	c0.5,0,0.9,0,1.3-0.1c0.6-0.1,1.3-0.3,1.9-0.6c0,0,0,0,0,0c0,0,0,0,0,0c0,0,0,0,0,0c0.7-0.4,1.4-0.8,2.1-1.4
	c-0.6,0.6-1.3,1.1-2.1,1.4c13-4.3,25-10,35.4-16.9c0.4-0.3,0.8-0.6,1.3-0.8c-1.2,0.7-2.5,1.1-3.9,1.1c-0.7,0-1.5-0.2-2.2-0.4
	c0.7,0.2,1.4,0.3,2.2,0.3c1.3,0,2.7-0.4,3.9-1.1c0.2-0.1,0.5-0.3,0.7-0.5c0.3-0.2,0.5-0.4,0.8-0.7c3-2.8,3.1-7.7,0.1-10.7l-4.4-4.5
	l0,0l-28.8-29.7c0,0,0,0-0.1,0c-3,1.9-6,3.9-9,6c-1.3,0.9-2.6,1.7-4,2.5l0.8,0.8l27.9,28.7l0.1,0.1l6.6,6.8c0,0,0,0,0,0c0,0,0,0,0,0
	l-6.6-6.8c-6.8,3.9-14.1,7.2-21.8,10.1l-0.1-0.1l0,0l-28.2-29c7.6-3.1,14.8-6.7,21.3-10.7c0,0,0,0,0.1,0c1.3-0.8,2.7-1.6,4-2.5
	c3.1-2.1,6.2-4.1,9.1-6c7-4.6,13.6-8.7,19.7-12.2l28.8,29.5l0.1,0.1c-6.3,3.7-12.9,7.9-19.7,12.4l4.4,4.5c3,3,2.9,7.9-0.2,10.8
	c-0.2,0.2-0.5,0.5-0.8,0.7c11.6-7.6,22.3-14.6,31.7-19.5c-0.9,0.4-1.9,0.6-2.9,0.6c-2,0-4-0.8-5.5-2.3l-0.1-0.1
	c1.5,1.5,3.5,2.3,5.5,2.3c1,0,2-0.2,2.9-0.6c0.3-0.1,0.7-0.3,1-0.5c0,0,0,0,0,0c5.8-2.9,11.2-5.1,16-6.1c7.1-1.5,14.4-2.7,22-3.6
	c0,0,0.1,0,0.1,0c0.2,0,0.5,0,0.7-0.1c1.5-0.3,2.9-0.9,4.1-2.1c3-2.8,3-7.7,0.1-10.7c3,3,2.9,7.9-0.1,10.8c-1.2,1.1-2.6,1.8-4.1,2.1
	c14.4-1.7,29.7-2.5,46.3-2.3c-1.9-0.1-3.7-0.9-5.1-2.3L604.5,679c-9.4,0.3-18.4,0.9-27.1,1.9l0,0L551.2,654c0,0,0.1,0,0.1,0
	c9-0.6,18.2-0.9,28-0.9h0l25.2,25.9l12.5,12.8c1.4,1.4,3.2,2.2,5.1,2.3c0.1,0,0.3,0,0.4,0c0.3,0,0.5,0,0.8,0c0,0,0,0,0,0h0
	c11.3-0.4,27.8-9.7,38.3-21.2c0,0,0,0,0,0c0.1-0.1,0.3-0.2,0.4-0.4c0.4-0.4,0.8-0.9,1.1-1.4c1.9-2.9,1.6-6.8-0.9-9.4
	c2.5,2.6,2.8,6.5,1,9.4c4-4.7,6.9-9.7,8-14.6c1.2-5.2,5.7-9.8,11.7-12.2c-0.8,0.3-1.6,0.4-2.4,0.4c-1.1-0.1-2.1-0.3-3.1-0.7
	c0.9,0.4,1.9,0.6,2.9,0.6c0.8,0,1.7-0.1,2.4-0.4c0.2-0.1,0.4-0.2,0.6-0.2c0.1-0.1,0.3-0.2,0.4-0.2c1.3-0.5,2.6-0.9,4.1-1.2
	c12.6-2.4,24.4-6.8,34.9-12.5c0.8-0.3,1.5-0.7,2.2-1.2c13.9-7.9,25.1-18.2,32.3-29.4c0,0,0,0,0,0c2-3,1.7-7-0.8-9.6l-7.6-7.8
	l-28-28.9c0,0,0-0.1,0.1-0.1c2.7-5.4,4.5-11.1,5-16.6c0-0.1,0-0.1,0-0.2c8.5,8.8,16.4,17,19.1,20.4c3.9,4.8,5.2,9,5.2,16.9
	c0,2.7-0.4,5.5-1.3,8.3L756.4,589.8z M663.1,293.7c0,0,0.1,0.1,0.1,0.1c5.1,5.2,9.5,9.9,12.1,12.8c5.8,6.6,9.6,14.5,11.2,23.1
	c0,0,0,0,0,0L663,305.6C663.4,301.6,663.4,297.7,663.1,293.7z M469.1,743.1c2.4-2.5,2.9-6.4,1.2-9.3
	C472.1,736.7,471.7,740.6,469.1,743.1z M718.9,556.6c-1.2,2.1-2.5,4.1-4,6.1C716.4,560.7,717.7,558.6,718.9,556.6z M594.8,401.4
	l0.3,0.3l21.4,22c-0.4,0.8-0.7,1.7-0.8,2.6c-0.2,1.3-0.2,2.7-0.2,4c0,0.1,0,0.1,0,0.2c-10.2-10.7-17-20.8-20.8-29
	c-2.3-5.2-3.5-9.6-3.4-13.1c0.7-1,1.6-2,2.6-3c-1,1-1.9,2-2.5,2.9C591.4,391.7,592.5,396.2,594.8,401.4z M642.4,400.6
	c-0.7,0.5-1.4,0.9-2.2,1.4c-1.2,0.8-2.4,1.6-3.5,2.4c-0.4,0.3-0.9,0.6-1.3,0.9c-1.8,1.3-3.6,2.5-5.3,3.8c-0.9,0.7-1.8,1.4-2.6,2.1
	c-0.3,0.3-0.7,0.5-1,0.8l0,0l5.3,5.5c0,0,0,0,0,0c0,0,0,0,0,0l-5.3-5.5l-29-29.9c0.4-0.3,0.7-0.6,1.1-0.9c2.2-1.8,4.7-3.5,7.3-5.3
	c2.4-1.6,5-3.3,7.4-4.9c0,0,0.1-0.1,0.1-0.1L642.4,400.6z M604.2,191.4c-1.5,1.5-3.4,2.2-5.4,2.2
	C600.7,193.6,602.7,192.9,604.2,191.4z M568.3,143.8c2.9,9.4,5.4,19.1,7.4,29.3l16.4,16.9l1.2,1.3c1.5,1.5,3.5,2.3,5.5,2.3h0
	c-2,0-4-0.8-5.5-2.3l-1.2-1.3c2.5,7.1,4.6,14.4,6.4,22c0,0,0,0.1,0,0.1l-20.1-20.6c0.9,7.8,1.6,15.8,1.9,24l15.2,15.6
	c8,0.7,15.5,2.3,22.3,4.6c0,0,0,0,0,0.1c-6.9-2.4-14.4-4-22.5-4.7c-3.5-0.3-7.2-0.4-10.9-0.4c-1.2,0-2.5,0-3.8,0.1
	c-0.1,0-0.1,0-0.2,0c0-5.2-0.1-10.3-0.3-15.3c-0.3-8.2-1-16.1-1.9-24c-0.8-6.3-1.7-12.5-2.9-18.5c-1.9-10.2-4.4-20.1-7.5-29.7
	L568.3,143.8z M95.5,619.6c-11.4-5.3-21.5-12.3-28.7-20.3c3.6,0.9,7.2,1.7,10.8,2.5c8.5,1.6,15.1,7.1,16.6,13.7
	c0.1,0.6,0.3,1.1,0.4,1.7c0.2,0.5,0.3,1,0.5,1.6C95.3,619,95.4,619.3,95.5,619.6z M331,739.2c0.6-0.3,1.2-0.7,1.7-1.2
	C332.1,738.5,331.6,738.9,331,739.2z M404.2,739.3c-0.7,0-1.2,0-1.8,0c-8.1,0-16.1-0.5-23.8-1.5c0,0,0,0,0,0l1.9,1.9
	c2.5,2.5,2.8,6.4,1.1,9.2c1.6-2.9,1.2-6.6-1.2-9l-1.9-1.9l-23.9-24.5c-7.9-0.3-15.7-1.1-23.4-2.2c-0.1,0-0.2,0-0.2,0l21,21.5
	c-1.8-0.5-3.5-1-5.2-1.5c-0.2-0.1-0.4-0.1-0.6-0.2c-4.9-1.5-9.7-3.3-14.2-5.2l0.1,0.1l1,1c3,3,2.9,7.9-0.1,10.8c0,0,0,0-0.1,0
	c3-3,3-7.8,0.1-10.7l-1.1-1.1l-17.5-18c-11.3-2.7-22-6.3-31.8-10.7l-0.1-0.1c9.9,4.5,20.7,8.1,32,10.8c5.5,1.3,11.1,2.3,16.8,3.2
	c7.7,1.1,15.6,1.9,23.6,2.2h0c2.7,0.1,5.4,0.2,8.2,0.2c2.7,0,5.3,0,7.9-0.2c1.3,0,2.6-0.1,3.9-0.2c1.3-0.1,2.5-0.2,3.8-0.3l13,13.3
	L404.2,739.3C404.3,739.3,404.2,739.3,404.2,739.3z M427.2,740.7c3,3,2.9,7.9-0.1,10.8c-1,0.9-2,1.5-3.2,1.9c1.1-0.3,2.1-1,3-1.9
	C430,748.6,430.1,743.8,427.2,740.7l-2.7-2.6l-26.7-27.4c0,0,0.1,0,0.1,0c8.2-1.3,16-3.2,23.6-5.4c0,0,0.1,0,0.1,0h0l27.7,28.4
	c-7.9,2-16.1,3.4-24.7,4.4L427.2,740.7z M458.2,742.9c1.2,1.2,2.8,2,4.5,2.2C461,744.9,459.4,744.2,458.2,742.9z M485.4,654.4
	c-5,2.8-10.2,5.9-15.5,9.3c-2.5,1.6-5,3.2-7.6,4.9c-2.1,1.4-4.3,2.8-6.5,4.3c-0.4,0.3-0.9,0.6-1.3,0.9c-1.3,0.9-2.7,1.7-4,2.5
	c-1.8,1.1-3.7,2.2-5.7,3.2c-2.4,1.3-4.8,2.5-7.3,3.6c-1.5,0.7-3,1.3-4.5,2c-2.1,0.9-4.3,1.7-6.6,2.6c-3,1.1-6.1,2.1-9.3,3
	c-2.8,0.8-5.6,1.6-8.5,2.3c-2.8,0.7-5.7,1.3-8.6,1.9c-3.4,0.6-6.9,1.2-10.4,1.7c-0.5,0.1-1.1,0.1-1.6,0.2c-4.1,0.5-8.2,0.9-12.4,1.2
	c-2.1,0.1-4.2,0.2-6.3,0.3s-4.3,0.1-6.4,0.1c-35.3-0.2-67.8-8.9-91.6-24.6c-21.3-14.1-39.7-26.2-56-29.6
	c-20.6-4.3-42.6-6.4-67.3-6.4c-1.7,0-3.5,0-5.2,0h-0.1c-9.7,0-31.4-15.3-33.7-25.7c-1.3-5.5-4.1-10.6-8.1-14.7
	c-5.1-5.3-12.2-9.1-20.3-10.7c-0.1,0-0.2,0-0.2-0.1c0,0-0.1,0-0.1,0c-38.1-7.3-64.7-33.9-64.9-53.6c0-0.1,0-0.3,0-0.4
	c0.1-16.2,4-21.1,57.1-53.4c0.3-0.2,0.6-0.4,1-0.6c1.6-1,3.2-2,4.8-3c1.9-1.2,3.8-2.4,5.6-3.6c1.1-0.8,2.2-1.5,3.3-2.3
	c1.5-1,2.9-2,4.3-3.1c1.6-1.2,3.2-2.3,4.7-3.5c0.5-0.4,1-0.7,1.4-1.1c1.6-1.3,3.3-2.6,4.8-3.9c1.2-1,2.4-1.9,3.5-2.9
	c1.9-1.6,3.8-3.3,5.6-5c0.9-0.8,1.8-1.7,2.7-2.5c1.8-1.7,3.5-3.4,5.2-5c0.8-0.8,1.6-1.7,2.4-2.5c2.1-2.2,4.1-4.5,6-6.7
	c1.9-2.2,3.7-4.5,5.4-6.7c1.1-1.5,2.2-3,3.2-4.5c1.2-1.7,2.3-3.5,3.4-5.2c1.3-2.1,2.5-4.3,3.6-6.4c0.5-1,1-2,1.5-3.1
	c0.4-0.8,0.7-1.7,1.1-2.5c0.7-1.6,1.2-3.2,1.7-4.8c0.5-1.6,0.9-3.1,1.2-4.7c0.6-2.9,0.9-5.7,0.8-8.4c0-0.8-0.1-1.6-0.2-2.4
	c-0.1-0.9-0.4-1.8-0.8-2.6c0,0,0,0,0,0c-4.8-9.6-17.6-17.8-31.2-26.5c0,0,0,0,0,0c-6.5-4.2-13.3-8.5-18.2-12.5
	C85.1,332,77.4,315,77.6,298.1c0.1-6.4,1.3-12.7,3.7-18.8c0.1-0.2,0.2-0.4,0.3-0.6c0.6-1.4,1.3-2.8,2-4.1c0.8-1.4,1.5-2.8,2.4-4.1
	c0.6-0.9,1.2-1.7,1.8-2.5c0.8-1.1,1.7-2.1,2.6-3.1c0.5-0.6,1.1-1.1,1.6-1.7c3.3-3.3,7.1-6.2,11.3-8.5c3.2-1.8,6.6-3.3,10.3-4.5
	c3.5-1.2,7.1-2.1,11-2.7c0.4-0.1,0.8-0.1,1.1-0.2c0.8-0.1,1.5-0.2,2.3-0.3c1.5-0.2,3.1-0.4,4.7-0.5c0.8-0.1,1.6-0.1,2.4-0.1
	c2.1-0.1,4.3-0.1,6.6-0.1c0.8,0,1.7,0,2.5,0.1c2.5,0.1,5.1,0.3,7.8,0.6c2.2,0.2,4.4-0.5,6-2l0,0c0,0,0,0,0,0
	c1.7-1.6,2.6-3.7,2.5-5.9c0,0,0,0,0,0c-0.1-4.4-0.2-8.7-0.1-13c0.6-64.2,19.8-117.4,56-154.6c0,0,0,0,0,0l0,0
	c35.7-36.6,86.1-56,145.8-56c0.3,0,0.5,0,0.7,0c59.6,0.2,110.2,20,146.4,57.3c0,0,0,0,0,0c38.4,39.6,57.7,96.7,56,165.1
	c0,0.4,0,0.8,0,1.3c0,0,0,0,0,0c0,2.3,0.9,4.4,2.5,5.9c0,0,0,0,0,0c1.2,1.1,2.8,1.8,4.5,2c0.2,0,0.5,0,0.7,0c0.3,0,0.5,0,0.8,0
	c1.1-0.1,2.3-0.2,3.4-0.3c2-0.2,4-0.3,6-0.3c1,0,2,0,3,0c2.9,0,5.8,0.1,8.5,0.4c1,0.1,2,0.2,3,0.3c1,0.1,2.1,0.3,3.1,0.5
	c1,0.2,2,0.4,3,0.6c2,0.4,3.9,0.9,5.8,1.5c0.9,0.3,1.9,0.6,2.8,0.9c2.7,0.9,5.3,2,7.8,3.3c3.4,1.7,6.6,3.8,9.5,6.1
	c1.1,0.9,2.3,1.9,3.3,2.9c0.6,0.6,1.2,1.2,1.7,1.7c1,1,1.9,2.1,2.8,3.3c0.7,0.8,1.3,1.7,1.9,2.6c1.8,2.7,3.4,5.6,4.7,8.7
	c0.2,0.5,0.4,1,0.6,1.5c2.2,5.8,3.3,11.8,3.4,17.9c0.2,16.8-7.5,33.8-21.7,45.4c-4.9,4-11.7,8.3-18.2,12.5c0,0,0,0,0,0
	c-13.5,8.7-26.3,16.9-31.2,26.5c0,0,0,0,0,0c-0.1,0.2-0.2,0.4-0.3,0.6c-0.3,0.6-0.4,1.3-0.5,2c-0.2,1.7-0.2,3.4-0.1,5.3
	c0,0.6,0.1,1.2,0.2,1.8c0.1,0.8,0.2,1.6,0.4,2.5c0.2,1.1,0.4,2.2,0.7,3.4c0.5,1.8,1.1,3.7,1.8,5.6s1.5,3.8,2.5,5.8
	c1.9,3.9,4.2,8,7,12.1c1.4,2,2.9,4.1,4.5,6.2c1.6,2.1,3.3,4.2,5.1,6.2s3.7,4.2,5.6,6.2c3.9,4.2,8.3,8.3,12.9,12.4
	c2.3,2,4.7,4.1,7.2,6.1c2.5,2,5,4,7.6,5.9c1.6,1.2,3.3,2.4,5,3.6c2.5,1.8,5.1,3.6,7.8,5.3c1.3,0.9,2.7,1.7,4,2.6
	c1.4,0.9,2.7,1.7,4.1,2.5c1.8,1.1,3.5,2.1,5.1,3.1s3.3,2,4.8,2.9c1,0.6,2,1.3,3,1.9c2,1.2,3.9,2.4,5.7,3.5c1.8,1.1,3.6,2.2,5.2,3.3
	c2.2,1.4,4.3,2.7,6.2,4c1,0.6,1.9,1.3,2.8,1.9c0.5,0.3,0.9,0.6,1.3,0.9c0.9,0.6,1.7,1.2,2.5,1.7c1.2,0.9,2.4,1.7,3.5,2.5
	c1.5,1.1,2.8,2.1,4,3.1c2.8,2.2,5,4.3,6.8,6.3c0.4,0.4,0.8,0.9,1.1,1.3c1.3,1.5,2.3,3,3,4.6c0.3,0.7,0.6,1.3,0.9,2
	c0.2,0.4,0.3,0.9,0.5,1.3c0.2,0.7,0.4,1.4,0.6,2.1c0.4,1.9,0.6,3.8,0.7,5.9c0,0.5,0,1.1,0,1.6v0c0.1,19.7-26.6,46.7-65.1,54
	c-8.2,1.6-15.4,5.4-20.6,10.7c-4.1,4.1-6.9,9.2-8.1,14.7c0,0,0,0,0,0c0,0,0,0,0,0c-2.3,10-22.4,24.5-32.5,25.6
	c-0.4,0-0.8,0.1-1.2,0.1h-0.1c0,0,0,0,0,0c-26.7-0.4-50.4,1.7-72.4,6.3c0,0,0,0,0,0c-1.3,0.3-2.7,0.6-4.1,1
	c-1.4,0.4-2.8,0.9-4.2,1.4c-1.9,0.7-3.8,1.5-5.8,2.3c-1.2,0.5-2.4,1.1-3.6,1.6c-1.1,0.5-2.2,1.1-3.4,1.7
	C488.1,652.9,486.8,653.7,485.4,654.4z M574.4,696.5c-1.9,0.1-3.9-0.7-5.4-2.2l-10.5-10.7l0,0c-2.9,0.5-5.7,1-8.6,1.6
	c-4.9,1-9.9,2.8-15.1,5.2v0l-28.3-29c0,0,0,0,0.1,0c2.5-0.9,4.9-1.7,7.2-2.2c5.9-1.2,11.8-2.2,18-3.1l26.8,27.5l0.1,0.1l10.4,10.6
	C570.5,695.7,572.5,696.5,574.4,696.5C574.5,696.5,574.4,696.5,574.4,696.5z M533.2,655.8c4.9-0.7,10-1.2,15.2-1.6
	C543.2,654.7,538.1,655.2,533.2,655.8z M627.8,692c3.1-2.9,3.1-7.8,0.2-10.8C631,684.2,630.9,689.1,627.8,692z M625.4,678.5
	l-28.1-28.9c0,0,0,0,0.1,0c6.7-2.9,13.6-7.3,19.5-12.6l29,29.9C639.4,672.5,631.2,677.2,625.4,678.5z M666.6,636.3
	c-1.7,1.4-3.2,3-4.6,4.7c-1.1,1.4-2.1,2.9-3,4.5c-0.6,1.2-1.2,2.4-1.7,3.7c-0.2,0.6-0.5,1.3-0.7,1.9c-0.2,0.6-0.4,1.3-0.5,2
	c-0.1,0.6-0.3,1.2-0.6,1.8l0,0l-28.4-29.3c0,0,0,0,0-0.1c2.2-3.3,3.8-6.8,4.6-10.1c0.9-3.9,3.5-7.3,7.3-9.9l28.8,29.7l0,0h0
	C667.5,635.6,667.1,636,666.6,636.3z M736.9,600.7c-4.3,4.5-9.6,8.7-15.4,12.4l0,0l4.2,4.3c2.5,2.5,2.8,6.4,1.1,9.3
	c1.6-2.9,1.3-6.6-1.2-9.1l-4.2-4.3l-28.9-29.6c-4.3,2.9-8.9,5.6-13.7,7.9c0,0,0,0,0,0l28.4,29.1c-7,3.1-14.5,5.4-22.2,6.9
	c-0.7,0.1-1.5,0.3-2.2,0.5l0.1,0.1l3.2,3.3c3,3,2.9,7.9-0.2,10.8c-0.6,0.6-1.3,1.1-2.1,1.4c0.6-0.4,1.3-0.7,1.8-1.2
	c3.2-3,3.3-7.8,0.3-10.9l-3.3-3.4l-27.3-28.1c0.1,0,0.1,0,0.2,0c8.3-2.1,16.1-5,23.4-8.6c4.8-2.4,9.4-5,13.6-7.9c0,0,0,0,0.1,0
	c7.6-5.1,14.1-10.9,19.4-17.2l28.8,29.7l0,0C739.6,597.7,738.3,599.2,736.9,600.7z M506.3,624.3c28-5.8,51.2-8.5,73.3-8.4
	c1.3,0,2.6-0.3,3.7-1l0.1,0l10.6-6c2.6-1.4,4.1-4.2,3.9-7.1c-1-15.6,4.3-23.6,14.2-28.6c6.7-3.4,15.6-5.4,26.2-7.4
	c5.2-1,13-2.9,21.1-6.3c0.4-0.2,0.9-0.4,1.3-0.6c0.4-0.2,0.8-0.3,1.2-0.5c5.3-2.4,10.6-5.5,15.2-9.4c4.4-3.8,9-8.5,9-16.1
	c0-0.2,0-0.4,0-0.7c-0.3-3.8-2.9-9.7-8.9-13.7c-9.4-6.4-21-13.7-35.3-22.3c-35-21.2-63.9-49.4-77.3-75.4c-13.5-26.3-18-40.6-17.8-44
	c2.5-9.4,14.3-16.4,27.3-23.4c11.3-6.1,28.5-16.5,39.5-25.4c7.2-5.9,12.1-13.9,13.7-22.6c1.7-9.2-0.3-18.1-5.7-25.1
	c-10.2-13.3-25.1-12.8-42.1-10.9c-5.2,0.6-11.9,3.8-19.6,7.6c0,0,0,0,0,0c-4.4,2.1-12.3,6-17.4,7.5c-1.2,0.4-2.2,0.6-3,0.7
	c-2.4-6.5,0.2-30.2,1-38.3c0.5-5.2,1-9.2,1.1-12c0.9-32.6-2.2-60.2-9.7-84.3c-7.6-24.7-19.5-45.3-36.4-63
	c-14.2-15-31-26.8-50.1-35.4c-24.1-10.9-51.8-16.5-82.2-16.6h-0.1h-0.1c-8.9,0-17.6,0.5-26.1,1.5c-1.2,0.1-2.4,0.3-3.6,0.4
	c-15.9,2.1-30.9,5.9-44.9,11.4c-2.8,1.1-5.5,2.2-8.2,3.5s-5.4,2.5-8,3.9c-2.6,1.4-5.2,2.8-7.7,4.2c-1.3,0.7-2.5,1.5-3.7,2.3
	c-2.5,1.5-4.9,3.2-7.3,4.8c-1.2,0.8-2.4,1.7-3.5,2.6c-3.5,2.6-6.9,5.4-10.1,8.2s-6.4,5.9-9.4,9.1c-1.1,1.1-2.1,2.2-3.1,3.4
	c-3.1,3.4-5.9,6.9-8.6,10.5c-1.8,2.4-3.5,4.9-5.2,7.4c-2.5,3.8-4.8,7.6-7,11.6c-1.4,2.7-2.8,5.4-4.1,8.2c-1.3,2.8-2.5,5.6-3.7,8.5
	c-1.7,4.4-3.3,8.8-4.7,13.5c-6.6,21.2-9.8,44.9-9.8,72.3c0,3.8,0,7.7,0.1,11.7c0,0.1,0,0.2,0,0.3c0,0,0,0,0,0
	c0.1,2.7,0.5,6.8,1.1,12c0,0,0,0,0,0c0.9,8,3.3,31.3,1.1,38.1c0,0.1,0,0.2-0.1,0.2c0,0,0,0,0,0c-4.3-0.2-15.1-5.5-20.5-8.2
	c0,0,0,0,0,0c-7.7-3.8-14.4-7.1-19.6-7.6c-1.6-0.2-3.2-0.3-4.7-0.5c-1-0.1-2.1-0.2-3.1-0.3c-0.5,0-1-0.1-1.5-0.1c-1-0.1-2-0.1-3-0.1
	c-1,0-2,0-2.9,0c-0.5,0-1,0-1.4,0c-1,0-1.9,0.1-2.8,0.2s-1.8,0.2-2.7,0.3c-0.5,0.1-1,0.1-1.4,0.2c-1.9,0.3-3.7,0.8-5.5,1.5
	c-2.4,0.9-4.7,2.1-6.9,3.7c-0.5,0.4-1.1,0.8-1.6,1.3c-1.6,1.3-3.1,2.9-4.4,4.7c-1,1.3-1.9,2.7-2.7,4.1c-0.8,1.4-1.4,2.9-1.9,4.5
	c-0.4,1-0.6,2.1-0.9,3.1c-0.4,1.6-0.6,3.2-0.7,4.9c0,0.6-0.1,1.1-0.1,1.7s0,1.1,0,1.7c0.1,1.7,0.2,3.4,0.6,5.1
	c1.7,8.7,6.5,16.7,13.7,22.6c11,9,28.2,19.3,39.5,25.5c0,0,0,0,0,0c12.9,7,24.8,14.1,27.3,23.4c0.3,3.4-4.2,17.7-17.8,44
	c-8.8,17.1-24.3,35.1-43.8,51.4c-1.9,1.6-3.7,3.1-5.7,4.6c-2.9,2.3-5.9,4.5-8.9,6.7c-4,2.9-8.2,5.8-12.5,8.5
	c-2.1,1.4-4.3,2.7-6.5,4.1c-0.1,0-0.2,0.1-0.2,0.1c-14.2,8.6-25.6,15.9-35.1,22.2c-6,4.1-8.6,9.9-8.9,13.7c0,0.2,0,0.4,0,0.7
	c0,6.3,3,10.5,6.5,13.9c0.7,0.7,1.4,1.3,2.2,2c0.1,0.1,0.2,0.2,0.3,0.3c0.8,0.7,1.5,1.3,2.3,1.9c11.9,9.2,27.6,13.2,36.3,14.9
	c26.2,5,42,9.9,40.4,36c-0.2,2.9,1.3,5.7,3.9,7.1l10.7,6c1.1,0.6,2.4,1,3.7,1c22.1-0.1,45.4,2.6,73.3,8.4
	c17.7,3.7,40.8,17.8,63.1,32.5c26.3,17.3,58.2,21.1,80.4,21.2h0.1c19.4-0.1,46.3-3,70.3-15.3c3.4-1.8,6.8-3.7,10.1-5.9
	c18.9-12.5,38.4-24.6,54.7-30.2C500.8,625.6,503.6,624.8,506.3,624.3z M595.3,319.9c-5.8,2.8-13.4,6.1-16.5,6.1c-0.1,0-0.1,0-0.2,0
	c-5-4.8-18-18.4-27.4-28.4c4.9-1.8,10.1-4.4,15.5-7c0.1,0,0.1,0,0.1-0.1L595.3,319.9z M608.5,311.2c0,0.1-0.1,0.1-0.1,0.2l0,0
	c0,0,0,0,0-0.1l-26.1-26.9c18.3-2,23.4,0.1,27.3,5.1c4.1,5.4,4,12.9,0.3,19.5C609.5,309.8,609,310.5,608.5,311.2z M159.1,290.9
	c10.9,5.3,21.3,10.4,29.5,9.6l17,17.5c-0.1-0.1-0.3-0.1-0.4-0.2c-7.7-3.8-14.4-7-19.6-7.6c-7.9-0.9-15.4-1.5-22.1-0.5l-24.9-25.6
	c1.8,0.1,3.8,0.3,5.9,0.6C147,285,153.7,288.2,159.1,290.9z M204.5,171.1l26.7,27.5c-2,7.6-3.6,15.5-4.9,23.6l-25.6-26.4
	c0.8-8.6,2.1-16.8,3.7-24.4C204.4,171.3,204.4,171.2,204.5,171.1z M217.8,132.3l28.1,28.9c-3.6,6.6-6.7,13.5-9.3,20.9l0,0
	l-27.4-28.2c2.4-7.5,5.2-14.6,8.6-21.3C217.7,132.4,217.8,132.4,217.8,132.3z M265.2,78.6l28.6,29.4c-5,3.4-9.8,7.2-14.4,11.2
	l-28.7-29.5c4.6-4,9.3-7.6,14.4-11C265.1,78.7,265.2,78.7,265.2,78.6z M296.6,62.6l27.9,28.7c-6,2.4-11.8,5.3-17.4,8.4l-28.3-29.2
	c5.7-3,11.6-5.6,17.7-7.8C296.5,62.7,296.6,62.7,296.6,62.6z M332,53.6l26.5,27.3c-6.2,1.3-12.2,2.8-18,4.7l-0.1-0.1l-27.3-28.1
	c6-1.6,12.3-2.9,18.7-3.8C331.9,53.6,331.9,53.6,332,53.6z M458.2,76.7c5.9,3.8,11.5,7.9,16.8,12.4c-2.3-0.8-4.7-1.7-7.1-2.5
	c-0.1,0-0.1,0-0.2-0.1l-9.8-10C458,76.6,458.1,76.7,458.2,76.7z M420,59.5l19.7,20.2c-6.2-1-12.6-1.8-19-2.3l-10.6-10.8l-9.8-10.1
	c0.3,0.1,0.7,0.1,1,0.2c5,0.9,11.6,2,18.9,3.2l-0.3-0.3C419.9,59.5,420,59.5,420,59.5z M377.1,78l-25.6-26.4
	c2.7-0.2,5.5-0.3,8.2-0.3c5,0.4,10.2,0.8,15.4,1.4l23.4,24C391.3,76.8,384.2,77.3,377.1,78L377.1,78z M239.6,100.6
	c0,0,0.1-0.1,0.1-0.1l28.7,29.5c-5.2,5.6-9.9,11.5-14.2,17.6l-28.5-29.2C229.9,112.1,234.4,106.1,239.6,100.6z M202.5,268.9
	c0-0.1,0-0.1,0-0.2l22.6,23.3l0,0c0.7,6.9,1.7,17.5,1.6,25.4l-26.1-26.7C202.4,285.6,202.9,278.5,202.5,268.9z M224.2,242.2
	c-0.6,8.3-0.8,17-0.8,26l-22.9-23.5c-0.5-4.3-0.9-8-0.9-10c-0.2-6.1-0.2-12-0.1-17.7c0-0.1,0-0.1,0-0.2L224.2,242.2z M116.2,289.7
	c0.9-1.2,2-2.3,3.2-3.1c0,0,0,0,0.1,0l28.8,29.6c-1.8,1.4-3.4,3-4.9,5c-1.7,2.2-3.1,4.7-4.1,7.2c-6.4-4.1-12.7-8.4-17.6-12.4
	c-2.7-2.2-4.8-4.9-6.3-7.8C112.2,301.9,112.3,294.8,116.2,289.7z M192.5,386.8c13.2,13.3,24.5,26.3,25.9,31.1c0,2.3-1.8,9-6.6,20.4
	l-28.1-28.8C188.3,399.4,191,392.1,192.5,386.8z M176.6,424.2C176.6,424.3,176.6,424.3,176.6,424.2l28.2,29.1
	c-1.3,2.7-2.8,5.5-4.3,8.4c0,0,0,0,0,0c0,0,0,0,0,0c-2.4,4.5-5.2,9.1-8.4,13.8l-28.8-29.7c4.5-6.1,8.3-12.2,11.4-18.1
	C175.4,426.6,176,425.4,176.6,424.2C176.6,424.3,176.6,424.3,176.6,424.2L176.6,424.2z M126.5,484.6c0,0,0.1-0.1,0.1-0.1l28.9,29.8
	c-5.8,4.8-11.9,9.4-18.2,13.7l-28.9-29.6C114.7,493.9,120.7,489.4,126.5,484.6z M182.6,487.8c-4.7,5.5-9.8,10.9-15.6,16.3l0,0
	l-28.9-29.8c5.7-5.3,10.8-10.7,15.6-16.2L182.6,487.8z M58.6,537.4c-2.5-2.1-3.3-3.1-3.5-3.8c0.3-0.9,0.9-1.7,2-2.4
	c1.7-1.1,3.4-2.3,5.2-3.5c0,0,0,0,0.1,0l20.8,21.4C73,546.4,64.3,542.3,58.6,537.4z M434.9,644.6c-23.1,15.3-51.9,18.6-72,18.7
	c-20.1-0.1-48.9-3.4-72-18.7c-23.6-15.6-48.2-30.5-68.4-34.7c-28.2-5.9-51.9-8.6-74.5-8.7l-4.9-2.8c-0.2-22.2-11.5-33.3-25.2-39.4
	c4.1-2.6,8.6-5.3,13.3-8.2c2.7-1.6,5.4-3.3,8-5c-0.9,0.4-1.9,0.6-2.9,0.6c-2,0-4-0.8-5.5-2.3l-6.7-6.8c-0.3,0.2-0.6,0.4-0.9,0.5
	c-6.7,4.1-12.9,7.9-18.6,11.4l-0.3-0.3l-28.7-29.6c5-3.1,10.4-6.4,16.1-10c1.2-0.7,2.4-1.5,3.6-2.2l28.8,29.5l0.1,0.1l6.6,6.8
	c1.5,1.5,3.5,2.3,5.5,2.3c1,0,1.9-0.2,2.9-0.6c0.9-0.4,1.8-0.9,2.5-1.6c2-2,2.7-4.8,2.1-7.4c0.8,2.6,0.1,5.6-2,7.6
	c32.6-21.7,59.2-49.1,72.5-74.8c22.1-42.8,19.8-51.7,19-54.7c-3.6-13.9-36.2-44.7-46.4-54.1c-7.6-9.2-19.3-15.5-27.9-20.2
	c-1.8-1-3.8-2.1-6-3.3c0.5-2.2,1.3-4.2,2.7-6c3.9-5.1,9.2-7.2,28.3-5c2.5,0.3,9.2,3.5,14.6,6.2c14.4,7,28,13.7,36.6,6.9
	c-1.4,1-3,1.5-4.6,1.5c-2,0-4-0.8-5.5-2.3l-0.2-0.2c1.5,1.5,3.5,2.3,5.5,2.3c1.6,0,3.2-0.5,4.6-1.5c0.4-0.3,0.7-0.5,0.9-0.7
	c2.2-2.2,2.8-5.3,1.9-8c1.2,2.8,0.6,6.2-1.7,8.4c7.3-6.8,7.1-22.1,3.9-51.7c-0.5-4.6-0.9-8.6-1-10.8c-0.4-12.1-0.1-23.5,0.7-34.3
	c0.2-0.9,0.3-1.8,0.2-2.6c3.7-42.3,17.1-74.4,41-99.4c29.3-30.7,71.4-47,121.6-47.1c38.6,0.1,72.4,9.8,99.3,28.3
	c18.1,29,26,66,24.6,114.1c-0.1,2.1-0.5,6.1-1,10.8c-3.2,29.7-3.4,45,3.9,51.7c0.2,0.1,0.3,0.3,0.5,0.4c3.7,4,31.7,33.9,39,40.6
	c0.2,0.2,0.4,0.4,0.7,0.6c-0.9,0.5-1.7,0.9-2.5,1.4c-12.2,6.6-30.6,16.5-34.9,33.2c-0.8,2.9-3,11.9,19,54.7
	c6.9,13.4,17.5,27.3,30.6,40.6l0.1,0.1c1.8,2.1,41.2,46.4,79.1,73.5c-6.7,3.9-15.5,7-25.2,8.9c-21.2,4-52.7,10-53,47.1l-4.9,2.8
	c-22.6,0.1-46.3,2.8-74.5,8.7C483.1,614.1,458.5,629.1,434.9,644.6z"/>
</svg>
