<svg version="1.1" id="Icon" xmlns="http://www.w3.org/2000/svg" xmlns:xlink="http://www.w3.org/1999/xlink" x="0px" y="0px"
	 viewBox="0 0 69 67.8" style="enable-background:new 0 0 69 67.8;" xml:space="preserve">
<style type="text/css">
	.st0{fill:#16161A;}
</style>
<path var:color.fill="#000" class="st0" d="M32.5,52.5L31.2,54c1.9,1.7,4.7,1.7,6.6,0c2-1.8,2.2-4.9,0.4-7c-1.8-2-4.9-2.2-7-0.4l1.3,1.5
	c0.6-0.4,1.3-0.7,2-0.7s1.4,0.2,1.9,0.6c1.3,1.1,1.4,3,0.3,4.2C35.6,53.5,33.7,53.6,32.5,52.5z M28,53l-1.8,0.7c1,2.3,2.7,4.1,5,5
	c4.6,1.8,9.9-0.4,11.7-5c1.8-4.6-0.4-9.8-5-11.7c-4.6-1.8-9.8,0.4-11.7,5l1.8,0.8c0.7-1.8,2.1-3.2,3.9-3.9c3.6-1.4,7.7,0.3,9.1,3.9
	s-0.3,7.7-3.9,9.1C33.5,58.3,29.4,56.6,28,53z M34.5,49.4H17l-2.7-2.7c-0.2-0.2-0.4-0.3-0.7-0.3h-8c-0.6,0-1,0.4-1,1v6
	c0,0.6,0.4,1,1,1h8c0.3,0,0.5-0.1,0.7-0.3l2.7-2.7h17.5V49.4z M13.2,52.4H6.6v-4h6.6l2,2L13.2,52.4z M54,38.2h1.8v5.4H54V38.2z
	 M10,36.6c0-1.4,1-2.6,2.3-2.9l5-1.2c0.5-0.1,0.8-0.5,0.8-1v-2c0-0.4-0.3-0.7-0.6-0.9c-0.8-0.4-1.4-1.3-1.4-2.3v-5.7
	c0-2.2,1.8-4,4-4s4,1.8,4,4v5.7c0,1-0.5,1.9-1.4,2.3c-0.4,0.2-0.6,0.5-0.6,0.9v2c0,0.5,0.4,0.9,0.8,1l5,1.2c1.3,0.3,2.3,1.5,2.3,2.8
	l2-0.1c-0.1-2.2-1.6-4.2-3.8-4.7l-4.2-1v-0.6c1.3-0.9,2-2.3,2-3.8v-2.5c0.1,0,0.2-0.1,0.3-0.1l5-1.2c0.5-0.1,0.8-0.5,0.8-1v-2
	c0-0.4-0.3-0.7-0.6-0.9c-0.8-0.4-1.4-1.3-1.4-2.3v-5.7c0-2.2,1.8-4,4-4s4,1.8,4,4v5.7c0,1-0.5,1.9-1.4,2.3c-0.4,0.2-0.6,0.5-0.6,0.9
	v2c0,0.5,0.4,0.9,0.8,1l5,1.2c0.1,0,0.2,0.1,0.3,0.1v2.4c0,1.5,0.7,2.9,2,3.8v0.3l-4.2,1.1c-2.2,0.6-3.7,2.5-3.8,4.7l2,0.1
	c0.1-1.3,1-2.5,2.3-2.8l5-1.2c0.5-0.1,0.8-0.5,0.8-1v-2c0-0.4-0.3-0.7-0.6-0.9c-0.8-0.4-1.4-1.3-1.4-2.3v-5.7c0-2.2,1.8-4,4-4
	s4,1.8,4,4V26c0,1-0.5,1.9-1.4,2.3c-0.4,0.2-0.6,0.5-0.6,0.9v2c0,0.5,0.4,0.9,0.8,1l5,1.2c1.4,0.3,2.3,1.5,2.3,2.9v7.9h2v-7.9
	c0-2.3-1.6-4.2-3.8-4.8l-4.2-1v-0.6c1.3-0.9,2-2.3,2-3.8v-5.7c0-3.3-2.7-6-6-6s-6,2.7-6,6v1.2l-4-1V20c1.3-0.9,2-2.3,2-3.8v-5.7
	c0-3.3-2.7-6-6-6s-6,2.7-6,6v5.7c0,1.5,0.7,2.9,2,3.8v0.7l-4,1v-1.2c0-3.3-2.7-6-6-6s-6,2.7-6,6v5.7c0,1.5,0.7,2.9,2,3.8v0.7l-4.2,1
	c-2.2,0.5-3.8,2.5-3.8,4.8v7.9v0.1H10V36.6z M12.7,38.2h1.8v5.4h-1.8V38.2z M64,49.6l-4-2.8c-0.4-0.2-0.9-0.2-1.2,0l-3.7,2.6h-7.7
	c-0.4-5.6-4.3-10.2-9.7-11.6c-6.9-1.8-14,2.4-15.8,9.3l1.9,0.5c1-3.9,4-6.9,7.9-7.9c5.9-1.5,11.9,2,13.4,7.9s-2,11.9-7.9,13.4
	s-11.9-2-13.4-7.9l-1.9,0.5c1.4,5.4,6.1,9.3,11.6,9.7c7.1,0.6,13.4-4.8,13.9-11.9h7.7l3.7,2.6c0.4,0.2,0.9,0.2,1.2,0l4-2.8
	c0.1-0.1,0.2-0.2,0.2-0.2C64.6,50.5,64.4,49.9,64,49.6z M59.4,52l-2.3-1.6l2.3-1.6l2.3,1.6L59.4,52z"/>
</svg>
