<?xml version="1.0" encoding="utf-8"?>
<!-- Generator: Adobe Illustrator 24.2.1, SVG Export Plug-In . SVG Version: 6.00 Build 0)  -->
<svg version="1.1" id="Layer_1" xmlns="http://www.w3.org/2000/svg" xmlns:xlink="http://www.w3.org/1999/xlink" x="0px" y="0px"
	 viewBox="0 0 52.2 68.4" style="enable-background:new 0 0 52.2 68.4;" xml:space="preserve">
<path var:color.fill="#000" d="M27.4,57v5.4h8.1c0.8,0,1.4,0.6,1.4,1.4s-0.6,1.4-1.4,1.4H16.6c-0.8,0-1.4-0.6-1.4-1.4c0-0.8,0.6-1.4,1.4-1.4h8.1V57H5.3
	c-1.5,0-2.8-1.2-2.8-2.8V27.5c0-1.5,1.2-2.8,2.8-2.8h9.5c0.8,0,1.4,0.6,1.4,1.4s-0.6,1.4-1.4,1.4H5.3v26.7h41.5V27.5h-9.4
	c-0.8,0-1.4-0.6-1.4-1.4s0.6-1.4,1.4-1.4h9.5c1.5,0,2.8,1.2,2.8,2.8v26.7c0,1.5-1.2,2.8-2.8,2.8H27.4z M26.2,3.3
	c2.3,0,4.2,2,4.1,4.3c0,1.7-1.1,3.3-2.8,3.9v35c0,0.8-0.6,1.4-1.4,1.4s-1.4-0.6-1.4-1.4c0,0,0,0,0-0.1v-35c-0.6-0.2-1.2-0.6-1.7-1.1
	c-0.8-0.8-1.2-1.9-1.2-3C21.9,5.1,23.8,3.3,26.2,3.3L26.2,3.3z M26.1,6c-0.8,0-1.4,0.6-1.5,1.4c0,0.4,0.1,0.7,0.4,1
	c0.3,0.3,0.6,0.4,1,0.5h0.1c0.8,0,1.4-0.6,1.4-1.4S26.9,6.1,26.1,6z M30.8,39.9V18.2c0-2.5,2-4.6,4.6-4.6h3.2c0.6-1.7,2.2-2.8,4-2.8
	c2.3,0,4.2,1.9,4.2,4.2s-1.9,4.2-4.2,4.2c-1.8,0-3.4-1.1-4-2.8h-3.2c-0.9,0-1.7,0.8-1.7,1.7l0,0V40c0,0.8-0.6,1.4-1.4,1.4
	C31.5,41.3,30.8,40.7,30.8,39.9L30.8,39.9z M41.1,15.1c0,0.8,0.7,1.4,1.4,1.4s1.3-0.6,1.4-1.4c0-0.8-0.6-1.4-1.3-1.5
	c-0.8,0-1.4,0.6-1.5,1.3C41.1,15,41.1,15.1,41.1,15.1z M18.4,39.9V18.2c0-0.9-0.8-1.7-1.7-1.7l0,0h-3.2c-0.6,1.7-2.2,2.8-4,2.8
	c-2.3,0-4.2-1.9-4.2-4.2s1.9-4.2,4.2-4.2c1.8,0,3.4,1.1,4,2.8h3.2c2.5,0,4.6,2,4.6,4.6V40c0,0.8-0.7,1.4-1.5,1.4
	C19.1,41.2,18.5,40.6,18.4,39.9L18.4,39.9z M10.9,15.1c0-0.8-0.6-1.4-1.4-1.4c-0.8,0-1.4,0.6-1.4,1.4s0.6,1.4,1.4,1.4l0,0
	C10.3,16.5,10.9,15.9,10.9,15.1z"/>
</svg>
