<svg version="1.1" id="Layer_1" xmlns:serif="http://www.serif.com/"
	 xmlns="http://www.w3.org/2000/svg" xmlns:xlink="http://www.w3.org/1999/xlink" x="0px" y="0px" viewBox="0 0 672.7 765.3"
	 style="enable-background:new 0 0 672.7 765.3;" xml:space="preserve">
<path var:color.fill="#000" d="M181.5,548.4c-0.1-0.8-0.2-1.5-0.3-2.3C181.4,546.8,181.5,547.6,181.5,548.4z M228.2,452.9c-0.5,0.3-0.9,0.5-1.4,0.8
	C227.3,453.5,227.7,453.2,228.2,452.9z M184.8,506.2c-0.3,0.8-0.5,1.6-0.7,2.4C184.4,507.9,184.7,507.1,184.8,506.2z M672.5,301
	v39.5c0.1,0.8,0.1,1.6,0,2.4v0.2c0,3.9-3,7.2-6.9,7.6c-17.3,1.7-33.7,1.8-49.3,0.4c0.1,0,0.1,0,0.2,0c-0.5-0.1-1-0.2-1.5-0.3
	c-13.3-1.2-26-3.6-38.3-7.2c-5.2-1.5-10.3-3.2-15.2-5c-0.8-0.1-1.5-0.3-2.2-0.6c-0.6-0.3-1.2-0.6-1.8-1.1c-0.2-0.1-0.3-0.3-0.4-0.4
	c-0.1,0-0.1-0.1-0.2-0.1l0.1,0.1c0,0,0,0,0.1,0.1c0.1,0.1,0.3,0.3,0.4,0.4c0.6,0.5,1.3,0.9,2,1.3c-19.3-7.5-37.3-17.8-54.5-31.4
	v23.6c0,0.3,0.1,0.5,0.1,0.8c0,0.4,0,0.8,0,1.2c0,0.3-0.1,0.5-0.1,0.8v39.6c0.1,0.6,0.1,1.2,0,1.8c-0.2,1.7-1,3.3-2.3,4.6
	c-1.5,1.5-3.4,2.2-5.3,2.2c-2,0-4-0.8-5.5-2.3l-2.2-2.3l-28.2-29v-21.9l28.2,29l13.2,13.4l-13.2-13.5l0,0v-20l0.1,0.1l2.1,2.2
	c0,0,0,0,0,0l-2.1-2.2l-28.2-29.1v-22l28.1,29v-16.8l0.1,0.1l2.1,2.1c1.5,1.5,3.5,2.3,5.5,2.3c1.9,0,3.8-0.8,5.3-2.2
	c0.6-0.6,1.1-1.2,1.4-1.9c-0.3,0.6-0.8,1.2-1.3,1.7c-1.4,1.5-3.4,2.2-5.3,2.2c-2,0-4-0.8-5.5-2.3l-2.2-2.1l-0.1-0.1l-28.1-28.8
	l-0.1-0.1v-6.5c0,0-0.1-0.1-0.1-0.1v6.8v17v22v20.1V348v25.9v22v27.6v21.9v27.5v21.9v3.3c0,0.1,0,0.3,0,0.5c0,0.1,0,0.1,0,0.2
	c-0.6,6.1-1.3,12.1-2.2,18l30,30.9l0,0l0,0c0.2-1.2,0.3-2.4,0.4-3.6V544v-20.4l2.2,2.2l-2.2-2.3l0,0l-28.2-28.9l0,0v-21.9l28.2,28.9
	l13.1,13.5l-13.1-13.5v-27.5l0.1,0.1l2.2,2.3c1.5,1.5,3.5,2.3,5.5,2.3c0,0,0,0,0.1,0c-2,0-4-0.8-5.5-2.3l-2.3-2.4l-28.2-29v-21.9
	l28.1,28.9v-27.4l0.1,0.1l2.1,2.1c1.5,1.5,3.5,2.3,5.5,2.3c0,0,0,0,0,0c-2,0-4-0.8-5.4-2.3l-2.1-2.2l-28.2-29.1v-21.8v-0.2l28.1,29
	v-25.9l2.2,2.3c1.5,1.5,3.5,2.3,5.5,2.3s3.9-0.7,5.3-2.2c1.3-1.3,2.1-2.9,2.3-4.6l0,46.1c0.1,0.6,0.1,1.3,0,1.9l0,46.9
	c0,0.1,0.1,0.2,0.1,0.4c0.2,0.9,0.2,1.9,0,2.8c-0.1,0.5-0.2,0.9-0.4,1.4l-0.1,44.3c0.5,1.5,0.5,3.1,0,4.7l0,21.9c0,0.2,0,0.5,0,0.7
	c-0.5,6.2-1.3,12.2-2.1,18.2c0-0.1,0-0.2,0-0.3c0,0.1,0,0.2,0,0.3c0,0,0,0,0,0c0.2,1.5,0,3-0.7,4.3c0-0.1,0-0.3,0.1-0.4
	c-0.4,0.9-0.9,1.7-1.7,2.4c-1.5,1.5-3.4,2.2-5.3,2.2c-2,0-4-0.8-5.5-2.3l-2.6-2.8L456,535.4c0,0.1,0,0.1,0,0.2c0,0,0,0.1,0,0.1
	c-1.4,6.6-3,13.2-4.9,19.5l31.4,32.3l0,0c0.3-1.1,0.5-2.2,0.8-3.3c1.1-5.1,2.2-10.2,3.1-15.4c0.1-0.5,0.2-1,0.3-1.6l2.7,2.8
	c1.5,1.5,3.5,2.3,5.5,2.3c1.9,0,3.8-0.8,5.3-2.2c0.7-0.6,1.2-1.4,1.6-2.2c-1.9,12.1-4.5,23.8-7.8,35c0,0.6-0.2,1.2-0.3,1.8
	c-0.2,0.6-0.4,1.1-0.7,1.6c0-0.1,0-0.1,0.1-0.2c-0.3,0.6-0.8,1.2-1.3,1.7c-1.5,1.5-3.4,2.2-5.3,2.2c-2,0-4-0.8-5.5-2.3l-3.2-3.2
	l-31.9-32.9c0,0,0,0.1-0.1,0.1c-2.6,7.1-5.5,13.9-8.5,20.6l32.5,33.4l0,0c2.9-6.8,5.5-13.8,7.9-21l0,0l3.2,3.2
	c1.5,1.5,3.5,2.3,5.5,2.3c1.9,0,3.8-0.8,5.3-2.2c0.5-0.5,1-1.1,1.4-1.7c-3.8,12.2-8.3,23.9-13.7,35c0-0.2,0.1-0.4,0.1-0.6
	c-0.1,0.2-0.1,0.5-0.2,0.7c0,0,0-0.1,0.1-0.1c-0.2,0.9-0.7,1.9-1.3,2.7c0.1-0.2,0.2-0.4,0.3-0.6c-0.3,0.4-0.6,0.8-1,1.2
	c-1.5,1.5-3.4,2.2-5.3,2.2c-2,0-4-0.8-5.5-2.3l-3.8-3.9l-32.9-33.8c0,0,0,0.1-0.1,0.1c-3.6,6.4-7.5,12.7-11.7,18.7l33.2,34.2
	l0.1,0.1c4.1-6.1,7.9-12.4,11.3-19l3.8,3.9c1.5,1.5,3.5,2.3,5.5,2.3c1.9,0,3.8-0.8,5.3-2.2c0.3-0.3,0.6-0.6,0.8-0.9
	c-5.7,11.4-12.2,22.1-19.5,32.2c0.1-0.2,0.2-0.4,0.3-0.6c-0.3,0.6-0.8,1.2-1.3,1.7c-1.5,1.5-3.4,2.2-5.3,2.2c-2,0-4-0.8-5.5-2.3
	l-4.5-4.7L408.6,638c0,0,0,0,0,0.1c0,0-0.1,0.1-0.1,0.1c-5,6.2-10.3,12-16,17.6l33.6,34.6c4.6-4.5,8.9-9.3,13-14.3
	c0.9-1.1,1.8-2.2,2.7-3.3l4.6,4.7c1.5,1.5,3.5,2.3,5.5,2.3c1.9,0,3.8-0.8,5.3-2.2c0.2-0.2,0.4-0.4,0.5-0.6c-0.7,1-1.4,1.9-2.1,2.9
	c-7.3,9.6-15.5,18.5-24.3,26.7c0,0-0.1,0.1-0.1,0.1c-0.2,0.2-0.5,0.4-0.7,0.6c0,0,0,0,0,0c-10,9.1-20.8,17.3-32.4,24.4c0,0,0,0,0,0
	c-0.4,0.3-0.8,0.6-1.3,0.8c-0.2,0.1-0.4,0.2-0.6,0.3c-11,6.6-22.8,12.3-35.1,17c0.8-0.4,1.7-0.9,2.4-1.6c1.1-1.1,1.8-2.4,2.1-3.8
	c-0.3,1.4-1,2.7-2.1,3.7c-0.7,0.7-1.5,1.2-2.4,1.6c-0.1,0-0.2,0.1-0.3,0.1c-0.8,0.3-1.7,0.5-2.6,0.5c-2,0-4-0.8-5.5-2.3l-8.4-8.6
	l-32.9-33.7c0,0,0,0-0.1,0c0,0-0.1,0-0.1,0.1c-7.3,2.6-14.9,4.8-22.6,6.6c0,0-0.1,0-0.1,0l32.2,33.1c0,0,0.1,0,0.1,0
	c7.9-1.6,15.7-3.6,23.3-5.9c0.1,0,0.1,0,0.2-0.1l8.4,8.6c1.5,1.6,3.5,2.3,5.4,2.3c0.9,0,1.7-0.2,2.6-0.5c-1,0.4-2,0.7-3,1.1
	c-12.1,4.4-24.6,7.8-37.3,10.1c-0.6,0.2-1.2,0.3-1.8,0.3c-14.2,2.5-28.7,3.8-43.3,3.8c-0.3,0-0.6,0-0.9,0c0,0,0,0,0,0
	c-0.1,0-0.2,0-0.2,0c-0.1,0-0.3,0-0.4,0c0,0,0,0,0,0c-1.9-0.1-3.7-0.9-5.1-2.3l-13.5-14l-29.5-30.2c-0.1,0-0.1,0-0.2,0c0,0,0,0,0,0
	c-1.7-0.1-3.3-0.1-5-0.2c-6.3-0.2-12.5-0.8-18.7-1.5l13.9,14.4l13.7,14.1l1.7,1.7c2.2,2.2,2.7,5.5,1.5,8.3c1.2-2.8,0.7-6.1-1.5-8.4
	l-1.7-1.7c2.1,0.4,4.3,0.8,6.4,1.2c2.1,0.4,4.3,0.7,6.4,1c4.3,0.6,8.6,1.1,12.9,1.4l13.6,13.9c1.4,1.4,3.2,2.2,5.1,2.3
	c-16-0.1-32.3-1.7-48.5-5c-0.4,0-0.7,0-1-0.1c-0.1,0-0.3-0.1-0.4-0.1c-1.4-0.3-2.7-1-3.8-2.1l0.1,0.1c1.1,1.1,2.4,1.8,3.8,2.1
	c-0.3,0-0.5-0.1-0.7-0.1c-46.3-9.7-87.3-31.3-118.6-62.7c-12.7-12.7-32-33.7-44.5-47.5C20.7,610,0,557.7,0,497.9
	c-0.2-39,6.5-74.9,20.1-106.4c12.8-30.5,31.4-56.7,55.3-77.8c48.6-42.9,114.8-61.6,186.4-52.4c3,0.4,5.4,2.5,6.3,5.3
	c5.7,5.8,23.7,24.3,41.8,43.6c1.4,1.4,2.1,3.3,2.1,5.2v33.4c0-0.9-0.2-1.8-0.5-2.6c0.2,0.7,0.3,1.3,0.3,2c0,0.6-0.1,1.1-0.2,1.7
	v40.6c0.1,0.9,0.1,1.7,0,2.6v38.2c0.1,0.4,0.1,0.8,0.1,1.2c0,0.7-0.1,1.4-0.3,2.1c0.3-0.8,0.4-1.6,0.4-2.4v3.6c0,2.3-1,4.4-2.8,5.9
	s-4.2,2.1-6.4,1.6c-14.3-2.9-27.3-3.4-39-2c-0.3,0.1-0.6,0.2-1,0.3c-0.6,0.1-1.1,0.2-1.7,0.2h-0.1c-2,0-4-0.8-5.5-2.3l-9.8-10.1
	l-0.1-0.1l-32-32.9c-0.1,0-0.2,0-0.2,0c-7.7,1.4-14.7,3.6-21.1,6.5c0,0,0,0-0.1,0l33.1,33.9l0.2,0.2c6.5-3.2,13.2-5.7,20.3-7.5
	l9.8,10.1c1.5,1.5,3.5,2.3,5.5,2.3h0.1c-12.4,1.8-23.3,5.6-32.8,10.9c0.3-0.2,0.6-0.5,0.9-0.8c2.1-2.1,2.8-5.1,1.9-7.8
	c0.7,2.6,0,5.4-2,7.5c-1.4,1.5-3.4,2.2-5.3,2.2c-2,0-4-0.8-5.5-2.3l-6.6-6.8l-33.5-34.3c-0.1,0.1-0.2,0.1-0.2,0.2
	c-6.4,4.3-12.1,9.4-17,14.8l33.3,34.3l0,0l0.2,0.2c5.3-5.6,11-10.6,17.3-15l6.6,6.8c1.5,1.5,3.5,2.3,5.5,2.3c1,0,2-0.2,3-0.6
	c-19.9,11.5-33.2,29.3-40,46.8c-0.7,1.9-1.4,3.8-2,5.7c0.2-1.3,0-2.7-0.6-4c1,2.7,0.4,5.9-1.8,8.1c-1.5,1.5-3.4,2.2-5.3,2.2
	c-2,0-4-0.8-5.5-2.3l-3-3.1l-30.7-31.6c0,0.1,0,0.2,0,0.3c-1.1,7.9-1.2,16.1-0.1,24.3l27.5,28.2l0.2,0.2c0.4-7,1.5-14.1,3.3-21
	l3,3.1c1.5,1.5,3.5,2.3,5.5,2.3c1.9,0,3.8-0.8,5.3-2.2c0.6-0.6,1.1-1.3,1.5-2c-3.3,11.8-4.5,24.6-2.9,37.4c-0.1-0.3-0.2-0.6-0.3-0.9
	c1,2.7,0.4,5.9-1.8,8.1c-1.4,1.5-3.4,2.2-5.3,2.2c-2,0-4-0.8-5.5-2.3l-1.6-1.6l-0.1-0.1l-17-17.5l-0.4-0.4c-4.6-8-7.8-16.3-9.8-24.7
	c2,8.6,5.2,17,9.9,25.1c4.6,8,10.7,15.6,18.3,22.5c-0.3-1.5-0.6-3.1-0.8-4.6l1.7,1.7c1.5,1.5,3.5,2.3,5.5,2.3c1.9,0,3.8-0.8,5.3-2.2
	c1.5-1.4,2.2-3.4,2.3-5.3c1.1,7.6,3.2,15.2,6.4,22.6c26.4,14.6,58.2,15.4,85.5,1.8c28.7-14.3,47.4-41.6,51.3-75.2l0.5-489.8
	c0-4.2,3.4-7.6,7.6-7.6h115.8c0.3,0,0.5,0,0.8,0c0.1,0,0.1,0,0.2,0c0.3,0.1,0.5,0.1,0.8,0.2c0.1,0,0.1,0,0.2,0
	c0.3,0.1,0.6,0.2,0.9,0.3c0.1,0,0.1,0.1,0.2,0.1c0.3,0.1,0.5,0.3,0.8,0.4h0.1c0.3,0.1,0.6,0.3,0.8,0.5c0.1,0,0.1,0.1,0.2,0.1
	c0.2,0.2,0.5,0.4,0.7,0.6l43.5,46.5c1.1,1.1,1.8,2.6,2,4.2c2.1,16.2,5.4,31.1,9.7,44.9c0.2,0.5,0.3,0.9,0.4,1.4
	c4.5,14.1,10.2,27,17,38.5c25.2,16.9,57,26.6,95.1,29.1c0.1,0,0.2,0,0.3,0s0.2,0,0.3,0c0.2,0,0.4,0.1,0.6,0.1c0.1,0,0.1,0,0.2,0
	c0.5,0.2,1,0.4,1.5,0.6c0.1,0,0.1,0.1,0.2,0.1c0.2,0.1,0.3,0.2,0.5,0.3c0,0.1,0.1,0.1,0.2,0.2c0.1,0.1,0.3,0.2,0.4,0.3
	c0.1,0.1,0.1,0.1,0.2,0.2c0.1,0.1,0.3,0.3,0.4,0.4l0.1,0.1c0.3,0.3,26.2,26.9,43.8,46.8c1.3,1.4,2,3.2,1.8,5.1v36.5
	c-0.2-1-0.6-2-1.2-2.9c0.6,0.9,1,1.9,1.2,3v-0.1c0.2,1,0.2,2,0,3v-0.3c-0.3,1.6-1,3.1-2.2,4.2c1.2-1.1,1.9-2.5,2.2-4v37.6
	C672.6,299.2,672.6,300.1,672.5,301z M502.5,476.8c-1,0.9-2.2,1.5-3.4,1.8c1.3-0.3,2.5-0.8,3.3-1.6
	C502.5,476.9,502.5,476.9,502.5,476.8z M670.6,254c0.3,0.3,0.5,0.6,0.7,0.9C671.1,254.5,670.8,254.2,670.6,254z M629.2,293.9
	l28,28.8v-0.1v-19.7l0.2,0.2l2,2c1.5,1.5,3.5,2.3,5.5,2.3c0,0,0,0,0,0c-2,0-4-0.8-5.4-2.3l-2.1-2.2l-28.2-29.1v-22l28.1,29v-18.4
	l0.1,0.1l2.1,2.1c1.5,1.5,3.5,2.3,5.5,2.3h0c-2,0-4-0.8-5.5-2.3l-2.1-2.2l-28.2-29.1v-21.9v-0.1l28.2,29.1v-16.3
	c-9-10.1-19.9-21.7-28.2-30.4c0,0,0,0,0,0v17.7v22v18.5v22V293.9z M498.1,112.3C498.1,112.3,498.1,112.3,498.1,112.3
	c-0.8-2.3-1.7-4.7-2.4-7.1l-10.4-10.6c3.9,6.2,8.1,12,12.6,17.5C498,112.2,498,112.2,498.1,112.3z M460.7,31.7
	c1.7,7.5,3.6,14.7,5.8,21.6l0.2,0.2c0-0.1,0-0.1-0.1-0.2l21.3,21.9c-0.5-2.9-1.1-5.7-1.6-8.6c-0.5-3-1-5.9-1.4-8.9L460.7,31.7z
	 M189,476.6l-4.5-4.6l-32.9-33.9c-0.1,0.1-0.1,0.2-0.2,0.2c-3.3,5.2-5.9,10.6-8,15.9c-0.5,1.2-0.9,2.4-1.3,3.6c0,0,0,0.1,0,0.1
	l31.9,32.9l0.3,0.3c2.8-6.6,6.3-12.8,10.3-18.7l4.5,4.6c1.5,1.5,3.5,2.3,5.5,2.3c1.9,0,3.8-0.8,5.3-2.2c2.2-2.1,2.8-5.1,2-7.8
	c0.7,2.6,0,5.5-2.1,7.4c-1.5,1.5-3.4,2.2-5.3,2.2C192.5,478.9,190.5,478.1,189,476.6z M286.9,425.8L286.9,425.8l-27.6-28.4
	c-0.1,0-0.1,0-0.2,0c-9.1-1.9-17.7-2.7-25.8-2.7c-0.1,0-0.1,0-0.2,0l30.6,31.4l2.6,2.7c0.7,0.7,1.2,1.5,1.6,2.4
	c-0.4-0.9-0.9-1.7-1.6-2.5l-2.6-2.7c0,0,0.1,0,0.1,0c3.8-0.3,7.6-0.5,11.5-0.6C279.1,425.4,283,425.5,286.9,425.8z M268.5,384.8
	l27.8,28.5v0V395l0.2,0.2l2,2c1.5,1.5,3.5,2.3,5.5,2.3c0,0,0,0,0,0c-2,0-4-0.8-5.4-2.3l-2.1-2.2l-28-28.9v0.3V384.8L268.5,384.8z
	 M268.5,344.1l27.9,28.8v-21.5l0.1,0.1l2.1,2.1c1.5,1.5,3.5,2.3,5.5,2.3c1.9,0,3.9-0.7,5.2-2.1c0,0,0,0,0.1-0.1
	c-1.4,1.4-3.3,2.1-5.2,2.1c-2,0-4-0.8-5.5-2.3l-2.2-2.2l-28-28.7v0v0.3V344.1z M296.7,318.4c-0.1-0.1-0.1-0.1-0.2-0.2
	c-10.3-10.9-20.3-21.4-28-29.3v11.8l28,28.7l0.2,0.2V318.4z M129,698.9L129,698.9l-2.8-2.9c-0.1,0-0.1-0.1-0.2-0.1c0,0,0,0,0,0
	c-0.3-0.1-0.5-0.3-0.8-0.4c-0.1-0.1-0.3-0.1-0.4-0.2c0,0,0.1,0.1,0.1,0.1c1.2,1,2.3,2,3.5,3C128.6,698.6,128.8,698.7,129,698.9z
	 M182.8,732.1L182.8,732.1c2.9,2.9,2.8,7.7-0.2,10.7c-1.4,1.5-3.4,2.2-5.3,2.2c-2,0-4-0.8-5.5-2.3l0.1,0.1c1.5,1.5,3.5,2.3,5.5,2.3
	c1.9,0,3.8-0.7,5.3-2.2C185.7,740,185.8,735.1,182.8,732.1z M200.9,738.2l-24.7-25.4c0,0-0.1,0-0.1,0c0,0,0,0,0,0
	c-5.5-1.2-10.8-2.6-16.2-4.2c0,0-0.1,0-0.1,0c0,0,0,0,0,0l21.9,22.4l0.1,0.1c6.2,2.7,12.6,5.1,19.1,7.2l18.5,19.1L200.9,738.2z
	 M277.2,749.9L277.2,749.9C277.2,749.9,277.2,749.9,277.2,749.9c8.4,0,16.6-0.6,24.9-1.5l0,0l-31.5-32.5c0,0-0.1,0-0.1,0
	c-7.8,1.3-15.9,2.1-23.9,2.6c0,0,0,0,0,0L277.2,749.9z M281.7,757.7c0,1.9-0.8,3.9-2.3,5.4c0,0,0,0,0,0c0,0,0,0,0,0
	C280.9,761.6,281.7,759.7,281.7,757.7z M323.6,748.5c2.9,3,2.8,7.9-0.2,10.8C326.5,756.4,326.5,751.5,323.6,748.5z M347.6,689.5
	C347.5,689.5,347.5,689.5,347.6,689.5c-6.7,3.8-13.6,7.2-20.7,10.2l33.2,34.1c7.2-3,14.2-6.3,20.9-10L347.6,689.5z M365.8,742.8
	c0-2-0.7-3.9-2.2-5.4C365.1,738.9,365.8,740.9,365.8,742.8z M400.5,728.4c-0.4,1-1,1.9-1.7,2.7C399.6,730.3,400.2,729.4,400.5,728.4
	z M381.2,666.1c0,0-0.1,0.1-0.1,0.1c-1.2,1-2.4,2-3.6,3c-5.4,4.3-10.8,8.2-16.5,12c0,0,0,0-0.1,0l33.6,34.5c2.7-1.8,5.4-3.6,8-5.5
	c4.2-3.1,8.3-6.3,12.2-9.6l5.6,5.8c1.5,1.6,3.5,2.3,5.5,2.3c-2,0-4-0.8-5.5-2.3l-5.6-5.8L381.2,666.1z M450,558.4
	c-1,3.3-2.1,6.6-3.2,9.9C448,565,449,561.7,450,558.4z M502.6,525.9C502.6,525.9,502.6,525.9,502.6,525.9
	C502.6,525.9,502.6,525.9,502.6,525.9C502.6,525.9,502.6,525.9,502.6,525.9C502.6,525.9,502.6,525.9,502.6,525.9z M602.4,289.9
	c1.9-0.1,3.9-0.1,5.8-0.2c1.9-0.1,3.8-0.2,5.7-0.4V181.7c-3.1-0.3-6.1-0.6-9.1-1c-92.9-11.3-147.6-66.9-162.7-165.4H340.4l0,0.5
	L340,497.9c0,0.3,0,0.6,0,0.8c-1.2,11-3.9,21.4-7.7,31.1c-9.9,24.7-27.9,44.5-52,56.5c-32.9,16.3-71.3,14.9-102.7-3.9
	c-25-14.9-42.6-36.3-50.8-62c-7.5-23.3-6.7-49,2.3-72.3c1.2-3.2,2.6-6.3,4.1-9.4c9.7-19.5,25-35.7,44-46
	c21.9-12.1,47.9-16.4,75.7-12.4c0,0,0.1,0,0.1,0V275.2c-9-0.9-17.9-1.4-26.6-1.4c-54.2,0-103.4,17.6-141,50.9
	C63.2,344.3,45.9,368.6,34,397c-12.6,30-18.9,64-18.7,100.8c0,0,0,0,0,0.1c0,59.6,21.9,111,63.4,148.7
	c37.6,34.2,88.1,54.3,142.3,56.8c67.2,3,137.4-22.6,181.5-82.6c23.1-31.4,39-72.2,43.6-123.2l0.2-254c0-1.5,0.5-3,1.3-4.2
	c0.8-1.2,1.9-2.2,3.2-2.8c2.8-1.2,6-0.7,8.2,1.3C500,274.9,546,291.6,602.4,289.9z M505,372.7c-0.2-1.7-0.9-3.2-2.1-4.5
	C504.1,369.5,504.8,371.1,505,372.7z M521.8,300.2l-0.2-0.2l-0.6-0.6l-9.2-9.5c-1.9-0.8-3.8-1.7-5.7-2.5c-0.2-0.1-0.3-0.1-0.5-0.2
	C510.9,291.9,516.3,296.2,521.8,300.2z M560.5,338.1c-0.2-0.1-0.5-0.2-0.8-0.3C559.9,337.9,560.2,338,560.5,338.1z M596.3,332.8
	l-0.1-0.1l-27.8-28.6c0,0,0,0,0,0c0,0-0.1,0-0.1,0c-8.7-0.9-17-2.4-25.3-4.3c0,0-0.1,0-0.1,0c0,0,0,0,0,0l23.9,24.5l1.1,1.1
	c3,3,2.9,7.9-0.1,10.8c-0.7,0.7-1.6,1.3-2.5,1.7c0,0,0,0,0,0c0,0,0,0,0,0c0.9-0.4,1.8-0.9,2.6-1.7c3-2.9,3-7.8,0.1-10.8l-1.1-1.1
	l0,0c1.2,0.5,2.4,0.9,3.5,1.3c2.4,0.8,4.8,1.6,7.2,2.4c6,1.8,12.2,3.4,18.5,4.6L596.3,332.8z M668.4,348.5c-1.1,0.6-2.3,0.8-3.4,0.8
	c-2,0-4-0.8-5.5-2.3l-10.4-10.7l-30.9-31.8c0,0-0.1,0-0.1,0c-9.3,0.8-18.2,1.1-27,1l29.5,30.4l0.1,0.1l0,0
	c9.1,0.7,18.6,0.8,28.3,0.4l10.4,10.7c1.5,1.5,3.5,2.3,5.5,2.3C666.1,349.4,667.3,349.1,668.4,348.5z M670.3,347.1
	c-0.1,0.1-0.2,0.1-0.2,0.2C670.1,347.3,670.1,347.3,670.3,347.1C670.2,347.2,670.2,347.2,670.3,347.1z"/>
</svg>
