<svg version="1.1" id="Layer_1" xmlns:serif="http://www.serif.com/"
	 xmlns="http://www.w3.org/2000/svg" xmlns:xlink="http://www.w3.org/1999/xlink" x="0px" y="0px" viewBox="0 0 765.4 690.7"
	 style="enable-background:new 0 0 765.4 690.7;" xml:space="preserve">
<path var:color.fill="#000" d="M763.3,145.5c-1.7-1.9-14-14.1-24.7-24.7c1.6-4,3.1-8,4.2-12.2c-0.4,0.9-0.9,1.8-1.7,2.5c-1.5,1.5-3.4,2.2-5.4,2.2
	s-4-0.8-5.5-2.3l-3.1-3.2c-0.1,0.4-0.2,0.8-0.4,1.2c-2.3-2.3-3.8-3.8-4.1-4.1c-0.1-0.1-0.2-0.2-0.4-0.3l-0.1-0.1
	c-0.3-0.2-0.5-0.4-0.8-0.6c0,0-0.1,0-0.1-0.1c-0.3-0.2-0.5-0.3-0.8-0.4c-0.1,0-0.1-0.1-0.2-0.1c-0.3-0.1-0.6-0.2-0.9-0.3
	c-0.1,0-0.1,0-0.2,0c-0.3-0.1-0.5-0.1-0.8-0.2c-0.1,0-0.2,0-0.3,0c-0.3,0-0.6-0.1-0.9-0.1c-0.1,0-0.1,0-0.2,0c-0.3,0-0.5,0-0.8,0.1
	c-0.1,0-0.2,0-0.3,0c-0.3,0.1-0.6,0.1-0.9,0.2h-0.1c-0.3,0.1-0.6,0.2-0.9,0.3c-0.1,0-0.2,0.1-0.2,0.1c-0.3,0.1-0.5,0.3-0.7,0.4
	c0,0-0.1,0-0.1,0.1c-1.7,1.1-3.5,2.2-5.3,3.2c-4.8,2.7-9.8,4.9-15,6.6c-5.3,1.8-10.7,3-16.2,3.8c3.4-3.4,6.5-7,9.3-10.9
	c0,0,0,0,0-0.1l6.9,7.1c5.2-1.7,10.2-4,15-6.6L694,93.1c0,0,0,0,0,0c2.2-4.3,4.1-8.8,5.7-13.5l27.4,28.1l3.1,3.2
	c1.5,1.5,3.5,2.3,5.5,2.3c1.9,0,3.9-0.7,5.4-2.2c0.8-0.8,1.4-1.7,1.8-2.7c0,0.1,0,0.2-0.1,0.2c0.2-0.5,0.3-0.9,0.4-1.4
	c0.1-0.2,0.1-0.5,0.1-0.7c1.6-6.5,2.5-13.4,2.5-21.5c0-7.4-2-20.6-2-21.1c-0.2-1.6-1-3.1-2.2-4.3l-40-40.1c-0.1-0.1-0.3-0.3-0.5-0.4
	c-1.1-1.1-2.5-1.9-4.2-2.2c-3.1-0.6-6.2,0.9-7.9,3.6c-14.3,23.6-37,38.8-62.6,42.1C595,22.7,549.4,0,500.9,0
	C476,0,452,5.8,429.7,17.4c-1.3,0.7-2.6,1.4-3.9,2.1l-2.4,1.3c-0.1,0-0.1,0.1-0.2,0.1l-2.3,1.3c-0.1,0-0.2,0.1-0.3,0.1l-2.3,1.4
	c-0.1,0-0.1,0.1-0.2,0.1l-2.3,1.5c-0.1,0-0.1,0.1-0.2,0.1l-2.4,1.6c0,0-0.1,0-0.1,0.1l-2.3,1.6l-0.1,0.1l-2.3,1.6l-0.1,0.1l-4.5,3.4
	c-0.1,0-0.1,0.1-0.2,0.1l-2.2,1.7c-0.1,0-0.1,0.1-0.2,0.2l-2.1,1.8l-0.1,0.1l-1.1,0.9l-5.4,4.8l-0.1,0.1l-4.2,4l-5.2,5.5l-4.8,5.5
	l-0.1,0.1l-0.9,1.1c0,0,0,0.1-0.1,0.1l-1.8,2.2l-0.1,0.1l-1.8,2.2c0,0-0.1,0.1-0.1,0.2l-0.7,1c0,0,0,0.1-0.1,0.1l-0.9,1.2l-0.1,0.1
	l-1.6,2.2c0,0.1-0.1,0.1-0.1,0.2l-1.6,2.3c0,0,0,0.1-0.1,0.1l-1.7,2.5l-0.1,0.1l-3.1,4.8c0,0,0,0.1-0.1,0.1l-0.9,1.5
	c0,0,0,0.1-0.1,0.1l-0.6,1l-0.1,0.1l-2.2,3.7l-4.3,8l-3.2,6.8v0.1l-0.6,1.4v0.1l-1.2,2.7v0.1l-1.1,2.7c0,0,0,0.1-0.1,0.1l-2.8,7.4
	v0.1L344,121v0.1l-0.3,1.1l-2.5,9v0.1l-1.8,7.9v0.1l-0.8,4.3l-1.5,9.4v0.1l-0.4,3.1v0.1l-0.9,10.3c-0.2,3.6-0.3,7.3-0.3,11
	c0,11.2,1,22.3,2.9,33.3l-1.1,0.3h-0.1l-1.3,0.3c-0.1,0-0.2,0.1-0.3,0.1l-1.9,0.4l-15.8,3.2c-0.1,0-0.2,0-0.3,0l-1.4,0.2
	c-0.1,0-0.1,0-0.2,0l-1.3,0.2c-0.1,0-0.1,0-0.2,0l-2,0.3c-0.1,0-0.1,0-0.2,0l-1.4,0.2c-0.1,0-0.1,0-0.2,0l-7.1,0.9
	c-0.1,0-0.1,0-0.2,0l-1.8,0.2h-0.1l-3.5,0.3h-0.1l-4.7,0.4h-0.1h-0.6c-0.1,0-0.1,0-0.2,0L290,218c0,0-0.1,0-0.2,0h-0.7H289h-0.6
	h-0.1l-1.4,0.1c-0.1,0-0.1,0-0.2,0l-1.4,0.1h-0.1h-0.8h-0.1h-1.5c-0.1,0-0.1,0-0.2,0l-4.9,0.1c-0.1,0-0.2,0-0.3,0h-1.8l-5.5-0.1
	l-5.9-0.2c-1.2-0.1-2.4-0.1-3.5-0.2c-0.1,0-0.1,0-0.2,0l-3.3-0.2c-0.1,0-0.1,0-0.2,0c-0.4,0-0.8-0.1-1.2-0.1h-0.1l-7.6-0.7
	c0,0,0,0-0.1,0l-1.4-0.2h-0.1l-1.1-0.1h-0.1l-1.4-0.2h-0.1l-0.4-0.1h-0.1L242,216h-0.1l-4.3-0.6h-0.1l-0.9-0.1c-0.1,0-0.2,0-0.3,0
	l-4-0.7h-0.1l-1.8-0.3h-0.1l-2.6-0.5c-0.1,0-0.2,0-0.3,0l-3-0.6h-0.1l-2.6-0.6c-0.1,0-0.1,0-0.2,0l-1.2-0.3
	c-0.4-0.1-0.8-0.2-1.2-0.3h-0.2l-7.3-1.8c-0.4-0.1-0.8-0.2-1.2-0.3c-0.1,0-0.1,0-0.2-0.1l-1.1-0.3c-0.1,0-0.1,0-0.2,0l-1.7-0.5h-0.1
	l-1.2-0.3c-0.1,0-0.1,0-0.2-0.1l-2.3-0.7c-0.1,0-0.1,0-0.2-0.1l-2.6-0.8h-0.1l-3.8-1.2h-0.1l-0.2-0.1c-0.1-0.1-0.3-0.1-0.4-0.1
	l-0.9-0.3c-0.1,0-0.1,0-0.2-0.1l-1.1-0.4c-0.1,0-0.1,0-0.2-0.1l-1.1-0.4c-0.1,0-0.2-0.1-0.2-0.1l-2.5-0.9h-0.1l-1.6-0.6H188
	l-1.1-0.4c0,0-0.1,0-0.2-0.1l-1.1-0.4c-0.1,0-0.2-0.1-0.2-0.1l-1.1-0.4c-0.1,0-0.2-0.1-0.2-0.1l-2.4-0.9c0,0-0.1,0-0.1-0.1l-9.6-4.1
	c0,0-0.1,0-0.1-0.1l-1-0.5c0,0-0.1,0-0.1-0.1l-2.4-1.1c0,0-0.1,0-0.1-0.1l-1-0.5c-0.1,0-0.1-0.1-0.2-0.1l-1.6-0.8
	c-0.1,0-0.1,0-0.2-0.1l-1-0.5c-0.1,0-0.2-0.1-0.2-0.1l-1-0.5c-0.1,0-0.1-0.1-0.2-0.1l-1.1-0.6c-0.4-0.2-0.8-0.4-1.1-0.6l-0.1-0.1
	l-1-0.5c0,0-0.1,0-0.1-0.1l-2.8-1.5c0,0-0.1,0-0.1-0.1l-1-0.5c-0.1,0-0.1-0.1-0.2-0.1l-1-0.6l-0.1-0.1c-0.4-0.2-0.8-0.4-1.1-0.6
	c0,0-0.1,0-0.1-0.1l-1-0.6c0,0-0.1,0-0.1-0.1l-3.8-2.2c0,0-0.1,0-0.1-0.1l-1.1-0.7l-0.1-0.1l-1-0.6c0,0-0.1-0.1-0.2-0.1l-0.9-0.5
	c-0.1-0.1-0.2-0.1-0.3-0.2l-0.9-0.6l-0.1-0.1l-2.5-1.6l-0.1-0.1l-1.1-0.7l-0.1-0.1l-1.1-0.7l-2.5-1.7c0,0-0.1,0-0.1-0.1l-3.2-2.2
	c0,0-0.1,0-0.1-0.1l-1-0.7c0,0-0.1,0-0.1-0.1l-3.5-2.5l-0.1-0.1l-0.8-0.6c0,0-0.1,0-0.1-0.1l-1-0.7c-0.1-0.1-0.2-0.1-0.2-0.2
	l-0.9-0.7l-0.1-0.1l-0.9-0.7c-0.1-0.1-0.1-0.1-0.2-0.2l-3.4-2.7l-0.1-0.1l-0.8-0.7c0,0-0.1,0-0.1-0.1c0,0-0.1,0-0.1-0.1l-2.8-2.3
	c-0.1-0.1-0.2-0.1-0.3-0.2l-0.2-0.2c0,0-0.1,0-0.1-0.1l-0.4-0.4l-0.1-0.1l-2.4-2l-0.1-0.1l-0.8-0.7l-0.1-0.1l-0.9-0.8
	c0,0-0.1,0-0.1-0.1l-0.8-0.7l-0.1-0.1l-3.3-3c-0.1-0.1-0.1-0.1-0.2-0.2l-0.7-0.7l-0.1-0.1c-0.3-0.3-0.6-0.5-0.8-0.8l-0.1-0.1
	l-0.8-0.7l-0.1-0.1l-1-1l-0.1-0.1l-4.6-4.7c0,0,0,0-0.1-0.1l-0.1-0.1l-2.9-3.1c-0.1-0.1-0.1-0.1-0.2-0.2l-3.9-4.3l-0.1-0.1l-6.7-8
	l-0.1-0.1l-0.2-0.3l-0.1-0.1l-0.4-0.5l-0.1-0.1l-3.4-4.4l-0.1-0.1l-1.4-1.9c0-0.1-0.1-0.1-0.1-0.2l-0.2-0.3
	c-0.5-0.7-1.1-1.5-1.6-2.2l-0.2-0.3l-0.1-0.1l-0.6-0.9l-0.1-0.1l-1.8-2.6l-0.1-0.1l-0.2-0.3c-0.5-0.8-1-1.6-1.5-2.3l-0.1-0.2
	c-0.1-0.1-0.1-0.2-0.2-0.3l-2.6-4.1c-0.5-0.8-1-1.7-1.5-2.5l-0.1-0.2l-0.1-0.1l-0.4-0.6c0,0,0-0.1-0.1-0.1l-0.1-0.2
	c0-0.1-0.1-0.2-0.1-0.2l-0.9-1.6c0-0.1-0.1-0.1-0.1-0.2l-0.1-0.2c0,0,0-0.1-0.1-0.1l-0.4-0.7c0,0,0-0.1-0.1-0.1l-0.2-0.3
	c-0.5-0.9-1-1.8-1.5-2.7l-2.4-4.5c-0.6-1.2-1.3-2.5-1.9-3.8l-0.1-0.2c0,0,0-0.1-0.1-0.1L58,87.7c0-0.1-0.1-0.1-0.1-0.2l-0.4-0.8
	v-0.1l-0.5-1c0,0,0-0.1-0.1-0.1l-0.5-1c-0.5-1-0.9-2-1.4-3c0-0.1-0.1-0.2-0.1-0.3l-1.3-3c0,0,0-0.1-0.1-0.2l-0.4-1.1
	c-0.4-1-0.9-2.1-1.3-3.2l-0.5-1.2v-0.1l-0.4-1.1v-0.1l-0.3-0.8c0-0.1,0-0.1-0.1-0.2l-0.5-1c-0.5-1.4-1.1-2.9-1.6-4.3v-0.1l-0.7-2.1
	l-0.1-0.2l-0.4-1.1c-0.5-1.5-1-2.9-1.4-4.5l-0.3-1v-0.1v-0.1l-0.3-0.9c0-0.1,0-0.1-0.1-0.2l-0.3-1.1c-0.4-1.5-0.9-3-1.3-4.6
	l-0.9-3.4c-0.8-3.3-3.5-5.6-6.9-5.9c-3.3-0.3-6.4,1.7-7.7,4.8c-11.2,27.4-16.9,56.5-16.9,86.3c0,46.3,14.1,91.3,40,129.2
	c-10.1-3.6-20-8-29.5-13.1c-2.5-1.4-5.6-1.2-8,0.4c-2.4,1.6-3.7,4.4-3.3,7.3c4.5,38.1,19,74.5,41.9,105.4
	c12.2,16.5,26.7,31.2,42.9,43.6c1.4,1.8,2.8,3.6,4.3,5.4c-10.2-2.7-20.2-6.2-30-10.5c-3-1.3-6.6-0.6-8.8,1.9c-2.2,2.5-2.6,6-1,8.9
	c12.3,21.7,27.9,40.8,46.1,56.8c14.9,15.9,29.9,30.9,38.1,38.3c9.5,8.5,19.7,16.2,30.4,22.9c-31.9,10.7-65.6,17.2-100.6,19.4
	c-3.6,0.2-7.2,0.5-10.7,0.7c-18.3,1.3-37.1,2.6-54.2,0c-3.2-0.5-6.3,1-7.8,3.8c-1.6,2.8-1.3,6.2,0.8,8.7c0.6,0.7,1.2,1.4,1.8,2.1
	c0.3,1.4,1,2.7,2.1,3.8c2.3,2.3,57.7,57.6,70.3,67.9c18.6,15.1,39,27.2,61.1,36.4c-0.4-0.3-0.8-0.6-1.2-1l-3.3-3.4l3.4,3
	c1.5,1.5,3.5,2.3,5.5,2.3c1.9,0,3.9-0.7,5.4-2.2c0.9-0.9,1.6-2,1.9-3.2c-0.3,1.3-1,2.6-2,3.6c-1.5,1.5-3.4,2.2-5.4,2.2
	c-0.4,0-0.9,0-1.3-0.1c17.4,6.9,35.8,12,55.2,15.3c-1.1-0.4-2.2-1-3.1-1.9l-17.7-18.1c-9.6-2.5-18.9-5.6-27.9-9.1l-0.6-0.7
	l-15.2-15.6c7.7,2,15.6,3.7,23.8,5.1c0.2,0,0.4,0.1,0.6,0.1l19.4,19.9l17.7,18.1c1.5,1.5,3.5,2.3,5.5,2.3c1.9,0,3.9-0.7,5.4-2.2
	c0.9-0.9,1.5-1.9,1.9-3c-0.4,1.2-1,2.3-2,3.3c-1.5,1.5-3.4,2.2-5.4,2.2c0,0,0,0,0,0c15.3,2.5,31.3,3.8,47.8,4
	c-1.9-0.1-3.8-0.8-5.3-2.3l-13.4-13.8c-8.4-0.6-16.8-1.5-24.9-2.7l-0.3-0.4l-21.8-22.3c7.5,0.7,15.1,1,23.1,1.1c0.2,0,0.3,0,0.5,0
	l23.5,24.2l13.4,13.8c1.4,1.5,3.3,2.2,5.3,2.3c0.1,0,0.2,0,0.2,0c0.1,0,0.1,0,0.1,0c0,0,0,0,0,0c1.1,0,2.2,0,3.4,0
	c13.6,0,27-0.6,40.4-1.8c-1.5-0.3-2.9-1-4-2.1L274,674.7c-8.2,0.5-16.5,0.7-24.8,0.7c-0.1,0-0.1,0-0.2,0l-24.5-25.1
	c7.9-0.3,15.9-0.7,23.8-1.4c0.2,0,0.4,0,0.5-0.1l25.3,25.9l11.5,11.8c1.5,1.5,3.5,2.3,5.5,2.3c1.9,0,3.9-0.7,5.4-2.2
	c1.5-1.5,2.2-3.4,2.3-5.3c0,2.1-0.7,4.1-2.3,5.7c-0.7,0.7-1.6,1.3-2.4,1.6c14.4-1.4,28.7-3.5,42.9-6.2c-1.9-0.1-3.8-0.9-5.2-2.3
	l-10-10.3c-9.1,1.5-18.2,2.7-27.3,3.7l-0.4-0.4l-25.8-26.4c8.9-1.2,17.8-2.6,26.6-4.2c0.2,0,0.3-0.1,0.5-0.1l26.3,27l10.1,10.3
	c1.5,1.5,3.5,2.3,5.5,2.3c1.9,0,3.9-0.7,5.4-2.2c1.5-1.5,2.2-3.4,2.3-5.3c0,2.1-0.7,4.1-2.3,5.7c-0.6,0.6-1.4,1.1-2.2,1.5
	c12.8-2.6,25.4-5.7,37.9-9.4c-0.2,0-0.4,0-0.5,0c-2,0-4-0.8-5.5-2.3l-9-9.2c-7.7,2.1-15.4,3.8-23.2,5.5l-0.3-0.3l-26.7-27.4
	c7.6-1.8,15.2-3.7,22.6-6c0.2-0.1,0.4-0.1,0.5-0.2l27.2,28l8.9,9.3c1.5,1.5,3.5,2.3,5.5,2.3c1.9,0,3.9-0.7,5.4-2.2
	c2-2,2.7-4.8,2.1-7.4c0.8,2.6,0.1,5.6-2.1,7.7c-0.5,0.5-1.1,0.9-1.7,1.2c15.4-4.7,30.6-10.2,45.6-16.5c24.7-10.5,48.3-23,70.6-37.5
	c-1,0.5-2.2,0.8-3.4,0.8c-2,0-4-0.8-5.5-2.3l-6.6-6.8c-7.7,4.9-15.7,9.4-23.7,13.8c0,0-0.1-0.1-0.1-0.1c-2.3-2.4-4.5-4.6-6.6-6.8
	c-6.4-6.6-12.4-12.7-21.9-22.5c7.9-4.3,15.6-9,23.3-13.8c0.1-0.1,0.2-0.1,0.3-0.2l28.7,29.5l6.6,6.8c1.5,1.5,3.5,2.3,5.5,2.3
	c1.9,0,3.9-0.7,5.4-2.2c1.5-1.5,2.3-3.4,2.3-5.4c0,2-0.8,4-2.3,5.5c-0.2,0.2-0.4,0.3-0.5,0.5c22.7-14.9,44.1-31.7,64-50.6
	c-1.3,0.9-2.8,1.3-4.3,1.3c-2-0.1-4-0.8-5.5-2.4l-5.6-5.7c-6.7,6.2-13.6,12.1-20.5,17.8l-0.1-0.1l-28.9-29.8
	c6.9-5.6,13.7-11.6,20.3-17.6c0.1,0,0.1-0.1,0.2-0.1l29.1,29.8l5.6,5.7c1.5,1.5,3.5,2.3,5.5,2.3c1.5,0,3-0.4,4.3-1.3
	c0.4-0.3,0.8-0.5,1.1-0.9c0.3-0.3,0.5-0.6,0.8-0.9c1.5-2.1,1.8-4.9,0.9-7.3c1.3,2.6,1.1,5.7-0.8,8.1c2.5-2.4,4.9-4.8,7.4-7.2
	c42-42,75-90.9,98-145.3c23.9-56.4,36-116.2,36-177.9c0-1.7,0-3.5,0-5.2c31.3-10.1,54.6-40.1,58.9-76.7
	C765.6,149.4,764.8,147.2,763.3,145.5z M704,62.1c0.9-5.6,1.4-11.3,1.4-17.2L729,68.5c0.6,4.5,1.5,12.2,1.5,16.4
	c0,1.5,0,2.9-0.1,4.3L704,62.1C704,62.1,704,62.1,704,62.1z M722,126.1c9.9,9.9,22.3,22.2,27.6,27.6c-0.7,4.2-1.7,8.5-3,12.4
	l-0.1-0.1l-28.2-28.9C719.7,133.6,721,129.9,722,126.1z M190.2,518.7l-0.2-0.2l-9.8-10.2c8.2,2.8,16.7,4.9,25.3,6.7
	c-4.2,1.8-8.4,3.6-12.6,5.2C192,519.7,191,519.2,190.2,518.7z M380.3,655.8l-0.2-0.2l-27.5-28.3c7.5-2.5,15.1-5.2,22.6-8.1
	c0.1,0,0.2-0.1,0.4-0.1l27.7,28.6l0.2,0.2C395.9,650.8,388.1,653.4,380.3,655.8z M421.4,655.3c-1.5,1.4-3.4,2.2-5.3,2.2
	c-2,0-4-0.8-5.5-2.3l-6.9-7.1l6.8,6.9c1.5,1.6,3.5,2.3,5.5,2.3c1.9,0,3.9-0.7,5.3-2.2c2.7-2.7,3-6.8,1-9.9
	C424.6,648.2,424.2,652.6,421.4,655.3z M440.8,626.6c1,1.2,2.1,2.4,3.3,3.5c2.1,2.1,4.2,4.3,6.6,6.8c1.5,1.5,3.5,2.3,5.5,2.3
	c1.9,0,3.9-0.7,5.4-2.2c0.5-0.5,1-1.1,1.3-1.8c-0.4,0.7-0.8,1.4-1.4,2c-1.5,1.5-3.4,2.2-5.4,2.2s-4-0.8-5.5-2.3
	c-2.4-2.4-4.5-4.6-6.6-6.8c-7.5,3.7-15.2,7.2-22.9,10.5c-0.7,0.3-1.4,0.6-2.1,0.9l-0.2-0.2l-28-28.9c8.3-3.7,16.5-7.4,24.5-11.5
	c0.1-0.1,0.3-0.1,0.4-0.2C427.1,612.5,433.7,619.3,440.8,626.6z M515.1,586.2l6,6.3c1.5,1.6,3.5,2.3,5.5,2.3c1.9,0,3.9-0.7,5.3-2.2
	c2.5-2.5,3-6.4,1.3-9.3c1.8,3,1.3,6.9-1.3,9.4c-1.5,1.4-3.4,2.2-5.3,2.2c-2,0-4-0.8-5.5-2.3l-6-6.2c-6.5,4.9-13,9.6-19.6,14.1
	l-0.1-0.1l-28.8-29.6c6.6-4.5,13.1-9.2,19.4-14.1c0.1-0.1,0.1-0.1,0.2-0.2L515.1,586.2z M380.7,600.1
	c-54.5,23.1-112.3,34.7-171.9,34.7c-90.5,0-147.9-35.8-182.3-70.9c12.6,0.3,25.3-0.6,37.8-1.5c3.6-0.3,7.1-0.5,10.6-0.7
	c57.5-3.6,111.6-18.5,160.7-44.2c3-1.6,4.7-5,4-8.4c-0.7-3.4-3.5-5.8-6.9-6.1c-59.2-4.5-112.7-34.8-147.1-82.5
	c18.3,5.8,37.3,9.1,56.7,9.8c3.7,0.1,6.9-2.3,7.8-5.9c0.9-3.6-1-7.2-4.3-8.8c-31.9-14.4-59.9-36.9-80.8-65.2
	c-18.4-24.8-31-53.5-36.8-83.6c13.4,6.1,27.4,10.9,41.8,14.2c3.2,0.7,6.6-0.7,8.3-3.5s1.4-6.4-0.7-9C44.8,230,26.8,181,26.8,130.4
	c0-20,2.7-39.6,8.1-58.5c0.3,0.8,0.6,1.7,0.9,2.5l0.4,1.1c0,0.1,0,0.1,0.1,0.2l1.4,3.5c0.5,1.1,0.9,2.3,1.4,3.5l0.5,1.2
	c0,0,0,0.1,0.1,0.1l1.3,3c0,0,0,0.1,0.1,0.1l0.1,0.2l0.1,0.2v0.1c0.5,1.1,1,2.2,1.4,3.2l0.1,0.2c0,0,0,0.1,0.1,0.1l0.4,0.9
	c0,0,0,0.1,0.1,0.2l0.9,2c0,0.1,0.1,0.2,0.1,0.3l0.5,1c0,0,0,0.1,0.1,0.2l0.1,0.1c0.7,1.4,1.4,2.7,2,4L47,100l0.1,0.1l2.4,4.4
	c0.5,1,1.1,2,1.6,2.9l0.1,0.3l0.1,0.1l0.5,0.9c0,0.1,0.1,0.1,0.1,0.2l0.2,0.3c0,0,0,0.1,0.1,0.1l0.7,1.2l0.1,0.1l0.1,0.2
	c0,0.1,0.1,0.1,0.1,0.2l0.4,0.7c0,0,0,0.1,0.1,0.1l0.1,0.2l0.1,0.2c0.5,0.9,1.1,1.8,1.6,2.7l0.2,0.3l0.1,0.1l1.9,3.1
	c0,0,0,0.1,0.1,0.1l0.5,0.7c0,0.1,0.1,0.1,0.1,0.2l0.2,0.3c0.6,0.8,1.1,1.7,1.6,2.5l0.2,0.3c0,0,0.1,0.1,0.1,0.2l0.9,1.3
	c0,0,0,0.1,0.1,0.1l0.8,1.1c0,0,0,0.1,0.1,0.1l0.2,0.3l0.1,0.1l0.7,0.9l0.1,0.1l0.2,0.3c0.6,0.8,1.1,1.6,1.7,2.4l0.2,0.3
	c0,0,0,0.1,0.1,0.1l0.1,0.2c0,0,0,0.1,0.1,0.1l3.5,4.7c0,0.1,0.1,0.1,0.1,0.2l0.7,0.9c0,0,0,0.1,0.1,0.1l0.7,0.9l0.1,0.1l0.1,0.1
	l0.1,0.1l0.5,0.7c0,0.1,0.1,0.1,0.1,0.2l2.2,2.8l0.1,0.1l0.6,0.7l0.1,0.1l1.8,2.1l0.1,0.1l0.9,1l0.1,0.1l1.2,1.3c0,0,0,0.1,0.1,0.1
	l0.3,0.4l0.1,0.1l1.3,1.5l0.1,0.1l2.5,2.8l0.1,0.1l0.1,0.1l0.1,0.1l2.3,2.4c0,0,0,0.1,0.1,0.1l0.7,0.7c0,0.1,0.1,0.1,0.2,0.2
	l1.7,1.8l0.1,0.1l1.8,1.9l0.1,0.1l0.9,0.9l0.1,0.1l0.4,0.4l0.1,0.1l1,0.9l0.1,0.1l0.8,0.7l0.1,0.1c0.3,0.3,0.6,0.6,0.9,0.8
	c0.1,0.1,0.1,0.1,0.2,0.1l0.8,0.8l0.1,0.1l0.1,0.1l0.1,0.1l3.4,3.1l0.1,0.1l0.8,0.7l0.1,0.1c0.3,0.3,0.6,0.6,1,0.9l0.9,0.8
	c0,0,0.1,0,0.1,0.1l2.4,2c0,0,0.1,0,0.1,0.1l0.3,0.3l0.1,0.1l0.6,0.5c0.1,0.1,0.2,0.1,0.2,0.2l0.1,0.1l2.9,2.4
	c0.1,0,0.1,0.1,0.2,0.1l0.8,0.7c0,0,0.1,0,0.1,0.1l3.8,3c0,0,0.1,0,0.1,0.1l0.1,0.1l1.1,0.9l0.1,0.1l0.8,0.6c0.1,0,0.1,0.1,0.2,0.1
	l1,0.7c0,0,0.1,0,0.1,0.1l0.8,0.6l0.1,0.1l0.6,0.5l0.1,0.1l2.1,1.6l0.1,0.1l1,0.7c0.1,0,0.1,0.1,0.2,0.1l1,0.7c0,0,0.1,0.1,0.2,0.1
	l0.9,0.7c0,0,0.1,0,0.1,0.1l2.5,1.7l0.1,0.1l2.4,1.6c0,0,0.1,0.1,0.2,0.1l1.1,0.7l0.1,0.1l3.7,2.4l0.1,0.1l0.3,0.2
	c0,0,0.1,0,0.1,0.1l0.8,0.5c0.1,0,0.1,0.1,0.2,0.1l0.1,0.1l1,0.6c0.1,0,0.1,0.1,0.2,0.1l1.1,0.6c0,0,0.1,0.1,0.2,0.1l1.1,0.6
	c0.1,0,0.1,0.1,0.2,0.1l4.1,2.4c0,0,0.1,0,0.1,0.1l0.9,0.5l0.1,0.1c0.4,0.2,0.7,0.4,1.1,0.6c0.1,0,0.1,0.1,0.2,0.1l1.2,0.7
	c0,0,0.1,0,0.1,0.1l0.8,0.4c0,0,0.1,0,0.1,0.1l3.3,1.8c0,0,0.1,0,0.1,0.1l0.9,0.5c0,0,0.1,0,0.1,0.1c0.4,0.2,0.9,0.4,1.3,0.7
	l1.2,0.6c0.1,0.1,0.2,0.1,0.3,0.2l0.8,0.4c0.1,0,0.1,0.1,0.2,0.1l0.2,0.1c0,0,0.1,0.1,0.2,0.1l0.7,0.3c0,0,0.1,0,0.1,0.1l2.2,1
	c0,0,0.1,0,0.1,0.1l1,0.5c0,0,0.1,0,0.1,0.1l3.6,1.7c0,0,0.1,0,0.1,0.1l0.2,0.1h0.1l2.7,1.2c0,0,0.1,0,0.1,0.1l4.1,1.7
	c0,0,0.1,0,0.1,0.1l1.3,0.6h0.1l1.3,0.5c0,0,0.1,0,0.1,0.1l0.5,0.2h0.1l0.9,0.4h0.1l0.8,0.3l0.2,0.1c0.1,0,0.1,0.1,0.2,0.1l1,0.4
	h0.1h0.1h0.1l1.4,0.5h0.1l1.3,0.5h0.1l1.4,0.5h0.1l1.5,0.5h0.1l1.1,0.4h0.1h0.1c0.1,0,0.1,0,0.2,0.1l1,0.3c0.1,0,0.1,0,0.2,0.1
	l1.2,0.4h0.1l1.1,0.4c0.1,0,0.1,0,0.2,0.1c0.1,0,0.1,0.1,0.2,0.1l0.8,0.3h0.1l2.1,0.7h0.1l1.1,0.4c0.1,0,0.1,0,0.2,0.1l1.4,0.4h0.1
	l1.1,0.3c0.1,0,0.2,0.1,0.3,0.1l2.4,0.7h0.1l0.3,0.1c0,0,0.1,0,0.2,0l1.3,0.4c0.1,0,0.1,0,0.2,0.1l1.7,0.5h0.1l1,0.3
	c0.1,0,0.1,0,0.2,0c0.5,0.1,1,0.3,1.4,0.4l1.2,0.3c0.1,0,0.1,0,0.2,0l3.4,0.8h0.1l1.6,0.4h0.1l1.1,0.2h0.1h0.2
	c0.4,0.1,0.7,0.2,1.2,0.3l1.3,0.3h0.1l6.3,1.3c0.1,0,0.1,0,0.2,0l2.8,0.5c0,0,0.1,0,0.2,0l1.4,0.3h0.1l0.8,0.1h0.1l3.7,0.6h0.1
	c0.1,0,0.1,0,0.2,0l1.1,0.2h0.1l1.4,0.2c0,0,0.1,0,0.2,0l3,0.4h0.1l0.7,0.1h0.1l0.6,0.1c0.1,0,0.1,0,0.2,0l1.6,0.2
	c0.1,0,0.1,0,0.2,0l1.3,0.1c0,0,0.1,0,0.2,0l1.4,0.2h0.1l5.3,0.5h0.1l1.3,0.1h0.1l1.2,0.1h0.1c0.4,0,0.9,0.1,1.3,0.1h0.1
	c0.1,0,0.1,0,0.2,0l3.4,0.2h0.1c1.3,0.1,2.5,0.1,3.8,0.2l10,0.3c0.1,0,0.1,0,0.2,0h2h2.1c0.1,0,0.2,0,0.2,0h3.1h0.1h1.5h0.1h0.5h0.1
	l2.4-0.1h0.1l1.4-0.1c0.1,0,0.2,0,0.2,0l1.5-0.1c0,0,0.1,0,0.2,0l1.5-0.1c0.1,0,0.1,0,0.2,0l2.2-0.1c0.1,0,0.1,0,0.2,0l1.2-0.1h0.1
	l4.6-0.4h0.1l3.7-0.4h0.1l1.4-0.1h0.1h0.4c0.1,0,0.1,0,0.2,0l7.7-1h0.1l1.3-0.2c0.1,0,0.2,0,0.3,0l2-0.3c0.1,0,0.1,0,0.2,0l1.4-0.2
	c0.1,0,0.1,0,0.2,0h0.2h0.1l1.1-0.2h0.1c0.1,0,0.1,0,0.2,0l7.4-1.3h0.1l7.4-1.6h0.1l3.9-0.9c0.1,0,0.1,0,0.2,0c0.1,0,0.1,0,0.2,0
	l1.3-0.3c0.1,0,0.1,0,0.2,0l2-0.5c0.1,0,0.1,0,0.2,0l1.4-0.4c0.1,0,0.1,0,0.2,0l1.5-0.4c0,0,0.1,0,0.2,0l0.6-0.2c0.1,0,0.1,0,0.2,0
	l1.2-0.3h0.1l1-0.3c3.9-1.1,6.3-5.1,5.4-9c-2.6-12.1-4-24.6-4-37.2c0-3.4,0.1-6.8,0.3-10.1l0.3-4.7l1-8.9l1.4-8.7l1.8-8.5l3.1-11.1
	l2.7-8.1l3.1-7.9l3.5-7.7l3.9-7.5l2.8-4.9c0,0,0-0.1,0.1-0.1l1.4-2.2l4.5-6.9l1.5-2.1l0.1-0.1l3.2-4.3c0,0,0,0,0.1-0.1l1.6-2
	l4.2-5.1l4.6-5.1l4.7-4.7l5-4.6l5.1-4.3l0.1-0.1l1.9-1.5l0.1-0.1l4.2-3.2c0,0,0,0,0.1-0.1l2.1-1.5l4.3-2.9c0,0,0.1,0,0.1-0.1
	l2.1-1.4c0,0,0.1,0,0.1-0.1l2.2-1.3c0,0,0.1,0,0.1-0.1l2.2-1.3c0,0,0.1,0,0.1-0.1l2.3-1.3c1.2-0.6,2.3-1.3,3.5-1.9
	c20.1-10.4,41.7-15.7,64.1-15.7c45.1,0,87.4,21.8,116,59.8c1.6,2.1,4.1,3.2,6.7,3c25.6-2,49-13.8,66.4-33.3
	c-0.2,31.6-15.6,59.9-40.5,74c-2.9,1.6-4.4,5-3.7,8.3c0.7,3.3,3.4,5.7,6.8,6.1c3.5,0.4,7.2,0.5,10.8,0.5c15,0,29.6-3,42.9-8.9
	c-7.4,24.5-26.2,43.7-49.5,49.1c-3.4,0.8-5.9,3.8-5.9,7.3c0,0.5,0,1,0,1.6c0,0.2,0,0.3,0,0.5c0.1,3,0.1,6,0.1,9.1
	c0,59.6-11.7,117.4-34.7,171.9c-22.3,52.6-54.1,99.9-94.7,140.5C480.6,546,433.4,577.9,380.7,600.1z M688.5,282
	c-1.2,11.3-2.9,22.7-5,33.8l-0.1-0.1L656.2,288c0,0,0,0,0,0c2.3-11,4.2-22.1,5.7-33.3c0,0,0-0.1,0-0.1l26.6,27.3l2.3,2.5L688.5,282z
	 M593.6,535.1c-1.5,1.5-3.4,2.2-5.4,2.2s-4-0.8-5.5-2.3l-5-5.1c-5.1,5.7-10.4,11.2-15.8,16.7c-0.7,0.7-1.6,1.6-2.4,2.3l-0.5-0.5
	l-29.2-29.8c0.7-0.7,1.3-1.3,2.1-2c5.5-5.5,10.9-11.2,16.2-17c0.1-0.1,0.1-0.1,0.2-0.2l29.1,29.8l5,5.2c1.5,1.5,3.5,2.3,5.5,2.3
	c1.9,0,3.9-0.7,5.4-2.2c2.4-2.4,2.9-5.9,1.6-8.8C596.6,528.7,596.1,532.6,593.6,535.1z M618.1,504.4c-1.5,1.5-3.4,2.2-5.4,2.2
	s-4-0.8-5.5-2.3l-4.6-4.7c-4.8,6.2-9.6,12.4-14.7,18.4l-0.4-0.4l-29.1-29.8c5-6,10-12.2,14.7-18.4c0.1-0.1,0.1-0.2,0.2-0.2l29,29.8
	l4.6,4.7c1.5,1.5,3.5,2.3,5.5,2.3c1.9,0,3.9-0.7,5.4-2.2c2.4-2.4,2.9-5.9,1.6-8.8C621.1,498,620.6,501.9,618.1,504.4z M641.2,469.2
	c-1.5,1.5-3.4,2.2-5.4,2.2s-4-0.8-5.5-2.3l-4.1-4.2c-4.6,7.4-9.3,14.7-14.3,21.8l-0.4-0.4l-29-29.7c5-7.1,9.8-14.3,14.4-21.7
	c0,0,0-0.1,0.1-0.1l28.9,29.7l4.2,4.2c1.5,1.5,3.5,2.3,5.5,2.3c1.9,0,3.9-0.7,5.4-2.2c2.4-2.4,2.9-6,1.5-8.9
	C644.2,462.8,643.7,466.7,641.2,469.2z M634.3,451l-0.3-0.3l-28.8-29.5c4.8-8.4,9.3-16.8,13.6-25.5l28.5,29.6l0.3,0.3
	C643.4,434.3,639,442.7,634.3,451z M680.2,384.8c-1.5,1.5-3.4,2.2-5.4,2.2s-4-0.8-5.5-2.3l-3.3-3.4c-2.9,8.2-6.1,16.4-9.5,24.5
	c-0.7,1.6-1.4,3.2-2.1,4.8l7.9,8.2c2.9,3.1,2.8,7.9-0.2,10.9c-1.5,1.4-3.4,2.1-5.3,2.1c-2,0-4-0.8-5.5-2.4l-0.2-0.2
	c1.5,1.5,3.4,2.3,5.4,2.3c1.9,0,3.8-0.7,5.3-2.1c3.1-2.9,3.2-7.8,0.2-10.9l-7.9-8.2l-28.3-29.5c0,0,0,0,0,0c1.4-3.2,2.8-6.4,4.2-9.6
	c2.7-6.3,5.2-12.7,7.6-19.1c0,0,0,0,0-0.1l28.2,28.9l3.3,3.5c1.5,1.5,3.5,2.3,5.5,2.3c1.9,0,3.9-0.7,5.4-2.2c2.7-2.7,3-6.8,1-9.8
	C683.3,377.7,683,382,680.2,384.8z M693.5,337.3c-1.5,1.5-3.4,2.2-5.4,2.2s-4-0.8-5.5-2.3l-2.9-3c-2.4,10.3-5.2,20.5-8.3,30.5
	l-0.2-0.2l-27.9-28.7c3.3-10,6.2-20,8.8-30l27.5,28.2l2.9,2.9c1.5,1.5,3.5,2.3,5.5,2.3c1.9,0,3.9-0.7,5.4-2.2
	c2.2-2.2,2.8-5.4,1.8-8.2C696.4,331.6,695.8,335,693.5,337.3z M691.1,233.6c0,9.4-0.3,18.8-0.9,28.1l11.8,12.1c3,3,2.9,7.9-0.2,10.9
	c-1.5,1.4-3.4,2.2-5.3,2.2c-2,0-4-0.8-5.5-2.3l-0.1-0.1c1.5,1.5,3.5,2.3,5.5,2.3c1.9,0,3.9-0.7,5.3-2.2c3-3,3.1-7.8,0.2-10.9
	l-11.8-12.1l-26-26.8c1-11.1,1.6-22.2,1.8-33.5L691,227l2.1,2.2c1.5,1.5,3.5,2.3,5.5,2.3c1.9,0,3.9-0.7,5.4-2.2
	c1.9-1.9,2.6-4.4,2.2-6.8c0.6,2.5-0.1,5.3-2.1,7.3c-1.5,1.5-3.4,2.2-5.4,2.2s-4-0.8-5.5-2.3L691,227
	C691,229.2,691.1,231.3,691.1,233.6z M732.6,214.3c-1.5,1.5-3.4,2.2-5.4,2.2s-4-0.8-5.5-2.3l-6.2-6.4c-4.7,2.9-9.8,5.2-15.1,6.8
	l-0.4-0.4l-27.8-28.5c0,0,0,0,0,0c5-2.1,9.8-4.8,14.3-7.9c0,0,0.1-0.1,0.1-0.1l28.8,29.6l6.2,6.5c1.5,1.5,3.5,2.3,5.5,2.3
	c1.9,0,3.9-0.7,5.4-2.2c2-2,2.7-4.8,2.1-7.4C735.4,209.2,734.7,212.2,732.6,214.3z M754.8,185.7c-1.5,1.5-3.4,2.2-5.4,2.2
	s-4-0.8-5.5-2.3l-3.9-4c-3.5,6-7.5,11.6-12.3,16.4l-0.2-0.3l-29.1-29.9c4.8-4.8,9-10.2,12.6-16.1c0,0,0,0,0-0.1l28.9,29.7l3.9,4
	c1.5,1.5,3.5,2.3,5.5,2.3c1.9,0,3.9-0.7,5.4-2.2c2.2-2.2,2.8-5.4,1.8-8.2C757.7,180,757.1,183.4,754.8,185.7z"/>
</svg>
