<svg version="1.1" id="Layer_1" xmlns:serif="http://www.serif.com/"
	 xmlns="http://www.w3.org/2000/svg" xmlns:xlink="http://www.w3.org/1999/xlink" x="0px" y="0px" viewBox="0 0 764.1 765.3"
	 style="enable-background:new 0 0 764.1 765.3;" xml:space="preserve">
<path var:color.fill="#000" d="M763.9,389.9c-0.1,1.9-0.8,3.8-2.3,5.2c-1.2,1-2.5,1.6-3.8,1.9c-0.1,0-0.2,0-0.3,0.1c0.1,0,0.2,0,0.3-0.1
	c1.3-0.3,2.6-0.9,3.6-2c1.5-1.4,2.2-3.3,2.3-5.2c0-0.4,0-0.8,0-1.2c-0.2-1.6-0.9-3.2-2.1-4.4L746.8,369l-28.3-29.2c0,0,0-0.1,0-0.1
	c0,0,0-0.1,0-0.1c-0.7-11.7-1.9-23.2-3.7-34.6c0,0,0,0,0,0l26,26.8l1.6,1.6c0.1,0.1,0.1,0.1,0.2,0.2c0,0-0.1-0.1-0.1-0.1l-0.1-0.1
	l-1.5-1.5c2.7,12.2,4.7,24.6,6,37.1l14.8,15.2c1.2,1.3,1.9,2.8,2.1,4.4c-1-20.6-3.7-41-8.1-61c0,2.2-0.8,4.4-2.4,6
	c-1.5,1.4-3.4,2.2-5.3,2.2c-1.3,0-2.6-0.3-3.7-1c1.1,0.6,2.4,0.9,3.6,0.9c1.9,0,3.9-0.7,5.3-2.2c1.7-1.6,2.5-3.9,2.3-6
	c-0.1-0.8-0.2-1.5-0.5-2.3c-0.4-0.9-0.9-1.8-1.7-2.6l-20.6-21.1l0,0l-23.3-24c0,0,0-0.1,0-0.1c-2.4-10-5.1-19.9-8.3-29.6l-0.5-0.5
	l0.5,0.5l18.6,19.2l0,0l0.6,0.5c5,11.2,9.2,22.7,12.9,34.4l20.7,21.3c0.7,0.8,1.3,1.6,1.7,2.6c-13.4-58.7-41.3-113.5-81.9-159.1
	c-13-14.7-39.7-39-40.8-40.1c-0.1-0.1-0.1-0.1-0.2-0.1C566.2,48.9,468.4,0,359.3,0C161.2,0,0,161.5,0,359.9
	c0,58.5,14.4,116.6,41.5,168l-23,183.3c0,0.3-0.1,0.7-0.1,1c0,0.1,0,0.1,0,0.2c0,0.3,0,0.6,0.1,0.9c0,0.1,0,0.2,0,0.3
	c0.1,0.3,0.1,0.5,0.2,0.8c0,0.1,0,0.2,0.1,0.2c0.1,0.3,0.3,0.7,0.4,1c0,0,0,0,0,0.1c0.2,0.3,0.3,0.6,0.5,0.8
	c0.1,0.1,0.1,0.2,0.2,0.2c0.2,0.2,0.4,0.4,0.6,0.6l0.1,0.1L66,762.8c1.4,1.4,3.4,2.2,5.4,2.2c0.5,0,1,0,1.5-0.1l44.3-8.6
	c0.1,0,0.3,0,0.4,0c0.4,0,0.7,0,1.1-0.1c0.3,0,0.6-0.1,0.8-0.2c1.3-0.3,2.5-1,3.5-1.9c2.1-2.1,2.8-5.1,1.9-7.7
	c1.2,2.8,0.5,6.2-1.7,8.4c-1,1-2.2,1.6-3.5,1.9l131.1-25.5c48.3,23.1,100.2,34.7,154.1,34.7c1.5,0,3,0,4.5-0.1
	c-1.6-0.2-3.2-1-4.5-2.2l-9.6-10.2l9.4,9.7c1.2,1.3,2.8,2,4.5,2.2c0.3,0,0.7,0.1,1,0.1c0.4,0,0.8,0,1.2-0.1c1.5-0.2,2.9-0.9,4.1-2.1
	c3.2-3,3.3-7.9,0.3-10.9l-2.4-2.4l-29.9-30.7c0,0,0,0,0,0c0.1,0,0.1,0,0.2,0c9.5-0.6,19.1-1.6,28.5-3c0,0,0.1,0,0.1,0l30.7,31.6
	l0.1,0.1c0,0,0,0,0,0c-9.8,1.1-19.6,1.8-29.6,2c0,0,0,0,0,0l0,0l2.4,2.4c3,3,2.9,7.9-0.1,10.9c-1.2,1.1-2.6,1.8-4.1,2.1
	c16.3-0.3,32.5-1.7,48.4-4.1c-0.2,0-0.5,0-0.7,0c-2.2-0.1-4.2-0.9-5.7-2.4l-0.1-0.1c1.5,1.5,3.5,2.3,5.5,2.3c0.2,0,0.5,0,0.7,0
	c0.3,0,0.6-0.1,1-0.2c1.3-0.3,2.6-1,3.7-2c1.5-1.4,2.3-3.3,2.4-5.3c0,2-0.8,4-2.4,5.5c-1.1,1-2.3,1.7-3.7,2
	c28.7-4.5,56.7-12.5,83.7-23.9c3-1.3,5.9-2.6,8.9-3.9c-0.9,0.3-1.7,0.5-2.6,0.5c-2-0.1-4-0.9-5.5-2.5l-7.7-7.9l-0.1-0.1
	c-9.4,4-18.9,7.5-28.8,10.6l0-0.1l-32.3-33.2c7.7-2.7,15.3-5.5,22.8-8.7c1.8-0.7,3.5-1.5,5.3-2.3c0,0,0.1,0,0.1-0.1c0,0,0,0,0.1,0
	l32.9,33.8l7.8,8c1.5,1.5,3.5,2.3,5.5,2.3c0.9,0,1.8-0.2,2.6-0.5c0.4-0.1,0.8-0.3,1.2-0.5c0.6-0.3,1-0.7,1.5-1.1
	c0,0-0.1,0.1-0.1,0.1c-0.5,0.5-1,0.8-1.6,1.2c13.3-6.1,26.2-13,38.6-20.7c-1.2,0.6-2.4,1-3.7,1c-2-0.2-3.9-1-5.4-2.4
	c1.5,1.4,3.5,2.2,5.4,2.2c1.3,0,2.6-0.3,3.7-1c0.2-0.1,0.4-0.3,0.6-0.4c0.3-0.2,0.7-0.5,1-0.8c3.1-2.9,3.2-7.8,0.2-10.8l-4.4-4.5
	L557,660.8c0,0,0,0,0,0l0.1,0.1c8.5-5.1,16.7-10.6,24.5-16.5c0,0,0,0,0.1,0l-0.8-0.8c0,0,0,0,0.1,0l0.6,0.6l33.1,34.1l5.9,6.1
	c0,0,0,0,0,0l-6-6.2c0,0-0.1,0.1-0.1,0.1c-7.8,6-15.7,11.6-23.9,16.9l0,0l4.4,4.5c3,3,2.9,7.9-0.2,10.9c-0.3,0.3-0.6,0.6-1,0.8
	c12.4-7.7,24.5-16.2,36-25.5c0.3-0.1,0.6-0.3,0.8-0.5c0.3-0.2,0.5-0.4,0.8-0.6l0.1-0.1c0.2-0.2,0.3-0.4,0.5-0.5
	c9.2-7.6,18.2-15.7,26.7-24.3c2-2,3.9-3.9,5.8-5.9c-1.5,1.3-3.3,2-5.2,2c-1.9-0.1-3.9-0.9-5.4-2.4l-5.3-5.4
	c-7.1,7.1-14.3,13.8-22,20.3l0,0l0,0l-32.7-33.7c7.7-6.4,15.1-13.2,22-20.4l32.7,33.7l5.3,5.4c1.5,1.6,3.5,2.3,5.5,2.3
	c1.9,0,3.7-0.7,5.2-2c0.1-0.1,0.1-0.1,0.2-0.2c0.2-0.2,0.4-0.4,0.6-0.7c1-1.2,1.6-2.8,1.7-4.3c0,1.6-0.6,3.3-1.7,4.6
	c20.4-21.5,37.9-45.2,52.3-70.8c-0.3,0.3-0.6,0.7-1,1.1h0c0.4-0.4,0.7-0.8,1-1.2c0.2-0.3,0.4-0.7,0.6-1c0.2-0.4,0.3-0.7,0.4-1.1
	c6.3-11.3,12-22.8,17-34.7c0.2-0.4,0.4-0.9,0.6-1.4c0.1-0.1,0.1-0.2,0.2-0.4c0.3-0.5,0.5-1,0.6-1.5c0.2-0.6,0.3-1.3,0.3-1.9
	c0,0.7-0.1,1.3-0.3,2c6-14.6,11-29.5,15-44.6c0.1-0.3,0.3-0.6,0.4-0.8c0.1-0.3,0.2-0.7,0.3-1c0.1-0.5,0.1-1,0-1.5
	c3.8-15.2,6.8-30.8,8.6-46.4c0.1-0.3,0.2-0.7,0.3-1.1c0.1-0.5,0.1-0.9,0.2-1.4c0,0.1,0,0.1,0,0.2c1.5-13.3,2.2-26.7,2.2-40.3
	C764.2,400.2,764.1,395,763.9,389.9z M756.1,397.2c0.2,0,0.5,0,0.7,0c0.2,0,0.3,0,0.5-0.1c-0.2,0-0.3,0.1-0.5,0.1
	C756.6,397.2,756.3,397.2,756.1,397.2C756.1,397.2,756.1,397.2,756.1,397.2C756.1,397.2,756.1,397.2,756.1,397.2z M693.5,217.6
	l38.4,39.5c3,3,2.9,7.9-0.1,10.9c-1.5,1.5-3.4,2.2-5.4,2.2c-1.8,0-3.5-0.6-4.9-1.8c1.3,1,2.9,1.5,4.5,1.5c1.9,0,3.9-0.7,5.4-2.2
	c3-3,3.1-7.8,0.1-10.9L693,217.4l-6.3-6.5c0-0.1-0.1-0.1-0.1-0.2c0-0.1-0.1-0.1-0.1-0.2c-1.3-2.8-2.6-5.7-4-8.5
	c-0.1-0.3-0.3-0.5-0.4-0.8C686.1,206.6,689.8,212.1,693.5,217.6z M102.1,743.8L74,749.3L41.7,717l28.9-5.6l0.8,0.8L102.1,743.8
	L102.1,743.8z M112.1,754c0.8,0.8,1.9,1.5,2.9,1.8C114,755.5,113,754.9,112.1,754z M165.1,745.1c-1.5,1.4-3.4,2.2-5.3,2.2
	c-2,0-4-0.8-5.5-2.3l-8.7-9l-24.9,4.8l-0.4-0.5l-0.1-0.1l-30.8-31.6l-0.8-0.8l0,0l25.3-4.9l0.1,0l31.5,32.4l8.7,9
	c1.5,1.5,3.5,2.3,5.5,2.3c1.9,0,3.9-0.7,5.3-2.2c2-2,2.7-4.8,2.1-7.4C168,739.8,167.3,742.9,165.1,745.1z M213,736.5
	c-1.5,1.4-3.4,2.2-5.3,2.2c-2,0-4-0.8-5.5-2.3l-9.5-9.7l-28.8,5.6l-0.4-0.4l0,0l-0.1-0.1L132,699.5l0,0l29.1-5.7l0,0l0,0l0,0
	l31.6,32.5l9.5,9.7c1.5,1.5,3.5,2.3,5.5,2.3c1.9,0,3.9-0.7,5.3-2.2c1.8-1.8,2.6-4.4,2.2-6.8C215.7,731.8,215,734.6,213,736.5z
	 M257.2,728.2c-1.5,1.5-3.5,2.3-5.5,2.3c-1.9,0-3.9-0.7-5.4-2.2l-10.4-10.2l-24.9,4.8l-0.2-0.3l-0.1-0.1l-31.4-32.3l23.7-4.7
	l2.2-0.4c0,0,0,0,0,0c0,0,0,0,0,0l-2.2,0.4h0l32.8,32.2l0.1,0.1l10.4,10.2c1.5,1.5,3.4,2.2,5.4,2.2s4-0.8,5.5-2.3
	c1.5-1.5,2.2-3.4,2.2-5.3C259.4,724.6,258.7,726.6,257.2,728.2z M307.7,748c-1.5,1.5-3.4,2.2-5.4,2.2s-4-0.8-5.5-2.3l-22.9-23.5
	c-5.8-2.4-11.6-5-17.2-7.7l-0.5-0.4l-17.5-17.1c-1.8-0.7-3.6-1.4-5.3-2c1.8,0.7,3.5,1.3,5.3,1.9c5.3,1.9,10.6,3.7,16,5.3
	c0,0,0,0,0,0c5,1.5,10,2.9,15,4.2c-5-1.3-10-2.7-14.9-4.2c0,0-0.1,0-0.1,0l19.1,19.6l0.2,0.2l22.9,23.5c1.5,1.5,3.5,2.3,5.5,2.3
	c1.9,0,3.9-0.7,5.4-2.2c1.5-1.5,2.3-3.4,2.3-5.4C310,744.5,309.2,746.5,307.7,748z M361,759c-1.5,1.5-3.4,2.2-5.3,2.2
	c-2,0-4-0.8-5.5-2.3L334.7,743c-9.4-2-18.6-4.3-27.8-7l-0.1-0.1l-0.1-0.1l-23.2-23.8l0,0c0,0,0,0,0,0c2.1,0.4,4.2,0.9,6.4,1.3
	c6.4,1.3,12.8,2.4,19.2,3.3c0,0,0.1,0,0.1,0l25.6,26.4l15.5,15.9c1.5,1.5,3.5,2.3,5.5,2.3c1.9,0,3.9-0.7,5.3-2.2
	c2.5-2.5,3-6.3,1.3-9.3C364.1,752.5,363.6,756.4,361,759z M360.4,747.2l-0.1-0.1l0,0L332.9,719c0,0,0,0,0,0c8.8,0.6,17.6,1,26.5,1
	c1.2,0,2.3,0,3.4,0l28.9,29.7l0.1,0.1C381.3,749.4,370.7,748.6,360.4,747.2z M359.2,704.6c-52.4,0-102.8-11.5-149.7-34.3
	c-1-0.6-2.2-0.8-3.3-0.8c-0.5,0-1.1,0.1-1.6,0.2L35,702.7l22.1-175.2c0.1-1.6-0.1-3.2-0.9-4.6c-26.8-49.8-40.9-106.1-41-162.9v0
	c0-95,38.6-181.2,100.9-243.6c62.3-62.4,148.3-101,243.1-101c189.7,0,344,154.6,344,344.6c0,95-38.6,181.1-100.8,243.5
	C540.1,665.9,454.1,704.6,359.2,704.6z M511.5,747.8c-1.5,1.5-3.4,2.2-5.4,2.2s-4-0.8-5.5-2.3l-8.6-8.8l-0.1-0.1
	c-9.8,2.6-19.9,4.7-30,6.4c0,0,0,0,0,0l0,0L430.6,713c0,0,0,0,0,0c9.8-2,19.5-4.4,29.1-7.2c0,0,0,0,0,0c0.1,0,0.1,0,0.2,0l32.1,32.9
	l8.7,8.9c1.5,1.5,3.5,2.3,5.5,2.3C508.1,749.9,510.1,749.2,511.5,747.8C511.5,747.8,511.5,747.8,511.5,747.8z M552.5,716.5
	L552.5,716.5l-33.1-34c8.2-4.2,16.4-8.5,24.3-13.3l33.4,34.3h0h0C569.1,708.2,560.9,712.5,552.5,716.5z M659.2,637L659.2,637l-33-34
	l-0.8-0.8v0l0.8,0.8l0.2,0.2c6.2-7,11.9-14.1,17.5-21.6l33.1,34.1l0,0l0,0C671.4,623.1,665.5,630.2,659.2,637z M688.5,622.7
	c-0.4,0.1-0.9,0.1-1.3,0.1c0,0,0,0,0,0C687.6,622.8,688,622.8,688.5,622.7C688.5,622.7,688.5,622.7,688.5,622.7
	C688.5,622.7,688.5,622.7,688.5,622.7z M692.7,609.7c3,3,2.9,7.9-0.2,10.9c-0.4,0.4-0.8,0.7-1.2,0.9c0.4-0.3,0.8-0.6,1.1-0.9
	c3-3,3.1-7.8,0.2-10.9l-6.4-6.6l-33.6-34.7c0,0,0.1-0.1,0.1-0.1l0,0l0.3,0.3c1.8-2.8,3.6-5.6,5.3-8.4c3.4-5.1,6.6-10.2,9.8-15.5
	l33.6,34.5c-4.8,8.2-9.9,16.2-15.4,23.9L692.7,609.7z M711.3,585.7c1.9,0,3.9-0.7,5.4-2.2C715.2,585,713.3,585.7,711.3,585.7z
	 M729.7,547.8c-2,0-4-0.8-5.5-2.3l-3.6-3.7c0,0,0,0,0,0c-3.4,7.9-7.2,15.6-11.2,23.3L676,530.8c0,0,0-0.1,0.1-0.1
	c4.1-7.5,7.8-15.2,11.3-23c0,0,0,0,0-0.1l33.3,34.2l3.6,3.7C725.8,547,727.8,547.8,729.7,547.8C729.7,547.8,729.7,547.8,729.7,547.8
	z M735,545.7C735,545.7,734.9,545.8,735,545.7C735,545.7,735,545.7,735,545.7C735,545.7,735,545.7,735,545.7z M739.6,499.7l-3.1-3.2
	c-1.6,5.9-3.4,11.7-5.3,17.4c-1.4,4.1-2.8,8.2-4.3,12.3l-0.1-0.1l-32.9-33.9c0,0,0-0.1,0.1-0.1c3.8-9.5,7.1-19.2,10-28.9
	c0,0,0,0,0,0l32.5,33.4L739.6,499.7C739.6,499.7,739.6,499.7,739.6,499.7z M754.2,453.1c-2,0-4-0.8-5.5-2.3l-2.6-2.6
	c-1.3,10.4-3.1,20.6-5.3,30.7h0L708.8,446c0-0.1,0-0.1,0-0.2c2.4-9.8,4.4-19.7,6-29.7c0,0,0-0.1,0-0.1l31.3,32.1l2.6,2.6
	C750.2,452.2,752.2,453,754.2,453.1c1.4-0.1,3-0.5,4.3-1.4C757.2,452.7,755.7,453.1,754.2,453.1z M759.7,440.1l-11.7-12l-0.1-0.1
	l-30.6-31.4c0-0.1,0-0.1,0-0.2c1.1-11.2,1.7-22.5,1.8-33.9c0,0,0-0.1,0-0.1l29.5,30.4l2,2.1c0,0,0,0,0,0c0,0,0,0,0,0l-2-2.1
	c0.2,4.2,0.3,8.4,0.3,12.6c0,7.7-0.3,15.2-0.8,22.8l11.7,12c1.4,1.4,2.1,3.3,2.2,5.1C761.8,443.5,761.1,441.5,759.7,440.1z
	 M655.9,360.3C655.8,198.8,526.5,67,366.2,62.9c-2.5-0.1-5.1-0.1-7.7-0.1c-164,0-297.4,133.5-297.4,297.5c0,38,7.2,75.4,21.1,110.2
	c6.4,16.2,14.3,31.8,23.6,46.7l-15.5,117c-0.3,2.4,0.5,4.9,2.3,6.6c1.8,1.7,4.3,2.4,6.7,2L215,620.9c0,0,0,0,0.1,0
	c43.4,23.9,92.6,36.7,142.5,36.9c0.3,0,0.6,0,0.9,0c2.4,0,4.9,0,7.3-0.1c0.1,0,0.2,0,0.3,0C526.6,653.6,655.9,521.7,655.9,360.3
	L655.9,360.3z M312.4,362c-0.2,0.4-0.4,0.8-0.6,1.2c-1.5,3.7-1.8,6.8-1.5,9.5c-10-12.3-18.8-25.6-26.5-40.1L312.4,362z M322.7,350.4
	l-33.8-34.8l16.7-18.5c0.1-0.1,0.2-0.2,0.3-0.4c0.1-0.1,0.2-0.2,0.3-0.3c0,0,0.1-0.1,0.1-0.1l33.8,34.7c-0.3,0.4-0.5,0.8-0.8,1.1
	L322.7,350.4L322.7,350.4z M338.1,306.8l-25.5-26.1c0.4-3.5,0.1-7.1-0.8-10.8c-0.2-0.7-0.3-1.3-0.5-2l20.5,21l0.1,0.2l-0.2-0.2
	L338.1,306.8z M309,234.9c4.2,4.6,6.4,8.2,8.7,14.5l1.5,4.5L299,233.1l-4.4-12.4C300.4,226.1,305.8,231.4,309,234.9z M295,267.2
	c0.1,0.2,0.1,0.3,0.2,0.5c4.2,9.7,1.6,15.2-1.2,18.8l-26.1,29.1c-0.6,0.6-1.1,1.3-1.4,2.1c-3.1,7.3-1.3,12.8,1,16.2
	c25.2,51,66.2,91.2,121.9,119.3c3.6,2.2,9.1,3.8,16.6,0.4c0.4-0.2,0.8-0.4,1.2-0.6c0,0,0.1,0,0.1,0c0.1,0,0.1-0.1,0.2-0.1
	c0.1,0,0.1-0.1,0.2-0.1c0.3-0.2,0.5-0.4,0.8-0.6c0.4-0.3,0.7-0.6,1-0.9l36.2-39.6c0,0,0,0,0.1,0c0.9-0.6,4.1-0.9,9,0.5
	c42.7,21.7,68.7,37.7,73.1,42.8c0.6,4.7-0.4,22.5-10.8,38.5c-5,7.7-11.5,14.1-19.3,19c-7.8,4.9-16.9,8.4-27.3,10.4
	c-11,2.2-22.5,2.5-35.1,0.8c-36.2-9.6-72.2-25.3-107-46.7c-44.1-32.1-79.2-72.5-110.5-127.4c-38.6-67.6-33-126.5,14.6-153.8
	c3.9-2.2,10.1-3.5,16.8-3.5c5.3-0.1,10.9,0.5,16.2,1.8c2.7,1.7,5,5.1,6.8,10L295,267.2z M376.5,519.4c0.1,0,0.2,0.1,0.3,0.1
	l10.5,10.8c-4.5-2.6-9-5.2-13.5-8c-4.3-3.1-8.6-6.4-13-10C366.1,514.8,371.3,517.2,376.5,519.4z M428.9,550.9l-18-18.5
	c7,2.2,13.9,4.3,21,6.2c0.3,0.1,0.6,0.1,0.9,0.2c1.5,0.2,3,0.4,4.4,0.5c0.1,0,0.1,0,0.2,0l22.9,23.6c-10.4-3.4-20.9-7.4-31.2-11.8
	L428.9,550.9z M536.5,561.5L503,527.1c8.7-5,15.5-11,20.7-17.1l34.1,35.1C552.1,551.9,544.9,557.4,536.5,561.5L536.5,561.5z
	 M573.1,500.3c0.6,3.9-0.1,17.5-6.8,31.4l-33.6-34.6c0.2-0.4,0.4-0.8,0.6-1.1c5-9.1,7.8-18.8,9.1-27
	C557.1,483.1,570.3,496.4,573.1,500.3z M488.5,569.7l-0.1-0.1l-29-29.8c4.7-0.3,9.4-0.9,14-1.9c5.3-1.1,10.2-2.4,14.7-4
	c0,0,0.1,0,0.1-0.1l0,0c0,0,0,0-0.1,0l32.3,33.2c-1.5,0.4-3,0.8-4.6,1.1C507.2,569.9,498.1,570.4,488.5,569.7z M76.3,360.1
	c0-5.2,0.2-10.3,0.4-15.4c0.6-10.5,1.7-20.9,3.4-31.1c1-6.2,2.2-12.2,3.7-18.3c2.2-9.5,5-18.8,8.1-27.9c1.9-5.3,3.9-10.6,6-15.8
	c3.5-8.4,7.4-16.5,11.6-24.4c2.5-4.7,5.2-9.3,7.9-13.9c4.9-8.1,10.3-15.9,15.9-23.4c3.1-4.1,6.3-8.1,9.7-12.1
	c6-7.1,12.4-13.9,19-20.4c3.7-3.6,7.4-7,11.3-10.4c6.8-5.9,13.8-11.4,21.1-16.7c4.2-3,8.5-5.9,12.9-8.7c7.8-5,15.9-9.6,24.2-13.8
	c4.8-2.4,9.7-4.7,14.7-6.9c8.2-3.6,16.6-6.7,25.2-9.5c5.5-1.8,11-3.4,16.7-4.9c8.6-2.2,17.4-4,26.4-5.4c6.3-1,12.7-1.8,19.2-2.3
	c8.1-0.7,16.3-1.1,24.6-1.1c1,0,2,0,3.1,0c7.6,0.1,15.1,0.5,22.5,1.1c10.1,0.9,20,2.4,29.8,4.3c9.7,1.9,19.2,4.4,28.5,7.3
	c9.8,3.1,19.3,6.6,28.6,10.7c16.4,7.1,31.9,15.8,46.5,25.8c4.1,2.8,8.2,5.8,12.1,8.8c-0.3-0.1-0.6-0.3-0.9-0.4
	c-3.5-2.7-7.1-5.3-10.7-7.8l-0.3-0.3c-14.6-10-30.1-18.6-46.5-25.8l18.8,19.3l12.1,12.6l-12.2-12.5l-0.3-0.3
	c-8-2.4-15.9-4.5-24.2-6.2c0,0,0,0,0,0l-23-23.6c-9.3-2.9-18.8-5.3-28.5-7.3l26.1,26.8l15.3,15.9c0.3,0.3,0.7,0.6,1.1,0.9
	c-0.5-0.3-0.9-0.7-1.4-1.1l-15.1-15.5l-0.2-0.2c-9-1.1-18.1-1.8-27.4-2.1l-28.1-28.8l-0.1-0.1c-7.4-0.7-14.9-1.1-22.5-1.1l29.5,30.4
	c-8.8,0.3-17.5,1.1-26.2,2.3l-0.1-0.1l-30.6-31.5l-0.1-0.1c-6.5,0.6-12.8,1.3-19.2,2.3l31.5,32.3l10.1,10.6c1.5,1.5,3.5,2.3,5.5,2.3
	c0.7,0,1.5-0.1,2.2-0.3c0.6-0.1,1.2-0.4,1.7-0.7c-0.6,0.3-1.2,0.6-1.8,0.8c13-1.8,26.3-2.8,39.8-2.8c66.2,0,127.1,22.9,175.3,61.3
	c38.4,48.2,61.4,109.2,61.4,175.5c0,63.6-21.2,122.4-56.8,169.7c5.6-15.8,5.8-30.7,3.8-35.5c-2-4.9-18.2-21.6-48.2-49.6
	c-3.5-3.9-11.3-9.9-30.6-21c-18.4-10.6-39.5-21.5-47.7-25.6c-0.4-0.2-0.7-0.3-1.1-0.5c-10.6-3.4-19.8-2.2-25.2,3.2
	c-0.1,0.1-0.2,0.2-0.2,0.2L399.1,440c-0.9,0.4-1.6,0.5-1.8,0.4c-0.2-0.2-0.5-0.3-0.7-0.4c-17-8.6-32.5-18.2-46.4-28.8
	c-9.1-12-17-25-23.9-38.9c-0.2-0.4-0.4-0.8-0.7-1.1c-0.1-0.1-0.1-0.1-0.1-0.1s0-0.2,0.1-0.7l25.3-28.1c0.1-0.1,0.2-0.2,0.3-0.4
	c7.8-9.9,9-21.4,3.5-34.3l-22.6-63.2c-3.1-8.3-6.1-13.4-11.7-19.6c-9.9-10.9-38.4-36.4-41.4-39c-2.1-2.3-4.5-4.2-7.2-5.5
	c-0.5-0.2-1-0.4-1.5-0.6c-9.3-2.5-22-3.5-33-1.4c36-26.4,78.4-44.5,124.5-51.4c-2,0-4-0.8-5.5-2.3l-10.2-10.5
	c-8.6,1.7-17,3.8-25.3,6.1l-0.2-0.2l-0.1-0.1l-32.1-33.1l-0.1-0.1c-5.6,1.4-11.2,3.1-16.7,4.9l32.6,33.6l7.6,7.8
	c1.5,1.5,3.5,2.3,5.5,2.3c1.9,0,3.9-0.7,5.3-2.2c1.3-1.3,2-2.9,2.2-4.6c-0.2,1.8-0.9,3.5-2.3,4.9c-1.5,1.5-3.4,2.2-5.3,2.2
	c-2,0-4-0.8-5.5-2.3l-7.5-7.8c-8.3,3-16.4,6.3-24.4,10l-0.3-0.3l-33.2-34.1c-5,2.2-9.9,4.5-14.7,6.9l0.1,0.1l33.3,34.3l0.1,0.1
	c-8.2,4.3-16.2,9-23.8,14.1l-0.1-0.1L207.7,122l-0.1-0.1c-4.4,2.8-8.7,5.7-12.9,8.7l33.9,34.9l4.4,4.6c1.5,1.5,3.5,2.3,5.5,2.3
	c1.9,0,3.9-0.7,5.3-2.2c1.8-1.8,2.6-4.4,2.2-6.8c0.5,2.5-0.2,5.2-2.2,7.2c-1.5,1.4-3.4,2.2-5.3,2.2c-2,0-4-0.8-5.5-2.3l-4.4-4.6
	c-7.2,5.3-14.1,10.8-20.8,16.7l-0.3-0.3l-34.1-35c-3.9,3.4-7.6,6.8-11.3,10.4l0.1,0.1l34,35l0.1,0.1c-6.6,6.4-12.9,13.1-18.9,20.2
	l-0.1-0.1l-34-35l-0.1-0.1c-3.3,3.9-6.6,8-9.7,12.1l34.1,35l2.5,2.7c1.5,1.5,3.5,2.3,5.5,2.3c1.9,0,3.9-0.7,5.4-2.2
	c2.5-2.5,3-6.4,1.2-9.4c2.1,3,1.7,7.2-0.9,9.9c-1.5,1.5-3.4,2.2-5.4,2.2s-4-0.8-5.5-2.3l-2.5-2.5c-5.6,7.4-11,15-15.9,23l-0.3-0.3
	l-0.1-0.1l-33.8-34.8l-0.1-0.1c-2.8,4.5-5.4,9.2-7.9,13.9l33.8,34.7l3.7,4c1.5,1.5,3.5,2.3,5.5,2.3c1.9,0,3.9-0.7,5.4-2.2
	c2.1-2.1,2.8-5.2,1.9-7.9c1.2,2.8,0.6,6.2-1.7,8.5c-1.5,1.5-3.4,2.2-5.4,2.2s-4-0.8-5.5-2.3l-3.8-3.9c-4.2,7.7-8.2,15.7-11.8,23.8
	l-0.4-0.4L98,251.7c-2.2,5.2-4.2,10.5-6,15.8l33.2,34.2c-3.3,9-6.2,18-8.7,27.3l0,0l-32.6-33.6l0,0c-1.4,6-2.6,12.1-3.7,18.3
	l32.1,33l1.7,1.8c1.5,1.5,3.5,2.3,5.5,2.3c1.9,0,3.9-0.7,5.3-2.2c2.1-2.1,2.8-5,2-7.6c1.1,2.8,0.5,6.2-1.8,8.4
	c-1.5,1.4-3.4,2.2-5.3,2.2c-2,0-4-0.8-5.5-2.3l-1.6-1.7c-2,9.6-3.4,19.5-4.4,29.5l-0.2-0.3l0,0l-31.1-32l0,0
	c-0.3,5.1-0.4,10.3-0.4,15.4c0,2.1,0,4.2,0.1,6.2l30.1,31l1.6,1.8c1.5,1.5,3.5,2.3,5.5,2.3c1.9,0,3.9-0.7,5.3-2.2
	c2.1-2.1,2.8-5,2-7.6c1.1,2.8,0.5,6.2-1.8,8.4c-1.5,1.4-3.4,2.2-5.3,2.2c-2,0-4-0.8-5.5-2.3l-1.6-1.6c-0.1,2.7-0.1,5.4-0.1,8.2
	c0,7.3,0.3,14.6,0.9,21.9l-0.3-0.3l-28.1-27.9c0-0.1,0-0.2,0-0.2c-1.6-11.1-2.5-22.4-2.8-33.8C76.4,364.2,76.3,362.1,76.3,360.1z
	 M110,452.5l0.2,0.2c1.1,7.1,2.5,14,4.2,20.9c0.2,0.7,0.3,1.4,0.5,2.1l-23.2-23.9c-2.8-8.2-5.3-16.4-7.3-24.8L110,452.5z
	 M131.4,525.5l-9.9-10.3c0,0.1,0,0.2,0,0.3l-0.1-0.1c0,0,0,0,0,0c0-0.1,0-0.2,0-0.3c0-1.4-0.4-2.7-1.2-3.9c-4-6.2-7.6-12.6-11-19.1
	l15.3,15.8c0.1,0.4,0.3,0.8,0.4,1.1c0,0,0,0,0,0l-0.1-0.1C126.8,514.5,129.1,520,131.4,525.5z M150.8,566l-3.6,27l-31.7-32.6
	l3.4-25.7l28.3,29.2c0.3,0.3,0.6,0.5,0.8,0.8C148.9,565.3,149.8,565.8,150.8,566z M144.5,612.3l-0.8,6.4l-19.9,3.7l-14.5-14.9
	l3.7-27.6l31.6,32.5v0L144.5,612.3z M358.7,643.6c-48.5,0-96.4-12.5-138.4-36.3c-1.4-1.7-2.7-2-4-2c-0.5,0-0.9,0-1.4,0.1l-55.3,10.4
	l0.5-3.9c0.1-0.2,0.2-0.5,0.2-0.7c0.1-0.3,0.1-0.6,0.1-0.8c0-0.5,0-1-0.1-1.5c0.2,0.8,0.2,1.6,0.2,2.5l6.4-48.4
	c0.2-1.8-0.2-3.6-1.1-5.1c-28.7-45.1-43.8-97.4-43.8-151.1c0-66.6,23.2-127.8,61.9-176.2c-3.1,8.1-5.1,16.8-6,26.1
	c-2.9,30.4,6.4,65.5,26.9,101.4c20.9,36.6,43.5,67.1,69.3,93.1c4.5,4.8,9.5,10.1,14.8,15.6c29.4,30.4,55.1,53.6,76.4,69.1
	c0.2,0.1,0.3,0.2,0.5,0.3c36.3,22.4,73.9,38.8,111.8,48.7c0.3,0.1,0.6,0.1,0.9,0.2c6.3,0.9,12.4,1.3,18.3,1.3c7.6,0,15-0.7,22.2-2.1
	c7.4-1.5,13.9-3.5,19.8-5.9C489.9,619.1,427.1,643.6,358.7,643.6z"/>
</svg>
