<svg version="1.1" id="Layer_1" xmlns:serif="http://www.serif.com/"
	 xmlns="http://www.w3.org/2000/svg" xmlns:xlink="http://www.w3.org/1999/xlink" x="0px" y="0px" viewBox="0 0 748.8 542.8"
	 style="enable-background:new 0 0 748.8 542.8;" xml:space="preserve">
<path var:color.fill="#000" d="M740,158.7c-4.4-35-15.4-60.2-33.9-77.2c-0.1-0.1-0.1-0.2-0.2-0.3c-0.2-0.3-0.4-0.6-0.7-0.8L669.7,44
	c-0.2-0.2-0.3-0.4-0.5-0.6c-1.1-1.3-2.2-2.6-3.4-3.8c-17.5-18.7-42.5-29-76.5-31.6C445.5-2.7,294-2.7,112.5,8
	C51.3,11.6,15.1,47.7,7.8,112.3c-10.4,92.2-10.4,183.5,0,271.3c3.2,27.3,10.5,48.7,22,64.8c0.2,0.3,0.4,0.6,0.7,0.9
	c1.5,2,3.1,4,4.7,5.9c0,0,0,0,0,0c0.4,0.7,0.8,1.5,1.4,2.1l45.2,46.3c0.3,0.3,0.5,0.5,0.8,0.7c1.4,1.1,3,1.6,4.7,1.6
	c2,0,3.9-0.7,5.4-2.1c0.6-0.6,1.1-1.3,1.4-2c-0.4,1.1-1,2.2-1.9,3.1c-1.5,1.5-3.4,2.2-5.4,2.2c-1.7,0-3.3-0.5-4.7-1.6
	c17.2,18,41.7,27.8,74.7,30c86.6,5.7,168.8,8.5,247.9,8.5s155.1-2.8,228.9-8.5c61.5-4.8,90.1-27.3,102.2-83.9
	c-0.3,0.6-0.7,1.1-1.2,1.6c-1.5,1.5-3.4,2.2-5.4,2.2s-4-0.8-5.5-2.3l-2.5-2.5c-2.8,12-6.2,21.9-10.7,30.1l-0.1-0.1l-34.2-35.1
	c0-0.1,0.1-0.1,0.1-0.2c5-8.2,9-17.7,12.2-28.7l32.7,33.6l2.5,2.5c1.5,1.5,3.5,2.3,5.5,2.3c1.9,0,3.9-0.7,5.4-2.2
	c0.5-0.5,1-1.2,1.3-1.8c0,0.2-0.1,0.4-0.1,0.6c0.7-1.3,1.1-2.7,1.1-4.1c0-0.3,0-0.7,0-1c0.9-4.8,1.7-9.8,2.4-15.1
	C751.8,342.3,751.8,253.5,740,158.7z M743.6,340.6c-1.5,1.5-3.4,2.2-5.4,2.2c-1.9,0-3.8-0.7-5.3-2.1c-0.5,11.9-1.3,23.7-2.2,35.5
	l0,0l-31.1-31.9c0-0.1,0-0.1,0-0.2c1.1-11.6,2-23.4,2.7-35.1l30.4,31.2c0.1,0.1,0.2,0.1,0.2,0.2c1.5,1.4,3.4,2.1,5.3,2.1
	c1.9,0,3.9-0.7,5.4-2.2c1.5-1.5,2.2-3.4,2.3-5.3C745.9,337,745.1,339.1,743.6,340.6z M743.6,283.6c-1.5,1.5-3.4,2.2-5.4,2.2
	c-1.5,0-3.1-0.5-4.4-1.4c0.1,11.6,0.1,23.2-0.2,34.7l0,0l-30.3-31c0-0.1,0-0.2,0-0.3c0.4-11.3,0.7-22.5,0.7-33.9l28.6,29.4
	c0.3,0.3,0.7,0.7,1.1,0.9c1.3,0.9,2.9,1.4,4.4,1.4c1.9,0,3.9-0.7,5.4-2.2c2.6-2.6,3-6.5,1.2-9.5C746.6,276.9,746.2,281,743.6,283.6z
	 M732.1,176c1.9,0,3.9-0.7,5.4-2.2c2.6-2.6,3-6.5,1.2-9.5c2,3,1.6,7.1-1.1,9.7c-1.5,1.5-3.4,2.2-5.4,2.2s-4-0.8-5.5-2.3
	c1.2,10.3,2.2,20.4,3.1,30.6l12.4,12.7c3,3,2.9,7.9-0.1,10.9c-1.5,1.5-3.4,2.2-5.4,2.2c-1.8,0-3.7-0.7-5.1-2
	c0.7,11.3,1.3,22.5,1.7,33.6l-0.1-0.1l-29.4-30.1c0-0.1,0-0.3,0-0.4c-0.2-10.9-0.6-21.7-1.1-32.7l28.4,29.2c0.1,0.1,0.3,0.2,0.4,0.4
	c1.5,1.3,3.3,2,5.1,2c1.9,0,3.9-0.7,5.4-2.2c3-3,3.1-7.8,0.1-10.9l-12.4-12.7l-28.4-29.1c0-0.2,0-0.4,0-0.5
	c-0.7-9.8-1.5-19.7-2.5-29.7l27.8,28.6C728.1,175.2,730.1,176,732.1,176z M167.1,531.9c-1.5,1.5-3.4,2.2-5.4,2.2s-4-0.8-5.5-2.3
	l-12.6-12.9c-20.7-3.3-36.8-10.5-48.7-21.9c-0.1-0.8-0.4-1.6-0.8-2.4c-0.3-0.6-0.7-1.2-1.2-1.7l-4.1-4.2l0,0c-1.4-1.6-3-3.3-4.6-5.1
	c8.6,2.2,18,3.6,28.3,4.2c0.9,0.1,1.7,0.1,2.6,0.2c2.6,0.2,5.2,0.3,7.8,0.5c-2.6-0.2-5.3-0.3-7.9-0.5l29,29.8l12.6,12.9
	c1.5,1.5,3.5,2.3,5.5,2.3c1.9,0,3.9-0.7,5.4-2.2c0.7-0.7,1.2-1.5,1.6-2.3C168.7,529.7,168.1,530.9,167.1,531.9z M221.1,531.8
	c-1.5,1.5-3.4,2.2-5.4,2.2s-4-0.8-5.5-2.3l-8.5-8.7c-10.9-0.6-22.1-1.2-33.2-2c-0.3-0.4-0.5-0.7-0.9-1.1l-0.1-0.1l-29.7-30.4
	c0,0,0.1,0,0.1,0c11.6,0.7,23,1.3,34.4,1.9l29.9,30.7l8.5,8.7c1.5,1.5,3.5,2.3,5.5,2.3c1.9,0,3.9-0.7,5.4-2.2c0.5-0.5,1-1.1,1.3-1.7
	C222.5,530.1,221.9,531,221.1,531.8z M330.8,536.1c-1.5,1.5-3.4,2.2-5.4,2.2s-4-0.8-5.5-2.3l-8.5-8.7c-10.7-0.3-21.5-0.6-32.3-1
	c-0.1-0.3-0.2-0.6-0.3-0.9c-0.4-0.9-0.9-1.8-1.6-2.5l-27.8-28.3c-7.4-0.2-14.8-0.5-22.2-0.8l30.1,30.9l8.8,9
	c1.5,1.5,3.5,2.3,5.5,2.3c1.9,0,3.9-0.7,5.4-2.2c0.8-0.7,1.3-1.6,1.7-2.5c-0.4,1.2-1,2.4-2,3.4c-1.5,1.5-3.4,2.2-5.4,2.2
	s-4-0.8-5.5-2.3l-8.8-9c-11-0.5-22-1-33.2-1.5c-0.1-0.3-0.1-0.7-0.2-1c-0.3-1.1-1-2.2-1.8-3.1l-27-27.6c10.9,0.5,21.7,0.9,32.5,1.4
	c7.4,0.3,14.8,0.5,22.2,0.8c10.7,0.3,21.4,0.6,32,0.9c0.2,0,0.4,0,0.6,0c-0.3,0-0.5,0-0.8,0l30.3,31.1l8.5,8.7
	c1.5,1.5,3.5,2.3,5.5,2.3c1.9,0,3.9-0.7,5.4-2.2c0.9-0.8,1.5-1.8,1.9-2.9C332.5,533.9,331.8,535.1,330.8,536.1z M443.5,536
	c-1.5,1.5-3.4,2.2-5.4,2.2s-4-0.8-5.5-2.3l-7.3-7.4c-12.1,0.1-24.3,0.1-36.5,0c0-0.2-0.1-0.5-0.2-0.7c-0.3-1.2-1-2.3-1.9-3.3
	l-27.5-28.1c-7.1,0-14.3,0-21.5-0.1l30.6,31.4l7.4,7.6c1.5,1.5,3.5,2.3,5.5,2.3c1.9,0,3.9-0.7,5.4-2.2c0.7-0.7,1.2-1.4,1.6-2.3
	c-0.4,1.1-1,2.1-1.8,3c-1.5,1.5-3.4,2.2-5.4,2.2s-4-0.8-5.5-2.3l-7.4-7.6c-11.6-0.1-23.3-0.3-35.1-0.6c-0.1-0.2-0.1-0.5-0.2-0.7
	c-0.4-0.9-0.9-1.8-1.6-2.6l-28-28.6c-0.6,0-1.1,0-1.7,0c0.6,0,1.3,0,1.9,0c11.6,0.2,23,0.3,34.5,0.4c7.2,0,14.4,0.1,21.5,0.1
	c0.4,0,0.8,0,1.1,0c11.4,0,22.8-0.1,34.1-0.2l30.8,31.6l7.3,7.4c1.5,1.5,3.5,2.3,5.5,2.3c1.9,0,3.9-0.7,5.4-2.2
	c1.2-1.2,2-2.8,2.2-4.4C445.7,532.8,445,534.6,443.5,536z M503.6,536c-1.5,1.5-3.4,2.2-5.4,2.2s-4-0.8-5.5-2.3l-8.2-8.4
	c-12.8,0.3-25.7,0.6-38.7,0.7c0-0.2-0.1-0.5-0.2-0.7c-0.3-1.1-1-2.2-1.8-3.1l-28.1-28.5c0.1,0,0.1,0,0.2,0
	c12.5-0.2,25.1-0.5,37.5-0.9l31.1,31.9l8.2,8.4c1.5,1.5,3.5,2.3,5.5,2.3c1.9,0,3.9-0.7,5.4-2.2c1.5-1.4,2.2-3.3,2.3-5.2
	C506,532.3,505.2,534.4,503.6,536z M563.6,536c-1.5,1.5-3.4,2.2-5.4,2.2s-4-0.8-5.5-2.3l-10.1-10.4c-12.4,0.6-24.8,1-37.3,1.4
	c-0.1-0.2-0.2-0.4-0.3-0.6c-0.3-0.6-0.8-1.2-1.3-1.8l-29.5-30.2c0.1,0,0.1,0,0.2,0c12.3-0.5,24.6-1,36.8-1.6l31.3,32.1l10.1,10.4
	c1.5,1.5,3.5,2.3,5.5,2.3c1.9,0,3.9-0.7,5.4-2.2c1.7-1.7,2.5-4.1,2.2-6.4C566.2,531.4,565.5,534.1,563.6,536z M674.6,525.4
	c-1.5,1.5-3.4,2.2-5.4,2.2s-4-0.8-5.5-2.3l-8-8.2c-6.8,1.3-14.3,2.3-22.5,2.9c-4.3,0.3-8.7,0.7-13.1,1l-0.6-0.6l-31.6-32.5
	c-6.6,0.5-13.3,1-20,1.5l31.5,32.4l10.2,10.5c1.5,1.5,3.5,2.3,5.5,2.3c1.9,0,3.9-0.7,5.4-2.2c1.8-1.8,2.5-4.3,2.2-6.6
	c0.5,2.5-0.2,5.2-2.1,7.2c-1.5,1.5-3.4,2.2-5.4,2.2s-4-0.8-5.5-2.3l-10.2-10.5c-11.9,0.8-23.8,1.5-35.8,2.1c0,0,0,0-0.1-0.1
	l-0.6-0.6l-31.4-32.2c0.1,0,0.1,0,0.2,0c12.2-0.7,24.2-1.4,36.3-2.3c6.7-0.5,13.4-0.9,20-1.5c0.4,0,0.9-0.1,1.3-0.1
	c12.4-1,23.5-2.6,33.4-5.2c4.5-1.2,8.7-2.5,12.7-4c-4,1.6-8.3,3-12.9,4.2l33,33.8l8,8.2c1.5,1.5,3.5,2.3,5.5,2.3
	c1.9,0,3.9-0.7,5.4-2.2c1.8-1.8,2.5-4.3,2.2-6.6C677.3,520.7,676.5,523.5,674.6,525.4z M701.5,493.5l4.2,4.3
	c1.5,1.5,3.5,2.3,5.5,2.3c1.9,0,3.9-0.7,5.4-2.2c1.5-1.5,2.2-3.4,2.3-5.3c0,2.1-0.7,4.1-2.3,5.7c-1.5,1.5-3.4,2.2-5.4,2.2
	s-4-0.8-5.5-2.3l-4.2-4.3c-0.9,1-1.8,1.9-2.7,2.9c-6.7,6.7-15.1,11.8-25.7,15.6l-0.5-0.5l-33.8-34.7c0.1,0,0.1-0.1,0.2-0.1
	c11.1-4.7,20.2-11,27.8-19.2L701.5,493.5z M680.2,381.7c-4.5,33.5-12.6,54.5-26.3,68.1c-13.6,13.5-33.9,20.6-65.7,23.1
	c-147,11.3-302.3,11.3-474.7,0c-56.4-3.7-83.6-30.9-90.7-91C12.5,295.2,12.5,205,22.7,114c6.4-57.2,36.9-87.8,90.6-91
	c90.5-5.4,173.4-8.1,251.7-8.1c78.2,0,151.6,2.7,223.2,8c57,4.3,84.5,31.5,92,91.1C691.9,207.5,691.9,295.1,680.2,381.7z
	 M692.5,89.4l1.7,1.7c0.5,0.5,1.1,0.9,1.7,1.3c1.2,0.7,2.5,1,3.8,1c1.9,0,3.9-0.7,5.4-2.2c0.6-0.6,1.1-1.2,1.5-1.9
	c-0.4,0.7-0.8,1.4-1.5,2c-1.5,1.5-3.4,2.2-5.4,2.2c-1.3,0-2.6-0.3-3.8-1c13.8,12.6,22.6,30.4,27.3,55.6l-0.1-0.1l-27-27.7
	c0-0.1,0-0.2,0-0.2c-0.3-2.7-0.6-5.4-1-8c-1.1-8.9-2.7-17.1-4.6-24.7L692.5,89.4z M735.2,399.8c-2,0-4-0.8-5.5-2.3l-0.8-0.8
	c-1.1,10.6-2.3,21.2-3.8,31.8c-0.2,1.1-0.3,2.1-0.5,3.2l0-0.1l-31.9-32.7c0-0.1,0-0.1,0-0.2c0.9-4.8,1.7-9.8,2.4-15.1
	c0.9-6.4,1.7-13,2.4-19.4l31.4,32.2l0.8,0.8c1.5,1.5,3.5,2.3,5.5,2.3c1.9,0,3.9-0.7,5.4-2.2c1.5-1.5,2.2-3.4,2.3-5.3
	c0,2-0.8,4.1-2.3,5.6C739.1,399.1,737.2,399.8,735.2,399.8z M464,241.6l-178.5-106c-2.3-1.4-5.2-1.4-7.5-0.1s-3.8,3.8-3.8,6.5v212
	c0,2.7,1.4,5.2,3.8,6.5c1.2,0.7,2.4,1,3.7,1s2.6-0.4,3.8-1.1l178.5-106c2.3-1.4,3.7-3.8,3.7-6.4S466.3,242.9,464,241.6z
	 M319.2,301.6l1,1.1c1.5,1.5,3.5,2.3,5.5,2.3c1.9,0,3.9-0.7,5.4-2.2c0.9-0.9,1.5-1.9,1.9-3c-0.4,1.2-1,2.3-2,3.3
	c-1.5,1.5-3.4,2.2-5.4,2.2s-4-0.8-5.5-2.3l-1-1.1V323l-5.7,3.4l-13.6,8.1l-10.7,6.4v-17.5h0l10.8,11l13.6-8.1l-24.4-24.9v-30.5v-22
	v-30.5v-22v-35v-6.2l0.1,0.1v5.9l30,30.8l2.5,2.7c1.5,1.5,3.5,2.3,5.5,2.3c1.9,0,3.9-0.7,5.4-2.2c0.9-0.9,1.5-1.9,1.9-3
	c-0.4,1.2-1,2.3-2,3.3c-1.5,1.5-3.4,2.2-5.4,2.2s-4-0.8-5.5-2.3l-2.5-2.6V227l-29.9-30.7v22l30,30.8l1,1.1c1.5,1.5,3.5,2.3,5.5,2.3
	c1.9,0,3.9-0.7,5.4-2.2c0.9-0.9,1.5-1.9,1.9-3c-0.4,1.2-1,2.3-2,3.3c-1.5,1.5-3.4,2.2-5.4,2.2s-4-0.8-5.5-2.3l-1-1.1v30.1
	l-29.9-30.7v22L319.2,301.6z M334.1,314V201.7l94.7,56.2L334.1,314z"/>
</svg>
