<?xml version="1.0" encoding="utf-8"?>
<!-- Generator: Adobe Illustrator 24.2.1, SVG Export Plug-In . SVG Version: 6.00 Build 0)  -->
<svg version="1.1" id="Layer_1" xmlns="http://www.w3.org/2000/svg" xmlns:xlink="http://www.w3.org/1999/xlink" x="0px" y="0px"
	 viewBox="0 0 279 173.4" style="enable-background:new 0 0 279 173.4;" xml:space="preserve">
<style type="text/css">
	.st0{fill:#3C56A6;}
	.st1{fill:#56C9EE;}
</style>
<g>
	<g>
		<g>
			<path class="st0" d="M82.3,8c17.6,0,33.8,6,46.5,16.1c1.8,1.4,3.9,2.1,6.1,2.1c0.8,0,1.7-0.1,2.5-0.3c5.3-1.3,10.9-2.1,16.6-2.1
				c21.8,0,41.2,10.3,53.2,26.3c1.9,2.5,4.7,4,7.8,4c0.3,0,0.5,0,0.8,0c1.4-0.1,2.8-0.2,4.2-0.2c28,0,50.7,22.2,50.7,49.6
				c0,9.5-2.8,18.4-7.5,25.9c-2.7,4.2-7.3,6.8-12.4,6.8c-34.3,0-180,0-210.5,0c-3.8,0-7.4-1.4-10.1-4c-14.8-14.2-23.6-34.5-22-56.7
				C10.8,39.2,41.3,9.9,78.4,8.1C79.7,8,81,8,82.3,8 M82.3,0c-1.4,0-2.9,0-4.3,0.1c-20,1-38.9,9.2-53.3,23
				C10.2,37,1.5,55.4,0.2,74.9c-1.6,23.5,7.3,46.5,24.4,63c4.2,4,9.8,6.2,15.8,6.2l138.4,0l72,0c7.9,0,15.2-4,19.4-10.6
				c5.7-9.1,8.8-19.5,8.8-30.1c0-31.7-26.4-57.5-58.8-57.5c-1.6,0-3.3,0.1-4.9,0.2c0,0,0,0,0,0c-0.5,0-1-0.3-1.3-0.7
				c-13.9-18.5-36.3-29.5-59.8-29.5c-6.3,0-12.6,0.8-18.7,2.3c-0.1,0-0.3,0.1-0.4,0.1c-0.3,0-0.7-0.1-1-0.4C119.4,6.3,101,0,82.3,0
				L82.3,0z"/>
		</g>
		<g>
			<path class="st1" d="M45.6,77.7c3,0,5.8,0.2,8.3,0.5c2.5,0.3,5.3,1,8.3,2.1c3,1.1,5.5,2.5,7.5,4.3c2,1.8,3.7,4.4,5.1,7.6
				c1.4,3.3,2.1,7.2,2.1,11.6c0,4.3-0.7,8-2,11.3c-1.4,3.2-3.1,5.8-5.1,7.6c-2.1,1.8-4.5,3.3-7.4,4.4c-2.9,1.1-5.7,1.9-8.3,2.3
				c-2.6,0.4-5.4,0.6-8.4,0.6h-8.8c-0.5,0-0.7-0.2-0.7-0.6v-20.5h10.2v11.5c1.6,0.1,3.2,0.1,4.6,0c1.4-0.1,3.2-0.5,5.2-1
				c2-0.6,3.8-1.4,5.2-2.5c1.4-1.1,2.7-2.8,3.7-5c1-2.2,1.5-4.9,1.5-7.9c0-5.9-1.8-10.2-5.5-13c-3.7-2.7-8.6-3.9-14.7-3.6v11.6H36.1
				V78.3c0-0.4,0.2-0.6,0.7-0.6H45.6z"/>
			<path class="st1" d="M115.5,129.2c0.1,0.2,0.1,0.4,0,0.6c-0.1,0.2-0.3,0.3-0.6,0.3h-9.6c-0.4,0-0.6-0.1-0.7-0.4l-9.8-20.7h-5.7
				v20.5c0,0.4-0.2,0.6-0.7,0.6h-8.8c-0.4,0-0.7-0.2-0.7-0.6V99.3h10.2H97c5.3,0,7.9-2,7.9-6c0-1.3-0.3-2.5-0.9-3.4
				c-0.6-0.9-1.4-1.5-2.4-1.9c-1-0.3-1.8-0.6-2.5-0.7c-0.7-0.1-1.3-0.2-2-0.2h-7.8H79v-8.9c0-0.4,0.2-0.6,0.7-0.6H97
				c0.7,0,1.4,0,2,0c0.6,0,1.6,0.1,2.9,0.4c1.3,0.2,2.5,0.5,3.5,0.9c1,0.4,2.2,0.9,3.5,1.7c1.3,0.8,2.3,1.7,3.2,2.7
				c0.8,1.1,1.6,2.5,2.1,4.2c0.6,1.7,0.9,3.6,0.9,5.7c0,7.1-3.3,11.7-9.8,14.1c1.2,2.7,3,6.4,5.3,11.3
				C112.9,123.5,114.5,127,115.5,129.2z"/>
			<path class="st1" d="M142.8,120.3v9.7h-24.7c-0.5,0-0.7-0.2-0.7-0.6V78.3c0-0.4,0.2-0.6,0.7-0.6h24.7v9.5h-15.2V99h21
				c0.5,0,0.7,0.2,0.7,0.6v8.3c0,0.4-0.2,0.6-0.7,0.6h-21v11.8H142.8z"/>
			<path class="st1" d="M193,129.2c0.1,0.2,0.1,0.3-0.1,0.5c-0.1,0.2-0.3,0.3-0.5,0.3h-9.2c-0.3,0-0.5-0.1-0.6-0.4L172,100.5
				l-10.4,29.1c-0.1,0.3-0.3,0.4-0.7,0.4h-9.2c-0.3,0-0.5-0.1-0.6-0.2c-0.1-0.2-0.1-0.3,0-0.6l20.3-51.1c0.1-0.3,0.3-0.4,0.7-0.4
				c0.4,0,0.6,0.1,0.7,0.4L193,129.2z"/>
			<path class="st1" d="M243,117.4v-16.6l-13.6,26.7c-0.1,0.3-0.3,0.4-0.6,0.4h-8.2c-0.4,0-0.6-0.1-0.7-0.4l-14.5-27.4v29.3
				c0,0.4-0.2,0.6-0.7,0.6h-8.8c-0.4,0-0.7-0.2-0.7-0.6V78.3c0-0.4,0.2-0.6,0.7-0.6h9c0.4,0,0.6,0.1,0.7,0.4l19.2,38.3l18.3-38.3
				c0.2-0.3,0.4-0.4,0.7-0.4h8.8c0.5,0,0.7,0.2,0.7,0.6v39.1H243z"/>
		</g>
		<g>
			<path class="st1" d="M45.5,150.5c-0.1-0.2-0.4-0.4-0.6-0.4h-1.3c-0.3,0-0.5,0.2-0.6,0.4l-7.5,16.9c-0.1,0.2-0.1,0.5,0.1,0.7
				c0.1,0.2,0.3,0.3,0.6,0.3h1.1c0.3,0,0.5-0.2,0.6-0.4l2.1-4.8h8.6l2.1,4.8c0.1,0.3,0.4,0.4,0.6,0.4h1.1c0.2,0,0.5-0.1,0.6-0.3
				c0.1-0.2,0.1-0.4,0.1-0.7L45.5,150.5z M41,160.8l3.3-7.4l3.3,7.4H41z"/>
			<path class="st1" d="M74.9,166.7L75,167l0.1-0.3C75,166.7,75,166.7,74.9,166.7C74.9,166.7,74.9,166.7,74.9,166.7z"/>
			<path class="st1" d="M69.8,151.5l-0.1,0.3c0,0,0.1,0,0.1,0c0,0,0.1,0,0.1,0L69.8,151.5z"/>
			<path class="st1" d="M64.6,166.7l0.1,0.3l0.1-0.3C64.7,166.7,64.7,166.7,64.6,166.7C64.7,166.7,64.6,166.7,64.6,166.7z"/>
			<path class="st1" d="M81.1,150.3c-0.1-0.2-0.3-0.3-0.6-0.3h-1c-0.3,0-0.6,0.2-0.7,0.5l-3.9,13l-4-13c-0.1-0.3-0.4-0.5-0.7-0.5h-1
				c-0.3,0-0.6,0.2-0.7,0.5l-4,13l-3.9-13c-0.1-0.3-0.4-0.5-0.7-0.5h-1c-0.2,0-0.4,0.1-0.6,0.3c-0.1,0.2-0.2,0.4-0.1,0.6l5.1,16.9
				c0.1,0.3,0.4,0.5,0.7,0.5h1c0.3,0,0.6-0.2,0.7-0.5l4-13.1l4,13.1c0.1,0.3,0.4,0.5,0.7,0.5h1c0.3,0,0.6-0.2,0.7-0.5l5.1-16.9
				C81.3,150.7,81.3,150.5,81.1,150.3z M75,167l-0.1-0.3c0,0,0.1,0,0.1,0c0,0,0.1,0,0.1,0L75,167z M69.7,151.8l0.1-0.3l0.1,0.3
				C69.9,151.8,69.8,151.8,69.7,151.8C69.8,151.8,69.7,151.8,69.7,151.8z M64.7,167l-0.1-0.3c0,0,0.1,0,0.1,0c0,0,0.1,0,0.1,0
				L64.7,167z"/>
			<path class="st1" d="M91.8,156.8c-0.6-0.6-1.3-1.1-2.1-1.4c-1.6-0.7-3.6-0.7-5.2,0c-0.8,0.3-1.5,0.8-2.1,1.4
				c-0.6,0.6-1.1,1.3-1.4,2.2c-0.4,0.8-0.5,1.8-0.5,2.8c0,1,0.2,1.9,0.5,2.8c0.3,0.8,0.8,1.6,1.4,2.2c0.6,0.6,1.3,1.1,2.1,1.4
				c0.8,0.3,1.7,0.5,2.6,0.5c0.9,0,1.8-0.2,2.6-0.5c0.8-0.3,1.5-0.8,2.1-1.4c0.6-0.6,1.1-1.3,1.4-2.2c0.4-0.8,0.5-1.8,0.5-2.8
				c0-1-0.2-1.9-0.5-2.8C92.9,158.1,92.4,157.4,91.8,156.8z M85.4,165.9c-0.5-0.2-1-0.5-1.4-0.9c-0.4-0.4-0.7-0.9-0.9-1.4
				c-0.2-0.6-0.3-1.2-0.3-1.9c0-0.7,0.1-1.3,0.3-1.9c0.2-0.6,0.5-1,0.9-1.4c0.4-0.4,0.8-0.7,1.4-0.9c0.5-0.2,1.1-0.3,1.7-0.3
				c0.6,0,1.1,0.1,1.7,0.3c0.5,0.2,1,0.5,1.4,0.9c0.4,0.4,0.7,0.9,0.9,1.4c0.2,0.6,0.3,1.2,0.3,1.9c0,0.7-0.1,1.3-0.3,1.9
				c-0.2,0.6-0.5,1-0.9,1.4c-0.4,0.4-0.9,0.7-1.4,0.9C87.7,166.4,86.5,166.4,85.4,165.9z"/>
			<path class="st1" d="M102.3,156.5v-1c0-0.4-0.3-0.7-0.7-0.7c-1.4,0-2.5,0.3-3.4,0.9c-0.2,0.1-0.4,0.3-0.5,0.4v-0.4
				c0-0.4-0.3-0.7-0.7-0.7h-1c-0.4,0-0.7,0.3-0.7,0.7v11.9c0,0.4,0.3,0.7,0.7,0.7h1c0.4,0,0.7-0.3,0.7-0.7v-6.4
				c0-0.6,0.1-1.2,0.3-1.7c0.2-0.5,0.4-0.9,0.7-1.3c0.3-0.4,0.7-0.6,1.2-0.8c0.5-0.2,1.1-0.3,1.7-0.3
				C102,157.2,102.3,156.9,102.3,156.5z"/>
			<path class="st1" d="M112.2,164.4C112.2,164.4,112.2,164.4,112.2,164.4l0.1-0.1C112.2,164.3,112.2,164.3,112.2,164.4z"/>
			<path class="st1" d="M112.3,159.2v-0.1C112.2,159.1,112.2,159.1,112.3,159.2C112.2,159.1,112.2,159.1,112.3,159.2z"/>
			<path class="st1" d="M112.9,149.1h-1c-0.4,0-0.7,0.3-0.7,0.7v6.6c-0.2-0.2-0.5-0.4-0.8-0.6c-0.4-0.3-0.9-0.5-1.4-0.7
				c-1.3-0.5-2.8-0.3-4,0.3c-0.7,0.4-1.4,0.9-1.9,1.5c-0.6,0.6-1,1.4-1.3,2.2c-0.3,0.8-0.5,1.7-0.5,2.7c0,0.9,0.2,1.8,0.5,2.7
				c0.3,0.8,0.8,1.6,1.3,2.2c0.6,0.6,1.2,1.1,1.9,1.5c0.8,0.4,1.6,0.6,2.4,0.6c0.5,0,1.1-0.1,1.6-0.3c0.5-0.2,1-0.4,1.4-0.7
				c0.3-0.2,0.5-0.4,0.8-0.6v0.7c0,0.4,0.3,0.7,0.7,0.7h1c0.4,0,0.7-0.3,0.7-0.7v-17.9C113.6,149.4,113.3,149.1,112.9,149.1z
				 M111.4,161.7c0,0.6-0.1,1.2-0.3,1.8c-0.2,0.6-0.5,1-0.8,1.5c-0.3,0.4-0.8,0.7-1.2,1c-0.9,0.5-2,0.5-2.9,0
				c-0.5-0.2-0.9-0.6-1.2-1c-0.4-0.4-0.6-0.9-0.8-1.5c-0.2-0.6-0.3-1.2-0.3-1.8c0-0.6,0.1-1.2,0.3-1.8c0.2-0.6,0.5-1,0.8-1.5
				c0.3-0.4,0.8-0.7,1.2-1c0.5-0.2,0.9-0.3,1.4-0.3c0.5,0,1,0.1,1.4,0.3c0.5,0.2,0.9,0.6,1.2,1c0.4,0.4,0.6,0.9,0.8,1.5
				C111.3,160.5,111.4,161.1,111.4,161.7z M112.2,164.4c0,0,0-0.1,0.1-0.1L112.2,164.4C112.2,164.4,112.2,164.4,112.2,164.4z
				 M112.3,159.2C112.2,159.1,112.2,159.1,112.3,159.2c0-0.1,0-0.1,0-0.1V159.2z"/>
			<path class="st1" d="M117.5,159.1C117.5,159.1,117.5,159.1,117.5,159.1L117.5,159.1C117.5,159.1,117.5,159.1,117.5,159.1z"/>
			<path class="st1" d="M117.5,164.3v0.1c0,0,0,0,0.1,0C117.5,164.3,117.5,164.3,117.5,164.3z"/>
			<path class="st1" d="M126.6,156.9c-0.6-0.6-1.2-1.1-1.9-1.5c-1.2-0.6-2.7-0.7-4-0.3c-0.5,0.2-1,0.4-1.4,0.7
				c-0.3,0.2-0.5,0.4-0.8,0.6v-0.7c0-0.4-0.3-0.7-0.7-0.7h-1c-0.4,0-0.7,0.3-0.7,0.7v16.9c0,0.4,0.3,0.7,0.7,0.7h1
				c0.4,0,0.7-0.3,0.7-0.7V167c0.2,0.2,0.5,0.4,0.8,0.6c0.4,0.3,0.9,0.5,1.4,0.7c1.3,0.5,2.8,0.3,4-0.3c0.7-0.4,1.4-0.9,1.9-1.5
				c0.5-0.6,1-1.3,1.3-2.2c0.3-0.8,0.5-1.7,0.5-2.7c0-0.9-0.2-1.8-0.5-2.7C127.6,158.2,127.1,157.5,126.6,156.9z M126,161.7
				c0,0.6-0.1,1.2-0.3,1.8c-0.2,0.6-0.5,1-0.8,1.5c-0.3,0.4-0.8,0.7-1.2,1c-0.9,0.5-2,0.5-2.9,0c-0.5-0.2-0.9-0.6-1.2-1
				c-0.4-0.4-0.6-0.9-0.8-1.5c-0.2-0.6-0.3-1.2-0.3-1.8c0-0.6,0.1-1.2,0.3-1.8c0.2-0.6,0.5-1,0.8-1.5c0.3-0.4,0.8-0.7,1.2-1
				c0.5-0.2,0.9-0.3,1.4-0.3s1,0.1,1.4,0.3c0.5,0.2,0.9,0.6,1.2,1c0.4,0.4,0.6,0.9,0.8,1.5C125.9,160.5,126,161.1,126,161.7z
				 M117.5,159.1C117.5,159.1,117.5,159.1,117.5,159.1L117.5,159.1C117.5,159.1,117.5,159.1,117.5,159.1z M117.5,164.3
				c0,0,0,0.1,0.1,0.1c0,0,0,0-0.1,0V164.3z"/>
			<path class="st1" d="M136.9,156.5v-1c0-0.4-0.3-0.7-0.7-0.7c-1.4,0-2.5,0.3-3.4,0.9c-0.2,0.1-0.4,0.3-0.5,0.4v-0.4
				c0-0.4-0.3-0.7-0.7-0.7h-1c-0.4,0-0.7,0.3-0.7,0.7v11.9c0,0.4,0.3,0.7,0.7,0.7h1c0.4,0,0.7-0.3,0.7-0.7v-6.4
				c0-0.6,0.1-1.2,0.3-1.7c0.2-0.5,0.4-0.9,0.7-1.3c0.3-0.4,0.7-0.6,1.2-0.8c0.5-0.2,1.1-0.3,1.7-0.3
				C136.6,157.2,136.9,156.9,136.9,156.5z"/>
			<path class="st1" d="M146.5,156.9c-0.5-0.6-1.2-1.1-2-1.5c-1.5-0.7-3.5-0.7-5.1,0c-0.8,0.4-1.4,0.9-2,1.5c-0.5,0.6-1,1.4-1.2,2.2
				c-0.3,0.8-0.4,1.7-0.4,2.6c0,0.9,0.1,1.8,0.4,2.6c0.3,0.8,0.7,1.6,1.2,2.2c0.5,0.6,1.2,1.1,2,1.5c0.8,0.4,1.6,0.6,2.5,0.6
				c1.2,0,2.2-0.2,3.1-0.7c0.8-0.5,1.5-1.1,2.2-1.9c0.2-0.3,0.2-0.7-0.1-0.9l-0.8-0.6c-0.1-0.1-0.3-0.2-0.5-0.2
				c-0.2,0-0.4,0.1-0.5,0.3c-0.4,0.5-0.9,1-1.4,1.3c-0.8,0.5-2.4,0.6-3.4,0.2c-0.4-0.2-0.8-0.5-1.2-0.9c-0.3-0.4-0.6-0.8-0.8-1.3
				c-0.1-0.3-0.2-0.6-0.3-0.9h9.2c0.4,0,0.7-0.3,0.7-0.7v-0.5c0-0.9-0.1-1.8-0.4-2.6C147.5,158.2,147,157.5,146.5,156.9z
				 M138.3,160.6c0.1-0.3,0.2-0.6,0.3-0.9c0.2-0.5,0.5-0.9,0.8-1.3c0.3-0.4,0.7-0.6,1.2-0.9c0.9-0.4,2.1-0.4,3,0
				c0.4,0.2,0.8,0.5,1.2,0.9c0.3,0.4,0.6,0.8,0.8,1.3c0.1,0.3,0.2,0.6,0.3,0.9H138.3z"/>
			<path class="st1" d="M158.2,161.6c-0.5-0.3-1.1-0.5-1.7-0.7c-0.6-0.2-1.3-0.3-2.1-0.5c-0.5-0.1-1-0.2-1.4-0.3
				c-0.4-0.1-0.7-0.2-1-0.4c-0.2-0.1-0.4-0.2-0.5-0.4c-0.1-0.1-0.1-0.3-0.1-0.5c0-0.2,0.1-0.4,0.2-0.6c0.2-0.2,0.4-0.4,0.6-0.5
				c0.3-0.2,0.6-0.3,1-0.4c0.8-0.2,1.5-0.2,2.3,0c0.4,0.1,0.7,0.2,1,0.4c0.3,0.1,0.5,0.3,0.6,0.5c0.1,0.2,0.2,0.4,0.2,0.6
				c0,0.4,0.3,0.7,0.7,0.7h1c0.4,0,0.7-0.3,0.7-0.7c0-0.6-0.2-1.2-0.5-1.7c-0.3-0.5-0.7-0.9-1.2-1.2c-0.5-0.3-1-0.6-1.7-0.7
				c-1.2-0.3-2.6-0.3-3.8,0c-0.6,0.2-1.2,0.4-1.7,0.7c-0.5,0.3-0.9,0.7-1.2,1.2c-0.3,0.5-0.5,1.1-0.5,1.7c0,0.6,0.1,1.2,0.4,1.6
				c0.3,0.4,0.6,0.8,1.1,1.1c0.4,0.3,1,0.5,1.6,0.7c0.6,0.2,1.3,0.3,2,0.5c0.6,0.1,1.1,0.2,1.5,0.3c0.4,0.1,0.8,0.3,1.1,0.4
				c0.3,0.1,0.4,0.3,0.6,0.5c0.1,0.1,0.2,0.3,0.2,0.6c0,0.3-0.1,0.5-0.2,0.7c-0.2,0.2-0.4,0.4-0.7,0.6c-0.3,0.2-0.7,0.3-1.1,0.4
				c-0.8,0.2-1.7,0.2-2.5,0c-0.4-0.1-0.8-0.2-1.1-0.4c-0.3-0.2-0.5-0.3-0.7-0.6c-0.1-0.2-0.2-0.4-0.2-0.7c0-0.4-0.3-0.7-0.7-0.7h-1
				c-0.4,0-0.7,0.3-0.7,0.7c0,0.7,0.2,1.3,0.5,1.8c0.3,0.5,0.8,1,1.3,1.3c0.5,0.3,1.1,0.6,1.8,0.8c0.7,0.2,1.3,0.3,2.1,0.3
				c0.7,0,1.4-0.1,2.1-0.3c0.7-0.2,1.3-0.4,1.8-0.8c0.5-0.3,1-0.8,1.3-1.3c0.3-0.5,0.5-1.1,0.5-1.8c0-0.7-0.2-1.2-0.5-1.7
				C159.2,162.3,158.8,161.9,158.2,161.6z"/>
			<path class="st1" d="M170.1,161.6c-0.5-0.3-1.1-0.5-1.7-0.7c-0.6-0.2-1.3-0.3-2.1-0.5c-0.5-0.1-1-0.2-1.4-0.3
				c-0.4-0.1-0.7-0.2-1-0.4c-0.2-0.1-0.4-0.2-0.5-0.4c-0.1-0.1-0.1-0.3-0.1-0.5c0-0.2,0.1-0.4,0.2-0.6c0.2-0.2,0.4-0.4,0.6-0.5
				c0.3-0.2,0.6-0.3,1-0.4c0.8-0.2,1.5-0.2,2.3,0c0.4,0.1,0.7,0.2,1,0.4c0.3,0.1,0.5,0.3,0.6,0.5c0.1,0.2,0.2,0.3,0.2,0.6
				c0,0.4,0.3,0.7,0.7,0.7h1c0.4,0,0.7-0.3,0.7-0.7c0-0.6-0.2-1.2-0.5-1.7c-0.3-0.5-0.7-0.9-1.2-1.2c-0.5-0.3-1-0.6-1.7-0.7
				c-1.2-0.3-2.6-0.3-3.8,0c-0.6,0.2-1.2,0.4-1.7,0.7c-0.5,0.3-0.9,0.7-1.2,1.2c-0.3,0.5-0.5,1.1-0.5,1.7c0,0.6,0.1,1.2,0.4,1.6
				c0.3,0.4,0.6,0.8,1.1,1.1c0.4,0.3,1,0.5,1.6,0.7c0.6,0.2,1.3,0.3,2,0.5c0.6,0.1,1.1,0.2,1.5,0.3c0.4,0.1,0.8,0.3,1.1,0.4
				c0.3,0.1,0.4,0.3,0.6,0.5c0.1,0.1,0.2,0.3,0.2,0.6c0,0.3-0.1,0.5-0.2,0.7c-0.2,0.2-0.4,0.4-0.7,0.6c-0.3,0.2-0.7,0.3-1.1,0.4
				c-0.8,0.2-1.7,0.2-2.5,0c-0.4-0.1-0.8-0.2-1.1-0.4c-0.3-0.2-0.5-0.3-0.7-0.6c-0.1-0.2-0.2-0.4-0.2-0.7c0-0.4-0.3-0.7-0.7-0.7h-1
				c-0.4,0-0.7,0.3-0.7,0.7c0,0.7,0.2,1.3,0.5,1.8c0.3,0.5,0.8,1,1.3,1.3c0.5,0.3,1.1,0.6,1.8,0.8c0.7,0.2,1.3,0.3,2.1,0.3
				c0.7,0,1.4-0.1,2.1-0.3c0.7-0.2,1.3-0.4,1.8-0.8c0.5-0.3,1-0.8,1.3-1.3c0.3-0.5,0.5-1.1,0.5-1.8c0-0.7-0.2-1.2-0.5-1.7
				C171,162.3,170.6,161.9,170.1,161.6z"/>
			<path class="st1" d="M192.9,150.1h-14.6c-0.4,0-0.7,0.3-0.7,0.7v1c0,0.4,0.3,0.7,0.7,0.7h6.1v15.3c0,0.4,0.3,0.7,0.7,0.7h1
				c0.4,0,0.7-0.3,0.7-0.7v-15.3h6.1c0.4,0,0.7-0.3,0.7-0.7v-1C193.6,150.4,193.3,150.1,192.9,150.1z"/>
			<path class="st1" d="M195.5,158.4c0,0,0-0.1,0-0.1c0,0,0,0,0,0V158.4z"/>
			<path class="st1" d="M203.6,156.4c-0.5-0.5-1.1-0.9-1.8-1.2c-1.1-0.4-2.3-0.6-3.5-0.2c-0.4,0.1-0.9,0.3-1.2,0.5
				c-0.2,0.1-0.4,0.2-0.6,0.4v-6.1c0-0.4-0.3-0.7-0.7-0.7h-1c-0.4,0-0.7,0.3-0.7,0.7v17.9c0,0.4,0.3,0.7,0.7,0.7h1
				c0.4,0,0.7-0.3,0.7-0.7v-7.4c0-0.4,0.1-0.8,0.2-1.2c0.2-0.4,0.4-0.7,0.7-1c0.3-0.3,0.6-0.5,1-0.7c0.8-0.3,1.7-0.3,2.4,0
				c0.4,0.2,0.7,0.4,1,0.7c0.3,0.3,0.5,0.6,0.7,1c0.2,0.4,0.2,0.8,0.2,1.2v7.4c0,0.4,0.3,0.7,0.7,0.7h1c0.4,0,0.7-0.3,0.7-0.7v-7.4
				c0-0.7-0.1-1.5-0.4-2.1C204.5,157.5,204.1,156.9,203.6,156.4z M195.5,158.4v-0.1c0,0,0,0,0,0
				C195.6,158.3,195.6,158.4,195.5,158.4z"/>
			<path class="st1" d="M217.3,156.9c-0.5-0.6-1.2-1.1-2-1.5c-1.5-0.7-3.5-0.7-5.1,0c-0.8,0.4-1.4,0.9-2,1.5c-0.5,0.6-1,1.4-1.2,2.2
				c-0.3,0.8-0.4,1.7-0.4,2.7c0,0.9,0.1,1.8,0.4,2.6c0.3,0.8,0.7,1.6,1.2,2.2c0.5,0.6,1.2,1.1,2,1.5c0.8,0.4,1.6,0.6,2.5,0.6
				c1.2,0,2.2-0.2,3.1-0.7c0.8-0.5,1.6-1.1,2.2-1.9c0.2-0.3,0.2-0.7-0.1-0.9l-0.8-0.6c-0.1-0.1-0.3-0.2-0.5-0.2
				c-0.2,0-0.4,0.1-0.5,0.3c-0.4,0.5-0.9,1-1.4,1.3c-0.8,0.5-2.4,0.6-3.4,0.2c-0.4-0.2-0.8-0.5-1.2-0.9c-0.3-0.4-0.6-0.8-0.8-1.3
				c-0.1-0.3-0.2-0.6-0.3-0.9h9.2c0.4,0,0.7-0.3,0.7-0.7v-0.5c0-0.9-0.1-1.8-0.4-2.6C218.2,158.2,217.8,157.5,217.3,156.9z
				 M209.1,160.6c0.1-0.3,0.2-0.6,0.3-0.9c0.2-0.5,0.5-0.9,0.8-1.3c0.3-0.4,0.7-0.6,1.2-0.9c0.9-0.4,2.1-0.4,3,0
				c0.4,0.2,0.8,0.5,1.2,0.9c0.3,0.4,0.6,0.8,0.8,1.3c0.1,0.3,0.2,0.6,0.3,0.9H209.1z"/>
			<path class="st1" d="M221.7,158.6c0,0,0-0.1,0.1-0.1c0,0,0,0-0.1,0V158.6z"/>
			<path class="st1" d="M230.3,158.9C230.3,158.9,230.3,158.9,230.3,158.9C230.3,158.9,230.3,158.9,230.3,158.9
				C230.3,158.9,230.3,158.9,230.3,158.9z"/>
			<path class="st1" d="M238.5,156.4c-0.5-0.5-1-0.8-1.7-1.1c-1.6-0.7-3.6-0.5-5.1,0.4c-0.6,0.3-1,0.8-1.4,1.2
				c-0.4-0.5-0.8-0.9-1.3-1.2c-1.7-1.1-4-1.1-5.7-0.1c-0.2,0.1-0.4,0.3-0.6,0.4v-0.2c0-0.4-0.3-0.7-0.7-0.7h-1
				c-0.4,0-0.7,0.3-0.7,0.7v11.9c0,0.4,0.3,0.7,0.7,0.7h1c0.4,0,0.7-0.3,0.7-0.7v-7.2c0-0.5,0.1-0.9,0.3-1.3
				c0.2-0.4,0.4-0.8,0.7-1.1c0.3-0.3,0.7-0.5,1.1-0.7c0.8-0.3,1.7-0.3,2.5,0c0.4,0.1,0.7,0.3,0.9,0.6c0.3,0.3,0.5,0.6,0.6,0.9
				c0.1,0.3,0.2,0.7,0.2,1.1v7.7c0,0.4,0.3,0.7,0.7,0.7h1c0.4,0,0.7-0.3,0.7-0.7v-7.2c0-0.5,0.1-0.9,0.3-1.3
				c0.2-0.4,0.4-0.8,0.7-1.1c0.3-0.3,0.7-0.5,1.1-0.7c0.8-0.3,1.7-0.3,2.5,0c0.4,0.1,0.7,0.3,0.9,0.6c0.3,0.3,0.5,0.6,0.6,0.9
				c0.1,0.3,0.2,0.7,0.2,1.1v7.7c0,0.4,0.3,0.7,0.7,0.7h1c0.4,0,0.7-0.3,0.7-0.7V160c0-0.7-0.1-1.4-0.4-2
				C239.4,157.4,239,156.8,238.5,156.4z M230.3,158.9C230.3,158.9,230.3,158.9,230.3,158.9C230.3,158.9,230.3,158.9,230.3,158.9
				C230.3,158.9,230.3,158.9,230.3,158.9z M221.7,158.6v-0.2c0,0,0,0,0.1,0C221.8,158.5,221.7,158.6,221.7,158.6z"/>
			<path class="st1" d="M253.4,159.1c-0.3-0.8-0.7-1.6-1.2-2.2c-0.5-0.6-1.2-1.1-2-1.5c-1.5-0.7-3.5-0.7-5.1,0
				c-0.8,0.4-1.4,0.9-2,1.5c-0.5,0.6-1,1.4-1.2,2.2c-0.3,0.8-0.4,1.7-0.4,2.7c0,0.9,0.1,1.8,0.4,2.6c0.3,0.8,0.7,1.6,1.2,2.2
				c0.5,0.6,1.2,1.1,2,1.5c0.8,0.4,1.6,0.6,2.5,0.6c1.2,0,2.2-0.2,3.1-0.7c0.8-0.5,1.6-1.1,2.2-1.9c0.2-0.3,0.2-0.7-0.1-0.9
				l-0.8-0.6c-0.1-0.1-0.3-0.2-0.5-0.2c-0.2,0-0.4,0.1-0.5,0.3c-0.4,0.5-0.9,1-1.4,1.3c-0.8,0.5-2.4,0.6-3.4,0.2
				c-0.4-0.2-0.8-0.5-1.2-0.9c-0.3-0.4-0.6-0.8-0.8-1.3c-0.1-0.3-0.2-0.6-0.3-0.9h9.2c0.4,0,0.7-0.3,0.7-0.7v-0.5
				C253.8,160.8,253.7,159.9,253.4,159.1z M244,160.6c0.1-0.3,0.2-0.6,0.3-0.9c0.2-0.5,0.5-0.9,0.8-1.3c0.3-0.4,0.7-0.6,1.2-0.9
				c0.9-0.4,2.1-0.4,3,0c0.4,0.2,0.8,0.5,1.2,0.9c0.3,0.4,0.6,0.8,0.8,1.3c0.1,0.3,0.2,0.6,0.3,0.9H244z"/>
		</g>
	</g>
</g>
</svg>
